<svg width="24" height="25" viewBox="0 0 24 25" fill="none" xmlns="http://www.w3.org/2000/svg">
<path d="M11.999 0C5.38283 0 -0.000976562 5.3838 -0.000976562 12C-0.000976562 18.6162 5.38283 24.0028 11.999 24.0028C18.6152 24.0028 23.999 18.619 23.999 12.0028C23.999 5.38657 18.6152 0 11.999 0ZM17.1696 9.71244L11.1682 16.1736C10.8968 16.4671 10.5257 16.6167 10.1518 16.6167C9.83055 16.6167 9.51207 16.5059 9.24897 16.2843L6.01702 13.5149C5.43544 13.0164 5.36898 12.144 5.86748 11.5624C6.36598 10.9808 7.23835 10.9116 7.81993 11.4129L10.041 13.3155L15.1368 7.82922C15.6575 7.26979 16.5326 7.23656 17.0948 7.75722C17.657 8.27787 17.6875 9.15301 17.1696 9.71244Z" fill="#4893AA"/>
</svg>
