<svg width="18" height="19" viewBox="0 0 18 19" fill="none" xmlns="http://www.w3.org/2000/svg">
<g clip-path="url(#clip0_165_450)">
<path d="M13.6234 0.294761L11.2249 0.291016C8.5302 0.291016 6.78878 2.02973 6.78878 4.72084V6.76329H4.37715C4.16875 6.76329 4 6.9277 4 7.1305V10.0898C4 10.2926 4.16895 10.4568 4.37715 10.4568H6.78878V17.924C6.78878 18.1268 6.95753 18.291 7.16593 18.291H10.3124C10.5208 18.291 10.6896 18.1266 10.6896 17.924V10.4568H13.5093C13.7177 10.4568 13.8865 10.2926 13.8865 10.0898L13.8876 7.1305C13.8876 7.03313 13.8478 6.93987 13.7772 6.87096C13.7066 6.80205 13.6103 6.76329 13.5103 6.76329H10.6896V5.03188C10.6896 4.19969 10.8933 3.77724 12.0073 3.77724L13.623 3.77667C13.8312 3.77667 14 3.61226 14 3.40964V0.661791C14 0.459362 13.8314 0.295135 13.6234 0.294761Z" fill="white"/>
</g>
<defs>
<clipPath id="clip0_165_450">
<rect width="18" height="18" fill="white" transform="translate(0 0.291016)"/>
</clipPath>
</defs>
</svg>
