<svg width="97" height="97" viewBox="0 0 97 97" fill="none" xmlns="http://www.w3.org/2000/svg">
<g filter="url(#filter0_d_4_5099)">
<path d="M66 72.6207H31C25.2005 72.6207 20.5 67.9202 20.5 62.1207V27.1207C20.5 21.3212 25.2005 16.6207 31 16.6207H66C71.7995 16.6207 76.5 21.3212 76.5 27.1207V62.1207C76.5 67.9202 71.7995 72.6207 66 72.6207Z" fill="url(#paint0_linear_4_5099)"/>
</g>
<g filter="url(#filter1_dii_4_5099)">
<path d="M62 67.6207H27C21.2005 67.6207 16.5 62.9202 16.5 57.1207V22.1207C16.5 16.3212 21.2005 11.6207 27 11.6207H62C67.7995 11.6207 72.5 16.3212 72.5 22.1207V57.1207C72.5 62.9202 67.7995 67.6207 62 67.6207Z" fill="white"/>
</g>
<path d="M34.4083 49.496C34.0233 49.496 33.6453 49.3052 33.423 48.9553C33.0765 48.411 33.2375 47.69 33.78 47.3435C34.7023 46.7555 35.712 46.2498 36.783 45.8385C38.8533 45.044 41.0565 44.6258 43.328 44.5995C45.5943 44.5715 47.8133 44.9373 49.9028 45.6828C50.9843 46.0695 52.0063 46.5525 52.9408 47.116C53.492 47.4485 53.6688 48.166 53.3345 48.7173C53.002 49.2685 52.2845 49.4453 51.7333 49.111C50.9335 48.628 50.0533 48.2133 49.1188 47.879C47.2918 47.2263 45.3388 46.8973 43.3578 46.9305C41.3628 46.955 39.4325 47.319 37.6213 48.0155C36.6973 48.3708 35.8275 48.8065 35.0348 49.3105C34.8405 49.4365 34.6235 49.496 34.4083 49.496Z" fill="#ADD5E0"/>
<path d="M45.363 37.0307C45.0707 37.0657 44.7907 37.0885 44.5002 37.1007C44.1275 37.1357 43.753 37.1585 43.3802 37.1585H43.158C42.8202 37.1585 42.493 37.1462 42.1657 37.1357C40.8007 37.0657 39.4707 36.8435 38.188 36.4935C37.7207 36.3762 37.2657 36.2362 36.8107 36.0735C36.5185 35.9685 36.2385 35.8635 35.9585 35.7462C35.4685 35.5362 34.9907 35.314 34.5357 35.069C34.2785 34.929 34.023 34.789 33.778 34.6367C33.218 34.299 33.043 33.5867 33.3807 33.0267C33.708 32.479 34.4307 32.304 34.9785 32.6417C35.3285 32.8517 35.6907 33.039 36.0635 33.2245C36.2735 33.3295 36.4957 33.4345 36.7162 33.5272C36.9962 33.6445 37.2885 33.76 37.5912 33.865C38.034 34.0172 38.4785 34.1572 38.9212 34.285C39.9835 34.5527 41.0685 34.7277 42.164 34.7872C42.5612 34.8222 42.9567 34.8222 43.354 34.8222C43.704 34.81 44.0417 34.7995 44.3812 34.775C44.4162 34.88 44.4512 34.9972 44.4985 35.1022C44.733 35.7707 45.0252 36.413 45.363 37.0307Z" fill="#ADD5E0"/>
<path d="M48.9577 41.7558C49.0154 41.803 49.0627 41.8608 49.1099 41.908L48.9577 41.9203L44.5004 41.943L42.1677 41.9658L37.7227 41.9885L35.3777 42.0113L32.9154 42.0235L31.8182 42.0358C31.8182 42.0358 31.8182 42.0358 31.8059 42.0358C31.1759 42.0358 30.6509 41.523 30.6387 40.8808C30.6387 40.2385 31.1514 39.7135 31.7937 39.703L32.8909 39.6908L35.3759 39.668L37.7209 39.633L42.1659 39.5858L43.4609 39.5735H44.5004L47.0327 39.5613C47.6977 40.4258 48.3854 41.173 48.9577 41.7558Z" fill="#ADD5E0"/>
<path d="M56.002 40.9036C55.932 41.3586 55.582 41.7313 55.127 41.8363C55.3965 41.5686 55.6992 41.2536 56.002 40.9036Z" fill="black"/>
<path d="M44.5005 35.1057V52.4535C44.5005 53.0957 43.9755 53.6207 43.3333 53.6207C42.691 53.6207 42.166 53.0957 42.166 52.4535V29.1207C42.166 28.4785 42.691 27.9535 43.3333 27.9535C43.9405 27.9535 44.4305 28.4207 44.4883 29.0035C44.3133 29.4235 44.1733 29.8662 44.0805 30.3212C44.0805 30.344 44.0805 30.3685 44.0683 30.3912C43.9755 30.904 43.916 31.429 43.916 31.9662C43.916 32.9235 44.091 33.8685 44.3833 34.7785C44.4183 34.8835 44.4533 35.0007 44.5005 35.1057Z" fill="#ADD5E0"/>
<path d="M56.0028 40.9035C55.7 41.2535 55.3955 41.5685 55.1278 41.8362C54.4505 42.5135 53.9255 42.9562 53.7627 43.0962C53.6927 43.154 53.6228 43.2012 53.5405 43.2485C53.2483 44.4735 52.7355 45.6162 52.0477 46.6312C51.605 47.2962 51.08 47.9035 50.4955 48.4512C50.1105 48.8135 49.6905 49.1512 49.2582 49.4435C47.8722 50.4007 46.25 51.0307 44.5 51.218C44.2078 51.253 43.9172 51.2757 43.625 51.2757C43.52 51.288 43.4272 51.288 43.3328 51.288C43.2383 51.288 43.1455 51.288 43.0405 51.2757C42.7483 51.2757 42.4578 51.253 42.1655 51.218C40.4155 51.0307 38.7933 50.4007 37.4055 49.4452C37.0328 49.188 36.6583 48.908 36.3205 48.593C35.7255 48.0557 35.1882 47.4607 34.7332 46.7957C33.7532 45.408 33.111 43.7857 32.9132 42.0235C32.8555 41.6157 32.831 41.2062 32.831 40.7862C32.831 40.4135 32.8537 40.0512 32.8887 39.689C33.0637 37.9967 33.6465 36.4217 34.5338 35.069C34.966 34.3917 35.4788 33.774 36.0615 33.2262C36.4815 32.8185 36.9242 32.4562 37.4037 32.129C38.7915 31.1717 40.4137 30.5417 42.1637 30.3562C42.456 30.3212 42.7465 30.2985 43.0387 30.2985C43.1438 30.2862 43.2365 30.2862 43.331 30.2862C43.4255 30.2862 43.5182 30.2862 43.6232 30.2985C43.7755 30.2985 43.926 30.2985 44.0782 30.3212C44.171 29.8662 44.311 29.4235 44.486 29.0035C44.591 28.7112 44.7188 28.4435 44.8587 28.1757C44.8815 28.1407 44.906 28.0935 44.9165 28.0585C44.535 28.0007 44.15 27.978 43.7528 27.9657C43.6128 27.9535 43.4728 27.9535 43.3328 27.9535C43.1927 27.9535 43.0528 27.9535 42.9128 27.9657C36.03 28.188 30.5 33.8457 30.5 40.788C30.5 43.8907 31.5973 46.7257 33.4278 48.9552L33.6378 49.2002C35.9128 51.813 39.215 53.493 42.9128 53.6102C43.0528 53.6207 43.1927 53.6207 43.3328 53.6207C43.4728 53.6207 43.6128 53.6207 43.7528 53.6085C50.6355 53.3862 56.1655 47.7285 56.1655 40.7862V40.7285C56.12 40.788 56.0623 40.8457 56.0028 40.9035Z" fill="#ADD5E0"/>
<path d="M50.4023 43.098C50.2395 42.958 49.76 42.5502 49.1195 41.908H49.1073C49.06 41.8607 49.0145 41.803 48.955 41.7557C48.9673 41.803 48.955 41.8607 48.955 41.9185C48.885 43.0857 48.71 44.2057 48.43 45.2312C48.2323 46.024 47.975 46.7712 47.6723 47.4485C46.8673 49.2457 45.7473 50.5512 44.4995 51.0535C44.2073 51.1707 43.9168 51.2407 43.6245 51.2757C43.5195 51.288 43.4268 51.288 43.3323 51.288C43.2378 51.288 43.145 51.288 43.04 51.2757C42.7478 51.2407 42.4573 51.1707 42.165 51.0535C40.94 50.5512 39.8428 49.2912 39.0378 47.5412C38.735 46.8762 38.4655 46.1412 38.2555 45.3485C37.9755 44.3107 37.7883 43.1662 37.7183 41.9885C37.6833 41.5912 37.671 41.1957 37.671 40.7862C37.671 40.4012 37.6833 40.0162 37.7183 39.6312C37.776 38.534 37.9405 37.4735 38.1855 36.4935C38.3833 35.7007 38.6283 34.9657 38.9205 34.2885C39.7378 32.4107 40.8805 31.0457 42.1633 30.5207C42.4555 30.4035 42.746 30.3335 43.0383 30.2985C43.1433 30.2862 43.236 30.2862 43.3305 30.2862C43.425 30.2862 43.5178 30.2862 43.6228 30.2985C43.775 30.3107 43.915 30.3457 44.0655 30.3912C44.0778 30.3685 44.0778 30.344 44.0778 30.3212C44.1705 29.8662 44.3105 29.4235 44.4855 29.0035C44.5905 28.7112 44.7183 28.4435 44.8583 28.1757C44.4995 28.0707 44.1268 28.0007 43.7523 27.9657C43.6123 27.9535 43.4723 27.9535 43.3323 27.9535C43.1923 27.9535 43.0523 27.9535 42.9123 27.9657C40.7073 28.1407 38.7473 29.7035 37.405 32.1307C37.1373 32.5735 36.915 33.0407 36.7173 33.5307C36.4145 34.2185 36.1573 34.9657 35.9595 35.748C35.6445 36.9607 35.4468 38.2802 35.3768 39.668C35.354 40.0407 35.3418 40.4152 35.3418 40.788C35.3418 41.1957 35.354 41.6052 35.3768 42.013C35.459 43.483 35.6918 44.8707 36.054 46.143C36.264 46.9252 36.5318 47.6602 36.8468 48.348C37.0095 48.733 37.1968 49.0952 37.4068 49.4452C38.749 51.8725 40.709 53.4352 42.914 53.6102C43.0523 53.6207 43.1923 53.6207 43.3323 53.6207C43.4723 53.6207 43.6123 53.6207 43.7523 53.6085C45.9573 53.4335 47.9173 51.8707 49.2595 49.4435C49.5045 49.0462 49.7145 48.6262 49.8895 48.1835C50.2045 47.4957 50.4618 46.7607 50.6595 45.9785C50.8818 45.1962 51.0445 44.3807 51.1373 43.5162C50.8695 43.4235 50.6245 43.2835 50.4023 43.098Z" fill="#ADD5E0"/>
<path d="M52.0833 25.6207C48.5448 25.6207 45.666 28.4662 45.666 31.9645C45.666 36.8225 51.2835 41.5527 51.5233 41.7522C51.6843 41.887 51.8838 41.9552 52.0833 41.9552C52.2828 41.9552 52.4805 41.8887 52.6433 41.7522C52.883 41.5527 58.5005 36.8225 58.5005 31.9645C58.5005 28.4662 55.6218 25.6207 52.0833 25.6207ZM51.938 31.7457H52.2303C53.436 31.7457 54.4178 32.7275 54.4178 33.9332C54.4178 34.8817 53.807 35.685 52.96 35.986V36.4112C52.96 36.8942 52.568 37.2862 52.085 37.2862C51.602 37.2862 51.21 36.8942 51.21 36.4112V36.1207H50.6255C50.1425 36.1207 49.7505 35.7287 49.7505 35.2457C49.7505 34.7627 50.1425 34.3707 50.6255 34.3707H52.2303C52.4718 34.3707 52.6678 34.1747 52.6678 33.9332C52.6678 33.6917 52.4718 33.4957 52.2303 33.4957H51.938C50.7323 33.4957 49.7505 32.514 49.7505 31.3082C49.7505 30.3597 50.3613 29.5565 51.2083 29.2555V28.8285C51.2083 28.3455 51.6003 27.9535 52.0833 27.9535C52.5663 27.9535 52.9583 28.3455 52.9583 28.8285V29.1207H53.541C54.024 29.1207 54.416 29.5127 54.416 29.9957C54.416 30.4787 54.024 30.8707 53.541 30.8707H51.938C51.6965 30.8707 51.5005 31.0667 51.5005 31.3082C51.5005 31.5497 51.6965 31.7457 51.938 31.7457Z" fill="#4893AA"/>
<defs>
<filter id="filter0_d_4_5099" x="0.5" y="0.620728" width="96" height="96" filterUnits="userSpaceOnUse" color-interpolation-filters="sRGB">
<feFlood flood-opacity="0" result="BackgroundImageFix"/>
<feColorMatrix in="SourceAlpha" type="matrix" values="0 0 0 0 0 0 0 0 0 0 0 0 0 0 0 0 0 0 127 0" result="hardAlpha"/>
<feOffset dy="4"/>
<feGaussianBlur stdDeviation="10"/>
<feComposite in2="hardAlpha" operator="out"/>
<feColorMatrix type="matrix" values="0 0 0 0 0 0 0 0 0 0 0 0 0 0 0 0 0 0 0.05 0"/>
<feBlend mode="normal" in2="BackgroundImageFix" result="effect1_dropShadow_4_5099"/>
<feBlend mode="normal" in="SourceGraphic" in2="effect1_dropShadow_4_5099" result="shape"/>
</filter>
<filter id="filter1_dii_4_5099" x="3.7" y="5.22073" width="81.6" height="81.6" filterUnits="userSpaceOnUse" color-interpolation-filters="sRGB">
<feFlood flood-opacity="0" result="BackgroundImageFix"/>
<feColorMatrix in="SourceAlpha" type="matrix" values="0 0 0 0 0 0 0 0 0 0 0 0 0 0 0 0 0 0 127 0" result="hardAlpha"/>
<feOffset dy="6.4"/>
<feGaussianBlur stdDeviation="6.4"/>
<feColorMatrix type="matrix" values="0 0 0 0 0.2 0 0 0 0 0.2 0 0 0 0 0.2 0 0 0 0.1 0"/>
<feBlend mode="normal" in2="BackgroundImageFix" result="effect1_dropShadow_4_5099"/>
<feBlend mode="normal" in="SourceGraphic" in2="effect1_dropShadow_4_5099" result="shape"/>
<feColorMatrix in="SourceAlpha" type="matrix" values="0 0 0 0 0 0 0 0 0 0 0 0 0 0 0 0 0 0 127 0" result="hardAlpha"/>
<feOffset dy="1.63556"/>
<feGaussianBlur stdDeviation="0.817778"/>
<feComposite in2="hardAlpha" operator="arithmetic" k2="-1" k3="1"/>
<feColorMatrix type="matrix" values="0 0 0 0 1 0 0 0 0 1 0 0 0 0 1 0 0 0 1 0"/>
<feBlend mode="normal" in2="shape" result="effect2_innerShadow_4_5099"/>
<feColorMatrix in="SourceAlpha" type="matrix" values="0 0 0 0 0 0 0 0 0 0 0 0 0 0 0 0 0 0 127 0" result="hardAlpha"/>
<feOffset dy="-1.63556"/>
<feGaussianBlur stdDeviation="0.817778"/>
<feComposite in2="hardAlpha" operator="arithmetic" k2="-1" k3="1"/>
<feColorMatrix type="matrix" values="0 0 0 0 0.948438 0 0 0 0 0.948438 0 0 0 0 0.948438 0 0 0 1 0"/>
<feBlend mode="normal" in2="effect2_innerShadow_4_5099" result="effect3_innerShadow_4_5099"/>
</filter>
<linearGradient id="paint0_linear_4_5099" x1="48.5" y1="16.6207" x2="48.5" y2="72.6207" gradientUnits="userSpaceOnUse">
<stop stop-color="#ADD5E0"/>
<stop offset="1" stop-color="#4893AA"/>
</linearGradient>
</defs>
</svg>
