<svg width="97" height="97" viewBox="0 0 97 97" fill="none" xmlns="http://www.w3.org/2000/svg">
<g filter="url(#filter0_d_4_5116)">
<path d="M66 72.6207H31C25.2005 72.6207 20.5 67.9202 20.5 62.1207V27.1207C20.5 21.3212 25.2005 16.6207 31 16.6207H66C71.7995 16.6207 76.5 21.3212 76.5 27.1207V62.1207C76.5 67.9202 71.7995 72.6207 66 72.6207Z" fill="url(#paint0_linear_4_5116)"/>
</g>
<g filter="url(#filter1_dii_4_5116)">
<path d="M62 67.6207H27C21.2005 67.6207 16.5 62.9202 16.5 57.1207V22.1207C16.5 16.3212 21.2005 11.6207 27 11.6207H62C67.7995 11.6207 72.5 16.3212 72.5 22.1207V57.1207C72.5 62.9202 67.7995 67.6207 62 67.6207Z" fill="white"/>
</g>
<path d="M44.5 29.6527C44.017 29.6527 43.625 29.2607 43.625 28.7777V26.4957C43.625 26.0127 44.017 25.6207 44.5 25.6207C44.983 25.6207 45.375 26.0127 45.375 26.4957V28.7777C45.375 29.2607 44.983 29.6527 44.5 29.6527Z" fill="#ADD5E0"/>
<path d="M52.1665 32.829C51.9425 32.829 51.7185 32.7433 51.547 32.5735C51.2057 32.2323 51.2057 31.6775 51.547 31.3363L53.1622 29.721C53.5035 29.3798 54.0582 29.3798 54.3995 29.721C54.7407 30.0623 54.7407 30.617 54.3995 30.9583L52.7842 32.5735C52.6145 32.7433 52.3905 32.829 52.1665 32.829Z" fill="#ADD5E0"/>
<path d="M57.6248 40.4957H55.3428C54.8598 40.4957 54.4678 40.1037 54.4678 39.6207C54.4678 39.1377 54.8598 38.7457 55.3428 38.7457H57.6248C58.1078 38.7457 58.4998 39.1377 58.4998 39.6207C58.4998 40.1037 58.1078 40.4957 57.6248 40.4957Z" fill="#ADD5E0"/>
<path d="M53.7807 49.7759C53.5567 49.7759 53.3327 49.6902 53.1612 49.5204L51.546 47.9052C51.2047 47.5639 51.2047 47.0092 51.546 46.6679C51.8872 46.3267 52.442 46.3267 52.7832 46.6679L54.3985 48.2832C54.7397 48.6244 54.7397 49.1792 54.3985 49.5204C54.2287 49.6919 54.0047 49.7759 53.7807 49.7759Z" fill="#ADD5E0"/>
<path d="M35.2202 49.7759C34.9962 49.7759 34.7722 49.6902 34.6007 49.5204C34.2594 49.1792 34.2594 48.6244 34.6007 48.2832L36.2159 46.6679C36.5572 46.3267 37.1119 46.3267 37.4532 46.6679C37.7944 47.0092 37.7944 47.5639 37.4532 47.9052L35.8379 49.5204C35.6664 49.6919 35.4442 49.7759 35.2202 49.7759Z" fill="#ADD5E0"/>
<path d="M33.657 40.4957H31.375C30.892 40.4957 30.5 40.1037 30.5 39.6207C30.5 39.1377 30.892 38.7457 31.375 38.7457H33.657C34.14 38.7457 34.532 39.1377 34.532 39.6207C34.532 40.1037 34.14 40.4957 33.657 40.4957Z" fill="#ADD5E0"/>
<path d="M36.8335 32.829C36.6095 32.829 36.3855 32.7433 36.214 32.5735L34.5987 30.9583C34.2575 30.617 34.2575 30.0623 34.5987 29.721C34.94 29.3798 35.4947 29.3798 35.836 29.721L37.4512 31.3363C37.7925 31.6775 37.7925 32.2323 37.4512 32.5735C37.2815 32.7433 37.0575 32.829 36.8335 32.829Z" fill="#ADD5E0"/>
<path d="M48 50.1207V51.5785C48 52.6985 47.0778 53.6207 45.9578 53.6207H43.0405C42.0623 53.6207 41 52.8735 41 51.2407V50.1207H48Z" fill="#4893AA"/>
<path d="M49.6455 33.2738C47.7328 31.7215 45.2128 31.116 42.7505 31.641C39.6583 32.2833 37.1505 34.8033 36.5083 37.8938C35.8555 41.0665 37.0455 44.2165 39.5883 46.1415C40.276 46.6543 40.7555 47.4488 40.9183 48.3693V48.3815C40.9428 48.371 40.9778 48.371 41.0005 48.371H48.0005C48.0233 48.371 48.0355 48.371 48.0583 48.3833V48.371C48.221 47.4838 48.746 46.6683 49.551 46.0383C51.5233 44.4755 52.666 42.141 52.666 39.621C52.6678 37.1483 51.5705 34.8383 49.6455 33.2738ZM44.063 39.3288H44.938C46.3048 39.3288 47.4178 40.44 47.4178 41.8085C47.4178 43.0265 46.534 44.0363 45.3755 44.2428V45.746C45.3755 46.229 44.9835 46.621 44.5005 46.621C44.0175 46.621 43.6255 46.229 43.6255 45.746V44.2883H42.4583C41.9753 44.2883 41.5833 43.8963 41.5833 43.4133C41.5833 42.9303 41.9753 42.5383 42.4583 42.5383H44.938C45.3405 42.5383 45.6678 42.211 45.6678 41.8085C45.6678 41.406 45.3405 41.0788 44.938 41.0788H44.063C42.6963 41.0788 41.5833 39.9675 41.5833 38.599C41.5833 37.381 42.467 36.3713 43.6255 36.1648V34.6615C43.6255 34.1785 44.0175 33.7865 44.5005 33.7865C44.9835 33.7865 45.3755 34.1785 45.3755 34.6615V36.121H46.5428C47.0258 36.121 47.4178 36.513 47.4178 36.996C47.4178 37.479 47.0258 37.871 46.5428 37.871H44.063C43.6605 37.871 43.3333 38.1983 43.3333 38.6008C43.3333 39.0015 43.6605 39.3288 44.063 39.3288Z" fill="#4893AA"/>
<path d="M40.918 48.3707H41.0002C40.9775 48.3707 40.9425 48.3707 40.918 48.383V48.3707Z" fill="black"/>
<path d="M48.0578 48.3707V48.383C48.035 48.3707 48.0227 48.3707 48 48.3707H48.0578Z" fill="black"/>
<defs>
<filter id="filter0_d_4_5116" x="0.5" y="0.620728" width="96" height="96" filterUnits="userSpaceOnUse" color-interpolation-filters="sRGB">
<feFlood flood-opacity="0" result="BackgroundImageFix"/>
<feColorMatrix in="SourceAlpha" type="matrix" values="0 0 0 0 0 0 0 0 0 0 0 0 0 0 0 0 0 0 127 0" result="hardAlpha"/>
<feOffset dy="4"/>
<feGaussianBlur stdDeviation="10"/>
<feComposite in2="hardAlpha" operator="out"/>
<feColorMatrix type="matrix" values="0 0 0 0 0 0 0 0 0 0 0 0 0 0 0 0 0 0 0.05 0"/>
<feBlend mode="normal" in2="BackgroundImageFix" result="effect1_dropShadow_4_5116"/>
<feBlend mode="normal" in="SourceGraphic" in2="effect1_dropShadow_4_5116" result="shape"/>
</filter>
<filter id="filter1_dii_4_5116" x="3.7" y="5.22073" width="81.6" height="81.6" filterUnits="userSpaceOnUse" color-interpolation-filters="sRGB">
<feFlood flood-opacity="0" result="BackgroundImageFix"/>
<feColorMatrix in="SourceAlpha" type="matrix" values="0 0 0 0 0 0 0 0 0 0 0 0 0 0 0 0 0 0 127 0" result="hardAlpha"/>
<feOffset dy="6.4"/>
<feGaussianBlur stdDeviation="6.4"/>
<feColorMatrix type="matrix" values="0 0 0 0 0.2 0 0 0 0 0.2 0 0 0 0 0.2 0 0 0 0.1 0"/>
<feBlend mode="normal" in2="BackgroundImageFix" result="effect1_dropShadow_4_5116"/>
<feBlend mode="normal" in="SourceGraphic" in2="effect1_dropShadow_4_5116" result="shape"/>
<feColorMatrix in="SourceAlpha" type="matrix" values="0 0 0 0 0 0 0 0 0 0 0 0 0 0 0 0 0 0 127 0" result="hardAlpha"/>
<feOffset dy="1.63556"/>
<feGaussianBlur stdDeviation="0.817778"/>
<feComposite in2="hardAlpha" operator="arithmetic" k2="-1" k3="1"/>
<feColorMatrix type="matrix" values="0 0 0 0 1 0 0 0 0 1 0 0 0 0 1 0 0 0 1 0"/>
<feBlend mode="normal" in2="shape" result="effect2_innerShadow_4_5116"/>
<feColorMatrix in="SourceAlpha" type="matrix" values="0 0 0 0 0 0 0 0 0 0 0 0 0 0 0 0 0 0 127 0" result="hardAlpha"/>
<feOffset dy="-1.63556"/>
<feGaussianBlur stdDeviation="0.817778"/>
<feComposite in2="hardAlpha" operator="arithmetic" k2="-1" k3="1"/>
<feColorMatrix type="matrix" values="0 0 0 0 0.948438 0 0 0 0 0.948438 0 0 0 0 0.948438 0 0 0 1 0"/>
<feBlend mode="normal" in2="effect2_innerShadow_4_5116" result="effect3_innerShadow_4_5116"/>
</filter>
<linearGradient id="paint0_linear_4_5116" x1="48.5" y1="16.6207" x2="48.5" y2="72.6207" gradientUnits="userSpaceOnUse">
<stop stop-color="#ADD5E0"/>
<stop offset="1" stop-color="#4893AA"/>
</linearGradient>
</defs>
</svg>
