<svg width="96" height="97" viewBox="0 0 96 97" fill="none" xmlns="http://www.w3.org/2000/svg">
<g filter="url(#filter0_d_4_5078)">
<path d="M65.5 72.6207H30.5C24.7005 72.6207 20 67.9202 20 62.1207V27.1207C20 21.3212 24.7005 16.6207 30.5 16.6207H65.5C71.2995 16.6207 76 21.3212 76 27.1207V62.1207C76 67.9202 71.2995 72.6207 65.5 72.6207Z" fill="url(#paint0_linear_4_5078)"/>
</g>
<g filter="url(#filter1_dii_4_5078)">
<path d="M61.5 68.6207H26.5C20.7005 68.6207 16 63.9202 16 58.1207V23.1207C16 17.3212 20.7005 12.6207 26.5 12.6207H61.5C67.2995 12.6207 72 17.3212 72 23.1207V58.1207C72 63.9202 67.2995 68.6207 61.5 68.6207Z" fill="white"/>
</g>
<path d="M49.2504 38.9882C49.0072 38.9882 48.7674 38.8884 48.5942 38.6924C48.2739 38.3302 48.3089 37.7772 48.6712 37.4569L53.9964 32.7617C54.3587 32.4432 54.9117 32.4764 55.2319 32.8387C55.5522 33.2009 55.5172 33.7539 55.1549 34.0742L49.8297 38.7694C49.6634 38.9164 49.4569 38.9882 49.2504 38.9882Z" fill="#ADD5E0"/>
<path d="M44 36.2457C43.517 36.2457 43.125 35.8537 43.125 35.3707V30.7035C43.125 30.2205 43.517 29.8285 44 29.8285C44.483 29.8285 44.875 30.2205 44.875 30.7035V35.3707C44.875 35.8537 44.483 36.2457 44 36.2457Z" fill="#ADD5E0"/>
<path d="M53.3321 51.8679C53.1273 51.8679 52.9208 51.7962 52.7546 51.6492L47.7023 47.2042C47.3383 46.8857 47.3033 46.3327 47.6218 45.9687C47.9421 45.6047 48.4951 45.5714 48.8573 45.8899L53.9096 50.3349C54.2736 50.6534 54.3086 51.2064 53.9901 51.5704C53.8168 51.7664 53.5753 51.8679 53.3321 51.8679Z" fill="#ADD5E0"/>
<path d="M33.6297 51.9957C33.3899 51.9957 33.1519 51.8977 32.9787 51.707C32.6549 51.3482 32.6847 50.7952 33.0434 50.4715L38.6539 45.4192C39.0127 45.0955 39.5657 45.1235 39.8894 45.484C40.2132 45.8427 40.1834 46.3957 39.8247 46.7195L34.2142 51.7717C34.0462 51.9222 33.8379 51.9957 33.6297 51.9957Z" fill="#ADD5E0"/>
<path d="M38.5033 39.373C38.351 39.373 38.1953 39.3328 38.0535 39.247L33.129 36.286C32.716 36.0375 32.5813 35.5003 32.8298 35.0855C33.0765 34.6708 33.612 34.536 34.0303 34.7863L38.9548 37.7473C39.3678 37.9958 39.5025 38.533 39.254 38.9478C39.0913 39.2225 38.8008 39.373 38.5033 39.373Z" fill="#ADD5E0"/>
<path d="M44 34.788C40.1395 34.788 37 37.9275 37 41.788C37 45.6485 40.1395 48.788 44 48.788C47.8605 48.788 51 45.6485 51 41.788C51 37.9275 47.8605 34.788 44 34.788ZM43.8547 40.913H44.147C45.3527 40.913 46.3345 41.8947 46.3345 43.1005C46.3345 44.049 45.7237 44.8522 44.8767 45.1532V45.5785C44.8767 46.0615 44.4847 46.4535 44.0017 46.4535C43.5187 46.4535 43.1268 46.0615 43.1268 45.5785V45.2862H42.544C42.061 45.2862 41.669 44.8942 41.669 44.4112C41.669 43.9282 42.061 43.5362 42.544 43.5362H44.1487C44.3902 43.5362 44.5862 43.3402 44.5862 43.0987C44.5862 42.8572 44.3902 42.6612 44.1487 42.6612H43.8565C42.6508 42.6612 41.669 41.6795 41.669 40.4737C41.669 39.5252 42.2798 38.722 43.1268 38.421V37.9957C43.1268 37.5127 43.5187 37.1207 44.0017 37.1207C44.4847 37.1207 44.8767 37.5127 44.8767 37.9957V38.288H45.4595C45.9425 38.288 46.3345 38.68 46.3345 39.163C46.3345 39.646 45.9425 40.038 45.4595 40.038H43.8547C43.6132 40.038 43.4172 40.234 43.4172 40.4755C43.4172 40.717 43.6132 40.913 43.8547 40.913Z" fill="#4893AA"/>
<path d="M43.9997 31.288C42.7135 31.288 41.667 30.2415 41.667 28.9552C41.667 27.6672 42.7135 26.6207 43.9997 26.6207C45.286 26.6207 46.3325 27.6672 46.3325 28.9535C46.3325 30.2415 45.286 31.288 43.9997 31.288Z" fill="#ADD5E0"/>
<path d="M55.6667 34.788C54.3805 34.788 53.334 33.7415 53.334 32.4552C53.334 31.169 54.3805 30.1207 55.6667 30.1207C56.953 30.1207 57.9995 31.1672 57.9995 32.4535C57.9995 33.7397 56.953 34.788 55.6667 34.788Z" fill="#ADD5E0"/>
<path d="M54.4997 54.6207C53.2135 54.6207 52.167 53.5742 52.167 52.288C52.167 51.0017 53.2135 49.9552 54.4997 49.9552C55.786 49.9552 56.8325 51.0017 56.8325 52.288C56.8325 53.5742 55.786 54.6207 54.4997 54.6207Z" fill="#ADD5E0"/>
<path d="M32.3328 37.1207C31.0465 37.1207 30 36.0742 30 34.788C30 33.5017 31.0465 32.4552 32.3328 32.4552C33.619 32.4552 34.6655 33.5017 34.6655 34.788C34.6655 36.0742 33.619 37.1207 32.3328 37.1207Z" fill="#ADD5E0"/>
<path d="M32.3328 54.6207C31.0465 54.6207 30 53.5742 30 52.288C30 51.0017 31.0465 49.9552 32.3328 49.9552C33.619 49.9552 34.6655 51.0017 34.6655 52.288C34.6655 53.5742 33.619 54.6207 32.3328 54.6207Z" fill="#ADD5E0"/>
<defs>
<filter id="filter0_d_4_5078" x="0" y="0.620728" width="96" height="96" filterUnits="userSpaceOnUse" color-interpolation-filters="sRGB">
<feFlood flood-opacity="0" result="BackgroundImageFix"/>
<feColorMatrix in="SourceAlpha" type="matrix" values="0 0 0 0 0 0 0 0 0 0 0 0 0 0 0 0 0 0 127 0" result="hardAlpha"/>
<feOffset dy="4"/>
<feGaussianBlur stdDeviation="10"/>
<feComposite in2="hardAlpha" operator="out"/>
<feColorMatrix type="matrix" values="0 0 0 0 0 0 0 0 0 0 0 0 0 0 0 0 0 0 0.05 0"/>
<feBlend mode="normal" in2="BackgroundImageFix" result="effect1_dropShadow_4_5078"/>
<feBlend mode="normal" in="SourceGraphic" in2="effect1_dropShadow_4_5078" result="shape"/>
</filter>
<filter id="filter1_dii_4_5078" x="3.2" y="6.22073" width="81.6" height="81.6" filterUnits="userSpaceOnUse" color-interpolation-filters="sRGB">
<feFlood flood-opacity="0" result="BackgroundImageFix"/>
<feColorMatrix in="SourceAlpha" type="matrix" values="0 0 0 0 0 0 0 0 0 0 0 0 0 0 0 0 0 0 127 0" result="hardAlpha"/>
<feOffset dy="6.4"/>
<feGaussianBlur stdDeviation="6.4"/>
<feColorMatrix type="matrix" values="0 0 0 0 0.2 0 0 0 0 0.2 0 0 0 0 0.2 0 0 0 0.1 0"/>
<feBlend mode="normal" in2="BackgroundImageFix" result="effect1_dropShadow_4_5078"/>
<feBlend mode="normal" in="SourceGraphic" in2="effect1_dropShadow_4_5078" result="shape"/>
<feColorMatrix in="SourceAlpha" type="matrix" values="0 0 0 0 0 0 0 0 0 0 0 0 0 0 0 0 0 0 127 0" result="hardAlpha"/>
<feOffset dy="1.63556"/>
<feGaussianBlur stdDeviation="0.817778"/>
<feComposite in2="hardAlpha" operator="arithmetic" k2="-1" k3="1"/>
<feColorMatrix type="matrix" values="0 0 0 0 1 0 0 0 0 1 0 0 0 0 1 0 0 0 1 0"/>
<feBlend mode="normal" in2="shape" result="effect2_innerShadow_4_5078"/>
<feColorMatrix in="SourceAlpha" type="matrix" values="0 0 0 0 0 0 0 0 0 0 0 0 0 0 0 0 0 0 127 0" result="hardAlpha"/>
<feOffset dy="-1.63556"/>
<feGaussianBlur stdDeviation="0.817778"/>
<feComposite in2="hardAlpha" operator="arithmetic" k2="-1" k3="1"/>
<feColorMatrix type="matrix" values="0 0 0 0 0.948438 0 0 0 0 0.948438 0 0 0 0 0.948438 0 0 0 1 0"/>
<feBlend mode="normal" in2="effect2_innerShadow_4_5078" result="effect3_innerShadow_4_5078"/>
</filter>
<linearGradient id="paint0_linear_4_5078" x1="48" y1="16.6207" x2="48" y2="72.6207" gradientUnits="userSpaceOnUse">
<stop stop-color="#ADD5E0"/>
<stop offset="1" stop-color="#4893AA"/>
</linearGradient>
</defs>
</svg>
