<svg width="96" height="97" viewBox="0 0 96 97" fill="none" xmlns="http://www.w3.org/2000/svg">
<g filter="url(#filter0_d_4_5136)">
<path d="M65.5 72.6207H30.5C24.7005 72.6207 20 67.9202 20 62.1207V27.1207C20 21.3212 24.7005 16.6207 30.5 16.6207H65.5C71.2995 16.6207 76 21.3212 76 27.1207V62.1207C76 67.9202 71.2995 72.6207 65.5 72.6207Z" fill="url(#paint0_linear_4_5136)"/>
</g>
<g filter="url(#filter1_dii_4_5136)">
<path d="M61.5 67.6207H26.5C20.7005 67.6207 16 62.9202 16 57.1207V22.1207C16 16.3212 20.7005 11.6207 26.5 11.6207H61.5C67.2995 11.6207 72 16.3212 72 22.1207V57.1207C72 62.9202 67.2995 67.6207 61.5 67.6207Z" fill="white"/>
</g>
<path d="M56.4387 32.0012C56.4615 31.8192 56.4947 31.6407 56.4947 31.4535C56.4947 31.2662 56.4632 31.0877 56.4387 30.9057L57.4887 30.1112C57.7232 29.9345 57.7897 29.609 57.641 29.3552L56.6995 27.7207C56.5525 27.4652 56.2392 27.3602 55.968 27.4757L54.7587 27.9867C54.463 27.761 54.148 27.5615 53.8015 27.4162L53.6405 26.1317C53.6037 25.8395 53.357 25.6207 53.063 25.6207H51.1765C50.8825 25.6207 50.634 25.8395 50.5972 26.1317L50.4362 27.4162C50.0897 27.5615 49.7747 27.7592 49.4807 27.985L48.2715 27.474C48.0002 27.3602 47.687 27.4652 47.54 27.719L46.5967 29.3535C46.4497 29.609 46.5145 29.9327 46.749 30.1095L47.799 30.904C47.7762 31.086 47.743 31.2645 47.743 31.4517C47.743 31.639 47.7745 31.8175 47.799 31.9995L46.749 32.794C46.5145 32.9707 46.448 33.2962 46.5967 33.55L47.54 35.1845C47.687 35.44 48.0002 35.545 48.2715 35.4295L49.4807 34.9185C49.7747 35.1425 50.0897 35.342 50.4362 35.4872L50.5972 36.7717C50.634 37.064 50.8825 37.2827 51.1765 37.2827H53.063C53.357 37.2827 53.6055 37.064 53.6422 36.7717L53.8032 35.4872C54.1497 35.342 54.4647 35.1442 54.7587 34.9185L55.968 35.4295C56.2392 35.5432 56.5525 35.4382 56.6995 35.1845L57.6427 33.55C57.7897 33.2945 57.725 32.9707 57.4905 32.794L56.4387 32.0012ZM52.118 33.788C50.83 33.788 49.7852 32.7432 49.7852 31.4552C49.7852 30.1672 50.83 29.1225 52.118 29.1225C53.406 29.1225 54.4507 30.1672 54.4507 31.4552C54.4525 32.7432 53.4077 33.788 52.118 33.788Z" fill="#ADD5E0"/>
<path d="M49.5837 38.9487L48.3395 36.7927C48.0507 36.2922 47.4277 36.077 46.8922 36.294L44.619 37.2092C43.9977 36.7087 43.3257 36.3202 42.6117 36.049L42.267 33.6217C42.1865 33.0512 41.6895 32.6207 41.112 32.6207H38.6252C38.0477 32.6207 37.5507 33.0512 37.4702 33.6235L37.1255 36.0507C36.4115 36.3255 35.7307 36.7192 35.1287 37.2092L32.845 36.294C32.3095 36.0805 31.6882 36.294 31.3995 36.7927L30.1552 38.9487C29.8665 39.4492 29.9925 40.0967 30.4475 40.452L32.3742 41.9552C32.3147 42.335 32.285 42.727 32.285 43.1207C32.285 43.511 32.3147 43.8995 32.3725 44.2775L30.444 45.7912C29.9925 46.1465 29.8665 46.7922 30.1535 47.2927L31.3977 49.4487C31.6865 49.9475 32.3095 50.1627 32.845 49.9475L35.1182 49.0322C35.7395 49.5327 36.4115 49.9212 37.1255 50.1925L37.4702 52.6197C37.5507 53.1902 38.0477 53.6207 38.6252 53.6207H41.112C41.6895 53.6207 42.1865 53.1902 42.267 52.618L42.6117 50.1907C43.3257 49.916 44.0065 49.5222 44.6085 49.0322L46.8922 49.9475C47.4312 50.1627 48.049 49.9492 48.3377 49.4487L49.582 47.2927C49.8707 46.7922 49.7447 46.1447 49.2897 45.7895L47.363 44.2862C47.4225 43.9047 47.4522 43.5127 47.4522 43.119C47.4522 42.7287 47.4225 42.3402 47.3647 41.9622L49.2932 40.4485C49.7447 40.095 49.8707 39.4492 49.5837 38.9487ZM39.4302 42.2457H40.3052C41.672 42.2457 42.785 43.357 42.785 44.7255C42.785 45.9435 41.9012 46.9532 40.7427 47.1597V48.0785C40.7427 48.5615 40.3507 48.9535 39.8677 48.9535C39.3847 48.9535 38.9927 48.5615 38.9927 48.0785V47.2035H37.8255C37.3425 47.2035 36.9505 46.8115 36.9505 46.3285C36.9505 45.8455 37.3425 45.4535 37.8255 45.4535H40.3052C40.7077 45.4535 41.035 45.1262 41.035 44.7237C41.035 44.3212 40.7077 43.9957 40.3052 43.9957H39.4302C38.0635 43.9957 36.9505 42.8845 36.9505 41.516C36.9505 40.298 37.8342 39.2882 38.9927 39.0817V38.163C38.9927 37.68 39.3847 37.288 39.8677 37.288C40.3507 37.288 40.7427 37.68 40.7427 38.163V39.038H41.91C42.393 39.038 42.785 39.43 42.785 39.913C42.785 40.396 42.393 40.788 41.91 40.788H39.4302C39.0277 40.788 38.7005 41.1152 38.7005 41.5177C38.7022 41.9185 39.0295 42.2457 39.4302 42.2457Z" fill="#4893AA"/>
<defs>
<filter id="filter0_d_4_5136" x="0" y="0.620728" width="96" height="96" filterUnits="userSpaceOnUse" color-interpolation-filters="sRGB">
<feFlood flood-opacity="0" result="BackgroundImageFix"/>
<feColorMatrix in="SourceAlpha" type="matrix" values="0 0 0 0 0 0 0 0 0 0 0 0 0 0 0 0 0 0 127 0" result="hardAlpha"/>
<feOffset dy="4"/>
<feGaussianBlur stdDeviation="10"/>
<feComposite in2="hardAlpha" operator="out"/>
<feColorMatrix type="matrix" values="0 0 0 0 0 0 0 0 0 0 0 0 0 0 0 0 0 0 0.05 0"/>
<feBlend mode="normal" in2="BackgroundImageFix" result="effect1_dropShadow_4_5136"/>
<feBlend mode="normal" in="SourceGraphic" in2="effect1_dropShadow_4_5136" result="shape"/>
</filter>
<filter id="filter1_dii_4_5136" x="3.2" y="5.22073" width="81.6" height="81.6" filterUnits="userSpaceOnUse" color-interpolation-filters="sRGB">
<feFlood flood-opacity="0" result="BackgroundImageFix"/>
<feColorMatrix in="SourceAlpha" type="matrix" values="0 0 0 0 0 0 0 0 0 0 0 0 0 0 0 0 0 0 127 0" result="hardAlpha"/>
<feOffset dy="6.4"/>
<feGaussianBlur stdDeviation="6.4"/>
<feColorMatrix type="matrix" values="0 0 0 0 0.2 0 0 0 0 0.2 0 0 0 0 0.2 0 0 0 0.1 0"/>
<feBlend mode="normal" in2="BackgroundImageFix" result="effect1_dropShadow_4_5136"/>
<feBlend mode="normal" in="SourceGraphic" in2="effect1_dropShadow_4_5136" result="shape"/>
<feColorMatrix in="SourceAlpha" type="matrix" values="0 0 0 0 0 0 0 0 0 0 0 0 0 0 0 0 0 0 127 0" result="hardAlpha"/>
<feOffset dy="1.63556"/>
<feGaussianBlur stdDeviation="0.817778"/>
<feComposite in2="hardAlpha" operator="arithmetic" k2="-1" k3="1"/>
<feColorMatrix type="matrix" values="0 0 0 0 1 0 0 0 0 1 0 0 0 0 1 0 0 0 1 0"/>
<feBlend mode="normal" in2="shape" result="effect2_innerShadow_4_5136"/>
<feColorMatrix in="SourceAlpha" type="matrix" values="0 0 0 0 0 0 0 0 0 0 0 0 0 0 0 0 0 0 127 0" result="hardAlpha"/>
<feOffset dy="-1.63556"/>
<feGaussianBlur stdDeviation="0.817778"/>
<feComposite in2="hardAlpha" operator="arithmetic" k2="-1" k3="1"/>
<feColorMatrix type="matrix" values="0 0 0 0 0.948438 0 0 0 0 0.948438 0 0 0 0 0.948438 0 0 0 1 0"/>
<feBlend mode="normal" in2="effect2_innerShadow_4_5136" result="effect3_innerShadow_4_5136"/>
</filter>
<linearGradient id="paint0_linear_4_5136" x1="48" y1="16.6207" x2="48" y2="72.6207" gradientUnits="userSpaceOnUse">
<stop stop-color="#ADD5E0"/>
<stop offset="1" stop-color="#4893AA"/>
</linearGradient>
</defs>
</svg>
