<svg width="18" height="19" viewBox="0 0 18 19" fill="none" xmlns="http://www.w3.org/2000/svg">
<g clip-path="url(#clip0_165_452)">
<path d="M4.02525 5.91602H0V18.291H4.02525V5.91602Z" fill="white"/>
<path d="M14.9895 6.06114C14.9468 6.04764 14.9062 6.03302 14.8612 6.02064C14.8073 6.00827 14.7532 5.99814 14.6981 5.98914C14.4844 5.94639 14.2504 5.91602 13.9759 5.91602C11.6291 5.91602 10.1407 7.62264 9.65025 8.28189V5.91602H5.625V18.291H9.65025V11.541C9.65025 11.541 12.6923 7.30427 13.9759 10.416C13.9759 13.1936 13.9759 18.291 13.9759 18.291H18V9.94014C18 8.07039 16.7186 6.51227 14.9895 6.06114Z" fill="white"/>
<path d="M1.96875 4.22852C3.05606 4.22852 3.9375 3.34708 3.9375 2.25977C3.9375 1.17246 3.05606 0.291016 1.96875 0.291016C0.881439 0.291016 0 1.17246 0 2.25977C0 3.34708 0.881439 4.22852 1.96875 4.22852Z" fill="white"/>
</g>
<defs>
<clipPath id="clip0_165_452">
<rect width="18" height="18" fill="white" transform="translate(0 0.291016)"/>
</clipPath>
</defs>
</svg>
