<svg width="140" height="29" viewBox="0 0 140 29" xmlns="http://www.w3.org/2000/svg">
<g clip-path="url(#clip0_165_485)">
<path d="M5.79369 22.6805H17.6524V28.1269H0V2.38721H17.4699V7.83364H5.79369V12.4612H16.2311V17.9076H5.79369V22.6805Z" />
<path d="M21.2588 28.1267V1.25641H26.7052V28.1267H21.2588Z" />
<path d="M50.0437 18.6906C50.0489 19.2633 50.0122 19.8355 49.9339 20.4027H35.7605C36.0626 21.4198 36.6981 22.3056 37.5647 22.9176C38.4693 23.538 39.5467 23.8568 40.6433 23.8286C41.6056 23.8406 42.5581 23.6346 43.4295 23.2261C44.1977 22.8793 44.8771 22.3623 45.4162 21.7143L49.0778 24.8849C48.0354 26.0581 46.7479 26.9878 45.3063 27.6081C43.7882 28.2632 42.1497 28.5933 40.4963 28.5772C37.4726 28.5772 34.9497 27.6151 32.9275 25.6909C30.9053 23.7666 29.8941 21.3708 29.8941 18.5033C29.8747 16.7456 30.3313 15.0154 31.2154 13.4962C32.085 12.0001 33.3481 10.7711 34.8673 9.94276C36.4504 9.07479 38.2306 8.62974 40.0359 8.6506C42.8884 8.6506 45.2686 9.6041 47.1767 11.5111C49.0848 13.4181 50.0405 15.8113 50.0437 18.6906ZM39.9681 13.3605C38.9957 13.3442 38.0484 13.6701 37.2917 14.2812C36.5086 14.9218 35.9576 15.802 35.7234 16.7863H44.2678C44.0161 15.7984 43.4545 14.917 42.6655 14.2715C41.9004 13.6611 40.9467 13.3361 39.9681 13.3524V13.3605Z" />
<path d="M64.9988 9.10785H71.0832L63.3594 28.1267H57.7676L50.0146 9.10785H56.2445L60.6539 21.2218L64.9988 9.10785Z" />
<path d="M86.1678 9.10802H91.6158V28.1269H86.1678V26.2323C84.6387 27.8033 82.7199 28.5889 80.4112 28.5889C77.8 28.5889 75.6168 27.6359 73.8616 25.73C72.1064 23.824 71.2294 21.4551 71.2305 18.6231C71.2305 15.7933 72.1075 13.4244 73.8616 11.5163C75.6157 9.60819 77.7989 8.65469 80.4112 8.65576C82.7199 8.65576 84.6387 9.43913 86.1678 11.0059V9.10802ZM81.5047 23.3217C82.8399 23.3217 83.9512 22.8722 84.8385 21.973C85.7257 21.0739 86.1688 19.9567 86.1678 18.6215C86.1678 17.2863 85.7247 16.1691 84.8385 15.27C83.9523 14.3709 82.841 13.9213 81.5047 13.9213C80.8902 13.9046 80.279 14.0159 79.7098 14.2481C79.1406 14.4802 78.6259 14.8283 78.1984 15.27C77.3219 16.1659 76.8836 17.282 76.8836 18.6183C76.8836 19.9546 77.3219 21.0707 78.1984 21.9666C78.6256 22.4089 79.1402 22.7575 79.7094 22.9902C80.2786 23.223 80.89 23.3348 81.5047 23.3185V23.3217Z" />
<path d="M107.937 14.0635H103.049V21.0412C103.049 22.5594 103.845 23.3186 105.435 23.3186C106.309 23.2968 107.165 23.0653 107.93 22.6434V27.7636C106.8 28.3227 105.554 28.6056 104.293 28.589C102.059 28.589 100.386 27.9908 99.2746 26.7945C98.1634 25.5982 97.6078 23.983 97.6078 21.9489V14.0635H94.7295V9.10812H97.6078V4.39014H103.049V9.10812H107.93L107.937 14.0635Z" />
<path d="M114.004 6.66734C113.561 6.67705 113.121 6.59699 112.71 6.43199C112.299 6.26699 111.926 6.02048 111.612 5.70731C111.299 5.39414 111.053 5.02079 110.888 4.60978C110.723 4.19877 110.643 3.75861 110.652 3.31582C110.641 2.87556 110.722 2.43778 110.888 2.03019C111.055 1.6226 111.305 1.25408 111.621 0.94795C111.935 0.637966 112.307 0.394247 112.716 0.231348C113.126 0.0684484 113.563 -0.0102909 114.004 -0.000167883C114.452 -0.0126319 114.898 0.0648455 115.316 0.227689C115.734 0.390532 116.115 0.63544 116.436 0.94795C116.754 1.25348 117.004 1.62189 117.171 2.02962C117.338 2.43735 117.418 2.87543 117.405 3.31582C117.418 3.76037 117.339 4.20273 117.172 4.61499C117.005 5.02726 116.755 5.40049 116.436 5.71115C116.116 6.02609 115.736 6.27313 115.318 6.43744C114.9 6.60175 114.453 6.67994 114.004 6.66734ZM111.287 28.1268V9.1079H116.735V28.1268H111.287Z" />
<path d="M120.249 28.1268H125.968C127.63 22.4074 140 15.4701 140 9.16119H134.198C133.091 15.5428 121.541 19.8667 120.249 28.1268Z" fill="url(#paint0_linear_165_485)"/>
<path d="M120.249 9.16119H125.968C127.63 14.8806 140 21.8178 140 28.1268H134.198C133.091 21.7452 121.541 17.4277 120.249 9.16119Z" />
</g>
<defs>
<linearGradient id="paint0_linear_165_485" x1="126.592" y1="22.6594" x2="135.076" y2="12.9036" gradientUnits="userSpaceOnUse">
<stop stop-color="#1A94AC"/>
<stop offset="0.26" stop-color="#4AABBF"/>
<stop offset="0.69" stop-color="#A0D5E1"/>
</linearGradient>
<clipPath id="clip0_165_485">
<rect width="140" height="28.5824" fill="white"/>
</clipPath>
</defs>
</svg>
