<svg width="55" height="56" viewBox="0 0 55 56" fill="none" xmlns="http://www.w3.org/2000/svg">
<g opacity="0.5">
<path d="M11.3437 33.4761C10.2094 36.3292 8.4219 39.148 6.03282 41.8636C5.27657 42.723 5.17345 43.9605 5.79218 44.923C6.27348 45.6792 7.06404 46.0917 7.92341 46.0917C8.16406 46.0917 8.40471 46.0746 8.64536 45.9886C13.6984 44.5105 25.5063 39.2683 25.8329 22.4589C25.9531 15.9792 21.2094 10.4105 15.0391 9.77456C11.6188 9.4308 8.21568 10.5479 5.68906 12.8167C3.16255 15.1027 1.71875 18.3683 1.71875 21.7714C1.71875 27.4433 5.74067 32.4105 11.3437 33.4761Z" fill="#ADD5E0"/>
<path d="M42.4702 9.77456C39.067 9.4308 35.6639 10.5479 33.1374 12.8167C30.6108 15.1027 29.167 18.3683 29.167 21.7714C29.167 27.4433 33.1889 32.4105 38.7921 33.4761C37.6576 36.3292 35.8702 39.1479 33.4811 41.8636C32.7248 42.723 32.6217 43.9604 33.2405 44.9229C33.7217 45.6792 34.5124 46.0916 35.3718 46.0916C35.6123 46.0916 35.853 46.0745 36.0936 45.9885C41.1467 44.5104 52.9545 39.2683 53.2811 22.4588L53.2811 22.2183C53.2811 15.8417 48.589 10.4105 42.4702 9.77456Z" fill="#ADD5E0"/>
</g>
</svg>
