<svg width="1142" height="389" viewBox="0 0 1142 389" fill="none" xmlns="http://www.w3.org/2000/svg">
<path d="M103.5 143C138.481 143 185.802 143 219.023 143C241.114 143 259 160.909 259 183V285.5" stroke="#E1A551" stroke-width="2" stroke-dasharray="10 10"/>
<path d="M467.5 149.5C467.5 188.253 467.5 257.294 467.5 301.032C467.5 323.123 449.591 341 427.5 341L313 341" stroke="#E1A551" stroke-width="2" stroke-dasharray="10 10"/>
<path d="M883.5 103.5C883.5 142.253 883.5 211.294 883.5 255.032C883.5 277.123 865.591 295 843.5 295L729 295" stroke="#E1A551" stroke-width="2" stroke-dasharray="10 10"/>
<path d="M518.5 98C553.481 98 600.802 98 634.023 98C656.114 98 674 115.909 674 138V240.5" stroke="#E1A551" stroke-width="2" stroke-dasharray="10 10"/>
<path d="M933.5 52C968.481 52 1015.8 52 1049.02 52C1071.11 52 1089 69.9086 1089 92V194.5" stroke="#E1A551" stroke-width="2" stroke-dasharray="10 10"/>
<circle cx="52" cy="142" r="49" stroke="#4893AA" stroke-width="6"/>
<g clip-path="url(#clip0_322_1019)">
<path d="M66.4952 147.121C66.159 146.784 65.7501 146.616 65.2695 146.616H56.9038L54.4519 149.068C53.7548 149.741 52.9375 150.077 52 150.077C51.0627 150.077 50.2452 149.741 49.5481 149.068L47.1142 146.616H38.7308C38.2501 146.616 37.8414 146.785 37.5048 147.121C37.1682 147.457 37 147.866 37 148.347V154.116C37 154.597 37.1682 155.005 37.5048 155.342C37.8414 155.678 38.25 155.846 38.7308 155.846H65.2696C65.7501 155.846 66.1591 155.678 66.4953 155.342C66.832 155.005 67.0001 154.597 67.0001 154.116V148.347C67.0001 147.866 66.832 147.457 66.4952 147.121ZM59.7347 153.196C59.5061 153.425 59.2356 153.539 58.923 153.539C58.6105 153.539 58.3404 153.425 58.1118 153.196C57.8836 152.968 57.7695 152.698 57.7695 152.385C57.7695 152.073 57.8836 151.802 58.1118 151.574C58.3404 151.346 58.6105 151.231 58.923 151.231C59.2356 151.231 59.506 151.346 59.7347 151.574C59.9629 151.802 60.0771 152.073 60.0771 152.385C60.0771 152.698 59.9629 152.968 59.7347 153.196ZM64.3498 153.196C64.1216 153.425 63.8511 153.539 63.5385 153.539C63.226 153.539 62.9557 153.425 62.7272 153.196C62.4991 152.968 62.385 152.698 62.385 152.385C62.385 152.073 62.4991 151.802 62.7272 151.574C62.9556 151.346 63.226 151.231 63.5385 151.231C63.851 151.231 64.1215 151.346 64.3498 151.574C64.5782 151.802 64.6925 152.073 64.6925 152.385C64.6925 152.698 64.5784 152.968 64.3498 153.196Z" fill="#4893AA"/>
<path d="M51.1891 147.427C51.4056 147.655 51.676 147.769 52.0003 147.769C52.325 147.769 52.5951 147.655 52.8116 147.427L60.8886 139.35C61.2611 139.001 61.3454 138.581 61.141 138.088C60.9371 137.619 60.5824 137.385 60.0774 137.385H55.4619V129.308C55.4619 128.995 55.3475 128.725 55.1195 128.496C54.8909 128.268 54.6206 128.154 54.3083 128.154H49.6924C49.3801 128.154 49.1096 128.268 48.8812 128.496C48.6529 128.725 48.5387 128.995 48.5387 129.308V137.385H43.9233C43.4182 137.385 43.0638 137.619 42.8595 138.088C42.6552 138.581 42.7393 139.002 43.112 139.35L51.1891 147.427Z" fill="#0D2D3D"/>
</g>
<circle cx="260" cy="337" r="49" stroke="#4893AA" stroke-width="6"/>
<g clip-path="url(#clip1_322_1019)">
<path d="M268.942 331.883L264.488 327.429V331.883H268.942Z" fill="#485C8D"/>
<path d="M263.023 332.615V327H253.014C251.533 327 250.328 328.205 250.328 329.686V349.315C250.328 350.796 251.533 352 253.014 352H266.686C268.166 352 269.371 350.796 269.371 349.315V341.209H264.548L266.227 342.889C266.513 343.175 266.513 343.638 266.227 343.924C266.084 344.067 265.896 344.139 265.709 344.139C265.522 344.139 265.334 344.067 265.191 343.924L262.261 340.995C261.975 340.709 261.975 340.245 262.261 339.959L265.191 337.029C265.477 336.743 265.941 336.743 266.227 337.029C266.513 337.315 266.513 337.779 266.227 338.065L264.548 339.744H269.371V333.348H263.756C263.351 333.348 263.023 333.02 263.023 332.615ZM253.99 341.209H260.338C260.742 341.209 261.07 341.537 261.07 341.942C261.07 342.346 260.742 342.674 260.338 342.674H253.99C253.586 342.674 253.258 342.346 253.258 341.942C253.258 341.537 253.586 341.209 253.99 341.209ZM253.258 339.012C253.258 338.607 253.586 338.28 253.99 338.28H260.338C260.742 338.28 261.07 338.607 261.07 339.012C261.07 339.416 260.742 339.744 260.338 339.744H253.99C253.586 339.744 253.258 339.416 253.258 339.012ZM262.291 344.139C262.696 344.139 263.023 344.467 263.023 344.871C263.023 345.276 262.696 345.604 262.291 345.604H253.99C253.586 345.604 253.258 345.276 253.258 344.871C253.258 344.467 253.586 344.139 253.99 344.139H262.291ZM262.291 336.815H253.99C253.586 336.815 253.258 336.487 253.258 336.082C253.258 335.678 253.586 335.35 253.99 335.35H262.291C262.696 335.35 263.023 335.678 263.023 336.082C263.023 336.487 262.696 336.815 262.291 336.815Z" fill="#485C8D"/>
<path d="M274.596 339.744H269.371V341.209H274.596C275 341.209 275.328 340.881 275.328 340.477C275.328 340.072 275 339.744 274.596 339.744Z" fill="#485C8D"/>
</g>
<path d="M247.75 330.438C247.75 327.164 250.414 324.499 253.688 324.499H265.105C264.693 323.061 263.38 322 261.813 322H247.437C245.541 322 244 323.541 244 325.437V344.811C244 346.709 245.541 348.25 247.437 348.25H247.75V330.438Z" fill="#4893AA"/>
<circle cx="467" cy="97" r="49" stroke="#4893AA" stroke-width="6"/>
<path d="M478.148 86.4653C478.908 86.4653 479.583 86.837 480.125 87.1357C480.523 87.355 480.838 87.5282 481.161 87.5282C481.301 87.5282 482 87.4789 482 86.5031V84.0838C482 82.9665 481.091 82.0576 479.974 82.0576H469.808C468.691 82.0576 467.782 82.9665 467.782 84.0838V94.2494C467.782 95.3667 468.691 96.2756 469.808 96.2756H479.974C481.091 96.2756 482 95.3667 482 94.2494V91.8303C482 90.8545 481.301 90.8051 481.161 90.8051C480.838 90.8051 480.523 90.9784 480.125 91.1976C479.583 91.4963 478.908 91.868 478.148 91.868C476.685 91.868 475.496 90.6562 475.496 89.1666C475.495 87.6771 476.686 86.4653 478.148 86.4653Z" fill="#485C8D"/>
<path d="M464.192 82.0576H461.773C460.797 82.0576 460.747 82.7565 460.747 82.8967C460.747 83.2201 460.921 83.5347 461.14 83.9329C461.439 84.4751 461.81 85.1499 461.81 85.9095C461.81 87.3723 460.598 88.5623 459.109 88.5623C457.619 88.5623 456.408 87.3723 456.408 85.9095C456.408 85.15 456.779 84.4752 457.078 83.9329C457.297 83.5347 457.471 83.2201 457.471 82.8967C457.471 82.7565 457.421 82.0576 456.445 82.0576H454.026C452.909 82.0576 452 82.9666 452 84.0838V94.2494C452 95.3667 452.909 96.2756 454.026 96.2756H464.192C465.309 96.2756 466.218 95.3667 466.218 94.2494V84.0838C466.218 82.9666 465.309 82.0576 464.192 82.0576Z" fill="#4893AA"/>
<path d="M464.192 97.7241H454.026C452.909 97.7241 452 98.6331 452 99.7503V102.169C452 103.145 452.699 103.195 452.839 103.195C453.162 103.195 453.477 103.021 453.875 102.802C454.417 102.503 455.092 102.132 455.852 102.132C457.315 102.132 458.505 103.343 458.505 104.833C458.505 106.322 457.315 107.534 455.852 107.534C455.092 107.534 454.418 107.163 453.875 106.864C453.477 106.645 453.162 106.471 452.839 106.471C452.699 106.472 452 106.521 452 107.497V109.916C452 111.033 452.909 111.942 454.026 111.942H464.192C465.309 111.942 466.218 111.033 466.218 109.916V99.7503C466.218 98.6331 465.309 97.7241 464.192 97.7241Z" fill="#485C8D"/>
<path d="M479.974 97.7241H469.808C468.691 97.7241 467.782 98.6331 467.782 99.7503V109.916C467.782 111.033 468.691 111.942 469.808 111.942H472.228C473.203 111.942 473.253 111.243 473.253 111.103C473.253 110.78 473.079 110.465 472.86 110.067C472.562 109.525 472.19 108.85 472.19 108.09C472.19 106.627 473.402 105.437 474.891 105.437C476.381 105.437 477.593 106.627 477.593 108.09C477.593 108.85 477.221 109.525 476.922 110.067C476.703 110.465 476.53 110.78 476.53 111.103C476.53 111.243 476.579 111.942 477.555 111.942H479.974C481.091 111.942 482 111.033 482 109.916V99.7503C482 98.6331 481.091 97.7241 479.974 97.7241Z" fill="#485C8D"/>
<circle cx="675" cy="292" r="49" stroke="#4893AA" stroke-width="6"/>
<path d="M679.817 305.933C678.174 304.29 678.126 302.7 678.126 302.622C678.124 302.278 677.844 302.001 677.501 302.001H672.476C672.131 302.001 671.852 302.284 671.852 302.629C671.852 302.697 671.829 304.288 670.185 305.933C670.007 306.111 669.952 306.381 670.05 306.613C670.144 306.848 670.372 307 670.625 307H679.376C679.629 307 679.858 306.848 679.954 306.613C680.049 306.381 679.995 306.111 679.817 305.933Z" fill="#485C8D"/>
<path d="M687.812 282.001H683.749C683.059 282.001 682.498 282.56 682.498 283.252C682.5 283.942 683.059 284.5 683.751 284.5H687.501V298.25H662.499V284.5H666.249C666.941 284.5 667.5 283.942 667.5 283.25C667.5 282.56 666.941 281.999 666.249 281.999H662.188C660.979 282.001 660 282.98 660 284.187V301.062C660 302.272 660.979 303.25 662.188 303.25H687.814C689.021 303.25 690 302.272 690 301.062V284.187C690 282.98 689.021 282.001 687.812 282.001Z" fill="#485C8D"/>
<path d="M679.628 283.836C679.652 283.641 679.688 283.45 679.688 283.249C679.688 283.049 679.654 282.858 679.628 282.663L680.753 281.811C681.004 281.622 681.075 281.273 680.916 281.001L679.907 279.25C679.75 278.976 679.414 278.864 679.124 278.988L677.828 279.535C677.513 279.295 677.175 279.081 676.804 278.926L676.632 277.548C676.592 277.234 676.326 277 676.011 277H673.99C673.675 277 673.408 277.234 673.369 277.548L673.197 278.924C672.825 279.079 672.488 279.291 672.173 279.533L670.877 278.986C670.587 278.864 670.251 278.976 670.093 279.248L669.083 280.999C668.925 281.273 668.995 281.62 669.246 281.809L670.371 282.661C670.347 282.856 670.311 283.047 670.311 283.248C670.311 283.448 670.345 283.639 670.371 283.834L669.246 284.686C668.995 284.875 668.923 285.224 669.083 285.496L670.093 287.247C670.251 287.521 670.587 287.633 670.877 287.509L672.173 286.962C672.488 287.202 672.825 287.416 673.197 287.571L673.369 288.948C673.408 289.261 673.675 289.495 673.99 289.495H676.011C676.326 289.495 676.592 289.261 676.632 288.948L676.804 287.571C677.175 287.416 677.513 287.204 677.828 286.962L679.124 287.509C679.414 287.631 679.75 287.519 679.907 287.247L680.918 285.496C681.075 285.222 681.006 284.875 680.755 284.686L679.628 283.836ZM675 285.751C673.62 285.751 672.501 284.631 672.501 283.251C672.501 281.869 673.62 280.75 675 280.75C676.38 280.75 677.5 281.869 677.5 283.249C677.5 284.631 676.38 285.751 675 285.751Z" fill="#4893AA"/>
<circle cx="883" cy="52" r="49" stroke="#4893AA" stroke-width="6"/>
<path d="M887.817 65.9329C886.174 64.2904 886.126 62.7004 886.126 62.6216C886.124 62.2785 885.844 62.001 885.501 62.001H880.476C880.131 62.001 879.852 62.2841 879.852 62.6291C879.852 62.6966 879.829 64.2885 878.185 65.9329C878.007 66.111 877.952 66.381 878.05 66.6135C878.144 66.8479 878.372 66.9997 878.625 66.9997H887.376C887.629 66.9997 887.858 66.8479 887.954 66.6135C888.049 66.381 887.995 66.111 887.817 65.9329Z" fill="#485C8D"/>
<path d="M895.812 42.0009H891.749C891.059 42.0009 890.498 42.5596 890.498 43.2515C890.5 43.9415 891.059 44.5003 891.751 44.5003H895.501V58.2497H870.499V44.5003H874.249C874.941 44.5003 875.5 43.9415 875.5 43.2496C875.5 42.5596 874.941 41.999 874.249 41.999H870.188C868.979 42.0009 868 42.9796 868 44.1872V61.0622C868 62.2715 868.979 63.2503 870.188 63.2503H895.814C897.021 63.2503 898 62.2715 898 61.0622V44.1872C898 42.9796 897.021 42.0009 895.812 42.0009Z" fill="#485C8D"/>
<g clip-path="url(#clip2_322_1019)">
<path d="M877.219 40.7813C877.364 40.927 877.542 41 877.75 41L881.375 41L882.438 39.9375C882.74 39.6459 883.094 39.5 883.5 39.5C883.906 39.5 884.26 39.6457 884.562 39.9375L885.617 41L889.25 41C889.458 41 889.635 40.927 889.781 40.7813C889.927 40.6355 890 40.4584 890 40.2499L890 37.75C890 37.5417 889.927 37.3646 889.781 37.2188C889.635 37.073 889.458 37.0001 889.25 37.0001L877.75 37.0001C877.542 37.0001 877.364 37.073 877.219 37.2188C877.073 37.3646 877 37.5417 877 37.75L877 40.2499C877 40.4584 877.073 40.6355 877.219 40.7813Z" fill="#4893AA"/>
<path d="M883.851 41.1483C883.758 41.0494 883.64 40.9999 883.5 40.9999C883.359 40.9999 883.242 41.0494 883.148 41.1483L879.648 44.6483C879.487 44.7994 879.45 44.9817 879.539 45.1952C879.627 45.3983 879.781 45.4998 880 45.5L882 45.5L882 49C882 49.1354 882.049 49.2526 882.148 49.3515C882.247 49.4505 882.364 49.5 882.5 49.5L884.5 49.5C884.635 49.5 884.752 49.4505 884.851 49.3515C884.95 49.2526 885 49.1354 885 49L885 45.4999L887 45.4999C887.219 45.4999 887.372 45.3983 887.461 45.1952C887.549 44.9817 887.513 44.7993 887.351 44.6483L883.851 41.1483Z" fill="#0D2D3D"/>
</g>
<circle cx="1090" cy="247" r="49" stroke="#4893AA" stroke-width="6"/>
<path d="M1096.88 243.999C1092.4 243.999 1088.75 247.644 1088.75 252.123C1088.75 256.603 1092.4 260.248 1096.88 260.248C1101.35 260.248 1105 256.605 1105 252.125C1105 247.646 1101.35 243.999 1096.88 243.999ZM1100.94 250.136L1096.57 255.137C1096.09 255.68 1095.25 255.708 1094.74 255.197L1092.24 252.697C1091.75 252.21 1091.75 251.418 1092.24 250.929C1092.73 250.44 1093.52 250.442 1094.01 250.929L1095.56 252.483L1099.06 248.488C1099.52 247.97 1100.3 247.916 1100.82 248.37C1101.34 248.827 1101.4 249.615 1100.94 250.136Z" fill="#4893AA"/>
<path d="M1101.25 234H1078.75C1076.69 234 1075 235.688 1075 237.75V252.75C1075 254.812 1076.69 256.5 1078.75 256.5H1087.2C1086.84 255.712 1086.58 254.874 1086.43 254.001H1078.75C1078.06 254.001 1077.5 253.438 1077.5 252.75V237.75C1077.5 237.062 1078.06 236.499 1078.75 236.499H1101.25C1101.94 236.499 1102.5 237.062 1102.5 237.75V243.112C1103.45 243.699 1104.29 244.438 1105 245.274V237.75C1105 235.688 1103.31 234 1101.25 234Z" fill="#485C8D"/>
<path d="M1084.06 240.249H1076.56C1076.04 240.249 1075.62 240.669 1075.62 241.187V249.311C1075.62 249.828 1076.04 250.248 1076.56 250.248H1084.06C1085.96 250.248 1087.5 248.707 1087.5 246.812V243.686C1087.5 241.792 1085.96 240.249 1084.06 240.249ZM1082.5 247.749C1081.12 247.749 1080 246.63 1080 245.25C1080 243.87 1081.12 242.75 1082.5 242.75C1083.88 242.75 1085 243.87 1085 245.25C1085 246.63 1083.88 247.749 1082.5 247.749Z" fill="#485C8D"/>
<defs>
<clipPath id="clip0_322_1019">
<rect width="30.0001" height="30" fill="white" transform="translate(37 127)"/>
</clipPath>
<clipPath id="clip1_322_1019">
<rect width="25" height="25" fill="white" transform="translate(250.328 327)"/>
</clipPath>
<clipPath id="clip2_322_1019">
<rect width="13" height="13" fill="white" transform="translate(890 50) rotate(-180)"/>
</clipPath>
</defs>
</svg>
