<svg width="104" height="104" viewBox="0 0 104 104" fill="none" xmlns="http://www.w3.org/2000/svg">
<circle cx="52" cy="52" r="49" fill="#FFFFFF" stroke="#4893AA" stroke-width="6"/>
<g clip-path="url(#clip0_4_6631)">
<path d="M66.4952 57.1208C66.159 56.7843 65.7501 56.616 65.2695 56.616H56.9038L54.4519 59.0678C53.7548 59.7408 52.9375 60.0774 52 60.0774C51.0627 60.0774 50.2452 59.7412 49.5481 59.0678L47.1142 56.616H38.7308C38.2501 56.616 37.8414 56.7845 37.5048 57.1208C37.1682 57.4572 37 57.8659 37 58.3469V64.116C37 64.5968 37.1682 65.0054 37.5048 65.3419C37.8414 65.6783 38.25 65.8464 38.7308 65.8464H65.2696C65.7501 65.8464 66.1591 65.6783 66.4953 65.3419C66.832 65.0054 67.0001 64.5968 67.0001 64.116V58.3469C67.0001 57.8659 66.832 57.4572 66.4952 57.1208ZM59.7347 63.1965C59.5061 63.4249 59.2356 63.539 58.923 63.539C58.6105 63.539 58.3404 63.4249 58.1118 63.1965C57.8836 62.9681 57.7695 62.6977 57.7695 62.3854C57.7695 62.0729 57.8836 61.8022 58.1118 61.5741C58.3404 61.3455 58.6105 61.2312 58.923 61.2312C59.2356 61.2312 59.506 61.3455 59.7347 61.5741C59.9629 61.8021 60.0771 62.0729 60.0771 62.3854C60.0771 62.6977 59.9629 62.9681 59.7347 63.1965ZM64.3498 63.1965C64.1216 63.4249 63.8511 63.539 63.5385 63.539C63.226 63.539 62.9557 63.4249 62.7272 63.1965C62.4991 62.9681 62.385 62.6977 62.385 62.3854C62.385 62.0729 62.4991 61.8022 62.7272 61.5741C62.9556 61.3455 63.226 61.2312 63.5385 61.2312C63.851 61.2312 64.1215 61.3455 64.3498 61.5741C64.5782 61.8021 64.6925 62.0729 64.6925 62.3854C64.6925 62.6977 64.5784 62.9681 64.3498 63.1965Z" fill="#4893AA"/>
<path d="M51.1891 57.4271C51.4056 57.6552 51.676 57.7694 52.0003 57.7694C52.325 57.7694 52.5951 57.6552 52.8116 57.4271L60.8886 49.35C61.2611 49.0014 61.3454 48.5807 61.141 48.0879C60.9371 47.6193 60.5824 47.3849 60.0774 47.3847H55.4619V39.3077C55.4619 38.9953 55.3475 38.7248 55.1195 38.4964C54.8909 38.268 54.6206 38.1538 54.3083 38.1538H49.6924C49.3801 38.1538 49.1096 38.268 48.8812 38.4964C48.6529 38.7248 48.5387 38.9952 48.5387 39.3077V47.3847H43.9233C43.4182 47.3847 43.0638 47.6193 42.8595 48.088C42.6552 48.5806 42.7393 49.0015 43.112 49.35L51.1891 57.4271Z" fill="#0D2D3D"/>
</g>
<defs>
<clipPath id="clip0_4_6631">
<rect width="30.0001" height="30" fill="white" transform="translate(37 37)"/>
</clipPath>
</defs>
</svg>
