<svg width="104" height="104" viewBox="0 0 104 104" fill="none" xmlns="http://www.w3.org/2000/svg">
<circle cx="52" cy="52" r="49" fill="#FFFFFF" stroke="#4893AA" stroke-width="6"/>
<g clip-path="url(#clip0_4_6632)">
<path d="M60.9421 46.8832L56.4883 42.4292V46.8832H60.9421Z" fill="#485C8D"/>
<path d="M55.0234 47.6155V42.0002H45.0137C43.5329 42.0002 42.3281 43.205 42.3281 44.6858V64.3147C42.3281 65.7955 43.5329 67.0002 45.0137 67.0002H58.6855C60.1664 67.0002 61.3711 65.7955 61.3711 64.3147V56.2092H56.5475L58.2269 57.8886C58.5129 58.1747 58.5129 58.6384 58.2269 58.9244C58.0839 59.0674 57.8964 59.1389 57.709 59.1389C57.5215 59.1389 57.3341 59.0674 57.1911 58.9244L54.2614 55.9947C53.9754 55.7086 53.9754 55.2449 54.2614 54.9589L57.1911 52.0292C57.4771 51.7432 57.9409 51.7432 58.2269 52.0292C58.5129 52.3152 58.5129 52.779 58.2269 53.065L56.5475 54.7444H61.3711V48.3479H55.7559C55.3514 48.3479 55.0234 48.02 55.0234 47.6155ZM45.9902 56.2092H52.3379C52.7424 56.2092 53.0703 56.5372 53.0703 56.9417C53.0703 57.3461 52.7424 57.6741 52.3379 57.6741H45.9902C45.5857 57.6741 45.2578 57.3461 45.2578 56.9417C45.2578 56.5372 45.5857 56.2092 45.9902 56.2092ZM45.2578 54.012C45.2578 53.6075 45.5857 53.2795 45.9902 53.2795H52.3379C52.7424 53.2795 53.0703 53.6075 53.0703 54.012C53.0703 54.4165 52.7424 54.7444 52.3379 54.7444H45.9902C45.5857 54.7444 45.2578 54.4165 45.2578 54.012ZM54.291 59.1389C54.6955 59.1389 55.0234 59.4668 55.0234 59.8713C55.0234 60.2758 54.6955 60.6038 54.291 60.6038H45.9902C45.5857 60.6038 45.2578 60.2758 45.2578 59.8713C45.2578 59.4668 45.5857 59.1389 45.9902 59.1389H54.291ZM54.291 51.8147H45.9902C45.5857 51.8147 45.2578 51.4868 45.2578 51.0823C45.2578 50.6778 45.5857 50.3499 45.9902 50.3499H54.291C54.6955 50.3499 55.0234 50.6778 55.0234 51.0823C55.0234 51.4868 54.6955 51.8147 54.291 51.8147Z" fill="#485C8D"/>
<path d="M66.5957 54.7444H61.3711V56.2092H66.5957C67.0002 56.2092 67.3281 55.8813 67.3281 55.4768C67.3281 55.0723 67.0002 54.7444 66.5957 54.7444Z" fill="#485C8D"/>
</g>
<path d="M39.75 45.4375C39.75 42.1638 42.4144 39.4994 45.6881 39.4994H57.105C56.6925 38.0613 55.38 37 53.8125 37H39.4369C37.5413 37 36 38.5413 36 40.4369V59.8113C36 61.7088 37.5413 63.25 39.4369 63.25H39.75V45.4375Z" fill="#4893AA"/>
<defs>
<clipPath id="clip0_4_6632">
<rect width="25" height="25" fill="white" transform="translate(42.3281 42.0002)"/>
</clipPath>
</defs>
</svg>
