<svg width="104" height="104" viewBox="0 0 104 104" fill="none" xmlns="http://www.w3.org/2000/svg">
<circle cx="52" cy="52" r="49" fill="#FFFFFF" stroke="#4893AA" stroke-width="6"/>
<path d="M63.1483 41.4653C63.908 41.4653 64.5828 41.837 65.125 42.1357C65.5233 42.355 65.8377 42.5282 66.1613 42.5282C66.3015 42.5282 67.0002 42.4789 67.0002 41.5031V39.0838C67.0002 37.9665 66.0914 37.0576 64.9741 37.0576H54.8084C53.6912 37.0576 52.7822 37.9665 52.7822 39.0838V49.2494C52.7822 50.3667 53.6912 51.2756 54.8084 51.2756H64.974C66.0913 51.2756 67.0002 50.3667 67.0002 49.2494V46.8303C67.0002 45.8545 66.3014 45.8051 66.1612 45.8051C65.8377 45.8051 65.5231 45.9784 65.1251 46.1976C64.5828 46.4963 63.9081 46.868 63.1482 46.868C61.6855 46.868 60.4955 45.6562 60.4955 44.1666C60.4954 42.6771 61.6856 41.4653 63.1483 41.4653Z" fill="#485C8D"/>
<path d="M49.1918 37.0576H46.7726C45.7968 37.0576 45.7475 37.7565 45.7475 37.8967C45.7475 38.2201 45.9208 38.5347 46.14 38.9329C46.4386 39.4751 46.8103 40.1499 46.8103 40.9095C46.8103 42.3723 45.5985 43.5623 44.109 43.5623C42.6195 43.5623 41.4077 42.3723 41.4077 40.9095C41.4077 40.15 41.7793 39.4752 42.0779 38.9329C42.2973 38.5347 42.4705 38.2201 42.4705 37.8967C42.4705 37.7565 42.4211 37.0576 41.4453 37.0576H39.0262C37.9089 37.0576 37 37.9666 37 39.0838V49.2494C37 50.3667 37.9089 51.2756 39.0262 51.2756H49.1918C50.3091 51.2756 51.218 50.3667 51.218 49.2494V39.0838C51.218 37.9666 50.3091 37.0576 49.1918 37.0576Z" fill="#4893AA"/>
<path d="M49.1918 52.7241H39.0262C37.9089 52.7241 37 53.6331 37 54.7503V57.1694C37 58.1453 37.6988 58.1946 37.839 58.1946C38.1625 58.1946 38.477 58.0213 38.8752 57.8021C39.4174 57.5035 40.0922 57.1317 40.8519 57.1317C42.3147 57.1317 43.5047 58.3435 43.5047 59.8331C43.5047 61.3225 42.3147 62.5344 40.8519 62.5344C40.0924 62.5344 39.4175 62.1626 38.8753 61.864C38.477 61.6447 38.1625 61.4715 37.839 61.4715C37.6988 61.4717 37 61.521 37 62.4968V64.916C37 66.0333 37.9089 66.9421 39.0262 66.9421H49.1918C50.3091 66.9421 51.218 66.0333 51.218 64.916V54.7503C51.218 53.6331 50.3091 52.7241 49.1918 52.7241Z" fill="#485C8D"/>
<path d="M64.9741 52.7241H54.8084C53.6912 52.7241 52.7822 53.6331 52.7822 54.7503V64.916C52.7822 66.0332 53.6912 66.9421 54.8084 66.9421H57.2276C58.2034 66.9421 58.2526 66.2432 58.2526 66.103C58.2526 65.7796 58.0793 65.465 57.8601 65.0668C57.5616 64.5246 57.1898 63.8498 57.1898 63.0901C57.1898 61.6274 58.4016 60.4375 59.8911 60.4375C61.3806 60.4375 62.5925 61.6274 62.5925 63.0901C62.5925 63.8498 62.2208 64.5245 61.9222 65.0667C61.7026 65.4652 61.5296 65.7795 61.5296 66.103C61.5296 66.2431 61.5789 66.9421 62.5548 66.9421H64.9739C66.0912 66.9421 67.0001 66.0332 67.0001 64.9159V54.7503C67.0002 53.6331 66.0912 52.7241 64.9741 52.7241Z" fill="#485C8D"/>
</svg>
