<svg width="104" height="104" viewBox="0 0 104 104" fill="none" xmlns="http://www.w3.org/2000/svg">
<circle cx="52" cy="52" r="49" fill="#FFFFFF" stroke="#4893AA" stroke-width="6"/>
<path d="M56.8168 65.9329C55.1743 64.2904 55.1255 62.7004 55.1255 62.6216C55.1236 62.2785 54.8443 62.001 54.5011 62.001H49.4761C49.1311 62.001 48.8517 62.2841 48.8517 62.6291C48.8517 62.6966 48.8292 64.2885 47.1849 65.9329C47.0067 66.111 46.9524 66.381 47.0499 66.6135C47.1436 66.8479 47.3724 66.9997 47.6255 66.9997H56.3761C56.6293 66.9997 56.858 66.8479 56.9536 66.6135C57.0493 66.381 56.9949 66.111 56.8168 65.9329Z" fill="#485C8D"/>
<path d="M64.8119 42.0009H60.7488C60.0588 42.0009 59.4981 42.5596 59.4981 43.2515C59.5 43.9415 60.0588 44.5003 60.7506 44.5003H64.5007V58.2497H39.4994V44.5003H43.2494C43.9413 44.5003 44.5 43.9415 44.5 43.2496C44.5 42.5596 43.9413 41.999 43.2494 41.999H39.1881C37.9788 42.0009 37 42.9796 37 44.1872V61.0622C37 62.2715 37.9788 63.2503 39.1881 63.2503H64.8138C66.0213 63.2503 67 62.2715 67 61.0622V44.1872C67 42.9796 66.0213 42.0009 64.8119 42.0009Z" fill="#485C8D"/>
<path d="M56.6279 43.8363C56.6523 43.6413 56.6879 43.45 56.6879 43.2494C56.6879 43.0488 56.6541 42.8575 56.6279 42.6625L57.7529 41.8113C58.0041 41.6219 58.0754 41.2731 57.916 41.0013L56.9073 39.25C56.7498 38.9763 56.4141 38.8638 56.1235 38.9875L54.8279 39.535C54.5129 39.295 54.1754 39.0813 53.8041 38.9256L53.6316 37.5475C53.5923 37.2344 53.326 37 53.011 37H50.9897C50.6747 37 50.4085 37.2344 50.3691 37.5475L50.1966 38.9238C49.8254 39.0794 49.4879 39.2913 49.1729 39.5331L47.8772 38.9856C47.5866 38.8638 47.251 38.9763 47.0935 39.2481L46.0829 40.9994C45.9254 41.2731 45.9947 41.62 46.246 41.8094L47.371 42.6606C47.3466 42.8556 47.311 43.0469 47.311 43.2475C47.311 43.4481 47.3447 43.6394 47.371 43.8344L46.246 44.6856C45.9947 44.875 45.9235 45.2238 46.0829 45.4956L47.0935 47.2469C47.251 47.5206 47.5866 47.6331 47.8772 47.5094L49.1729 46.9619C49.4879 47.2019 49.8254 47.4156 50.1966 47.5713L50.3691 48.9475C50.4085 49.2606 50.6747 49.495 50.9897 49.495H53.011C53.326 49.495 53.5923 49.2606 53.6316 48.9475L53.8041 47.5713C54.1754 47.4156 54.5129 47.2038 54.8279 46.9619L56.1235 47.5094C56.4141 47.6313 56.7498 47.5188 56.9073 47.2469L57.9179 45.4956C58.0754 45.2219 58.006 44.875 57.7548 44.6856L56.6279 43.8363ZM52.0004 45.7506C50.6204 45.7506 49.501 44.6313 49.501 43.2513C49.501 41.8694 50.6204 40.75 52.0004 40.75C53.3804 40.75 54.4998 41.8694 54.4998 43.2494C54.4998 44.6313 53.3804 45.7506 52.0004 45.7506Z" fill="#4893AA"/>
</svg>
