<svg width="104" height="104" viewBox="0 0 104 104" fill="none" xmlns="http://www.w3.org/2000/svg">
<circle cx="52" cy="52" r="49" fill="#FFFFFF" stroke="#4893AA" stroke-width="6"/>
<path d="M56.8168 65.9329C55.1743 64.2904 55.1255 62.7004 55.1255 62.6216C55.1236 62.2785 54.8443 62.001 54.5011 62.001H49.4761C49.1311 62.001 48.8517 62.2841 48.8517 62.6291C48.8517 62.6966 48.8292 64.2885 47.1849 65.9329C47.0067 66.111 46.9524 66.381 47.0499 66.6135C47.1436 66.8479 47.3724 66.9997 47.6255 66.9997H56.3761C56.6293 66.9997 56.858 66.8479 56.9536 66.6135C57.0493 66.381 56.9949 66.111 56.8168 65.9329Z" fill="#485C8D"/>
<path d="M64.8119 42.0009H60.7488C60.0588 42.0009 59.4981 42.5596 59.4981 43.2515C59.5 43.9415 60.0588 44.5003 60.7506 44.5003H64.5007V58.2497H39.4994V44.5003H43.2494C43.9413 44.5003 44.5 43.9415 44.5 43.2496C44.5 42.5596 43.9413 41.999 43.2494 41.999H39.1881C37.9788 42.0009 37 42.9796 37 44.1872V61.0622C37 62.2715 37.9788 63.2503 39.1881 63.2503H64.8138C66.0213 63.2503 67 62.2715 67 61.0622V44.1872C67 42.9796 66.0213 42.0009 64.8119 42.0009Z" fill="#485C8D"/>
<g clip-path="url(#clip0_4_6635)">
<path d="M46.2188 40.7813C46.3645 40.927 46.5417 41 46.7499 41L50.375 41L51.4375 39.9375C51.7396 39.6459 52.0938 39.5 52.5 39.5C52.9062 39.5 53.2604 39.6457 53.5625 39.9375L54.6172 41L58.25 41C58.4583 41 58.6354 40.927 58.7813 40.7813C58.9271 40.6355 59 40.4584 59 40.2499L59 37.75C59 37.5417 58.9271 37.3646 58.7813 37.2188C58.6354 37.073 58.4583 37.0001 58.25 37.0001L46.7499 37.0001C46.5416 37.0001 46.3644 37.073 46.2187 37.2188C46.0728 37.3646 46 37.5417 46 37.75L46 40.2499C46 40.4584 46.0728 40.6355 46.2188 40.7813Z" fill="#4893AA"/>
<path d="M52.8513 41.1483C52.7575 41.0494 52.6403 40.9999 52.4998 40.9999C52.3591 40.9999 52.242 41.0494 52.1482 41.1483L48.6482 44.6483C48.4868 44.7994 48.4502 44.9817 48.5388 45.1952C48.6272 45.3983 48.7809 45.4998 48.9997 45.5L50.9998 45.5L50.9998 49C50.9998 49.1354 51.0493 49.2526 51.1481 49.3515C51.2472 49.4505 51.3643 49.5 51.4997 49.5L53.4999 49.5C53.6352 49.5 53.7524 49.4505 53.8514 49.3515C53.9503 49.2526 53.9998 49.1354 53.9998 49L53.9998 45.4999L55.9998 45.4999C56.2187 45.4999 56.3723 45.3983 56.4608 45.1952C56.5493 44.9817 56.5129 44.7993 56.3514 44.6483L52.8513 41.1483Z" fill="#0D2D3D"/>
</g>
<defs>
<clipPath id="clip0_4_6635">
<rect width="13" height="13" fill="white" transform="translate(59 50) rotate(-180)"/>
</clipPath>
</defs>
</svg>
