<svg width="104" height="104" viewBox="0 0 104 104" fill="none" xmlns="http://www.w3.org/2000/svg">
<circle cx="52" cy="52" r="49" fill="#FFFFFF" stroke="#4893AA" stroke-width="6"/>
<path d="M58.8754 48.999C54.396 48.999 50.751 52.644 50.751 57.1234C50.751 61.6028 54.396 65.2478 58.8754 65.2478C63.3547 65.2478 66.9997 61.6046 66.9997 57.1253C66.9997 52.6459 63.3547 48.999 58.8754 48.999ZM62.9404 55.1359L58.566 60.1365C58.0897 60.6803 57.2535 60.7084 56.7416 60.1965L54.2422 57.6971C53.7547 57.2096 53.7547 56.4184 54.2422 55.929C54.7297 55.4396 55.521 55.4415 56.0104 55.929L57.5647 57.4834L61.0597 53.4878C61.5154 52.9703 62.3047 52.9159 62.8241 53.3696C63.3435 53.8271 63.396 54.6146 62.9404 55.1359Z" fill="#4893AA"/>
<path d="M63.25 39H40.75C38.6875 39 37 40.6875 37 42.75V57.75C37 59.8125 38.6875 61.5 40.75 61.5H49.2006C48.8387 60.7125 48.5763 59.8744 48.4262 59.0006H40.75C40.0619 59.0006 39.4994 58.4381 39.4994 57.75V42.75C39.4994 42.0619 40.0619 41.4994 40.75 41.4994H63.25C63.9381 41.4994 64.5006 42.0619 64.5006 42.75V48.1125C65.4513 48.6994 66.2875 49.4381 67 50.2744V42.75C67 40.6875 65.3125 39 63.25 39Z" fill="#485C8D"/>
<path d="M46.0615 45.249H38.5615C38.044 45.249 37.624 45.669 37.624 46.1865V54.3109C37.624 54.8284 38.044 55.2484 38.5615 55.2484H46.0615C47.9571 55.2484 49.4984 53.7071 49.4984 51.8115V48.6859C49.5003 46.7921 47.9571 45.249 46.0615 45.249ZM44.4996 52.749C43.1196 52.749 42.0003 51.6296 42.0003 50.2496C42.0003 48.8696 43.1196 47.7503 44.4996 47.7503C45.8796 47.7503 46.999 48.8696 46.999 50.2496C46.999 51.6296 45.8796 52.749 44.4996 52.749Z" fill="#485C8D"/>
</svg>
