<svg width="574" height="1437" viewBox="0 0 574 1437" fill="none" xmlns="http://www.w3.org/2000/svg">
<path opacity="0.5" fill-rule="evenodd" clip-rule="evenodd" d="M301.235 1402.95C300.976 1402.86 300.844 1402.57 300.936 1402.31C301.265 1401.38 301.553 1400.45 301.802 1399.51C301.873 1399.25 302.144 1399.08 302.412 1399.15C302.68 1399.22 302.843 1399.49 302.772 1399.76C302.514 1400.73 302.216 1401.69 301.875 1402.66C301.782 1402.92 301.494 1403.05 301.235 1402.95ZM303.163 1395.26C302.89 1395.23 302.699 1394.97 302.732 1394.7C302.852 1393.73 302.931 1392.75 302.971 1391.77C302.983 1391.5 303.212 1391.28 303.488 1391.29C303.764 1391.29 303.982 1391.52 303.971 1391.8C303.93 1392.81 303.847 1393.83 303.723 1394.84C303.689 1395.11 303.437 1395.3 303.163 1395.26ZM297.771 1410.07C297.535 1409.92 297.461 1409.61 297.602 1409.38C298.096 1408.55 298.555 1407.71 298.979 1406.87C299.103 1406.63 299.403 1406.52 299.65 1406.65C299.898 1406.77 300.001 1407.07 299.876 1407.31C299.439 1408.18 298.966 1409.04 298.456 1409.9C298.315 1410.14 298.007 1410.21 297.771 1410.07ZM303.389 1387.3C303.114 1387.32 302.874 1387.11 302.85 1386.84C302.765 1385.88 302.645 1384.92 302.49 1383.95C302.447 1383.68 302.629 1383.42 302.901 1383.37C303.173 1383.33 303.432 1383.51 303.476 1383.78C303.635 1384.78 303.759 1385.77 303.847 1386.76C303.871 1387.04 303.665 1387.28 303.389 1387.3ZM293.071 1416.52C292.86 1416.34 292.835 1416.02 293.013 1415.81C293.639 1415.06 294.233 1414.31 294.796 1413.56C294.962 1413.34 295.274 1413.29 295.497 1413.45C295.72 1413.62 295.768 1413.93 295.602 1414.15C295.024 1414.92 294.415 1415.69 293.774 1416.46C293.597 1416.67 293.281 1416.69 293.071 1416.52ZM302.04 1379.42C301.773 1379.49 301.499 1379.33 301.427 1379.06C301.176 1378.14 300.896 1377.23 300.588 1376.3C300.501 1376.04 300.639 1375.76 300.901 1375.67C301.162 1375.58 301.446 1375.72 301.534 1375.98C301.85 1376.92 302.137 1377.87 302.394 1378.81C302.467 1379.07 302.307 1379.35 302.04 1379.42ZM287.429 1422.33C287.242 1422.12 287.257 1421.81 287.459 1421.62C288.239 1420.89 288.987 1420.17 289.704 1419.44C289.898 1419.25 290.214 1419.24 290.412 1419.43C290.61 1419.63 290.615 1419.94 290.422 1420.14C289.691 1420.88 288.928 1421.62 288.134 1422.36C287.931 1422.54 287.615 1422.53 287.429 1422.33ZM299.466 1371.92C299.212 1372.03 298.919 1371.91 298.81 1371.65C298.422 1370.75 298.009 1369.85 297.571 1368.94C297.451 1368.69 297.553 1368.39 297.801 1368.27C298.049 1368.15 298.349 1368.25 298.469 1368.5C298.915 1369.42 299.336 1370.35 299.732 1371.27C299.841 1371.52 299.721 1371.81 299.466 1371.92ZM281.448 1427.29C281.281 1427.07 281.324 1426.76 281.544 1426.59C282.327 1425.99 283.087 1425.39 283.823 1424.78C284.037 1424.61 284.352 1424.64 284.528 1424.85C284.705 1425.06 284.675 1425.38 284.462 1425.55C283.714 1426.16 282.942 1426.78 282.148 1427.38C281.929 1427.55 281.615 1427.51 281.448 1427.29ZM295.977 1364.78C295.735 1364.92 295.431 1364.83 295.295 1364.59C294.804 1363.72 294.291 1362.84 293.758 1361.97C293.614 1361.73 293.687 1361.42 293.922 1361.28C294.158 1361.13 294.466 1361.2 294.609 1361.44C295.151 1362.33 295.671 1363.22 296.17 1364.11C296.305 1364.35 296.218 1364.65 295.977 1364.78ZM276.351 1430.91C276.198 1430.68 276.26 1430.37 276.489 1430.22C276.801 1430.01 277.111 1429.8 277.417 1429.58C277.645 1429.43 277.956 1429.48 278.114 1429.71C278.272 1429.94 278.216 1430.25 277.989 1430.41C277.677 1430.62 277.362 1430.84 277.044 1431.05C276.815 1431.2 276.505 1431.14 276.351 1430.91ZM291.784 1357.95C291.555 1358.11 291.244 1358.04 291.089 1357.81C290.546 1357.01 289.985 1356.21 289.409 1355.4C289.248 1355.17 289.299 1354.86 289.523 1354.7C289.747 1354.54 290.059 1354.59 290.22 1354.81C290.803 1355.63 291.37 1356.44 291.92 1357.26C292.075 1357.49 292.014 1357.8 291.784 1357.95ZM287.088 1351.43C286.869 1351.6 286.555 1351.56 286.386 1351.34C285.793 1350.57 285.187 1349.81 284.566 1349.04C284.393 1348.82 284.426 1348.51 284.64 1348.33C284.854 1348.16 285.169 1348.19 285.343 1348.41C285.968 1349.18 286.581 1349.96 287.179 1350.73C287.348 1350.95 287.307 1351.26 287.088 1351.43ZM282.108 1345.29C281.898 1345.47 281.583 1345.45 281.403 1345.24C280.749 1344.47 280.082 1343.71 279.404 1342.94C279.22 1342.74 279.239 1342.42 279.445 1342.24C279.651 1342.05 279.967 1342.07 280.15 1342.28C280.834 1343.05 281.505 1343.82 282.164 1344.59C282.344 1344.8 282.319 1345.11 282.108 1345.29ZM276.758 1339.28C276.556 1339.47 276.239 1339.45 276.051 1339.25C275.391 1338.54 274.721 1337.83 274.042 1337.12C273.851 1336.92 273.858 1336.6 274.057 1336.41C274.257 1336.22 274.573 1336.23 274.764 1336.43C275.447 1337.14 276.121 1337.86 276.785 1338.57C276.973 1338.78 276.961 1339.09 276.758 1339.28ZM271.255 1333.54C271.059 1333.73 270.742 1333.73 270.548 1333.53C269.832 1332.81 269.107 1332.09 268.373 1331.37C268.176 1331.17 268.174 1330.86 268.367 1330.66C268.56 1330.46 268.877 1330.46 269.074 1330.65C269.811 1331.38 270.539 1332.1 271.258 1332.83C271.453 1333.02 271.451 1333.34 271.255 1333.54ZM265.557 1327.94C265.366 1328.14 265.05 1328.14 264.85 1327.95C264.138 1327.27 263.418 1326.59 262.692 1325.91C262.49 1325.72 262.48 1325.4 262.668 1325.2C262.857 1325 263.173 1324.99 263.375 1325.18C264.104 1325.86 264.827 1326.55 265.542 1327.23C265.741 1327.42 265.748 1327.74 265.557 1327.94ZM259.703 1322.46C259.516 1322.66 259.2 1322.68 258.996 1322.49C258.259 1321.82 257.515 1321.15 256.765 1320.47C256.559 1320.29 256.542 1319.97 256.726 1319.76C256.911 1319.56 257.227 1319.54 257.432 1319.73C258.185 1320.4 258.931 1321.08 259.671 1321.75C259.875 1321.94 259.889 1322.26 259.703 1322.46ZM253.78 1317.15C253.598 1317.35 253.282 1317.37 253.075 1317.19C252.33 1316.54 251.58 1315.88 250.825 1315.23C250.616 1315.04 250.594 1314.73 250.774 1314.52C250.955 1314.31 251.271 1314.29 251.48 1314.47C252.237 1315.13 252.989 1315.78 253.736 1316.44C253.943 1316.62 253.963 1316.94 253.78 1317.15ZM247.711 1311.89C247.532 1312.1 247.216 1312.12 247.006 1311.94C246.25 1311.3 245.489 1310.65 244.723 1310.01C244.512 1309.83 244.485 1309.51 244.663 1309.3C244.84 1309.09 245.156 1309.06 245.367 1309.24C246.135 1309.89 246.897 1310.54 247.655 1311.18C247.866 1311.36 247.891 1311.68 247.711 1311.89ZM241.629 1306.77C241.452 1306.98 241.137 1307.01 240.925 1306.83C240.16 1306.2 239.392 1305.56 238.619 1304.93C238.406 1304.75 238.375 1304.43 238.55 1304.22C238.726 1304.01 239.041 1303.98 239.254 1304.15C240.028 1304.79 240.798 1305.43 241.564 1306.06C241.776 1306.24 241.805 1306.55 241.629 1306.77ZM336.825 787.869C336.926 787.362 337.024 786.856 337.119 786.352C337.17 786.081 337.431 785.902 337.703 785.952C337.974 786.003 338.153 786.264 338.102 786.535C338.006 787.043 337.907 787.552 337.806 788.064C337.706 788.563 337.605 789.061 337.501 789.557C337.445 789.828 337.18 790 336.909 789.943C336.639 789.886 336.467 789.62 336.523 789.35C336.626 788.857 336.726 788.364 336.825 787.869ZM235.429 1301.67C235.255 1301.89 234.94 1301.92 234.726 1301.74C233.952 1301.12 233.175 1300.49 232.395 1299.86C232.18 1299.68 232.146 1299.37 232.319 1299.15C232.492 1298.94 232.807 1298.91 233.022 1299.08C233.803 1299.71 234.582 1300.34 235.356 1300.97C235.571 1301.14 235.603 1301.46 235.429 1301.67ZM338.391 781.984C338.118 781.94 337.933 781.684 337.976 781.411C338.128 780.441 338.27 779.479 338.402 778.523C338.439 778.25 338.691 778.058 338.965 778.094C339.238 778.131 339.431 778.383 339.393 778.656C339.26 779.62 339.117 780.591 338.963 781.57C338.92 781.842 338.663 782.028 338.391 781.984ZM335.051 797.74C334.784 797.669 334.625 797.395 334.695 797.128C334.946 796.167 335.189 795.202 335.424 794.233C335.489 793.965 335.758 793.799 336.027 793.863C336.295 793.927 336.461 794.197 336.396 794.465C336.16 795.442 335.915 796.415 335.661 797.384C335.592 797.651 335.318 797.81 335.051 797.74ZM339.43 774.25C339.156 774.22 338.957 773.974 338.986 773.699C339.091 772.683 339.185 771.674 339.267 770.674C339.289 770.399 339.53 770.193 339.805 770.215C340.081 770.236 340.286 770.477 340.264 770.752C340.181 771.762 340.087 772.78 339.98 773.806C339.951 774.081 339.705 774.279 339.43 774.25ZM332.809 805.418C332.546 805.334 332.401 805.053 332.484 804.79C332.785 803.835 333.078 802.877 333.362 801.915C333.44 801.65 333.718 801.498 333.983 801.576C334.248 801.653 334.4 801.931 334.322 802.195C334.035 803.165 333.74 804.132 333.437 805.094C333.354 805.357 333.072 805.502 332.809 805.418ZM330.193 812.977C329.934 812.881 329.803 812.593 329.898 812.334C330.243 811.402 330.58 810.466 330.908 809.527C331 809.266 331.284 809.128 331.545 809.218C331.806 809.309 331.944 809.594 331.853 809.854C331.522 810.801 331.183 811.744 330.835 812.683C330.739 812.942 330.451 813.074 330.193 812.977ZM340.055 766.265C339.779 766.252 339.566 766.018 339.578 765.742C339.621 764.784 339.652 763.834 339.672 762.891C339.678 762.615 339.906 762.395 340.182 762.4C340.458 762.405 340.678 762.633 340.672 762.909C340.652 763.861 340.62 764.822 340.577 765.79C340.565 766.066 340.331 766.278 340.055 766.265ZM327.213 820.409C326.959 820.3 326.842 820.006 326.95 819.752C327.34 818.834 327.722 817.912 328.097 816.987C328.2 816.731 328.491 816.606 328.748 816.709C329.004 816.812 329.128 817.103 329.025 817.359C328.648 818.292 328.262 819.221 327.869 820.146C327.761 820.4 327.467 820.517 327.213 820.409ZM340.185 758.36C339.909 758.364 339.681 758.144 339.676 757.868C339.655 756.879 339.623 755.898 339.578 754.926C339.566 754.65 339.778 754.415 340.054 754.401C340.329 754.388 340.564 754.6 340.577 754.876C340.622 755.859 340.655 756.851 340.676 757.852C340.681 758.128 340.461 758.356 340.185 758.36ZM323.894 827.689C323.645 827.569 323.541 827.27 323.661 827.021C324.092 826.123 324.516 825.221 324.932 824.316C325.047 824.065 325.343 823.954 325.595 824.069C325.846 824.183 325.957 824.48 325.842 824.731C325.422 825.643 324.996 826.552 324.561 827.457C324.442 827.706 324.143 827.81 323.894 827.689ZM339.791 750.526C339.516 750.549 339.274 750.345 339.249 750.07C339.158 749.064 339.054 748.066 338.937 747.078C338.905 746.804 339.1 746.554 339.374 746.52C339.648 746.487 339.897 746.681 339.93 746.956C340.048 747.956 340.154 748.966 340.245 749.985C340.27 750.26 340.066 750.502 339.791 750.526ZM320.252 834.817C320.009 834.686 319.918 834.383 320.048 834.139C320.519 833.259 320.983 832.376 321.439 831.489C321.565 831.244 321.866 831.146 322.112 831.272C322.358 831.398 322.456 831.699 322.329 831.944C321.87 832.838 321.403 833.727 320.929 834.613C320.799 834.857 320.495 834.948 320.252 834.817ZM229.228 1296.68C229.056 1296.89 228.741 1296.93 228.525 1296.76C227.748 1296.14 226.968 1295.52 226.186 1294.9C225.969 1294.73 225.933 1294.41 226.104 1294.19C226.276 1293.98 226.59 1293.94 226.806 1294.11C227.59 1294.73 228.371 1295.35 229.149 1295.97C229.365 1296.15 229.4 1296.46 229.228 1296.68ZM338.817 742.61C338.545 742.654 338.288 742.469 338.242 742.197C338.082 741.234 337.909 740.28 337.723 739.335C337.67 739.064 337.845 738.8 338.116 738.746C338.387 738.691 338.65 738.867 338.704 739.138C338.892 740.095 339.067 741.062 339.23 742.037C339.275 742.309 339.09 742.566 338.817 742.61ZM316.311 841.783C316.073 841.642 315.995 841.335 316.135 841.097C316.642 840.239 317.141 839.378 317.633 838.513C317.77 838.273 318.075 838.188 318.315 838.324C318.556 838.46 318.64 838.765 318.504 839.005C318.008 839.876 317.505 840.743 316.995 841.607C316.855 841.845 316.548 841.924 316.311 841.783ZM337.25 734.846C336.981 734.912 336.711 734.747 336.645 734.479C336.409 733.531 336.161 732.591 335.9 731.66C335.825 731.394 335.979 731.117 336.244 731.041C336.51 730.966 336.787 731.119 336.861 731.385C337.126 732.329 337.377 733.282 337.616 734.243C337.683 734.511 337.518 734.781 337.25 734.846ZM312.09 848.588C311.858 848.438 311.792 848.128 311.942 847.896C312.483 847.055 313.018 846.211 313.547 845.364C313.693 845.129 314.001 845.057 314.236 845.203C314.471 845.348 314.543 845.656 314.397 845.891C313.865 846.744 313.326 847.593 312.781 848.439C312.632 848.672 312.322 848.738 312.09 848.588ZM429.127 256.163C429.228 255.655 429.326 255.149 429.423 254.643C429.475 254.372 429.737 254.194 430.008 254.245C430.279 254.296 430.458 254.558 430.406 254.829C430.308 255.338 430.209 255.847 430.108 256.358C430.006 256.87 429.902 257.38 429.797 257.887C429.74 258.157 429.475 258.33 429.205 258.273C428.935 258.216 428.762 257.951 428.818 257.681C428.923 257.177 429.026 256.671 429.127 256.163ZM430.727 250.237C430.455 250.191 430.272 249.932 430.317 249.66C430.484 248.664 430.643 247.67 430.795 246.679C430.837 246.406 431.091 246.218 431.365 246.259C431.638 246.3 431.826 246.555 431.784 246.828C431.631 247.825 431.471 248.825 431.303 249.828C431.258 250.1 430.999 250.283 430.727 250.237ZM427.366 266.051C427.099 265.98 426.94 265.707 427.009 265.44C427.253 264.499 427.49 263.548 427.721 262.588C427.785 262.319 428.054 262.153 428.323 262.216C428.592 262.28 428.758 262.549 428.694 262.818C428.462 263.787 428.222 264.745 427.976 265.694C427.907 265.961 427.633 266.121 427.366 266.051ZM431.934 242.219C431.66 242.183 431.467 241.932 431.502 241.658C431.632 240.647 431.755 239.639 431.869 238.634C431.9 238.36 432.148 238.162 432.422 238.193C432.696 238.224 432.894 238.471 432.863 238.745C432.748 239.757 432.625 240.771 432.494 241.788C432.459 242.062 432.207 242.255 431.934 242.219ZM425.136 273.708C424.873 273.624 424.728 273.342 424.812 273.079C425.116 272.12 425.412 271.15 425.701 270.169C425.779 269.904 426.056 269.751 426.321 269.829C426.587 269.906 426.739 270.183 426.661 270.448C426.37 271.438 426.071 272.417 425.764 273.384C425.68 273.648 425.398 273.792 425.136 273.708ZM335.08 727.253C334.818 727.339 334.535 727.196 334.447 726.935C334.134 725.999 333.808 725.073 333.469 724.154C333.374 723.895 333.505 723.607 333.763 723.51C334.022 723.413 334.31 723.544 334.406 723.804C334.749 724.734 335.08 725.674 335.397 726.622C335.485 726.884 335.342 727.166 335.08 727.253ZM432.831 234.173C432.556 234.148 432.353 233.904 432.378 233.629C432.469 232.607 432.553 231.588 432.628 230.572C432.649 230.296 432.888 230.089 433.164 230.109C433.439 230.129 433.646 230.368 433.626 230.643C433.55 231.666 433.466 232.692 433.374 233.721C433.349 233.996 433.106 234.198 432.831 234.173ZM222.95 1291.71C222.779 1291.92 222.465 1291.96 222.248 1291.79C221.46 1291.17 220.669 1290.55 219.877 1289.93C219.659 1289.76 219.62 1289.45 219.79 1289.23C219.96 1289.01 220.275 1288.97 220.492 1289.14C221.286 1289.76 222.077 1290.38 222.866 1291C223.083 1291.17 223.12 1291.49 222.95 1291.71ZM307.62 855.221C307.394 855.062 307.339 854.75 307.497 854.524C308.067 853.707 308.631 852.887 309.188 852.063C309.343 851.835 309.654 851.774 309.883 851.929C310.112 852.083 310.172 852.394 310.017 852.622C309.456 853.451 308.889 854.276 308.316 855.098C308.158 855.324 307.846 855.379 307.62 855.221ZM422.514 281.141C422.256 281.041 422.128 280.752 422.226 280.494C422.568 279.598 422.903 278.692 423.23 277.775C423.323 277.515 423.608 277.378 423.869 277.47C424.129 277.562 424.266 277.848 424.173 278.108C423.842 279.034 423.505 279.949 423.159 280.854C423.061 281.112 422.771 281.24 422.514 281.141ZM433.414 226.078C433.138 226.064 432.926 225.829 432.94 225.553C432.99 224.531 433.033 223.512 433.068 222.496C433.078 222.22 433.309 222.004 433.585 222.012C433.861 222.021 434.077 222.252 434.068 222.528C434.033 223.55 433.989 224.576 433.938 225.605C433.925 225.881 433.689 226.093 433.414 226.078ZM419.394 288.529C419.143 288.414 419.033 288.117 419.148 287.866C419.553 286.976 419.951 286.075 420.34 285.162C420.449 284.908 420.742 284.789 420.996 284.897C421.251 285.004 421.37 285.297 421.262 285.551C420.868 286.474 420.466 287.384 420.056 288.284C419.942 288.535 419.645 288.645 419.394 288.529ZM433.674 217.956C433.397 217.953 433.176 217.726 433.179 217.45C433.188 216.435 433.19 215.423 433.184 214.415C433.183 214.139 433.405 213.913 433.681 213.911C433.957 213.909 434.183 214.131 434.184 214.407C434.19 215.422 434.188 216.44 434.179 217.462C434.176 217.738 433.95 217.959 433.674 217.956ZM302.904 861.708C302.683 861.542 302.639 861.229 302.805 861.008C303.407 860.205 304.003 859.399 304.594 858.59C304.757 858.367 305.07 858.318 305.293 858.48C305.516 858.643 305.566 858.955 305.403 859.178C304.809 859.992 304.209 860.802 303.604 861.609C303.438 861.83 303.124 861.874 302.904 861.708ZM415.825 295.651C415.583 295.519 415.493 295.215 415.624 294.972C416.097 294.094 416.561 293.203 417.018 292.301C417.142 292.055 417.443 291.955 417.69 292.078C417.937 292.202 418.037 292.502 417.912 292.749C417.451 293.661 416.981 294.561 416.502 295.45C416.371 295.693 416.068 295.782 415.825 295.651ZM433.606 209.839C433.33 209.847 433.1 209.63 433.091 209.354C433.06 208.342 433.021 207.333 432.974 206.327C432.961 206.051 433.174 205.817 433.45 205.803C433.725 205.79 433.96 206.003 433.973 206.278C434.02 207.291 434.059 208.306 434.091 209.325C434.099 209.601 433.882 209.831 433.606 209.839ZM332.312 719.853C332.057 719.96 331.764 719.841 331.656 719.586C331.269 718.677 330.869 717.775 330.457 716.881C330.342 716.631 330.45 716.333 330.7 716.216C330.95 716.1 331.248 716.208 331.364 716.459C331.781 717.364 332.186 718.277 332.578 719.199C332.686 719.453 332.566 719.747 332.312 719.853ZM433.21 201.738C432.934 201.757 432.695 201.549 432.676 201.274C432.603 200.26 432.522 199.249 432.435 198.241C432.411 197.966 432.613 197.723 432.889 197.698C433.164 197.674 433.407 197.877 433.431 198.152C433.519 199.166 433.6 200.184 433.673 201.205C433.693 201.48 433.485 201.719 433.21 201.738ZM411.798 302.482C411.565 302.334 411.497 302.025 411.644 301.791C412.167 300.964 412.681 300.125 413.188 299.274C413.329 299.037 413.635 298.957 413.873 299.097C414.111 299.238 414.19 299.544 414.049 299.782C413.537 300.642 413.016 301.491 412.487 302.329C412.34 302.562 412.031 302.631 411.798 302.482ZM297.995 868.012C297.779 867.838 297.745 867.524 297.918 867.308C298.542 866.529 299.161 865.747 299.775 864.962C299.945 864.745 300.259 864.706 300.477 864.876C300.695 865.045 300.734 865.359 300.564 865.577C299.947 866.366 299.325 867.152 298.697 867.935C298.525 868.151 298.21 868.185 297.995 868.012ZM216.662 1286.79C216.493 1287.01 216.179 1287.05 215.961 1286.88C215.176 1286.27 214.389 1285.66 213.601 1285.05C213.382 1284.88 213.342 1284.57 213.511 1284.35C213.68 1284.13 213.994 1284.09 214.212 1284.26C214.657 1284.6 215.102 1284.95 215.545 1285.29C215.889 1285.56 216.231 1285.83 216.574 1286.09C216.792 1286.26 216.832 1286.57 216.662 1286.79ZM432.485 193.662C432.211 193.693 431.964 193.495 431.933 193.22C431.819 192.206 431.697 191.196 431.569 190.19C431.534 189.916 431.727 189.665 432 189.629C432.274 189.593 432.525 189.786 432.56 190.06C432.69 191.073 432.812 192.09 432.927 193.111C432.958 193.385 432.76 193.632 432.485 193.662ZM328.96 712.665C328.715 712.792 328.413 712.695 328.286 712.45C327.834 711.579 327.37 710.716 326.895 709.86C326.761 709.619 326.847 709.314 327.088 709.179C327.329 709.044 327.634 709.13 327.768 709.371C328.248 710.237 328.718 711.111 329.176 711.993C329.303 712.238 329.206 712.539 328.96 712.665ZM407.287 309.033C407.066 308.868 407.02 308.555 407.183 308.333C407.76 307.548 408.329 306.753 408.89 305.947C409.047 305.72 409.359 305.663 409.586 305.819C409.813 305.976 409.871 306.287 409.713 306.514C409.146 307.33 408.57 308.135 407.986 308.929C407.822 309.151 407.509 309.197 407.287 309.033ZM292.877 874.181C292.667 874.002 292.643 873.686 292.822 873.476C293.47 872.715 294.113 871.95 294.752 871.184C294.929 870.972 295.244 870.942 295.456 871.118C295.669 871.295 295.698 871.61 295.521 871.822C294.88 872.593 294.233 873.36 293.582 874.126C293.403 874.336 293.087 874.361 292.877 874.181ZM431.437 185.624C431.164 185.665 430.909 185.477 430.867 185.204C430.712 184.193 430.55 183.186 430.381 182.183C430.335 181.91 430.517 181.652 430.79 181.605C431.062 181.559 431.32 181.741 431.366 182.014C431.537 183.024 431.7 184.037 431.856 185.055C431.898 185.328 431.71 185.582 431.437 185.624ZM402.305 315.265C402.095 315.085 402.072 314.769 402.251 314.559C402.889 313.81 403.52 313.049 404.143 312.277C404.316 312.062 404.631 312.027 404.847 312.2C405.062 312.372 405.097 312.687 404.924 312.902C404.294 313.683 403.655 314.453 403.009 315.211C402.83 315.421 402.514 315.445 402.305 315.265ZM430.067 177.626C429.796 177.677 429.534 177.5 429.482 177.229C429.287 176.226 429.085 175.226 428.877 174.231C428.82 173.96 428.993 173.695 429.263 173.638C429.533 173.58 429.798 173.753 429.855 174.023C430.065 175.025 430.268 176.031 430.464 177.04C430.516 177.312 430.339 177.574 430.067 177.626ZM325.088 705.758C324.853 705.902 324.545 705.827 324.401 705.591C323.887 704.756 323.364 703.928 322.83 703.106C322.68 702.874 322.744 702.564 322.975 702.413C323.206 702.262 323.516 702.326 323.666 702.558C324.206 703.389 324.736 704.227 325.255 705.072C325.399 705.307 325.324 705.615 325.088 705.758ZM210.339 1281.9C210.171 1282.12 209.857 1282.16 209.638 1281.99C208.84 1281.38 208.041 1280.77 207.241 1280.15C207.022 1279.98 206.98 1279.67 207.148 1279.45C207.317 1279.23 207.63 1279.19 207.849 1279.36C208.651 1279.97 209.45 1280.59 210.248 1281.2C210.467 1281.37 210.507 1281.68 210.339 1281.9ZM287.597 880.19C287.392 880.005 287.376 879.689 287.561 879.484C288.231 878.74 288.896 877.993 289.556 877.244C289.739 877.037 290.055 877.017 290.262 877.199C290.47 877.381 290.49 877.697 290.307 877.904C289.644 878.657 288.976 879.407 288.303 880.154C288.119 880.359 287.802 880.375 287.597 880.19ZM396.909 321.116C396.712 320.922 396.711 320.605 396.904 320.408C397.597 319.7 398.283 318.982 398.961 318.254C399.149 318.052 399.465 318.039 399.668 318.226C399.871 318.413 399.884 318.729 399.696 318.932C399.01 319.669 398.316 320.395 397.615 321.111C397.422 321.308 397.105 321.31 396.909 321.116ZM428.385 169.682C428.116 169.744 427.847 169.577 427.784 169.308C427.551 168.316 427.312 167.328 427.066 166.343C426.999 166.075 427.161 165.804 427.429 165.736C427.697 165.668 427.968 165.831 428.035 166.099C428.283 167.089 428.524 168.084 428.758 169.082C428.821 169.351 428.654 169.619 428.385 169.682ZM282.156 886.065C281.956 885.875 281.948 885.558 282.137 885.358C282.822 884.635 283.502 883.91 284.178 883.182C284.366 882.98 284.682 882.968 284.885 883.156C285.088 883.343 285.1 883.66 284.912 883.862C284.233 884.593 283.55 885.321 282.863 886.046C282.673 886.247 282.356 886.255 282.156 886.065ZM320.751 699.137C320.525 699.296 320.213 699.241 320.054 699.016C319.486 698.215 318.909 697.42 318.323 696.63C318.158 696.409 318.203 696.095 318.424 695.93C318.646 695.764 318.959 695.809 319.124 696.031C319.716 696.828 320.299 697.632 320.872 698.441C321.032 698.667 320.977 698.979 320.751 699.137ZM426.399 161.811C426.133 161.883 425.858 161.726 425.785 161.46C425.515 160.48 425.239 159.503 424.957 158.53C424.881 158.265 425.033 157.987 425.298 157.91C425.563 157.832 425.84 157.984 425.917 158.249C426.201 159.228 426.478 160.211 426.75 161.197C426.823 161.464 426.666 161.738 426.399 161.811ZM391.132 326.585C390.949 326.378 390.968 326.062 391.174 325.878C391.91 325.22 392.64 324.552 393.362 323.874C393.563 323.685 393.88 323.694 394.069 323.894C394.259 324.095 394.251 324.411 394.049 324.6C393.319 325.286 392.582 325.961 391.837 326.626C391.631 326.81 391.315 326.791 391.132 326.585ZM203.996 1277.04C203.828 1277.26 203.514 1277.3 203.295 1277.13C202.505 1276.53 201.715 1275.92 200.923 1275.32C200.704 1275.15 200.661 1274.84 200.829 1274.62C200.996 1274.4 201.31 1274.36 201.53 1274.52C202.092 1274.95 202.654 1275.38 203.215 1275.81L203.902 1276.34C204.122 1276.5 204.164 1276.82 203.996 1277.04ZM276.572 891.809C276.376 891.614 276.375 891.298 276.57 891.102C277.276 890.389 277.979 889.675 278.677 888.958C278.87 888.761 279.187 888.756 279.385 888.949C279.583 889.141 279.587 889.458 279.394 889.655C278.693 890.375 277.988 891.092 277.279 891.807C277.084 892.003 276.768 892.004 276.572 891.809ZM424.122 154.021C423.859 154.103 423.579 153.956 423.496 153.693C423.191 152.724 422.88 151.759 422.564 150.799C422.478 150.536 422.619 150.253 422.882 150.166C423.144 150.079 423.427 150.221 423.513 150.484C423.831 151.45 424.144 152.421 424.45 153.395C424.533 153.658 424.386 153.939 424.122 154.021ZM316.008 692.796C315.791 692.967 315.477 692.931 315.304 692.715C314.692 691.949 314.071 691.188 313.442 690.433C313.265 690.22 313.293 689.905 313.505 689.728C313.716 689.55 314.032 689.578 314.208 689.79C314.843 690.553 315.47 691.32 316.088 692.094C316.26 692.309 316.224 692.624 316.008 692.796ZM385.015 331.678C384.845 331.46 384.883 331.146 385.1 330.975C385.875 330.364 386.644 329.744 387.406 329.115C387.619 328.939 387.934 328.968 388.11 329.18C388.287 329.392 388.258 329.708 388.045 329.883C387.276 330.519 386.499 331.145 385.717 331.763C385.5 331.934 385.185 331.895 385.015 331.678ZM270.87 897.42C270.678 897.221 270.684 896.905 270.883 896.713C271.6 896.02 272.313 895.325 273.024 894.628C273.221 894.435 273.537 894.437 273.731 894.634C273.925 894.831 273.922 895.148 273.725 895.341C273.012 896.04 272.296 896.738 271.577 897.433C271.378 897.625 271.062 897.619 270.87 897.42ZM421.567 146.319C421.307 146.41 421.022 146.273 420.929 146.013C420.591 145.056 420.247 144.104 419.898 143.155C419.802 142.896 419.934 142.608 420.193 142.512C420.452 142.416 420.74 142.548 420.836 142.807C421.187 143.761 421.533 144.719 421.873 145.681C421.965 145.942 421.828 146.227 421.567 146.319ZM197.65 1272.19C197.482 1272.41 197.169 1272.46 196.949 1272.29C196.152 1271.68 195.354 1271.08 194.555 1270.47C194.336 1270.3 194.293 1269.99 194.46 1269.77C194.627 1269.55 194.941 1269.5 195.161 1269.67C195.625 1270.03 196.09 1270.38 196.553 1270.73L197.555 1271.49C197.774 1271.66 197.817 1271.98 197.65 1272.19ZM378.607 336.409C378.449 336.183 378.505 335.871 378.731 335.712C379.541 335.144 380.346 334.567 381.144 333.982C381.367 333.819 381.68 333.866 381.844 334.088C382.008 334.31 381.961 334.623 381.738 334.787C380.932 335.377 380.12 335.959 379.303 336.533C379.077 336.691 378.765 336.636 378.607 336.409ZM310.918 686.718C310.711 686.9 310.395 686.88 310.212 686.673C309.563 685.941 308.907 685.213 308.244 684.49C308.057 684.286 308.07 683.97 308.273 683.783C308.476 683.596 308.793 683.608 308.979 683.812C309.647 684.541 310.308 685.274 310.962 686.013C311.145 686.219 311.125 686.535 310.918 686.718ZM265.041 902.929C264.853 902.726 264.865 902.41 265.068 902.222C265.804 901.538 266.536 900.852 267.266 900.165C267.467 899.975 267.783 899.984 267.973 900.185C268.162 900.386 268.154 900.702 267.953 900.891C267.221 901.581 266.486 902.269 265.748 902.955C265.545 903.143 265.229 903.131 265.041 902.929ZM418.748 138.71C418.49 138.81 418.201 138.683 418.1 138.426C417.729 137.48 417.353 136.538 416.972 135.6C416.868 135.345 416.99 135.053 417.246 134.948C417.501 134.844 417.793 134.966 417.897 135.222C418.281 136.165 418.659 137.112 419.031 138.063C419.132 138.32 419.005 138.609 418.748 138.71ZM191.281 1267.35C191.114 1267.57 190.8 1267.61 190.581 1267.45L188.202 1265.64C187.982 1265.47 187.94 1265.16 188.107 1264.94C188.274 1264.72 188.588 1264.67 188.807 1264.84L191.186 1266.65C191.406 1266.82 191.448 1267.13 191.281 1267.35ZM371.964 340.797C371.818 340.563 371.888 340.255 372.122 340.108C372.96 339.579 373.793 339.043 374.621 338.501C374.852 338.349 375.162 338.413 375.314 338.643C375.466 338.874 375.402 339.184 375.172 339.335C374.337 339.882 373.498 340.422 372.653 340.955C372.419 341.102 372.111 341.031 371.964 340.797ZM259.131 908.312C258.947 908.106 258.965 907.79 259.17 907.606C259.914 906.939 260.655 906.27 261.392 905.599C261.597 905.414 261.913 905.428 262.099 905.632C262.285 905.837 262.27 906.153 262.066 906.339C261.326 907.011 260.583 907.682 259.837 908.351C259.632 908.535 259.315 908.518 259.131 908.312ZM415.678 131.198C415.424 131.307 415.13 131.189 415.021 130.935C414.62 130.001 414.213 129.071 413.802 128.145C413.69 127.892 413.804 127.597 414.056 127.484C414.308 127.372 414.604 127.485 414.716 127.737C415.129 128.668 415.537 129.603 415.941 130.542C416.05 130.796 415.932 131.09 415.678 131.198ZM305.555 680.895C305.355 681.086 305.039 681.08 304.847 680.881C304.165 680.175 303.477 679.472 302.783 678.773C302.588 678.578 302.589 678.261 302.784 678.066C302.98 677.871 303.296 677.871 303.491 678.067C304.189 678.77 304.882 679.477 305.568 680.188C305.76 680.387 305.754 680.703 305.555 680.895ZM253.114 913.613C252.933 913.404 252.955 913.089 253.164 912.908C253.921 912.249 254.676 911.59 255.428 910.928C255.636 910.746 255.952 910.766 256.134 910.973C256.317 911.181 256.297 911.497 256.089 911.679C255.335 912.342 254.578 913.003 253.819 913.663C253.61 913.844 253.295 913.822 253.114 913.613ZM412.373 123.788C412.123 123.904 411.826 123.795 411.709 123.545C411.279 122.622 410.844 121.704 410.405 120.789C410.286 120.54 410.39 120.242 410.639 120.122C410.887 120.002 411.186 120.106 411.306 120.355C411.747 121.274 412.184 122.197 412.616 123.124C412.733 123.374 412.624 123.671 412.373 123.788ZM365.127 344.878C364.991 344.638 365.075 344.333 365.314 344.196C366.173 343.704 367.028 343.206 367.878 342.702C368.116 342.561 368.423 342.639 368.564 342.876C368.706 343.113 368.628 343.42 368.39 343.561C367.535 344.069 366.674 344.57 365.809 345.065C365.569 345.202 365.264 345.118 365.127 344.878ZM181.842 1260.8C181.622 1260.63 181.579 1260.32 181.747 1260.1C181.914 1259.88 182.228 1259.84 182.447 1260L184.833 1261.82C185.053 1261.99 185.095 1262.3 184.928 1262.52C184.761 1262.74 184.447 1262.78 184.227 1262.62L181.842 1260.8ZM299.964 675.288C299.772 675.487 299.456 675.492 299.257 675.3C298.547 674.615 297.831 673.933 297.111 673.254C296.91 673.064 296.9 672.748 297.089 672.547C297.278 672.345 297.594 672.335 297.795 672.525C298.519 673.207 299.239 673.893 299.953 674.582C300.151 674.774 300.156 675.09 299.964 675.288ZM247.034 918.808C246.856 918.597 246.883 918.282 247.094 918.104C247.859 917.458 248.621 916.812 249.381 916.163C249.591 915.984 249.907 916.009 250.086 916.219C250.266 916.429 250.241 916.745 250.031 916.924C249.269 917.573 248.505 918.222 247.739 918.868C247.528 919.047 247.212 919.02 247.034 918.808ZM408.85 116.478C408.603 116.602 408.302 116.502 408.179 116.255C407.721 115.344 407.26 114.438 406.796 113.535C406.669 113.29 406.765 112.988 407.01 112.861C407.256 112.734 407.557 112.83 407.684 113.076C408.151 113.982 408.614 114.893 409.073 115.808C409.197 116.054 409.097 116.355 408.85 116.478ZM358.133 348.692C358.005 348.447 358.1 348.145 358.345 348.017C359.222 347.556 360.095 347.09 360.965 346.618C361.207 346.487 361.511 346.576 361.643 346.819C361.775 347.061 361.686 347.365 361.443 347.496C360.569 347.97 359.69 348.439 358.808 348.903C358.564 349.031 358.261 348.937 358.133 348.692ZM175.817 1256.21L175.484 1255.95C175.265 1255.79 175.223 1255.47 175.39 1255.25C175.558 1255.03 175.872 1254.99 176.091 1255.16C176.884 1255.76 177.678 1256.37 178.471 1256.98C178.691 1257.14 178.733 1257.46 178.566 1257.68C178.398 1257.9 178.085 1257.94 177.865 1257.77C177.182 1257.25 176.5 1256.73 175.817 1256.21ZM294.191 669.863C294.005 670.066 293.688 670.081 293.484 669.895C292.756 669.231 292.024 668.57 291.288 667.912C291.082 667.728 291.064 667.412 291.248 667.206C291.432 667 291.748 666.982 291.954 667.166C292.693 667.827 293.428 668.49 294.159 669.156C294.363 669.342 294.377 669.659 294.191 669.863ZM240.873 923.932C240.698 923.719 240.729 923.404 240.942 923.229C241.715 922.593 242.486 921.956 243.256 921.317C243.468 921.141 243.783 921.17 243.96 921.382C244.136 921.594 244.107 921.91 243.895 922.086C243.124 922.726 242.351 923.364 241.577 924.001C241.363 924.177 241.048 924.146 240.873 923.932ZM405.123 109.271C404.879 109.401 404.576 109.309 404.446 109.065C403.964 108.167 403.478 107.272 402.989 106.382C402.857 106.14 402.945 105.836 403.186 105.702C403.428 105.569 403.732 105.657 403.865 105.899C404.356 106.793 404.844 107.692 405.328 108.594C405.458 108.837 405.366 109.14 405.123 109.271ZM351.016 352.28C350.895 352.032 350.998 351.732 351.247 351.611C352.141 351.174 353.031 350.733 353.919 350.288C354.166 350.165 354.466 350.264 354.59 350.51C354.715 350.757 354.615 351.058 354.369 351.182C353.477 351.629 352.582 352.071 351.684 352.51C351.436 352.631 351.137 352.528 351.016 352.28ZM234.659 928.976C234.486 928.761 234.521 928.446 234.736 928.273C235.516 927.646 236.295 927.018 237.072 926.388C237.286 926.214 237.601 926.247 237.775 926.461C237.949 926.676 237.916 926.991 237.702 927.165C236.924 927.795 236.143 928.425 235.362 929.053C235.147 929.226 234.832 929.192 234.659 928.976ZM401.208 102.163C400.967 102.299 400.662 102.215 400.526 101.975C400.021 101.088 399.513 100.205 399.002 99.3264C398.863 99.0876 398.944 98.7815 399.182 98.6424C399.421 98.5033 399.727 98.5839 399.866 98.8226C400.379 99.7047 400.889 100.591 401.395 101.482C401.532 101.722 401.448 102.027 401.208 102.163ZM172.218 1252.82C172.05 1253.04 171.736 1253.09 171.517 1252.92C170.725 1252.31 169.934 1251.7 169.143 1251.1C168.924 1250.93 168.883 1250.61 169.051 1250.39C169.219 1250.18 169.533 1250.13 169.752 1250.3C170.543 1250.91 171.334 1251.52 172.125 1252.12C172.345 1252.29 172.386 1252.61 172.218 1252.82ZM288.277 664.583C288.095 664.79 287.779 664.812 287.571 664.63C286.83 663.984 286.086 663.34 285.339 662.697C285.13 662.517 285.106 662.201 285.286 661.992C285.466 661.782 285.781 661.758 285.991 661.938C286.74 662.583 287.486 663.229 288.229 663.877C288.438 664.059 288.459 664.375 288.277 664.583ZM343.814 355.679C343.699 355.428 343.809 355.132 344.06 355.016C344.964 354.6 345.866 354.181 346.764 353.758C347.014 353.641 347.312 353.748 347.43 353.997C347.548 354.247 347.441 354.545 347.191 354.663C346.289 355.087 345.384 355.507 344.477 355.925C344.226 356.04 343.929 355.93 343.814 355.679ZM228.388 933.959C228.217 933.742 228.254 933.428 228.471 933.257C229.257 932.638 230.041 932.018 230.824 931.397C231.04 931.225 231.355 931.262 231.526 931.478C231.698 931.694 231.662 932.008 231.446 932.18C230.662 932.802 229.876 933.423 229.09 934.043C228.873 934.214 228.558 934.176 228.388 933.959ZM397.12 95.1527C396.883 95.2945 396.576 95.2174 396.434 94.9806C395.908 94.1049 395.38 93.2334 394.849 92.3661C394.705 92.1306 394.779 91.8227 395.014 91.6783C395.25 91.5338 395.558 91.6075 395.702 91.8431C396.234 92.7134 396.764 93.588 397.292 94.467C397.434 94.7037 397.357 95.0108 397.12 95.1527ZM165.891 1247.96C165.722 1248.18 165.408 1248.22 165.19 1248.05C164.396 1247.44 163.604 1246.83 162.813 1246.21C162.595 1246.04 162.555 1245.73 162.724 1245.51C162.893 1245.29 163.207 1245.25 163.425 1245.42C164.216 1246.03 165.008 1246.65 165.8 1247.26C166.019 1247.43 166.059 1247.74 165.891 1247.96ZM282.265 659.417C282.087 659.628 281.771 659.654 281.56 659.476C280.809 658.841 280.055 658.208 279.3 657.575C279.088 657.398 279.06 657.082 279.237 656.87C279.414 656.659 279.73 656.631 279.942 656.808C280.698 657.442 281.453 658.077 282.206 658.713C282.417 658.891 282.443 659.207 282.265 659.417ZM222.074 938.883C221.905 938.664 221.945 938.35 222.163 938.181C222.955 937.568 223.745 936.955 224.535 936.34C224.753 936.17 225.067 936.209 225.237 936.427C225.406 936.645 225.368 936.959 225.15 937.128C224.359 937.744 223.568 938.359 222.775 938.972C222.557 939.141 222.243 939.101 222.074 938.883ZM336.548 358.936C336.437 358.683 336.552 358.388 336.805 358.277C337.714 357.877 338.622 357.475 339.527 357.07C339.78 356.958 340.075 357.07 340.188 357.322C340.301 357.575 340.188 357.87 339.936 357.983C339.028 358.388 338.119 358.792 337.207 359.193C336.954 359.304 336.659 359.189 336.548 358.936ZM392.876 88.2356C392.643 88.3825 392.334 88.312 392.187 88.0784C391.642 87.2134 391.095 86.3528 390.547 85.4964C390.398 85.2639 390.465 84.9546 390.697 84.8054C390.93 84.6561 391.239 84.7235 391.388 84.956C391.938 85.8151 392.487 86.6786 393.034 87.5464C393.181 87.7801 393.11 88.0887 392.876 88.2356ZM159.565 1243.06C159.395 1243.27 159.081 1243.31 158.863 1243.14C158.075 1242.53 157.289 1241.92 156.504 1241.3C156.286 1241.13 156.248 1240.82 156.418 1240.6C156.589 1240.38 156.903 1240.34 157.12 1240.51C157.905 1241.13 158.691 1241.74 159.478 1242.35C159.695 1242.52 159.734 1242.84 159.565 1243.06ZM276.193 654.335C276.017 654.548 275.701 654.577 275.489 654.401C274.729 653.771 273.967 653.141 273.204 652.512C272.991 652.336 272.961 652.021 273.137 651.808C273.313 651.595 273.628 651.565 273.841 651.741C274.604 652.37 275.366 653.001 276.127 653.631C276.34 653.807 276.369 654.123 276.193 654.335ZM215.72 943.759C215.553 943.539 215.595 943.226 215.815 943.058C216.61 942.451 217.405 941.843 218.199 941.235C218.418 941.067 218.732 941.108 218.9 941.327C219.068 941.546 219.027 941.86 218.808 942.028C218.013 942.637 217.217 943.246 216.421 943.854C216.201 944.021 215.888 943.979 215.72 943.759ZM388.491 81.4066C388.26 81.558 387.95 81.4935 387.799 81.2628C387.237 80.408 386.674 79.5577 386.109 78.7117C385.956 78.482 386.018 78.1715 386.247 78.018C386.477 77.8645 386.787 77.9262 386.941 78.1559C387.507 79.0042 388.071 79.8571 388.635 80.7144C388.787 80.9452 388.722 81.2552 388.491 81.4066ZM329.234 362.094C329.126 361.84 329.244 361.546 329.498 361.438C330.411 361.048 331.323 360.658 332.233 360.266C332.486 360.157 332.78 360.274 332.89 360.527C332.999 360.781 332.882 361.075 332.629 361.184C331.717 361.577 330.804 361.968 329.89 362.358C329.636 362.466 329.342 362.348 329.234 362.094ZM209.338 948.593C209.172 948.372 209.216 948.059 209.436 947.893C210.235 947.291 211.034 946.688 211.832 946.084C212.052 945.917 212.365 945.961 212.532 946.181C212.699 946.401 212.656 946.715 212.435 946.881C211.637 947.485 210.838 948.089 210.038 948.691C209.818 948.858 209.504 948.814 209.338 948.593ZM153.287 1238.14C153.116 1238.36 152.801 1238.39 152.584 1238.22C151.799 1237.6 151.016 1236.98 150.234 1236.36C150.018 1236.19 149.982 1235.88 150.153 1235.66C150.325 1235.44 150.639 1235.41 150.856 1235.58C151.637 1236.2 152.419 1236.82 153.203 1237.44C153.42 1237.61 153.458 1237.92 153.287 1238.14ZM268.507 648.645C268.035 648.256 267.562 647.867 267.089 647.478C266.875 647.303 266.845 646.988 267.02 646.774C267.196 646.561 267.511 646.53 267.724 646.706C268.154 647.06 268.585 647.414 269.015 647.768C269.348 648.041 269.68 648.315 270.013 648.588C270.226 648.763 270.257 649.079 270.081 649.292C269.906 649.505 269.591 649.536 269.377 649.36L268.507 648.645ZM383.98 74.659C383.752 74.8144 383.441 74.7554 383.285 74.5273C382.709 73.6821 382.131 72.8414 381.553 72.0053C381.396 71.7781 381.453 71.4667 381.68 71.3094C381.907 71.1522 382.218 71.2088 382.375 71.4359C382.955 72.2742 383.534 73.117 384.112 73.9644C384.268 74.1925 384.209 74.5036 383.98 74.659ZM321.893 365.194C321.786 364.94 321.906 364.647 322.161 364.54C323.078 364.154 323.994 363.769 324.91 363.383C325.164 363.276 325.457 363.395 325.565 363.649C325.672 363.904 325.553 364.197 325.298 364.304C324.382 364.691 323.465 365.076 322.548 365.462C322.293 365.569 322 365.449 321.893 365.194ZM202.928 953.397C202.762 953.176 202.808 952.863 203.029 952.698C203.832 952.098 204.634 951.499 205.436 950.898C205.657 950.732 205.97 950.777 206.136 950.998C206.302 951.219 206.257 951.533 206.036 951.698C205.583 952.037 205.131 952.376 204.678 952.714C204.328 952.976 203.977 953.238 203.627 953.499C203.406 953.664 203.093 953.619 202.928 953.397ZM379.359 67.9851C379.133 68.144 378.822 68.0897 378.663 67.864C378.073 67.0277 377.484 66.1961 376.895 65.3692C376.735 65.1443 376.787 64.832 377.011 64.6716C377.236 64.5112 377.549 64.5634 377.709 64.7883C378.299 65.617 378.89 66.4505 379.48 67.2886C379.639 67.5143 379.585 67.8262 379.359 67.9851ZM147.015 1233.16C146.842 1233.38 146.528 1233.41 146.312 1233.24C145.53 1232.61 144.751 1231.99 143.973 1231.36C143.758 1231.19 143.724 1230.87 143.898 1230.66C144.071 1230.44 144.386 1230.41 144.601 1230.58C145.377 1231.21 146.156 1231.83 146.937 1232.46C147.152 1232.63 147.187 1232.95 147.015 1233.16ZM263.962 644.255C263.786 644.468 263.471 644.498 263.258 644.322C262.497 643.694 261.736 643.064 260.975 642.434C260.763 642.258 260.734 641.942 260.91 641.73C261.086 641.517 261.402 641.488 261.614 641.664C262.374 642.294 263.134 642.923 263.895 643.551C264.107 643.727 264.138 644.042 263.962 644.255ZM314.545 368.276C314.438 368.022 314.558 367.729 314.812 367.622C315.731 367.236 316.649 366.851 317.567 366.466C317.822 366.359 318.115 366.479 318.221 366.734C318.328 366.989 318.208 367.282 317.954 367.388C317.036 367.773 316.118 368.158 315.2 368.544C314.945 368.651 314.652 368.531 314.545 368.276ZM198.023 956.425C198.354 956.178 198.686 955.932 199.018 955.686C199.239 955.521 199.552 955.567 199.717 955.788C199.882 956.01 199.836 956.323 199.614 956.488C198.811 957.085 198.009 957.681 197.206 958.276C196.984 958.441 196.671 958.394 196.506 958.172C196.342 957.95 196.389 957.637 196.61 957.473C197.081 957.124 197.552 956.774 198.023 956.425ZM374.644 61.376C374.421 61.5377 374.108 61.4874 373.946 61.2638C373.347 60.4358 372.748 59.6126 372.151 58.7943C371.988 58.5713 372.036 58.2584 372.259 58.0954C372.482 57.9325 372.795 57.981 372.958 58.204C373.556 59.0238 374.156 59.8484 374.757 60.6779C374.918 60.9016 374.868 61.2142 374.644 61.376ZM257.867 639.193C257.689 639.405 257.374 639.433 257.163 639.256C256.405 638.62 255.648 637.984 254.894 637.345C254.683 637.167 254.657 636.851 254.835 636.641C255.014 636.43 255.329 636.404 255.54 636.582C256.293 637.219 257.048 637.855 257.805 638.489C258.016 638.666 258.044 638.982 257.867 639.193ZM140.803 1228.15C140.629 1228.37 140.314 1228.4 140.1 1228.23C139.33 1227.6 138.562 1226.97 137.797 1226.34C137.583 1226.17 137.552 1225.85 137.727 1225.64C137.903 1225.43 138.218 1225.4 138.431 1225.57C139.195 1226.2 139.962 1226.82 140.731 1227.45C140.945 1227.62 140.978 1227.94 140.803 1228.15ZM307.21 371.379C307.102 371.125 307.22 370.831 307.474 370.723C308.389 370.333 309.305 369.944 310.221 369.556C310.476 369.448 310.769 369.568 310.877 369.822C310.984 370.076 310.865 370.37 310.611 370.477C309.696 370.864 308.781 371.253 307.866 371.643C307.612 371.751 307.318 371.633 307.21 371.379ZM190.062 962.94C189.898 962.717 189.945 962.404 190.168 962.24C190.973 961.645 191.779 961.05 192.585 960.453C192.807 960.289 193.121 960.336 193.285 960.558C193.449 960.78 193.402 961.093 193.18 961.257C192.374 961.854 191.567 962.449 190.762 963.045C190.54 963.209 190.226 963.162 190.062 962.94ZM369.853 54.8212C369.631 54.9853 369.318 54.9382 369.153 54.7161C368.547 53.8959 367.942 53.0806 367.339 52.2702C367.174 52.0487 367.22 51.7355 367.442 51.5705C367.663 51.4056 367.976 51.4514 368.141 51.6729C368.745 52.4843 369.351 53.3006 369.958 54.1221C370.122 54.3441 370.075 54.6572 369.853 54.8212ZM183.628 967.688C183.464 967.466 183.511 967.153 183.734 966.989L186.145 965.21C186.367 965.046 186.68 965.093 186.844 965.315C187.008 965.538 186.961 965.851 186.739 966.015L184.327 967.794C184.105 967.958 183.792 967.91 183.628 967.688ZM251.822 634.07C251.642 634.28 251.326 634.303 251.117 634.123C250.368 633.478 249.62 632.831 248.876 632.181C248.668 631.999 248.646 631.684 248.828 631.476C249.01 631.268 249.326 631.247 249.534 631.428C250.276 632.076 251.021 632.721 251.769 633.365C251.978 633.545 252.002 633.861 251.822 634.07ZM299.899 374.544C299.788 374.291 299.903 373.996 300.155 373.885C301.067 373.485 301.979 373.087 302.892 372.691C303.145 372.581 303.44 372.698 303.549 372.951C303.659 373.205 303.543 373.499 303.289 373.609C302.378 374.004 301.468 374.401 300.558 374.8C300.305 374.911 300.01 374.796 299.899 374.544ZM134.621 1223.08C134.445 1223.29 134.129 1223.32 133.917 1223.14C133.144 1222.5 132.374 1221.86 131.607 1221.22C131.395 1221.04 131.367 1220.72 131.545 1220.51C131.722 1220.3 132.038 1220.27 132.249 1220.45C133.015 1221.09 133.784 1221.73 134.555 1222.37C134.768 1222.55 134.797 1222.87 134.621 1223.08ZM365.004 48.3091C364.783 48.4748 364.47 48.43 364.304 48.2091C363.694 47.3959 363.086 46.5878 362.481 45.7849C362.315 45.5644 362.359 45.2509 362.58 45.0847C362.8 44.9185 363.114 44.9625 363.28 45.1831C363.885 45.9865 364.493 46.7952 365.104 47.6092C365.27 47.8301 365.225 48.1435 365.004 48.3091ZM178.797 970.633L179.698 969.967C179.921 969.803 180.234 969.85 180.398 970.072C180.562 970.294 180.515 970.607 180.292 970.771C179.486 971.367 178.68 971.962 177.875 972.557C177.653 972.721 177.34 972.674 177.176 972.452C177.012 972.23 177.059 971.917 177.281 971.753C177.786 971.379 178.291 971.006 178.797 970.633ZM292.632 377.809C292.517 377.558 292.627 377.261 292.878 377.146C293.783 376.731 294.69 376.319 295.598 375.91C295.85 375.797 296.146 375.909 296.259 376.161C296.372 376.413 296.26 376.709 296.008 376.822C295.102 377.23 294.198 377.641 293.296 378.054C293.045 378.169 292.748 378.06 292.632 377.809ZM245.857 628.852C245.673 629.058 245.357 629.076 245.151 628.892C244.415 628.233 243.681 627.571 242.951 626.906C242.747 626.72 242.732 626.404 242.919 626.2C243.105 625.996 243.421 625.982 243.625 626.168C244.353 626.83 245.083 627.489 245.817 628.146C246.023 628.33 246.041 628.646 245.857 628.852ZM128.501 1217.94C128.323 1218.16 128.007 1218.18 127.797 1218C127.043 1217.36 126.293 1216.72 125.546 1216.08C125.336 1215.9 125.312 1215.58 125.493 1215.37C125.672 1215.17 125.988 1215.14 126.198 1215.32C126.943 1215.96 127.692 1216.6 128.444 1217.24C128.654 1217.42 128.68 1217.73 128.501 1217.94ZM360.12 41.8265C359.9 41.993 359.586 41.9494 359.419 41.7292C358.803 40.9136 358.19 40.1035 357.581 39.299C357.414 39.0788 357.458 38.7652 357.678 38.5985L357.873 38.4507C357.986 38.3657 358.146 38.3879 358.231 38.5002C358.888 39.369 359.55 40.2443 360.217 41.1261C360.384 41.3464 360.34 41.6599 360.12 41.8265ZM171.597 975.96C172.152 975.548 172.708 975.136 173.265 974.724C173.487 974.559 173.8 974.606 173.964 974.828C174.129 975.05 174.082 975.363 173.86 975.527C173.055 976.124 172.25 976.72 171.447 977.317C171.225 977.481 170.912 977.435 170.748 977.213C170.583 976.992 170.629 976.678 170.851 976.514C171.1 976.329 171.348 976.145 171.597 975.96ZM285.43 381.212C285.31 380.964 285.413 380.664 285.661 380.544C286.558 380.109 287.456 379.679 288.356 379.252C288.606 379.134 288.904 379.241 289.022 379.491C289.14 379.74 289.033 380.038 288.783 380.157C287.887 380.582 286.992 381.01 286.099 381.443C285.85 381.563 285.551 381.46 285.43 381.212ZM240.008 623.508C239.819 623.71 239.503 623.72 239.302 623.531C238.581 622.852 237.863 622.171 237.15 621.485C236.951 621.294 236.945 620.977 237.137 620.778C237.329 620.58 237.645 620.574 237.844 620.766C238.554 621.448 239.268 622.126 239.986 622.801C240.187 622.99 240.197 623.307 240.008 623.508ZM122.445 1212.74C122.264 1212.95 121.948 1212.97 121.74 1212.79C120.98 1212.12 120.223 1211.46 119.471 1210.79C119.264 1210.61 119.245 1210.3 119.428 1210.09C119.611 1209.88 119.927 1209.86 120.134 1210.05C120.884 1210.71 121.639 1211.37 122.397 1212.03C122.605 1212.21 122.627 1212.53 122.445 1212.74ZM355.227 35.3584C355.007 35.5249 354.693 35.4812 354.527 35.2609C353.906 34.4391 353.291 33.6232 352.681 32.8133C352.515 32.5927 352.559 32.2792 352.78 32.1132C353 31.9471 353.314 31.9914 353.48 32.212C354.089 33.0213 354.704 33.8366 355.325 34.658C355.491 34.8783 355.448 35.1919 355.227 35.3584ZM164.321 982.003C164.156 981.782 164.201 981.469 164.422 981.303C165.222 980.705 166.024 980.106 166.827 979.507C167.049 979.342 167.362 979.388 167.527 979.609C167.692 979.831 167.646 980.144 167.425 980.309C166.622 980.907 165.821 981.506 165.021 982.104C164.8 982.269 164.487 982.224 164.321 982.003ZM278.314 384.791C278.186 384.546 278.282 384.244 278.527 384.117C279.412 383.659 280.299 383.205 281.189 382.756C281.435 382.631 281.736 382.731 281.86 382.977C281.984 383.224 281.884 383.525 281.638 383.649C280.752 384.096 279.869 384.548 278.989 385.004C278.743 385.131 278.442 385.036 278.314 384.791ZM234.311 618.008C234.116 618.204 233.8 618.204 233.605 618.009C232.903 617.307 232.207 616.601 231.516 615.891C231.323 615.693 231.328 615.377 231.526 615.185C231.725 614.993 232.041 614.998 232.234 615.196C232.921 615.901 233.613 616.603 234.31 617.301C234.506 617.496 234.506 617.813 234.311 618.008ZM157.922 986.816C157.756 986.596 157.799 986.282 158.02 986.116C158.822 985.509 159.626 984.903 160.432 984.296C160.653 984.13 160.966 984.175 161.132 984.395C161.298 984.616 161.254 984.93 161.033 985.096C160.228 985.702 159.424 986.308 158.623 986.913C158.403 987.08 158.089 987.037 157.922 986.816ZM116.454 1207.44C116.27 1207.64 115.954 1207.66 115.748 1207.48C115.014 1206.81 114.284 1206.15 113.559 1205.49C113.355 1205.31 113.34 1204.99 113.527 1204.79C113.713 1204.58 114.029 1204.57 114.233 1204.75C114.957 1205.41 115.685 1206.07 116.417 1206.73C116.622 1206.92 116.639 1207.23 116.454 1207.44ZM350.36 28.8884C350.139 29.0537 349.826 29.0084 349.661 28.7871C349.039 27.9546 348.425 27.1285 347.818 26.309C347.654 26.0871 347.701 25.774 347.923 25.6099C348.145 25.4457 348.458 25.4926 348.622 25.7145C349.228 26.5325 349.841 27.3572 350.462 28.1885C350.627 28.4098 350.582 28.7231 350.36 28.8884ZM271.309 388.582C271.174 388.342 271.259 388.037 271.5 387.902C272.37 387.414 273.243 386.933 274.119 386.457C274.361 386.325 274.665 386.415 274.796 386.658C274.928 386.901 274.837 387.204 274.595 387.336C273.723 387.81 272.855 388.288 271.99 388.773C271.75 388.908 271.445 388.823 271.309 388.582ZM151.556 991.666C151.388 991.446 151.429 991.133 151.649 990.965C152.439 990.358 153.233 989.752 154.028 989.146C154.247 988.979 154.561 989.021 154.728 989.241C154.896 989.46 154.853 989.774 154.634 989.942C153.839 990.547 153.047 991.152 152.257 991.758C152.038 991.926 151.724 991.885 151.556 991.666ZM228.799 612.315C228.597 612.503 228.28 612.492 228.093 612.29C227.419 611.563 226.751 610.832 226.089 610.096C225.904 609.891 225.922 609.574 226.128 609.39C226.334 609.206 226.65 609.224 226.835 609.429C227.492 610.16 228.155 610.887 228.824 611.608C229.012 611.811 229.001 612.127 228.799 612.315ZM345.523 22.3412C345.3 22.5038 344.987 22.4548 344.824 22.2314C344.222 21.4024 343.628 20.5804 343.044 19.7653C342.883 19.5408 342.936 19.2285 343.16 19.068C343.385 18.9075 343.697 18.9595 343.858 19.184C344.44 19.9964 345.032 20.8159 345.633 21.6425C345.795 21.8659 345.746 22.1786 345.523 22.3412ZM110.567 1202.06C110.379 1202.26 110.063 1202.27 109.861 1202.08C109.12 1201.39 108.384 1200.7 107.654 1200.01C107.453 1199.82 107.445 1199.5 107.635 1199.3C107.825 1199.1 108.142 1199.09 108.342 1199.28C109.07 1199.97 109.803 1200.66 110.542 1201.35C110.744 1201.54 110.755 1201.85 110.567 1202.06ZM146.604 994.857C146.965 994.577 147.327 994.296 147.689 994.016C147.907 993.847 148.221 993.887 148.39 994.105C148.559 994.324 148.519 994.638 148.3 994.807C147.503 995.424 146.708 996.042 145.916 996.66C145.698 996.83 145.384 996.791 145.214 996.574C145.044 996.356 145.083 996.042 145.301 995.872C145.734 995.534 146.169 995.195 146.604 994.857ZM264.445 392.619C264.3 392.384 264.373 392.076 264.609 391.932C265.46 391.412 266.314 390.898 267.172 390.391C267.41 390.251 267.716 390.331 267.856 390.569C267.996 390.807 267.917 391.113 267.679 391.254C266.827 391.757 265.978 392.267 265.133 392.784C264.897 392.928 264.589 392.854 264.445 392.619ZM223.52 606.407C223.31 606.587 222.994 606.562 222.816 606.352C222.174 605.597 221.54 604.837 220.913 604.071C220.738 603.857 220.77 603.542 220.984 603.368C221.198 603.193 221.513 603.226 221.688 603.439C222.31 604.199 222.94 604.953 223.576 605.702C223.755 605.913 223.73 606.228 223.52 606.407ZM340.806 15.7319C340.579 15.8896 340.268 15.8338 340.11 15.6069C339.919 15.3317 339.73 15.0572 339.541 14.7836C339.385 14.5561 339.443 14.2449 339.671 14.0888C339.899 13.9326 340.21 13.9907 340.366 14.2181C340.553 14.4898 340.742 14.7623 340.931 15.0356C341.089 15.2625 341.033 15.5741 340.806 15.7319ZM104.761 1196.54C104.569 1196.74 104.252 1196.75 104.054 1196.56C103.347 1195.87 102.645 1195.18 101.95 1194.49C101.753 1194.3 101.752 1193.98 101.946 1193.79C102.141 1193.59 102.457 1193.59 102.653 1193.78C103.347 1194.47 104.045 1195.15 104.75 1195.84C104.948 1196.03 104.953 1196.35 104.761 1196.54ZM138.949 1001.52C138.776 1001.3 138.812 1000.99 139.028 1000.82C139.804 1000.2 140.583 999.579 141.365 998.962C141.581 998.79 141.896 998.827 142.067 999.044C142.238 999.261 142.201 999.575 141.984 999.747C141.204 1000.36 140.426 1000.98 139.651 1001.6C139.435 1001.77 139.121 1001.73 138.949 1001.52ZM257.749 396.934C257.594 396.705 257.654 396.394 257.884 396.24C258.712 395.683 259.545 395.133 260.382 394.591C260.614 394.441 260.923 394.508 261.073 394.74C261.222 394.972 261.155 395.282 260.924 395.432C260.093 395.97 259.266 396.516 258.444 397.068C258.215 397.222 257.904 397.162 257.749 396.934ZM218.523 600.264C218.305 600.433 217.991 600.393 217.823 600.174C217.219 599.387 216.624 598.594 216.036 597.795C215.872 597.572 215.921 597.26 216.144 597.097C216.367 596.934 216.68 596.983 216.844 597.205C217.426 597.997 218.016 598.783 218.614 599.562C218.782 599.782 218.742 600.096 218.523 600.264ZM99.0966 1190.93C98.8999 1191.12 98.5833 1191.12 98.3898 1190.92C97.6787 1190.2 96.9744 1189.47 96.2769 1188.75C96.0854 1188.55 96.092 1188.24 96.2912 1188.04C96.4905 1187.85 96.807 1187.86 96.9985 1188.06C97.6929 1188.78 98.3942 1189.5 99.1023 1190.22C99.2957 1190.42 99.2934 1190.74 99.0966 1190.93ZM132.697 1006.57C132.522 1006.35 132.553 1006.04 132.767 1005.86C133.544 1005.23 134.324 1004.6 135.107 1003.96C135.322 1003.79 135.637 1003.82 135.81 1004.04C135.984 1004.25 135.95 1004.57 135.736 1004.74C134.954 1005.37 134.176 1006.01 133.401 1006.64C133.187 1006.81 132.872 1006.78 132.697 1006.57ZM251.258 401.552C251.093 401.331 251.137 401.018 251.359 400.853C252.162 400.255 252.97 399.665 253.783 399.084C254.007 398.923 254.319 398.976 254.479 399.201C254.639 399.426 254.587 399.738 254.362 399.899C253.556 400.476 252.755 401.06 251.959 401.653C251.737 401.818 251.424 401.773 251.258 401.552ZM213.856 593.866C213.628 594.022 213.317 593.965 213.161 593.736C212.603 592.918 212.054 592.094 211.514 591.262C211.364 591.03 211.431 590.721 211.663 590.572C211.896 590.422 212.205 590.489 212.355 590.721C212.89 591.544 213.433 592.36 213.985 593.17C214.141 593.398 214.083 593.71 213.856 593.866ZM126.551 1011.67C126.373 1011.46 126.4 1011.14 126.612 1010.97C127.376 1010.32 128.144 1009.68 128.916 1009.04C129.128 1008.86 129.443 1008.89 129.62 1009.1C129.796 1009.32 129.767 1009.63 129.554 1009.81C128.785 1010.45 128.018 1011.09 127.256 1011.73C127.045 1011.91 126.729 1011.88 126.551 1011.67ZM93.5601 1185.16C93.3581 1185.35 93.0417 1185.33 92.8538 1185.13C92.1857 1184.41 91.5249 1183.7 90.8714 1182.98C90.6856 1182.77 90.7014 1182.46 90.9061 1182.27C91.1108 1182.08 91.427 1182.1 91.6127 1182.3C92.2628 1183.02 92.9203 1183.74 93.5849 1184.45C93.7729 1184.65 93.762 1184.97 93.5601 1185.16ZM245.018 406.487C244.841 406.275 244.869 405.96 245.081 405.783C245.851 405.145 246.626 404.516 247.406 403.895C247.622 403.723 247.936 403.76 248.108 403.976C248.279 404.193 248.242 404.507 248.026 404.679C247.253 405.295 246.485 405.918 245.722 406.551C245.51 406.727 245.195 406.699 245.018 406.487ZM209.568 587.203C209.331 587.345 209.024 587.269 208.882 587.031C208.377 586.183 207.882 585.327 207.396 584.464C207.26 584.223 207.347 583.919 207.588 583.784C207.829 583.65 208.134 583.736 208.269 583.977C208.75 584.831 209.24 585.677 209.74 586.516C209.881 586.754 209.804 587.061 209.568 587.203ZM120.462 1016.89C120.28 1016.68 120.302 1016.37 120.51 1016.19C121.262 1015.53 122.019 1014.88 122.78 1014.22C122.989 1014.04 123.305 1014.07 123.485 1014.28C123.665 1014.49 123.64 1014.8 123.431 1014.98C122.672 1015.63 121.918 1016.29 121.167 1016.94C120.959 1017.12 120.643 1017.1 120.462 1016.89ZM239.055 411.756C238.867 411.555 238.877 411.238 239.079 411.05C239.808 410.373 240.543 409.705 241.283 409.046C241.49 408.863 241.806 408.882 241.989 409.089C242.171 409.296 242.152 409.612 241.946 409.795C241.212 410.448 240.485 411.11 239.763 411.78C239.56 411.968 239.244 411.958 239.055 411.756ZM88.1984 1179.23C87.9907 1179.41 87.6747 1179.39 87.4933 1179.18C86.8277 1178.42 86.1709 1177.66 85.523 1176.89C85.3444 1176.68 85.371 1176.37 85.582 1176.19C85.793 1176.01 86.1084 1176.04 86.287 1176.25C86.931 1177.01 87.584 1177.76 88.2457 1178.52C88.4272 1178.73 88.4062 1179.05 88.1984 1179.23ZM205.717 580.294C205.472 580.42 205.17 580.324 205.045 580.078C204.594 579.192 204.153 578.298 203.723 577.396C203.604 577.147 203.711 576.849 203.96 576.731C204.21 576.613 204.508 576.72 204.627 576.969C205.052 577.861 205.488 578.744 205.934 579.62C206.06 579.866 205.963 580.167 205.717 580.294ZM115.965 1020.2C116.234 1019.96 116.503 1019.72 116.773 1019.48C116.979 1019.29 117.296 1019.31 117.479 1019.52C117.663 1019.72 117.644 1020.04 117.438 1020.22C116.681 1020.9 115.929 1021.57 115.182 1022.25C114.978 1022.44 114.662 1022.42 114.476 1022.22C114.29 1022.01 114.306 1021.69 114.51 1021.51C114.993 1021.07 115.478 1020.64 115.965 1020.2ZM233.399 417.372C233.198 417.182 233.19 416.866 233.381 416.666C234.073 415.942 234.772 415.228 235.476 414.523C235.671 414.328 235.988 414.329 236.182 414.525C236.377 414.721 236.376 415.038 236.181 415.233C235.483 415.93 234.792 416.637 234.106 417.354C233.916 417.554 233.599 417.562 233.399 417.372ZM202.341 573.141C202.088 573.25 201.793 573.133 201.685 572.879C201.297 571.965 200.919 571.043 200.552 570.112C200.451 569.855 200.578 569.565 200.836 569.465C201.093 569.365 201.383 569.493 201.484 569.75C201.847 570.669 202.22 571.58 202.604 572.484C202.712 572.738 202.595 573.032 202.341 573.141ZM83.0614 1173.14C82.8471 1173.32 82.5322 1173.29 82.3586 1173.07C81.7285 1172.29 81.1082 1171.51 80.4979 1170.73C80.3277 1170.51 80.367 1170.2 80.5848 1170.03C80.8028 1169.86 81.1169 1169.9 81.2871 1170.12C81.8931 1170.89 82.509 1171.67 83.1348 1172.44C83.3084 1172.66 83.2758 1172.97 83.0614 1173.14ZM108.628 1027.64C108.438 1027.44 108.446 1027.13 108.647 1026.94C109.365 1026.26 110.089 1025.58 110.819 1024.9C111.021 1024.71 111.337 1024.72 111.525 1024.92C111.713 1025.13 111.701 1025.44 111.499 1025.63C110.772 1026.31 110.051 1026.98 109.335 1027.66C109.135 1027.85 108.818 1027.84 108.628 1027.64ZM228.091 423.318C227.879 423.141 227.851 422.826 228.03 422.615C228.682 421.843 229.341 421.082 230.007 420.331C230.19 420.125 230.506 420.107 230.712 420.291C230.918 420.475 230.936 420.791 230.753 420.997C230.094 421.74 229.442 422.494 228.796 423.257C228.617 423.468 228.302 423.496 228.091 423.318ZM199.467 565.753C199.206 565.844 198.921 565.706 198.832 565.445C198.512 564.516 198.204 563.579 197.907 562.634C197.824 562.37 197.972 562.09 198.236 562.009C198.499 561.927 198.779 562.075 198.862 562.338C199.156 563.272 199.46 564.198 199.776 565.116C199.866 565.377 199.728 565.662 199.467 565.753ZM102.869 1033.25C102.674 1033.06 102.674 1032.74 102.869 1032.55C103.58 1031.84 104.296 1031.13 105.019 1030.43C105.216 1030.23 105.533 1030.24 105.725 1030.43C105.918 1030.63 105.914 1030.95 105.716 1031.14C104.997 1031.84 104.284 1032.55 103.577 1033.25C103.381 1033.45 103.065 1033.45 102.869 1033.25ZM223.179 429.549C222.957 429.385 222.91 429.072 223.075 428.851C223.674 428.048 224.278 427.257 224.889 426.476C225.059 426.258 225.374 426.221 225.591 426.392C225.808 426.563 225.845 426.877 225.675 427.095C225.07 427.868 224.471 428.651 223.879 429.445C223.714 429.667 223.401 429.714 223.179 429.549ZM78.1331 1166.81C77.9113 1166.97 77.5981 1166.92 77.4342 1166.7C76.8384 1165.89 76.2538 1165.08 75.6807 1164.28C75.521 1164.05 75.5753 1163.74 75.8011 1163.58C76.0268 1163.42 76.3387 1163.48 76.4984 1163.7C77.0666 1164.5 77.6464 1165.3 78.2374 1166.11C78.4012 1166.33 78.3548 1166.64 78.1331 1166.81ZM197.124 558.174C196.857 558.246 196.583 558.089 196.512 557.822C196.26 556.877 196.02 555.924 195.791 554.963C195.727 554.694 195.894 554.425 196.163 554.362C196.432 554.3 196.701 554.467 196.765 554.735C196.991 555.685 197.229 556.627 197.477 557.561C197.548 557.827 197.39 558.102 197.124 558.174ZM218.643 436.09C218.411 435.94 218.345 435.63 218.497 435.399C219.039 434.571 219.587 433.754 220.142 432.947C220.298 432.72 220.61 432.663 220.837 432.821C221.064 432.978 221.12 433.289 220.964 433.517C220.415 434.316 219.872 435.124 219.335 435.944C219.184 436.175 218.874 436.24 218.643 436.09ZM97.3024 1038.99C97.1014 1038.8 97.0919 1038.48 97.2817 1038.28C97.9713 1037.55 98.6677 1036.82 99.3705 1036.1C99.5625 1035.9 99.8791 1035.9 100.077 1036.09C100.275 1036.28 100.28 1036.6 100.088 1036.79C99.3886 1037.52 98.6957 1038.24 98.0096 1038.97C97.8199 1039.17 97.5034 1039.18 97.3024 1038.99ZM195.331 550.503C195.06 550.556 194.797 550.38 194.745 550.109C194.554 549.123 194.375 548.129 194.208 547.126C194.163 546.853 194.348 546.596 194.621 546.552C194.893 546.508 195.15 546.693 195.196 546.966C195.361 547.957 195.538 548.941 195.726 549.915C195.778 550.186 195.602 550.449 195.331 550.503ZM73.593 1160.36C73.3631 1160.51 73.0526 1160.45 72.9005 1160.22C72.328 1159.35 71.7693 1158.48 71.2248 1157.61C71.078 1157.38 71.1499 1157.07 71.3844 1156.93C71.6188 1156.78 71.9271 1156.85 72.0739 1157.09C72.6129 1157.94 73.1662 1158.8 73.7332 1159.66C73.8853 1159.89 73.823 1160.2 73.593 1160.36ZM214.478 442.942C214.238 442.806 214.154 442.501 214.291 442.261C214.8 441.372 215.317 440.494 215.839 439.627C215.982 439.39 216.29 439.315 216.526 439.459C216.761 439.602 216.836 439.91 216.694 440.146C216.176 441.005 215.665 441.874 215.161 442.755C215.024 442.994 214.719 443.079 214.478 442.942ZM194.059 542.688C193.785 542.723 193.534 542.53 193.5 542.256C193.378 541.281 193.268 540.299 193.168 539.308C193.141 539.033 193.342 538.789 193.617 538.762C193.892 538.736 194.136 538.937 194.164 539.212C194.262 540.192 194.372 541.164 194.492 542.128C194.526 542.402 194.333 542.653 194.059 542.688ZM91.9143 1044.9C91.707 1044.72 91.6869 1044.4 91.8698 1044.2C92.5276 1043.45 93.1927 1042.71 93.8649 1041.97C94.0504 1041.76 94.3667 1041.75 94.5708 1041.94C94.7749 1042.12 94.7895 1042.44 94.6039 1042.64C93.9356 1043.38 93.2744 1044.12 92.6204 1044.86C92.4376 1045.06 92.1216 1045.08 91.9143 1044.9ZM210.777 449.915C210.529 449.792 210.428 449.492 210.552 449.245C211 448.347 211.456 447.46 211.918 446.583C212.046 446.338 212.349 446.246 212.593 446.375C212.837 446.505 212.93 446.807 212.801 447.052C212.344 447.921 211.892 448.8 211.448 449.689C211.324 449.936 211.024 450.038 210.777 449.915ZM193.294 534.747C193.019 534.765 192.781 534.556 192.764 534.28C192.706 533.319 192.658 532.35 192.62 531.373C192.609 531.097 192.825 530.866 193.101 530.856C193.377 530.847 193.609 531.062 193.619 531.338C193.657 532.305 193.704 533.264 193.762 534.216C193.779 534.492 193.57 534.73 193.294 534.747ZM207.437 457.143C207.183 457.034 207.066 456.74 207.176 456.487C207.567 455.586 207.964 454.694 208.367 453.813C208.482 453.562 208.779 453.452 209.03 453.568C209.281 453.683 209.39 453.98 209.275 454.232C208.876 455.105 208.482 455.989 208.094 456.882C207.984 457.135 207.69 457.253 207.437 457.143ZM69.3246 1153.49C69.0855 1153.63 68.7796 1153.55 68.6424 1153.31C68.1519 1152.45 67.6759 1151.6 67.2146 1150.74C67.0838 1150.5 67.1763 1150.19 67.42 1150.06C67.6637 1149.93 67.9665 1150.03 68.0973 1150.27C68.553 1151.12 69.0234 1151.96 69.5081 1152.81C69.6453 1153.05 69.5636 1153.36 69.3246 1153.49ZM193.021 526.916C192.745 526.918 192.52 526.695 192.519 526.419C192.516 525.414 192.525 524.402 192.544 523.381C192.549 523.105 192.778 522.886 193.054 522.892C193.33 522.898 193.549 523.127 193.544 523.403C193.525 524.415 193.517 525.418 193.519 526.413C193.52 526.689 193.297 526.915 193.021 526.916ZM204.463 464.579C204.204 464.483 204.072 464.195 204.168 463.937C204.528 462.976 204.894 462.026 205.267 461.086C205.369 460.829 205.66 460.705 205.916 460.807C206.173 460.91 206.297 461.201 206.196 461.458C205.826 462.39 205.463 463.332 205.106 464.285C205.009 464.543 204.721 464.675 204.463 464.579ZM86.7255 1051.03C86.5113 1050.85 86.479 1050.54 86.6539 1050.32C87.2914 1049.54 87.9371 1048.77 88.5908 1047.99C88.7689 1047.78 89.0844 1047.75 89.2951 1047.93C89.5057 1048.11 89.5317 1048.43 89.3537 1048.64C88.7041 1049.41 88.0627 1050.18 87.4294 1050.95C87.2545 1051.17 86.9397 1051.2 86.7255 1051.03ZM193.194 518.968C192.918 518.954 192.705 518.72 192.72 518.444C192.77 517.478 192.83 516.505 192.899 515.524C192.919 515.249 193.159 515.042 193.434 515.062C193.709 515.083 193.916 515.323 193.897 515.598C193.828 516.57 193.768 517.535 193.718 518.493C193.704 518.769 193.47 518.981 193.194 518.968ZM201.894 472.037C201.631 471.953 201.485 471.672 201.57 471.409C201.873 470.466 202.183 469.532 202.498 468.608C202.587 468.347 202.872 468.208 203.133 468.298C203.394 468.388 203.533 468.672 203.444 468.934C203.131 469.851 202.824 470.777 202.523 471.713C202.438 471.976 202.157 472.121 201.894 472.037ZM193.779 511.079C193.504 511.052 193.304 510.807 193.332 510.533C193.433 509.535 193.545 508.53 193.666 507.518C193.699 507.244 193.949 507.049 194.223 507.083C194.497 507.117 194.692 507.366 194.659 507.64C194.538 508.645 194.428 509.641 194.327 510.631C194.299 510.906 194.054 511.106 193.779 511.079ZM199.619 479.763C199.352 479.691 199.195 479.417 199.267 479.15C199.538 478.163 199.814 477.184 200.096 476.216C200.174 475.951 200.452 475.799 200.717 475.877C200.982 475.955 201.133 476.233 201.056 476.498C200.776 477.46 200.501 478.431 200.233 479.412C200.16 479.678 199.885 479.836 199.619 479.763ZM194.737 503.252C194.464 503.213 194.274 502.959 194.315 502.686C194.458 501.718 194.61 500.743 194.771 499.762C194.816 499.49 195.073 499.306 195.346 499.351C195.618 499.397 195.802 499.654 195.757 499.927C195.597 500.901 195.446 501.868 195.304 502.829C195.264 503.103 195.01 503.292 194.737 503.252ZM197.715 487.395C197.446 487.333 197.278 487.065 197.34 486.796C197.565 485.821 197.796 484.855 198.033 483.897C198.099 483.629 198.37 483.466 198.638 483.533C198.906 483.6 199.069 483.871 199.003 484.139C198.768 485.09 198.539 486.05 198.315 487.019C198.253 487.288 197.984 487.456 197.715 487.395ZM196.051 495.379C195.78 495.328 195.601 495.066 195.653 494.795C195.75 494.288 195.849 493.779 195.95 493.268C196.052 492.756 196.155 492.246 196.26 491.739C196.316 491.468 196.58 491.295 196.851 491.351C197.121 491.407 197.294 491.672 197.239 491.943C197.135 492.447 197.032 492.954 196.931 493.463C196.83 493.97 196.732 494.476 196.636 494.98C196.584 495.251 196.323 495.43 196.051 495.379ZM81.8159 1057.33C81.5944 1057.16 81.5484 1056.85 81.7139 1056.63C82.3145 1055.83 82.924 1055.03 83.5423 1054.23C83.7116 1054.01 84.0258 1053.97 84.2436 1054.14C84.4614 1054.31 84.5002 1054.62 84.331 1054.84C83.7172 1055.63 83.1121 1056.43 82.5161 1057.22C82.3506 1057.45 82.0374 1057.49 81.8159 1057.33ZM65.5901 1146.46C65.3415 1146.58 65.0424 1146.48 64.9237 1146.23C64.4859 1145.31 64.0658 1144.39 63.6639 1143.47C63.5532 1143.22 63.6704 1142.92 63.924 1142.81C64.1776 1142.7 64.4717 1142.82 64.5823 1143.07C64.9784 1143.98 65.3925 1144.89 65.8243 1145.79C65.943 1146.04 65.8388 1146.34 65.5901 1146.46ZM77.1953 1063.86C76.9659 1063.7 76.9046 1063.39 77.0592 1063.16C77.6159 1062.34 78.1824 1061.52 78.7585 1060.7C78.9173 1060.47 79.2295 1060.42 79.4549 1060.58C79.6803 1060.74 79.7336 1061.05 79.5748 1061.28C79.0035 1062.09 78.4417 1062.9 77.8897 1063.72C77.7351 1063.95 77.4246 1064.01 77.1953 1063.86ZM62.4514 1139.17C62.193 1139.27 61.9044 1139.14 61.8086 1138.88C61.4524 1137.91 61.117 1136.95 60.8029 1135.99C60.7172 1135.73 60.8625 1135.45 61.1256 1135.36C61.3886 1135.28 61.6698 1135.42 61.7556 1135.69C62.0644 1136.63 62.3941 1137.58 62.7443 1138.52C62.8401 1138.78 62.7098 1139.07 62.4514 1139.17ZM72.9091 1070.64C72.6716 1070.5 72.5932 1070.19 72.735 1069.95C73.2516 1069.09 73.7791 1068.23 74.3172 1067.37C74.464 1067.14 74.773 1067.07 75.0064 1067.22C75.2397 1067.37 75.3092 1067.67 75.1624 1067.91C74.6292 1068.76 74.1067 1069.61 73.5949 1070.46C73.4532 1070.7 73.1465 1070.78 72.9091 1070.64ZM60.0141 1131.52C59.7467 1131.59 59.4737 1131.43 59.4065 1131.16C59.1642 1130.19 58.9442 1129.23 58.747 1128.27C58.6917 1127.99 58.8684 1127.73 59.1394 1127.68C59.4103 1127.63 59.6729 1127.8 59.7283 1128.07C59.9216 1129.02 60.1372 1129.96 60.3746 1130.91C60.4418 1131.18 60.2814 1131.45 60.0141 1131.52ZM69.0372 1077.63C68.7915 1077.51 68.6946 1077.21 68.8218 1076.96C69.2857 1076.07 69.7616 1075.18 70.2491 1074.29C70.382 1074.05 70.6864 1073.96 70.928 1074.09C71.1695 1074.23 71.2567 1074.53 71.1238 1074.77C70.6413 1075.65 70.1704 1076.53 69.7113 1077.42C69.5841 1077.66 69.2828 1077.76 69.0372 1077.63ZM65.6248 1084.86C65.3712 1084.75 65.2542 1084.45 65.3648 1084.2C65.7642 1083.28 66.1762 1082.37 66.6006 1081.47C66.7176 1081.21 67.0157 1081.11 67.2654 1081.23C67.5151 1081.34 67.6217 1081.64 67.5047 1081.89C67.0851 1082.79 66.6778 1083.69 66.283 1084.59C66.1724 1084.85 65.8783 1084.96 65.6248 1084.86ZM58.4908 1123.71C58.217 1123.74 57.9659 1123.55 57.9327 1123.28C57.8108 1122.27 57.7147 1121.27 57.6449 1120.26C57.6257 1119.99 57.8358 1119.75 58.1114 1119.74C58.3871 1119.72 58.6239 1119.93 58.6431 1120.2C58.7115 1121.18 58.8054 1122.17 58.9244 1123.15C58.9576 1123.42 58.7647 1123.67 58.4908 1123.71ZM62.7168 1092.33C62.456 1092.23 62.3178 1091.95 62.4096 1091.69C62.7441 1090.74 63.0922 1089.8 63.4537 1088.86C63.5528 1088.6 63.8427 1088.47 64.1 1088.57C64.3573 1088.67 64.4846 1088.96 64.3856 1089.22C64.0285 1090.15 63.6847 1091.08 63.3543 1092.02C63.2625 1092.28 62.9777 1092.42 62.7168 1092.33ZM58.0102 1115.77C57.7341 1115.76 57.5123 1115.54 57.5176 1115.26C57.5371 1114.25 57.584 1113.25 57.6591 1112.24C57.6796 1111.97 57.9217 1111.76 58.1968 1111.79C58.472 1111.81 58.6761 1112.05 58.6556 1112.33C58.5826 1113.31 58.5368 1114.29 58.5176 1115.27C58.5122 1115.55 58.2863 1115.77 58.0102 1115.77ZM60.3859 1099.97C60.1188 1099.9 59.959 1099.63 60.0304 1099.36C60.291 1098.39 60.5659 1097.42 60.855 1096.46C60.9343 1096.19 61.2139 1096.04 61.478 1096.12C61.7421 1096.2 61.8908 1096.48 61.8115 1096.75C61.5262 1097.7 61.2548 1098.66 60.9977 1099.62C60.9263 1099.88 60.653 1100.04 60.3859 1099.97ZM58.6803 1107.81C58.4076 1107.77 58.2216 1107.51 58.2677 1107.24C58.3529 1106.74 58.4455 1106.24 58.5454 1105.73C58.622 1105.35 58.701 1104.96 58.7822 1104.58C58.8054 1104.47 58.8288 1104.36 58.8523 1104.25C58.9103 1103.98 59.1772 1103.81 59.4468 1103.87C59.7165 1103.93 59.8869 1104.19 59.829 1104.46C59.7244 1104.95 59.6235 1105.44 59.5262 1105.93C59.4287 1106.42 59.3385 1106.91 59.2553 1107.4C59.2091 1107.67 58.9529 1107.86 58.6803 1107.81Z" fill="#4A5D70"/>
<path d="M280.092 1431.51C280.086 1429.49 278.44 1427.85 276.416 1427.86C274.392 1427.87 272.756 1429.51 272.762 1431.54C272.768 1433.56 274.414 1435.2 276.438 1435.19C278.463 1435.19 280.098 1433.54 280.092 1431.51Z" fill="#4A5D70"/>
<path d="M65.0667 1099.18C65.0604 1097.15 63.4145 1095.52 61.3904 1095.52C59.3663 1095.53 57.7305 1097.17 57.7368 1099.2C57.743 1101.22 59.3889 1102.86 61.413 1102.85C63.4371 1102.85 65.0729 1101.2 65.0667 1099.18Z" fill="#4A5D70"/>
<path d="M231.565 611.66C231.558 609.636 229.913 608 227.888 608.006C225.864 608.012 224.229 609.658 224.235 611.683C224.241 613.707 225.887 615.343 227.911 615.337C229.935 615.331 231.571 613.685 231.565 611.66Z" fill="#4A5D70"/>
</svg>
