<svg width="530" height="436" viewBox="0 0 530 436" fill="none" xmlns="http://www.w3.org/2000/svg">
<path fill-rule="evenodd" clip-rule="evenodd" d="M29.8463 206.294C45.6155 143.627 125.314 130.547 176.502 91.1057C216.009 60.665 242.479 13.4959 291.56 4.63782C349.346 -5.79127 414.627 -0.0073335 457.187 40.4483C500.365 81.4918 499.1 146.614 503.427 206.03C508.271 272.553 528.543 348.544 483.184 397.445C437.26 446.956 359.329 433.909 291.8 434.185C223.896 434.462 150.253 443.583 99.0218 399.013C45.4906 352.443 12.5317 275.102 29.8463 206.294Z" fill="url(#paint0_linear_405_1634)"/>
<path opacity="0.3" fill-rule="evenodd" clip-rule="evenodd" d="M5.17559 206.528C22.3102 143.902 108.895 130.828 164.507 91.4106C207.428 60.9886 236.188 13.8501 289.509 4.99571C352.288 -5.42911 423.209 0.347704 469.444 40.7739C516.35 81.7874 514.972 146.866 519.67 206.241C524.929 272.719 546.949 348.657 497.669 397.528C447.775 447.007 363.112 433.973 289.749 434.252C215.978 434.532 135.973 443.65 80.318 399.113C22.1644 352.577 -13.6382 275.29 5.17559 206.528Z" fill="#ADD5E0"/>
<defs>
<linearGradient id="paint0_linear_405_1634" x1="393.672" y1="38.1363" x2="372.207" y2="464.168" gradientUnits="userSpaceOnUse">
<stop stop-color="#ADD5E0"/>
<stop offset="1" stop-color="#4893AA"/>
</linearGradient>
</defs>
</svg>
