<svg width="640" height="734" viewBox="0 0 640 734" fill="none" xmlns="http://www.w3.org/2000/svg">
<g clip-path="url(#clip0_4_4889)">
<path d="M997.835 0H708.88C624.911 292.428 -0.000244141 647.124 -0.000244141 969.696H293.116C349.014 643.408 932.553 422.662 997.835 0Z" fill="#485C8D"/>
<path d="M708.88 0H997.835C972.503 164.012 867.652 299.251 747.356 420.419L555.214 237.734C627.24 156.966 687.551 74.2799 708.88 0Z" fill="#E1A551"/>
<path fill-rule="evenodd" clip-rule="evenodd" d="M708.88 969.696H997.835C962.944 743.976 780.015 575.744 608.72 418.214C459.516 280.997 319.139 151.9 293.116 0H-0.000244141C-0.000244141 157.617 149.201 322.903 311.592 484.848C149.201 646.792 -0.000244141 812.079 -0.000244141 969.696H293.116C312.028 859.302 391.339 760.989 490.543 662.85C594.341 769.66 681.137 873.076 708.88 969.696Z" fill="url(#paint0_linear_4_4889)"/>
<path d="M293.116 0H6.10352e-05C6.10352e-05 157.906 148.934 322.618 311.671 484.848L490.759 307.057C391.455 208.81 312.042 110.474 293.116 0Z" fill="#485C8D"/>
</g>
<defs>
<linearGradient id="paint0_linear_4_4889" x1="498.917" y1="0" x2="498.917" y2="969.696" gradientUnits="userSpaceOnUse">
<stop stop-color="#ADD5E0"/>
<stop offset="1" stop-color="#4893AA"/>
</linearGradient>
<clipPath id="clip0_4_4889">
<path d="M640 20C640 8.95431 631.046 0 620 0H0V734H620C631.046 734 640 725.046 640 714V20Z" fill="white"/>
</clipPath>
</defs>
</svg>
