<svg width="585" height="513" viewBox="0 0 585 513" fill="none" xmlns="http://www.w3.org/2000/svg">
<path opacity="0.3" fill-rule="evenodd" clip-rule="evenodd" d="M58.0032 241.432C75.1378 178.806 161.722 165.732 217.335 126.315C260.256 95.8926 289.015 48.7542 342.337 39.8998C405.116 29.4749 476.037 35.2518 522.271 75.6779C569.178 116.691 567.8 181.77 572.497 241.145C577.757 307.623 599.776 383.561 550.496 432.432C500.603 481.911 415.94 468.877 342.576 469.156C268.806 469.436 188.8 478.554 133.146 434.017C74.992 387.481 39.1895 310.194 58.0032 241.432Z" fill="#ADD5E0"/>
<path fill-rule="evenodd" clip-rule="evenodd" d="M82.6739 241.198C98.4432 178.531 178.142 165.451 229.33 126.01C268.836 95.5691 295.307 48.3999 344.388 39.5419C402.174 29.1128 467.455 34.8967 510.015 75.3524C553.193 116.396 551.928 181.518 556.254 240.934C561.098 307.457 581.37 383.448 536.011 432.349C490.088 481.86 412.156 468.813 344.627 469.089C276.723 469.366 203.08 478.487 151.849 433.918C98.3183 387.347 65.3594 310.006 82.6739 241.198Z" fill="url(#paint0_linear_4_6285)"/>
<path d="M522.23 4.61509L517.649 0L512.016 28.8015L476.684 104.731L480.613 109.345L505.027 109.334V215.416C505.027 284.881 451.617 342.648 382.418 348.027L194.399 358.449L194.752 361.843L272.641 384.146L410.608 372.098C489.306 365.288 549.716 299.369 549.716 220.32V108.593L571.726 107.322L522.23 4.61509Z" fill="#0D2D3D"/>
<path d="M517.649 0L476.684 104.731L500.714 104.72V210.803C500.714 280.267 448.142 338.034 380.028 343.413L194.399 358.449L273.096 379.31L407.776 367.49C485.236 360.675 544.703 294.753 544.703 215.702V103.98L566.37 102.709L517.649 0Z" fill="#485C8D"/>
<g style="mix-blend-mode:soft-light" opacity="0.3">
<g style="mix-blend-mode:soft-light" opacity="0.3">
<path d="M532.539 221.524C526.175 193.065 511.144 179.746 511.778 145.238C512.277 118.181 521.895 105.786 527.717 84.0896C531.658 69.4028 533.874 50.376 530.125 26.3031L517.649 0L476.684 104.731L500.714 104.72V210.803C500.714 280.267 448.142 338.034 380.028 343.413L194.399 358.449L273.096 379.31L407.776 367.49C463.511 362.587 509.929 327.084 531.582 278.107C535.777 259.846 536.771 240.45 532.539 221.524Z" fill="#F4F7FA"/>
</g>
</g>
<path d="M438.68 70.2238C438.68 100.684 414.883 124.644 384.466 123.71C352.811 122.737 326.189 95.3762 326.189 62.6341C326.189 29.892 352.811 6.12563 384.466 9.4231C414.883 12.592 438.68 39.7639 438.68 70.2238Z" fill="#4893AA"/>
<path d="M446.899 67.5968C446.899 98.0566 423.101 122.017 392.684 121.083C361.03 120.109 334.411 92.7492 334.411 60.0071C334.411 27.2651 361.033 3.49868 392.687 6.79614C423.101 9.965 446.899 37.137 446.899 67.5968Z" fill="#ADD5E0"/>
<path d="M444.512 67.4354C444.512 96.5544 421.741 119.42 392.685 118.479C362.501 117.501 337.158 91.3879 337.158 60.1919C337.158 28.9959 362.501 6.30356 392.685 9.39853C421.741 12.3786 444.512 38.3178 444.512 67.4354Z" fill="#ADD5E0"/>
<path opacity="0.53" d="M441.994 67.2657C441.994 94.985 420.304 116.726 392.659 115.797C363.976 114.84 339.923 90.0073 339.923 60.3834C339.923 30.7596 363.976 9.17415 392.659 12.0844C420.304 14.8784 441.994 39.5464 441.994 67.2657Z" fill="white"/>
<g style="mix-blend-mode:multiply" opacity="0.3">
<path d="M383.616 74.2149C385.309 57.4786 400.679 50.3924 398.674 34.9969C397.443 25.5068 390.251 17.5108 382.234 11.2661C357.925 13.8179 339.115 33.9653 339.115 60.3245C339.115 90.4259 363.548 115.641 392.684 116.62C395.451 116.71 398.22 116.573 400.964 116.209C389.392 104.691 382.16 88.5952 383.616 74.2149Z" fill="#ADD5E0"/>
</g>
<mask id="mask0_4_6285" style="mask-type:alpha" maskUnits="userSpaceOnUse" x="339" y="11" width="103" height="105">
<path d="M441.994 67.2656C441.994 94.9848 420.305 116.726 392.659 115.797C363.977 114.839 339.924 90.0072 339.924 60.3833C339.924 30.7595 363.977 9.17403 392.659 12.0843C420.305 14.8782 441.994 39.5463 441.994 67.2656Z" fill="white"/>
</mask>
<g mask="url(#mask0_4_6285)">
<path d="M392.392 70.7341C400.955 69.5738 406.303 56.8642 404.696 44.996C403.09 33.1279 395.14 26.5973 386.579 27.7562C378.018 28.9151 372.088 37.3339 373.693 49.1952C375.298 61.0565 383.831 71.893 392.392 70.7341Z" fill="white"/>
<path d="M392.952 74.8608C371.657 77.7464 356.733 97.3601 359.614 118.672L359.859 120.482L436.965 110.036L436.72 108.225C433.843 86.9163 414.251 71.9765 392.952 74.8608Z" fill="white"/>
</g>
<path d="M386.545 324.791C399.099 324.791 409.276 322.576 409.276 319.844C409.276 317.111 399.099 314.896 386.545 314.896C373.991 314.896 363.813 317.111 363.813 319.844C363.813 322.576 373.991 324.791 386.545 324.791Z" fill="#E1A551"/>
<path d="M425.839 257.549L409.276 319.845H363.813L347.25 257.549H425.839Z" fill="#E1A551"/>
<path d="M386.545 128.447C456.842 128.447 513.829 121.493 513.829 112.916C513.829 104.338 456.842 97.3849 386.545 97.3849C316.248 97.3849 259.261 104.338 259.261 112.916C259.261 121.493 316.248 128.447 386.545 128.447Z" fill="#CC9343"/>
<path d="M259.261 122.935L513.827 122.935V112.916L259.261 112.916V122.935Z" fill="#CC9343"/>
<path d="M386.545 137.669C456.842 137.669 513.829 130.715 513.829 122.138C513.829 113.56 456.842 106.607 386.545 106.607C316.248 106.607 259.261 113.56 259.261 122.138C259.261 130.715 316.248 137.669 386.545 137.669Z" fill="#E1A551"/>
<path d="M386.545 262.343C408.246 262.343 425.838 260.197 425.838 257.549C425.838 254.901 408.246 252.755 386.545 252.755C364.843 252.755 347.251 254.901 347.251 257.549C347.251 260.197 364.843 262.343 386.545 262.343Z" fill="#E1A551"/>
<path d="M513.827 122.138L425.838 257.549H347.25L259.261 122.138H513.827Z" fill="#E1A551"/>
<g style="mix-blend-mode:multiply" opacity="0.3">
<g style="mix-blend-mode:multiply" opacity="0.3">
<path d="M388.766 222.737C400.893 204.602 388.557 193.121 401.307 173.051C422.675 139.415 475.029 143.8 481.506 120.12C482.132 117.83 482.38 115.086 481.747 111.829C501.707 114.566 513.828 118.182 513.828 122.138C513.828 122.979 513.281 123.806 512.221 124.61L425.839 257.549C425.839 260.198 408.245 262.344 386.545 262.344C364.845 262.344 347.251 260.198 347.251 257.549L342.289 249.913C362.061 244.991 379.445 236.675 388.766 222.737Z" fill="#C58429"/>
</g>
</g>
<path d="M307.806 87.6484C307.806 114.092 287.144 134.895 260.737 134.084C233.255 133.24 210.14 109.492 210.14 81.059C210.14 52.6255 233.255 31.9978 260.737 34.8616C287.144 37.6145 307.806 61.2044 307.806 87.6484Z" fill="#4893AA"/>
<path d="M314.941 85.3689C314.941 111.818 294.279 132.616 267.873 131.803C240.394 130.959 217.278 107.205 217.278 78.7794C217.278 50.3541 240.392 29.7237 267.873 32.582C294.279 35.3336 314.941 58.9235 314.941 85.3689Z" fill="#ADD5E0"/>
<path d="M312.868 85.2279C312.868 110.509 293.1 130.361 267.874 129.544C241.667 128.694 219.665 106.025 219.665 78.9395C219.665 51.8537 241.667 32.1551 267.874 34.841C293.1 37.4283 312.868 59.9483 312.868 85.2279Z" fill="#ADD5E0"/>
<path opacity="0.53" d="M310.682 85.0816C310.682 109.146 291.851 128.021 267.85 127.215C242.951 126.378 222.067 104.824 222.067 79.1024C222.067 53.3808 242.951 34.6495 267.85 37.1671C291.851 39.5998 310.682 61.0156 310.682 85.0816Z" fill="white"/>
<g style="mix-blend-mode:multiply" opacity="0.3">
<path d="M259.999 91.1142C261.47 76.5834 274.813 70.4318 273.071 57.0654C271.998 48.8272 265.76 41.8847 258.8 36.4637C237.689 38.6789 221.366 56.1733 221.366 79.0545C221.366 105.188 242.578 127.08 267.874 127.93C270.275 128.009 272.679 127.892 275.061 127.578C265.015 117.573 258.736 103.599 259.999 91.1142Z" fill="#ADD5E0"/>
</g>
<path d="M267.62 88.0917C275.053 87.0847 279.696 76.0512 278.303 65.7469C276.91 55.4427 270.006 49.7741 262.573 50.7811C255.14 51.7881 249.995 59.0904 251.385 69.3892C252.776 79.688 260.187 89.1056 267.62 88.0917Z" fill="white"/>
<mask id="mask1_4_6285" style="mask-type:alpha" maskUnits="userSpaceOnUse" x="222" y="36" width="89" height="92">
<path d="M310.683 85.0815C310.683 109.146 291.852 128.021 267.851 127.215C242.951 126.378 222.067 104.824 222.067 79.1023C222.067 53.3807 242.951 34.6494 267.851 37.167C291.852 39.5997 310.683 61.0155 310.683 85.0815Z" fill="white"/>
</mask>
<g mask="url(#mask1_4_6285)">
<path d="M268.106 91.6752C249.62 94.1805 236.663 111.21 239.165 129.712L239.377 131.283L306.322 122.217L306.112 120.641C303.606 102.14 286.591 89.1713 268.106 91.6752Z" fill="white"/>
</g>
<path d="M261.638 180.711C261.638 201.281 245.566 217.462 225.025 216.833C203.648 216.175 185.669 197.696 185.669 175.586C185.669 153.475 203.648 137.422 225.025 139.65C245.566 141.79 261.638 160.141 261.638 180.711Z" fill="#4893AA"/>
<path d="M267.189 178.938C267.189 199.508 251.117 215.689 230.576 215.059C209.199 214.402 191.22 195.924 191.22 173.812C191.22 151.7 209.199 135.649 230.576 137.878C251.117 140.017 267.189 158.368 267.189 178.938Z" fill="#ADD5E0"/>
<path d="M265.576 178.828C265.576 198.493 250.198 213.936 230.578 213.3C210.191 212.639 193.076 195.008 193.076 173.937C193.076 152.866 210.191 137.541 230.576 139.633C250.197 141.646 265.576 159.16 265.576 178.828Z" fill="#ADD5E0"/>
<path opacity="0.53" d="M263.876 178.713C263.876 197.434 249.227 212.116 230.557 211.488C211.187 210.838 194.943 194.072 194.943 174.063C194.943 154.053 211.187 139.479 230.557 141.442C249.227 143.335 263.876 159.994 263.876 178.713Z" fill="white"/>
<g style="mix-blend-mode:multiply" opacity="0.3">
<path d="M224.452 183.408C225.595 172.103 235.975 167.319 234.62 156.921C233.785 150.512 228.932 145.112 223.518 140.895C207.098 142.619 194.398 156.228 194.398 174.026C194.398 194.351 210.898 211.379 230.575 212.044C232.443 212.106 234.312 212.014 236.165 211.77C228.352 203.989 223.469 193.118 224.452 183.408Z" fill="#ADD5E0"/>
</g>
<mask id="mask2_4_6285" style="mask-type:alpha" maskUnits="userSpaceOnUse" x="194" y="141" width="70" height="71">
<path d="M263.876 178.713C263.876 197.434 249.227 212.116 230.557 211.488C211.187 210.838 194.943 194.072 194.943 174.063C194.943 154.053 211.187 139.479 230.557 141.442C249.227 143.335 263.876 159.994 263.876 178.713Z" fill="white"/>
</mask>
<g mask="url(#mask2_4_6285)">
<path d="M230.374 181.052C236.155 180.268 239.767 171.685 238.683 163.675C237.599 155.665 232.23 151.25 226.449 152.033C220.667 152.815 216.662 158.496 217.746 166.511C218.83 174.527 224.596 181.838 230.374 181.052Z" fill="white"/>
<path d="M230.755 183.843C216.374 185.791 206.294 199.03 208.241 213.43L208.407 214.652L260.483 207.596L260.317 206.374C258.371 191.983 245.138 181.894 230.755 183.843Z" fill="white"/>
</g>
<path d="M305.458 255.735C305.458 273.494 291.584 287.465 273.848 286.92C255.392 286.353 239.87 270.399 239.87 251.308C239.87 232.217 255.392 218.36 273.848 220.283C291.584 222.132 305.458 237.971 305.458 255.735Z" fill="#4893AA"/>
<path d="M310.252 254.203C310.252 271.963 296.376 285.933 278.641 285.388C260.185 284.821 244.662 268.868 244.662 249.777C244.662 230.686 260.184 216.828 278.641 218.752C296.376 220.594 310.252 236.444 310.252 254.203Z" fill="#ADD5E0"/>
<path d="M308.86 254.116C308.86 271.093 295.582 284.427 278.647 283.878C261.041 283.301 246.265 268.072 246.265 249.885C246.265 231.698 261.041 218.465 278.641 220.27C295.585 222.007 308.86 237.132 308.86 254.116Z" fill="#ADD5E0"/>
<path opacity="0.53" d="M307.391 254.011C307.391 270.172 294.744 282.849 278.624 282.307C261.902 281.745 247.873 267.27 247.873 249.995C247.873 232.719 261.902 220.136 278.624 221.825C294.744 223.467 307.391 237.847 307.391 254.011Z" fill="white"/>
<g style="mix-blend-mode:multiply" opacity="0.3">
<path d="M273.353 258.062C274.34 248.304 283.302 244.172 282.133 235.194C281.411 229.663 277.221 225 272.547 221.359C258.37 222.846 247.407 234.595 247.407 249.963C247.407 267.511 261.652 282.216 278.641 282.786C280.254 282.84 281.868 282.762 283.467 282.551C276.719 275.831 272.504 266.447 273.353 258.062Z" fill="#ADD5E0"/>
</g>
<mask id="mask3_4_6285" style="mask-type:alpha" maskUnits="userSpaceOnUse" x="247" y="221" width="61" height="62">
<path d="M307.391 254.011C307.391 270.172 294.744 282.849 278.624 282.307C261.902 281.745 247.873 267.27 247.873 249.995C247.873 232.719 261.902 220.136 278.624 221.825C294.744 223.467 307.391 237.847 307.391 254.011Z" fill="white"/>
</mask>
<g mask="url(#mask3_4_6285)">
<path d="M278.47 256.031C283.461 255.355 286.579 247.945 285.644 241.026C284.709 234.107 280.072 230.297 275.081 230.975C270.089 231.652 266.632 236.556 267.561 243.475C268.491 250.394 273.478 256.715 278.47 256.031Z" fill="white"/>
<path d="M278.795 258.438C275.843 258.838 272.998 259.816 270.424 261.316C267.849 262.816 265.595 264.809 263.79 267.181C261.984 269.553 260.664 272.258 259.903 275.141C259.143 278.024 258.957 281.028 259.356 283.983L259.493 285.038L304.453 278.947L304.317 277.892C303.508 271.926 300.365 266.526 295.579 262.878C290.794 259.23 284.757 257.633 278.795 258.438Z" fill="white"/>
</g>
<path d="M410.696 360.208C410.696 374.322 399.669 385.425 385.576 384.991C370.908 384.541 358.572 371.863 358.572 356.692C358.572 341.521 370.908 330.506 385.576 332.036C399.675 333.504 410.696 346.095 410.696 360.208Z" fill="#CC9343"/>
<path d="M414.511 358.992C414.511 373.105 403.484 384.207 389.39 383.775C374.722 383.323 362.387 370.64 362.387 355.474C362.387 340.308 374.722 329.29 389.39 330.818C403.484 332.288 414.511 344.878 414.511 358.992Z" fill="url(#paint1_linear_4_6285)"/>
<path d="M413.405 358.923C413.405 372.416 402.853 383.011 389.39 382.575C375.403 382.122 363.661 370.023 363.661 355.567C363.661 341.112 375.403 330.597 389.39 332.033C402.853 333.406 413.405 345.424 413.405 358.923Z" fill="#E1A551"/>
<path d="M412.61 358.863C412.61 371.911 402.402 382.144 389.388 381.713C375.888 381.259 364.567 369.572 364.567 355.627C364.567 341.682 375.888 331.523 389.388 332.891C402.403 334.205 412.61 345.817 412.61 358.863Z" fill="#F4AE4A"/>
<path d="M389.256 337.324C389.598 337.365 389.914 337.529 390.145 337.785C390.375 338.042 390.505 338.374 390.51 338.719V341.121C391.909 341.279 393.299 341.519 394.67 341.842C395.694 342.083 396.711 342.37 397.72 342.703C398.017 342.802 398.273 342.997 398.446 343.258C398.62 343.519 398.701 343.831 398.677 344.144L398.382 347.154C398.368 347.337 398.31 347.514 398.213 347.67C398.115 347.825 397.982 347.955 397.823 348.047C397.664 348.139 397.486 348.192 397.302 348.199C397.119 348.207 396.937 348.17 396.771 348.091C396.104 347.794 395.419 347.539 394.72 347.327C393.463 346.951 392.168 346.709 390.86 346.605L390.506 346.576V353.456C394.118 354.467 396.777 355.828 398.485 357.54C400.193 359.252 401.046 361.377 401.042 363.915C401.042 366.67 400.1 368.879 398.215 370.541C396.33 372.203 393.664 373.143 390.217 373.36V376.011C390.221 376.176 390.191 376.34 390.129 376.492C390.067 376.645 389.974 376.783 389.857 376.899C389.739 377.014 389.599 377.104 389.446 377.163C389.292 377.222 389.128 377.249 388.963 377.243H388.942C388.602 377.224 388.282 377.076 388.048 376.829C387.814 376.582 387.683 376.255 387.682 375.914V373.29L387.125 373.265C385.571 373.199 384.024 373.034 382.492 372.771C381.412 372.583 380.343 372.337 379.29 372.034C378.984 371.948 378.717 371.759 378.534 371.499C378.352 371.239 378.264 370.924 378.286 370.607L378.632 366.735C378.707 365.897 379.548 365.41 380.344 365.723C381.263 366.087 382.203 366.396 383.159 366.648C384.633 367.038 386.14 367.29 387.661 367.401L387.682 359.748C384.219 358.891 381.629 357.619 379.913 355.934C378.197 354.248 377.339 352.085 377.339 349.444C377.339 346.719 378.269 344.617 380.129 343.138C381.989 341.659 384.611 340.926 387.994 340.939V338.485C387.989 338.322 388.02 338.16 388.083 338.01C388.146 337.86 388.241 337.726 388.36 337.616C388.48 337.506 388.622 337.423 388.776 337.373C388.931 337.322 389.095 337.306 389.256 337.324ZM388 346.508C386.928 346.585 386.093 346.88 385.494 347.392C384.895 347.904 384.596 348.592 384.596 349.456C384.585 349.837 384.654 350.216 384.797 350.57C384.94 350.923 385.154 351.242 385.427 351.509C385.981 352.056 386.839 352.494 388 352.822V346.508ZM390.221 360.365V367.383C391.388 367.383 392.282 367.105 392.903 366.549C393.525 365.992 393.836 365.204 393.837 364.186C393.837 363.258 393.548 362.488 392.969 361.876C392.39 361.264 391.474 360.76 390.221 360.365Z" fill="url(#paint2_linear_4_6285)"/>
<path d="M509.676 349.711C509.676 374.53 490.285 394.053 465.5 393.292C439.708 392.499 418.016 370.205 418.016 343.527C418.016 316.849 439.708 297.48 465.5 300.168C490.282 302.752 509.676 324.891 509.676 349.711Z" fill="#CC9343"/>
<path d="M516.375 347.567C516.375 372.386 496.985 391.909 472.2 391.148C446.408 390.355 424.715 368.061 424.715 341.383C424.715 314.705 446.408 295.336 472.2 298.024C496.979 300.61 516.375 322.751 516.375 347.567Z" fill="url(#paint3_linear_4_6285)"/>
<path d="M514.425 347.44C514.425 371.165 495.871 389.798 472.195 389.034C447.601 388.238 426.943 366.962 426.943 341.541C426.943 316.121 447.587 297.631 472.195 300.153C495.868 302.576 514.425 323.713 514.425 347.44Z" fill="#E1A551"/>
<path d="M513.031 347.345C513.031 370.288 495.078 388.285 472.195 387.516C448.453 386.718 428.545 366.171 428.545 341.645C428.545 317.119 448.453 299.258 472.195 301.664C495.078 303.983 513.031 324.403 513.031 347.345Z" fill="#F4AE4A"/>
<path d="M471.961 309.47C472.563 309.541 473.118 309.829 473.523 310.28C473.928 310.731 474.156 311.314 474.163 311.92V316.144C476.625 316.421 479.068 316.845 481.479 317.415C483.28 317.837 485.068 318.339 486.843 318.92C487.367 319.093 487.817 319.437 488.122 319.897C488.427 320.356 488.569 320.905 488.525 321.455L488.007 326.752C487.982 327.074 487.88 327.384 487.708 327.657C487.537 327.93 487.301 328.158 487.022 328.319C486.744 328.481 486.43 328.572 486.108 328.585C485.785 328.598 485.465 328.532 485.174 328.394C484.004 327.871 482.801 327.423 481.575 327.052C479.363 326.39 477.088 325.964 474.787 325.782L474.163 325.731V337.829C480.516 339.608 485.181 342.001 488.197 345.01C491.213 348.018 492.692 351.739 492.692 356.22C492.692 361.066 491.035 364.951 487.72 367.874C484.384 370.816 479.697 372.468 473.658 372.829V377.492C473.662 377.781 473.608 378.067 473.499 378.334C473.389 378.601 473.226 378.843 473.019 379.045C472.813 379.247 472.567 379.404 472.298 379.508C472.028 379.611 471.741 379.659 471.452 379.647H471.413C470.816 379.614 470.254 379.353 469.842 378.919C469.431 378.484 469.201 377.908 469.201 377.31V372.71L468.219 372.666C465.488 372.549 462.766 372.259 460.071 371.797C458.173 371.467 456.293 371.034 454.441 370.5C453.903 370.349 453.433 370.017 453.112 369.56C452.79 369.103 452.636 368.549 452.675 367.991L453.286 361.181C453.423 359.709 454.895 358.855 456.294 359.402C457.911 360.041 459.565 360.584 461.246 361.029C463.838 361.714 466.487 362.157 469.161 362.352L469.201 348.896C463.103 347.39 458.537 345.148 455.538 342.191C452.538 339.234 451.013 335.406 451.013 330.775C451.013 325.981 452.648 322.285 455.919 319.685C459.169 317.111 463.782 315.824 469.756 315.824V311.506C469.748 311.221 469.802 310.939 469.912 310.677C470.023 310.415 470.188 310.18 470.397 309.987C470.606 309.794 470.853 309.648 471.123 309.559C471.393 309.47 471.679 309.439 471.961 309.47ZM469.749 325.615C467.865 325.754 466.397 326.272 465.344 327.171C464.291 328.069 463.764 329.279 463.762 330.802C463.762 332.241 464.25 333.444 465.225 334.41C466.2 335.376 467.708 336.146 469.749 336.721V325.615ZM473.658 349.983V362.323C475.706 362.323 477.278 361.834 478.374 360.857C479.471 359.879 480.017 358.494 480.015 356.703C480.015 355.071 479.506 353.717 478.489 352.64C477.472 351.564 475.861 350.679 473.658 349.986V349.983Z" fill="url(#paint4_linear_4_6285)"/>
<path d="M574.623 253.439C574.623 289.423 546.509 317.73 510.577 316.625C473.181 315.476 441.73 283.153 441.73 244.472C441.73 205.792 473.181 177.713 510.577 181.61C546.509 185.355 574.623 217.455 574.623 253.439Z" fill="#CC9343"/>
<path d="M584.332 250.337C584.332 286.322 556.219 314.626 520.286 313.522C482.889 312.373 451.439 280.05 451.439 241.369C451.439 202.689 482.889 174.61 520.286 178.508C556.219 182.252 584.332 214.352 584.332 250.337Z" fill="url(#paint5_linear_4_6285)"/>
<path d="M581.512 250.148C581.512 284.547 554.613 311.562 520.286 310.449C484.627 309.293 454.688 278.446 454.688 241.59C454.688 204.733 484.627 177.928 520.286 181.584C554.613 185.103 581.512 215.746 581.512 250.148Z" fill="#E1A551"/>
<path d="M579.493 250.011C579.493 283.276 553.463 309.367 520.286 308.252C485.865 307.096 457.001 277.302 457.001 241.747C457.001 206.192 485.865 180.292 520.286 183.78C553.463 187.142 579.493 216.745 579.493 250.011Z" fill="#F4AE4A"/>
<path d="M519.945 195.095C521.712 195.264 523.14 196.855 523.14 198.653V204.777C526.709 205.179 530.251 205.794 533.746 206.619C536.356 207.233 538.949 207.963 541.525 208.808C543.067 209.317 544.123 210.875 543.961 212.484L543.211 220.164C543.011 222.202 540.999 223.397 539.109 222.552C537.412 221.795 535.669 221.145 533.891 220.606C530.684 219.646 527.385 219.029 524.048 218.766L523.146 218.692V236.231C532.356 238.811 539.119 242.279 543.491 246.644C547.834 250.987 550.005 256.404 550.005 262.894C550.005 269.918 547.603 275.55 542.798 279.791C537.961 284.057 531.165 286.452 522.409 286.976V293.736C522.416 294.155 522.337 294.57 522.178 294.957C522.019 295.344 521.783 295.695 521.483 295.987C521.184 296.279 520.828 296.508 520.438 296.657C520.047 296.807 519.63 296.876 519.212 296.858H519.155C517.378 296.787 515.946 295.27 515.946 293.469V286.8L514.523 286.736C510.563 286.567 506.618 286.146 502.711 285.476C499.959 284.998 497.234 284.371 494.55 283.597C492.943 283.132 491.841 281.602 491.989 279.958L492.872 270.085C493.064 267.95 495.206 266.709 497.233 267.51C499.578 268.436 501.975 269.223 504.412 269.867C508.172 270.86 512.017 271.502 515.896 271.783L515.952 252.271C507.112 250.082 500.492 246.839 496.144 242.545C491.776 238.229 489.589 232.711 489.582 225.989C489.582 219.04 491.951 213.681 496.691 209.911C501.403 206.166 508.102 204.301 516.743 204.301V198.038C516.741 196.25 518.176 194.927 519.945 195.095ZM516.741 218.509C514.006 218.707 511.877 219.458 510.352 220.762C508.827 222.067 508.064 223.822 508.061 226.027C508.061 228.115 508.768 229.86 510.181 231.261C511.595 232.662 513.782 233.778 516.743 234.609L516.741 218.509ZM522.406 253.842V271.735C525.377 271.74 527.656 271.031 529.242 269.607C530.827 268.183 531.62 266.176 531.62 263.587C531.62 261.222 530.883 259.26 529.41 257.703C527.936 256.146 525.601 254.859 522.406 253.842Z" fill="url(#paint6_linear_4_6285)"/>
<mask id="mask4_4_6285" style="mask-type:alpha" maskUnits="userSpaceOnUse" x="0" y="168" width="544" height="345">
<path fill-rule="evenodd" clip-rule="evenodd" d="M2.00126 417C17.7705 354.333 219.111 168.568 219.111 168.568L344.628 226.644L414.227 313.548C414.227 313.548 405.722 338.112 410.049 397.527C414.893 464.051 581.371 383.448 536.012 432.35C490.088 481.86 412.157 468.813 344.628 469.089C276.724 469.366 203.081 478.487 151.85 433.918C115.001 469.089 -11.7864 601.671 2.00126 417Z" fill="url(#paint7_linear_4_6285)"/>
</mask>
<g mask="url(#mask4_4_6285)">
<path d="M397.769 393.194C397.769 393.194 391.223 386.043 377.267 370.044C362.13 352.812 348.61 334.223 336.878 314.513C330.301 303.407 319.363 288.491 301.682 272.981C300.558 271.941 299.403 270.983 298.196 269.963C298.135 269.92 298.08 269.871 298.029 269.817C294.144 266.549 289.953 263.273 285.458 259.991L285.739 257.753L286.269 253.923C286.269 253.923 286.509 254.089 286.998 254.381C287.071 254.381 287.112 254.474 287.164 254.495C289.246 255.9 294.917 259.7 302.65 265.435C333.631 288.439 397.675 342.117 397.769 393.194Z" fill="url(#paint8_linear_4_6285)"/>
<path style="mix-blend-mode:multiply" opacity="0.6" d="M397.769 393.194C384.646 361.228 348.315 317.022 348.315 317.022C328.063 292.041 311.298 276.615 300.214 267.819L297.956 266.06C297.092 265.415 296.27 264.78 295.479 264.207C292.383 261.859 289.139 259.71 285.77 257.774L286.3 253.944C286.3 253.944 286.54 254.111 287.029 254.402C287.102 254.402 287.143 254.496 287.195 254.516C289.277 255.922 294.948 259.721 302.681 265.456C333.631 288.439 397.675 342.118 397.769 393.194Z" fill="url(#paint9_linear_4_6285)"/>
<path d="M369.492 441.325C387.663 376.384 299.912 277.021 299.912 277.021L298.372 280.57L297.466 282.652C318.53 309.382 327.979 333.135 332.205 349.071C338.151 371.224 346.125 392.782 356.026 413.471C365.153 432.654 369.492 441.325 369.492 441.325Z" fill="url(#paint10_linear_4_6285)"/>
<path style="mix-blend-mode:multiply" opacity="0.6" d="M369.494 441.325C387.665 376.384 299.914 277.021 299.914 277.021L298.374 280.57C300.455 282.569 320.353 302.939 342.54 354.588C342.551 354.588 365.54 406.986 369.494 441.325Z" fill="url(#paint11_linear_4_6285)"/>
<path d="M332.028 462.81C362.822 402.813 296.707 287.941 296.707 287.941L294.49 291.063L293.189 292.916C308.488 323.32 312.963 348.489 313.941 364.946C315.34 387.841 318.844 410.559 324.41 432.812C329.489 453.442 332.028 462.81 332.028 462.81Z" fill="url(#paint12_linear_4_6285)"/>
<path style="mix-blend-mode:multiply" opacity="0.6" d="M332.028 462.81C362.822 402.813 296.707 287.941 296.707 287.941L294.49 291.063C296.093 293.426 311.547 317.366 322.974 372.419C322.964 372.44 334.994 428.377 332.028 462.81Z" fill="url(#paint13_linear_4_6285)"/>
<path d="M162.323 260.034C157.12 263.792 152.395 267.549 148.034 271.286L147.889 271.432C146.973 272.202 146.088 272.993 145.214 273.763C128.053 289.044 117.344 303.616 110.892 314.556C103.737 326.614 95.8872 338.247 87.3827 349.394C87.3151 349.485 87.2421 349.572 87.1642 349.655C81.867 356.639 76.2785 363.457 70.5131 370.087C56.5261 386.086 50.001 393.195 50.001 393.195C50.0738 343.232 111.516 290.678 143.143 266.946C149.46 262.23 154.591 258.618 157.796 256.443C160.138 254.83 161.459 253.986 161.459 253.986L161.969 257.817L162.323 260.034Z" fill="url(#paint14_linear_4_6285)"/>
<path style="mix-blend-mode:multiply" opacity="0.6" d="M162.011 257.796C157.934 260.139 154.035 262.78 150.345 265.696C149.814 266.082 149.304 266.488 148.732 266.925C147.827 267.674 146.786 268.465 145.745 269.329C134.693 278.291 118.687 293.27 99.4449 317.033C99.4449 317.033 63.1456 361.24 50.0225 393.205C50.0745 343.232 111.517 290.678 143.144 266.946C149.461 262.23 154.591 258.618 157.796 256.443C160.138 254.83 161.46 253.986 161.46 253.986L162.011 257.796Z" fill="url(#paint15_linear_4_6285)"/>
<path d="M78.2558 441.325C60.0853 376.384 147.826 277.021 147.826 277.021L149.387 280.57L150.282 282.652C129.218 309.382 119.779 333.135 115.565 349.071C109.618 371.224 101.644 392.782 91.7431 413.471C82.6162 432.654 78.2558 441.325 78.2558 441.325Z" fill="url(#paint16_linear_4_6285)"/>
<path style="mix-blend-mode:multiply" opacity="0.6" d="M78.2558 441.325C60.0853 376.384 147.826 277.021 147.826 277.021L149.387 280.57C147.306 282.569 127.408 302.939 105.21 354.588C105.21 354.588 82.2624 406.986 78.2558 441.325Z" fill="url(#paint17_linear_4_6285)"/>
<path d="M115.743 462.81C84.9596 402.813 151.064 287.941 151.064 287.941L153.281 291.063L154.582 292.916C139.284 323.32 134.809 348.489 133.83 364.946C132.447 387.839 128.963 410.556 123.423 432.812C118.282 453.442 115.743 462.81 115.743 462.81Z" fill="url(#paint18_linear_4_6285)"/>
<path style="mix-blend-mode:multiply" opacity="0.6" d="M115.743 462.81C84.9595 402.813 151.064 287.941 151.064 287.941L153.281 291.063C151.678 293.426 136.224 317.366 124.808 372.419C124.808 372.44 112.767 428.377 115.743 462.81Z" fill="url(#paint19_linear_4_6285)"/>
<path d="M304.356 286.098C304.377 286.493 304.377 286.889 304.356 287.284C304.382 287.669 304.382 288.055 304.356 288.44C304.356 289.189 304.262 289.959 304.168 290.709C304.168 290.927 304.168 291.115 304.095 291.333C303.945 292.775 303.712 294.207 303.398 295.622C303.304 296.038 303.232 296.444 303.107 296.829C303.125 296.883 303.125 296.942 303.107 296.996C302.992 297.526 302.847 298.037 302.701 298.536C302.691 298.602 302.691 298.668 302.701 298.734C302.451 299.452 302.243 300.202 302.024 300.899C301.9 301.211 301.806 301.524 301.681 301.836C301.556 302.148 301.369 302.637 301.202 303.022C300.9 303.846 300.553 304.652 300.162 305.437C299.995 305.77 299.829 306.135 299.641 306.478C299.454 306.822 299.225 307.321 299.006 307.758C298.835 308.116 298.644 308.463 298.434 308.799C298.191 309.278 297.924 309.743 297.633 310.194C297.373 310.631 297.081 311.058 296.79 311.495C296.1 312.466 295.357 313.398 294.563 314.285C294.339 314.602 294.099 314.908 293.845 315.201C293.553 315.544 293.262 315.898 292.95 316.242L292.783 316.408C291.665 317.658 290.473 318.84 289.214 319.947C281.929 326.307 272.687 330.283 266.235 337.642C262.072 342.378 259.325 347.854 259.325 353.589C259.32 354.142 259.351 354.695 259.418 355.244C259.418 355.348 259.418 355.421 259.418 355.514C259.471 355.972 259.543 356.41 259.616 356.868C259.627 356.905 259.627 356.945 259.616 356.982C259.668 357.159 259.689 357.326 259.741 357.471C259.814 357.784 259.887 358.096 259.98 358.408C260.074 358.72 260.147 358.939 260.241 359.199C260.334 359.459 260.49 359.928 260.626 360.24C260.761 360.552 260.969 361.042 261.156 361.427C261.156 361.427 261.281 361.687 261.542 362.176C261.687 362.488 261.885 362.894 262.145 363.404C262.53 364.175 263.019 365.184 263.571 366.392C263.883 367.037 264.216 367.735 264.56 368.474C264.851 369.056 265.111 369.681 265.423 370.337C265.496 370.503 265.59 370.691 265.663 370.888C265.933 371.44 266.173 371.992 266.433 372.575C266.849 373.491 267.276 374.448 267.713 375.468L268.701 377.748C268.889 378.206 269.107 378.695 269.305 379.174C269.503 379.653 269.711 380.142 269.929 380.642C271.23 383.702 272.604 387.095 274.019 390.738V390.79C274.116 390.975 274.199 391.166 274.269 391.363C274.623 392.279 274.987 393.215 275.31 394.184C275.789 395.485 276.267 396.786 276.777 398.139C276.965 398.639 277.162 399.18 277.329 399.648C277.641 400.491 277.953 401.366 278.265 402.23C278.775 403.697 279.306 405.196 279.806 406.716C279.858 406.716 279.858 406.83 279.878 406.903C280.409 408.423 280.919 409.963 281.45 411.556C281.689 412.274 281.929 413.024 282.168 413.773L282.387 414.47C282.73 415.459 283.042 416.5 283.354 417.51C283.371 417.602 283.396 417.692 283.427 417.78C283.76 418.884 284.072 419.966 284.468 421.08C284.863 422.194 285.165 423.412 285.509 424.598C285.602 425.004 285.727 425.41 285.842 425.827C286.279 427.367 286.716 428.949 287.122 430.521C287.465 431.843 287.819 433.175 288.162 434.518C288.506 435.861 288.891 437.339 289.203 438.754C289.442 439.67 289.64 440.618 289.848 441.554C290.192 443.043 290.504 444.542 290.816 446.03C291.128 447.519 291.461 449.215 291.753 450.829C292.023 452.276 292.284 453.722 292.523 455.169C292.762 456.616 293.054 458.292 293.272 459.864C293.345 460.197 293.397 460.561 293.439 460.905C293.678 462.591 293.897 464.298 294.094 465.984C294.261 467.306 294.407 468.607 294.521 469.929C294.521 470.075 294.521 470.2 294.521 470.345C294.719 472.302 294.885 474.249 294.979 476.206C294.979 476.414 294.979 476.632 295.031 476.851V476.903C293.553 479.089 290.452 481.16 286.019 483.023C273.416 488.29 250.052 491.84 223.317 491.84C196.581 491.84 172.979 488.249 160.407 482.919C155.828 480.994 152.695 478.829 151.374 476.539C151.374 476.32 151.374 476.102 151.374 475.862C151.374 475.623 151.374 475.571 151.374 475.425C151.499 473.884 151.644 472.302 151.759 470.751C151.766 470.616 151.766 470.481 151.759 470.345C151.752 470.21 151.752 470.075 151.759 469.939C152.57 461.899 153.807 453.908 155.464 445.999C155.776 444.458 156.119 442.949 156.504 441.429C157.181 438.411 157.899 435.403 158.669 432.436L159.824 428.033L161.052 423.693C161.104 423.547 161.125 423.401 161.177 423.266C161.562 421.913 161.968 420.591 162.353 419.259C162.738 417.926 163.154 416.656 163.56 415.355C163.966 414.054 164.289 413.076 164.601 411.962C165.184 410.182 165.756 408.444 166.339 406.757C167.015 404.801 167.692 402.875 168.337 401.022C168.535 400.512 168.722 399.981 168.889 399.555C168.962 399.336 169.066 399.117 169.128 398.899C169.19 398.68 169.274 398.493 169.347 398.295C170.002 396.536 170.627 394.829 171.272 393.163C171.49 392.57 171.709 391.966 171.948 391.384C173.468 387.48 174.935 383.868 176.309 380.589C178.068 376.426 179.681 372.762 181.054 369.827C181.179 369.514 181.294 369.223 181.439 368.932C181.564 368.692 181.679 368.422 181.804 368.182C181.929 367.943 182.095 367.526 182.241 367.245C182.501 366.714 182.74 366.204 182.959 365.726C183.396 364.789 183.781 363.987 184.093 363.342C184.405 362.697 184.666 362.207 184.842 361.874C184.908 361.698 184.988 361.527 185.082 361.364C185.439 360.673 185.745 359.956 185.998 359.22C186.092 358.975 186.172 358.725 186.237 358.471C186.453 357.789 186.62 357.094 186.737 356.389C186.809 355.952 186.882 355.514 186.934 355.088C186.934 354.869 186.986 354.671 186.986 354.463C186.986 353.953 187.049 353.422 187.049 352.912C187 349.296 186.135 345.738 184.52 342.503C179.316 331.98 168.119 327.088 159.283 320.27C158.752 319.864 158.242 319.448 157.764 319.042C157.285 318.636 156.588 318.001 156.026 317.48L155.599 317.085C155.453 316.918 155.287 316.773 155.141 316.606C154.61 316.075 154.1 315.565 153.601 314.972C153.455 314.826 153.33 314.68 153.185 314.514C152.8 314.097 152.467 313.671 152.144 313.234C152.009 313.046 151.832 312.848 151.686 312.63C151.288 312.164 150.919 311.674 150.583 311.162C150.198 310.631 149.834 310.121 149.542 309.57C148.97 308.685 148.408 307.79 147.929 306.874C147.45 305.958 147.086 305.26 146.722 304.438C146.559 304.1 146.417 303.752 146.295 303.397C146.104 303.022 145.933 302.636 145.785 302.242C145.729 302.145 145.69 302.04 145.671 301.929C145.421 301.305 145.182 300.68 144.994 300.056C144.887 299.805 144.797 299.548 144.724 299.286C144.676 299.15 144.638 299.011 144.609 298.869C144.437 298.381 144.291 297.884 144.172 297.381C144.09 297.155 144.034 296.921 144.006 296.683C143.858 295.974 143.743 295.259 143.662 294.539C143.667 294.473 143.667 294.407 143.662 294.341C143.517 293.623 143.423 292.895 143.329 292.176C143.329 292.124 143.329 292.103 143.329 292.051L143.256 291.469C143.105 290.688 143.004 289.899 142.955 289.106C142.94 289.044 142.94 288.98 142.955 288.918C142.955 288.627 142.955 288.315 142.955 288.023C142.955 287.399 142.955 286.774 142.955 286.139C142.955 285.504 142.955 284.796 143.027 284.141C143.027 283.683 143.1 283.225 143.152 282.767C143.225 281.996 143.319 281.226 143.465 280.487C143.574 279.723 143.727 278.965 143.922 278.218C143.931 278.177 143.931 278.134 143.922 278.093C144.089 277.448 144.255 276.823 144.474 276.199C144.714 275.387 144.996 274.588 145.317 273.805C145.737 272.601 146.227 271.423 146.784 270.276C147.076 269.693 147.367 269.141 147.7 268.59C148.033 268.038 148.356 267.476 148.741 266.924C149.126 266.373 149.292 266.06 149.615 265.623C149.938 265.186 150.187 264.78 150.531 264.343C150.828 263.91 151.148 263.494 151.488 263.094C151.8 262.657 152.144 262.251 152.529 261.845C154.178 259.929 155.951 258.125 157.837 256.443C167.14 248.178 180.243 241.745 195.53 238.185C213.189 234.137 231.512 233.945 249.251 237.623C264.31 240.808 277.35 246.731 286.976 254.444C287.049 254.444 287.09 254.538 287.143 254.559C289.208 256.214 291.155 258.013 292.97 259.94C293.865 260.898 294.729 261.866 295.52 262.875C295.936 263.385 296.321 263.864 296.706 264.395C297.092 264.926 297.518 265.53 297.903 266.102C298.195 266.518 298.455 266.924 298.694 267.33C298.934 267.736 299.058 267.892 299.204 268.173C299.35 268.454 299.371 268.444 299.444 268.559C299.881 269.339 300.286 270.109 300.672 270.88C301.057 271.65 301.348 272.295 301.629 273.024C301.91 273.753 302.212 274.471 302.451 275.189C302.69 275.907 302.909 276.563 303.107 277.271C303.148 277.39 303.179 277.511 303.2 277.635C303.367 278.28 303.533 278.957 303.658 279.634C303.783 280.31 303.918 281.153 304.023 281.892C304.122 282.53 304.184 283.173 304.21 283.818C304.22 283.89 304.22 283.964 304.21 284.037C304.335 284.724 304.356 285.431 304.356 286.098Z" fill="url(#paint20_linear_4_6285)"/>
<path style="mix-blend-mode:multiply" opacity="0.14" d="M202.982 273.139C199.558 277.844 193.002 282.684 180.389 283.308C178.147 283.413 175.901 283.284 173.687 282.923C164.254 281.393 155.399 277.376 148.034 271.286C148.018 271.283 148.004 271.277 147.991 271.268C147.979 271.259 147.968 271.248 147.961 271.234C147.576 270.922 147.191 270.61 146.806 270.277C147.097 269.694 147.388 269.142 147.721 268.59C148.054 268.039 148.377 267.477 148.762 266.925C149.147 266.373 149.314 266.061 149.636 265.624C149.959 265.187 150.209 264.781 150.552 264.343C150.85 263.911 151.169 263.494 151.51 263.094C151.822 262.657 152.165 262.251 152.55 261.845C154.199 259.93 155.972 258.125 157.858 256.443C167.162 248.178 180.264 241.746 195.552 238.186C196.228 238.956 196.852 239.726 197.487 240.538C201.53 245.665 204.391 251.622 205.865 257.984C206.457 260.572 206.507 263.255 206.011 265.863C205.515 268.472 204.484 270.949 202.982 273.139Z" fill="url(#paint21_linear_4_6285)"/>
<path style="mix-blend-mode:multiply" opacity="0.14" d="M299.496 268.559L298.101 269.787L298.029 269.86C293.61 273.703 288.639 276.861 283.282 279.228C272.272 284.078 263.946 283.329 263.946 283.329C251.322 282.704 244.766 277.864 241.353 273.16C239.849 270.967 238.816 268.486 238.322 265.873C237.828 263.261 237.881 260.574 238.48 257.983C239.666 252.692 241.857 247.678 244.933 243.213C246.249 241.258 247.692 239.391 249.252 237.624C264.31 240.809 277.35 246.731 286.977 254.444C287.049 254.444 287.091 254.538 287.143 254.559C289.209 256.215 291.156 258.013 292.971 259.94C293.866 260.898 294.73 261.866 295.521 262.876C295.937 263.386 296.322 263.864 296.707 264.395C297.092 264.926 297.519 265.53 297.904 266.102C298.195 266.519 298.455 266.925 298.695 267.331C298.934 267.736 299.059 267.893 299.205 268.174C299.35 268.455 299.423 268.444 299.496 268.559Z" fill="url(#paint22_linear_4_6285)"/>
<path opacity="0.38" d="M186.623 241.881C186.623 241.881 161.729 252.935 175.487 288.117L192.971 294.154C203.193 295.027 213.193 297.624 222.548 301.836C237.174 296.865 252.222 293.235 267.506 290.99C283.834 288.7 288.247 272.712 282.866 258.462L233.589 238.613L207.895 239.206L186.623 241.881Z" fill="url(#paint23_radial_4_6285)"/>
<path d="M295.115 477.028V477.08C293.637 479.266 290.536 481.337 286.103 483.2C273.5 488.467 250.136 492.017 223.401 492.017C196.666 492.017 173.063 488.426 160.491 483.096C155.912 481.171 152.78 479.005 151.458 476.716C151.458 476.497 151.458 476.278 151.51 476.039C151.635 474.353 151.781 472.646 151.916 470.928C151.905 470.8 151.905 470.671 151.916 470.543C151.909 470.408 151.909 470.272 151.916 470.137C152.727 462.097 153.964 454.106 155.621 446.197C155.933 444.656 156.276 443.147 156.661 441.627C157.338 438.609 158.056 435.6 158.826 432.634L159.981 428.231L161.209 423.89C163.769 414.96 166.59 406.518 169.379 398.909C170.076 396.983 170.773 395.131 171.46 393.319C172.147 391.508 172.834 389.708 173.541 388.001C174.249 386.293 174.884 384.628 175.54 383.056C175.873 382.265 176.185 381.495 176.497 380.746C178.495 379.902 180.525 379.111 182.564 378.383C208.909 369.024 237.676 369.043 264.009 378.435C266.028 379.132 268.005 379.934 269.982 380.746C270.295 381.516 270.628 382.286 271.023 383.088C271.523 384.337 272.064 385.617 272.584 386.939C274.437 391.592 276.414 396.765 278.412 402.334C279.453 405.342 280.556 408.454 281.596 411.702L282.533 414.637C282.877 415.626 283.189 416.667 283.501 417.676C283.518 417.768 283.542 417.859 283.574 417.947C284.24 420.185 284.916 422.444 285.593 424.765C285.686 425.171 285.811 425.577 285.926 425.993C286.363 427.533 286.8 429.116 287.206 430.687C287.549 432.009 287.903 433.342 288.247 434.684C288.59 436.027 288.975 437.505 289.287 438.921C289.527 439.837 289.724 440.784 289.932 441.721C290.276 443.209 290.588 444.708 290.9 446.197C291.212 447.685 291.546 449.382 291.837 450.995C292.107 452.442 292.368 453.889 292.607 455.336C292.846 456.782 293.138 458.458 293.356 460.03C293.429 460.363 293.481 460.727 293.523 461.071C293.762 462.757 293.981 464.464 294.178 466.15C294.345 467.472 294.491 468.774 294.605 470.095C294.605 470.241 294.605 470.366 294.605 470.512C294.824 472.687 294.99 474.863 295.115 477.028Z" fill="url(#paint24_radial_4_6285)"/>
<path style="mix-blend-mode:multiply" d="M184 374.708C183.511 375.936 183.053 377.164 182.595 378.393C180.409 384.18 178.432 390.03 176.559 395.932C170.345 415.433 165.819 435.433 163.03 455.71C163.03 455.71 162.541 459.301 161.989 464.599C161.438 469.731 160.813 476.476 160.501 483.096C155.922 481.17 152.789 479.005 151.468 476.715C151.468 476.497 151.468 476.278 151.52 476.039C151.645 474.352 151.79 472.645 151.926 470.928C151.935 470.663 151.959 470.399 151.999 470.137C152.81 462.097 154.046 454.105 155.703 446.196C156.016 444.656 156.359 443.146 156.744 441.627C157.421 438.608 158.139 435.6 158.909 432.633L160.064 428.231L161.292 423.89C163.852 414.959 166.672 406.518 169.461 398.909C170.159 396.983 170.856 395.13 171.543 393.319C172.23 391.508 172.916 389.707 173.624 388C174.332 386.293 174.967 384.628 175.622 383.056C175.955 382.265 176.267 381.495 176.58 380.745C181.596 368.827 185.353 361.499 185.353 361.499C188.412 355.504 187.684 348.509 184.791 342.607C179.587 332.084 168.389 327.191 159.554 320.374C157.481 318.81 155.561 317.054 153.82 315.127C153.476 314.763 153.143 314.378 152.779 313.993C152.415 313.608 152.123 313.202 151.832 312.785C151.434 312.32 151.065 311.83 150.729 311.318C150.344 310.787 149.98 310.277 149.688 309.725C148.609 308.095 147.666 306.379 146.868 304.594C146.535 303.896 146.223 303.178 145.931 302.449C145.875 302.353 145.836 302.247 145.817 302.137C145.567 301.513 145.328 300.888 145.14 300.264C144.989 299.876 144.86 299.48 144.755 299.077C144.583 298.589 144.437 298.092 144.318 297.589C144.236 297.363 144.18 297.129 144.152 296.891C143.948 296.116 143.785 295.331 143.663 294.539C143.667 294.473 143.667 294.407 143.663 294.341C143.517 293.623 143.423 292.894 143.33 292.176C143.283 291.935 143.252 291.692 143.236 291.447C143.092 290.673 142.999 289.891 142.955 289.105C142.94 289.044 142.94 288.979 142.955 288.918C142.893 288.002 142.861 287.086 142.861 286.139C142.861 277.374 146.358 269.11 152.519 261.886C152.238 262.365 152.04 262.771 151.915 262.927C149.209 267.393 147.311 272.301 146.306 277.426C145.281 282.895 145.408 288.518 146.681 293.934C147.953 299.351 150.342 304.442 153.695 308.882C161.188 319.072 173.884 324.038 183.032 332.5C187.486 336.611 191.243 341.649 192.138 347.791C193.616 357.336 187.372 366.183 184 374.708Z" fill="url(#paint25_linear_4_6285)"/>
<path style="mix-blend-mode:multiply" d="M304.356 286.098C304.356 286.9 304.356 287.691 304.283 288.461C304.21 289.231 304.19 289.981 304.096 290.73C303.946 292.39 303.689 294.038 303.326 295.664C303.232 296.08 303.159 296.486 303.034 296.871C303.053 296.925 303.053 296.984 303.034 297.038C302.92 297.569 302.774 298.079 302.629 298.578C302.389 299.38 302.15 300.171 301.91 300.941C301.786 301.254 301.692 301.566 301.567 301.878C301.442 302.19 301.255 302.7 301.088 303.086C300.786 303.909 300.439 304.715 300.048 305.5C299.694 306.271 299.309 307.041 298.892 307.811C298.466 308.633 298.008 309.425 297.519 310.195C297.259 310.632 296.967 311.059 296.676 311.496C296.023 312.464 295.318 313.395 294.563 314.285C294.339 314.603 294.1 314.908 293.845 315.201C293.044 316.169 292.201 317.085 291.316 317.981L290.442 318.845C290.036 319.209 289.63 319.594 289.214 319.948C281.929 326.308 272.688 330.284 266.236 337.643C260.22 344.544 257.098 353.007 261.261 361.511C261.261 361.511 265.018 368.797 270.034 380.757C270.346 381.527 270.679 382.297 271.075 383.099C271.574 384.327 272.116 385.628 272.636 386.95C274.488 391.603 276.466 396.776 278.464 402.345C279.504 405.353 280.608 408.465 281.648 411.713L282.585 414.648C282.928 415.637 283.24 416.678 283.553 417.687C283.569 417.78 283.594 417.87 283.626 417.958C284.323 420.196 284.999 422.455 285.644 424.776C285.738 425.182 285.863 425.588 285.977 426.004C286.415 427.545 286.852 429.127 287.258 430.699C287.601 432.021 287.955 433.353 288.298 434.696C288.642 436.038 289.027 437.516 289.339 438.932C289.578 439.848 289.776 440.795 289.984 441.732C290.328 443.221 290.64 444.719 290.952 446.208C291.264 447.696 291.597 449.393 291.889 451.006C292.159 452.453 292.419 453.9 292.659 455.347C292.898 456.794 293.189 458.47 293.408 460.041C293.481 460.374 293.533 460.739 293.575 461.082C293.814 462.768 294.032 464.475 294.23 466.162C294.397 467.484 294.542 468.785 294.657 470.107C294.657 470.252 294.657 470.377 294.657 470.523C294.875 472.688 295.042 474.864 295.167 477.029V477.081C293.689 479.267 290.588 481.338 286.154 483.201C285.842 476.519 285.239 469.67 284.687 464.528C284.135 459.386 283.646 455.711 283.646 455.711C280.857 435.434 276.331 415.435 270.117 395.933C268.265 390.062 266.288 384.223 264.123 378.446C263.665 377.197 263.186 375.969 262.697 374.709C259.357 366.184 253.113 357.337 254.538 347.75C255.454 341.609 259.18 336.571 263.665 332.459C272.813 323.997 285.52 319.032 293.002 308.842C296.351 304.407 298.74 299.324 300.017 293.916C301.295 288.507 301.433 282.892 300.422 277.428C299.412 272.3 297.502 267.391 294.782 262.928C294.542 262.522 293.845 261.117 293.075 259.92C300.214 267.581 304.356 276.543 304.356 286.098Z" fill="url(#paint26_linear_4_6285)"/>
<path style="mix-blend-mode:multiply" opacity="0.2" d="M168.14 397.191C171.34 399.868 174.021 403.111 176.049 406.757H177.173C178.418 403.724 179.284 400.55 179.754 397.306L183.001 374.926C183.28 373.267 183.017 371.561 182.253 370.062C181.488 368.562 180.262 367.348 178.755 366.599C178.464 366.471 178.165 366.359 177.86 366.266C175.29 365.517 171.834 366.048 167.453 369.826L167.609 376.196L168.14 397.191Z" fill="url(#paint27_radial_4_6285)"/>
<path style="mix-blend-mode:multiply" opacity="0.24" d="M298.423 309.06C295.887 313.096 292.801 316.761 289.255 319.947C281.97 326.307 272.729 330.283 266.276 337.642C260.22 344.543 257.098 353.006 261.26 361.51C261.26 361.51 265.017 368.796 270.033 380.756C272.614 386.856 275.528 394.173 278.411 402.344L277.599 405.717L169.128 399.721C171.709 392.612 174.259 386.189 176.548 380.756C181.564 368.838 185.321 361.51 185.321 361.51C188.381 355.514 187.652 348.52 184.759 342.618C179.556 332.094 168.358 327.202 159.522 320.384C155.197 317.194 151.641 313.076 149.115 308.331C145.176 300.93 141.951 292.801 144.5 291.5C152.108 287.701 167.687 303.042 189 303.5L216 302C216 302 225.533 301.149 227.292 300.93C227.656 300.93 237.574 302.042 238 302C287.5 300.93 293.5 291 304 287C306 289.5 300.346 306 298.423 309.06Z" fill="url(#paint28_linear_4_6285)"/>
<path d="M289.56 424.303C289.643 424.969 289.599 425.073 289.662 425.729L289.643 426.416C289.613 428.044 289.368 429.661 288.915 431.225C288.794 431.7 288.641 432.166 288.457 432.62C285.189 440.718 276.864 444.372 268.684 445.194H268.548C267.747 445.267 266.956 445.35 266.165 445.35C257.313 445.492 248.611 443.058 241.116 438.345C229.887 431.475 215.119 419.067 228.159 406.639C237.765 397.49 249.837 400.186 251.814 411.021C251.886 411.387 252.016 411.738 252.199 412.062L252.355 412.312C252.547 412.609 252.77 412.885 253.021 413.134L253.105 413.228C253.429 413.52 253.777 413.784 254.145 414.019L254.416 414.175C254.777 414.398 255.152 414.596 255.54 414.769L255.654 414.821C256.125 415.027 256.608 415.205 257.101 415.352H257.246C257.704 415.497 258.246 415.612 258.745 415.705C259.774 415.897 260.823 415.957 261.867 415.882C262.46 415.89 263.049 415.78 263.599 415.558C264.149 415.337 264.002 415.558 265.072 414.592C269.214 410.851 267.287 403.87 266.779 395.543C266.246 388.257 266.013 386.987 266.779 385.488C267.067 385.574 267.348 385.678 267.622 385.801L268.007 385.957C268.423 386.144 268.83 386.353 269.225 386.581L269.537 386.769C269.87 386.977 270.224 387.206 270.578 387.456L270.994 387.758C271.452 388.091 272.399 388.871 272.399 388.871C275.05 391.302 277.405 394.037 279.413 397.021C282.59 401.555 285.067 406.541 286.76 411.812C288.195 415.847 289.135 420.042 289.56 424.303Z" fill="url(#paint29_linear_4_6285)"/>
<path d="M162.203 419.067C162.12 419.733 162.182 420.191 162.12 420.847V421.18C162.15 422.808 162.395 424.425 162.848 425.989C162.97 426.464 163.123 426.93 163.306 427.384C166.574 435.482 174.9 439.135 183.079 439.958H183.215C184.016 440.031 184.807 440.114 185.598 440.114C194.45 440.256 203.153 437.822 210.647 433.109C221.876 426.239 236.644 413.831 223.604 401.403C213.998 392.254 201.926 394.95 199.949 405.785C199.877 406.151 199.747 406.502 199.564 406.826L199.408 407.076C199.216 407.373 198.993 407.649 198.742 407.898L198.659 407.992C198.334 408.284 197.986 408.548 197.618 408.783L197.347 408.939C196.986 409.162 196.611 409.36 196.223 409.533L196.109 409.585C195.638 409.791 195.155 409.968 194.662 410.115H194.517C194.059 410.261 193.518 410.376 193.018 410.469C191.989 410.661 190.94 410.721 189.896 410.646C189.303 410.654 188.714 410.544 188.164 410.322C178.095 408.939 172.921 393.709 171.851 392.743C168.673 397.277 166.696 401.305 165.003 406.576C163.568 410.611 162.628 414.806 162.203 419.067Z" fill="url(#paint30_linear_4_6285)"/>
<path d="M198.813 277.2C198.381 277.649 197.86 278.004 197.283 278.241C194.057 279.552 189.999 277.085 188.219 272.724C186.439 268.363 187.553 263.741 190.758 262.419C193.464 261.316 196.742 262.867 198.772 265.979C199.164 266.606 199.512 267.26 199.812 267.936C201.29 271.527 200.791 275.233 198.813 277.2Z" fill="white"/>
<path d="M198.812 277.2C196.169 278.095 193.13 276.409 191.871 273.359C190.611 270.309 191.673 266.718 194.379 265.604C195.092 265.331 195.859 265.224 196.62 265.292C197.382 265.361 198.117 265.603 198.77 266C199.163 266.627 199.51 267.281 199.811 267.957C201.289 271.527 200.789 275.233 198.812 277.2Z" fill="#1D1D1D"/>
<path d="M255.955 271.105C254.634 275.647 250.842 278.487 247.51 277.552C247.122 277.445 246.756 277.271 246.428 277.039C243.848 275.528 242.709 271.588 243.877 267.572C244.038 267.051 244.233 266.541 244.461 266.046C246.067 262.384 249.33 260.294 252.304 261.136C255.635 262.122 257.311 266.576 255.955 271.105Z" fill="white"/>
<path d="M252.404 272.418C251.521 275.371 248.998 277.338 246.445 277.065C243.866 275.553 242.726 271.613 243.894 267.597C244.055 267.076 244.25 266.567 244.479 266.071C245.088 265.513 245.828 265.118 246.631 264.923C247.434 264.728 248.273 264.74 249.071 264.957C251.857 265.766 253.336 269.1 252.404 272.418Z" fill="#1D1D1D"/>
</g>
<defs>
<linearGradient id="paint0_linear_4_6285" x1="446.5" y1="73.0403" x2="425.035" y2="499.072" gradientUnits="userSpaceOnUse">
<stop stop-color="#ADD5E0"/>
<stop offset="1" stop-color="#4893AA"/>
</linearGradient>
<linearGradient id="paint1_linear_4_6285" x1="400.298" y1="331.029" x2="373.122" y2="390.932" gradientUnits="userSpaceOnUse">
<stop stop-color="#FFDB44"/>
<stop offset="1" stop-color="#FEEF06"/>
</linearGradient>
<linearGradient id="paint2_linear_4_6285" x1="34650.4" y1="100384" x2="39407.4" y2="110968" gradientUnits="userSpaceOnUse">
<stop stop-color="#FFDB44"/>
<stop offset="1" stop-color="#FEEF06"/>
</linearGradient>
<linearGradient id="paint3_linear_4_6285" x1="205390" y1="207228" x2="172386" y2="278686" gradientUnits="userSpaceOnUse">
<stop stop-color="#FFDB44"/>
<stop offset="1" stop-color="#FEEF06"/>
</linearGradient>
<linearGradient id="paint4_linear_4_6285" x1="84563.1" y1="162198" x2="99266.7" y2="194922" gradientUnits="userSpaceOnUse">
<stop stop-color="#FFDB44"/>
<stop offset="1" stop-color="#FEEF06"/>
</linearGradient>
<linearGradient id="paint5_linear_4_6285" x1="352756" y1="182074" x2="283383" y2="332284" gradientUnits="userSpaceOnUse">
<stop stop-color="#FFDB44"/>
<stop offset="1" stop-color="#FEEF06"/>
</linearGradient>
<linearGradient id="paint6_linear_4_6285" x1="141571" y1="150317" x2="172488" y2="219108" gradientUnits="userSpaceOnUse">
<stop stop-color="#FFDB44"/>
<stop offset="1" stop-color="#FEEF06"/>
</linearGradient>
<linearGradient id="paint7_linear_4_6285" x1="0.901068" y1="340.805" x2="543.791" y2="340.502" gradientUnits="userSpaceOnUse">
<stop stop-color="#ADD5E0"/>
<stop offset="1" stop-color="#4893AA"/>
</linearGradient>
<linearGradient id="paint8_linear_4_6285" x1="300.589" y1="260.532" x2="403.589" y2="388.803" gradientUnits="userSpaceOnUse">
<stop stop-color="#1A94AC"/>
<stop offset="0.26" stop-color="#4AABBF"/>
<stop offset="0.69" stop-color="#A0D5E1"/>
</linearGradient>
<linearGradient id="paint9_linear_4_6285" x1="31684.8" y1="2839.82" x2="31684.8" y2="20871.3" gradientUnits="userSpaceOnUse">
<stop stop-color="#1A94AC"/>
<stop offset="0.26" stop-color="#4AABBF"/>
<stop offset="0.69" stop-color="#A0D5E1"/>
</linearGradient>
<linearGradient id="paint10_linear_4_6285" x1="30408.3" y1="8672.6" x2="35462.9" y2="20586.3" gradientUnits="userSpaceOnUse">
<stop stop-color="#1A94AC"/>
<stop offset="0.26" stop-color="#4AABBF"/>
<stop offset="0.69" stop-color="#A0D5E1"/>
</linearGradient>
<linearGradient id="paint11_linear_4_6285" x1="31717.4" y1="14724" x2="35232.9" y2="13363.4" gradientUnits="userSpaceOnUse">
<stop stop-color="#1A94AC"/>
<stop offset="0.26" stop-color="#4AABBF"/>
<stop offset="0.69" stop-color="#A0D5E1"/>
</linearGradient>
<linearGradient id="paint12_linear_4_6285" x1="31964.8" y1="6099.99" x2="33510.6" y2="14182.4" gradientUnits="userSpaceOnUse">
<stop stop-color="#1A94AC"/>
<stop offset="0.26" stop-color="#4AABBF"/>
<stop offset="0.69" stop-color="#A0D5E1"/>
</linearGradient>
<linearGradient id="paint13_linear_4_6285" x1="31565" y1="9884.85" x2="35549.5" y2="9200.77" gradientUnits="userSpaceOnUse">
<stop stop-color="#1A94AC"/>
<stop offset="0.26" stop-color="#4AABBF"/>
<stop offset="0.69" stop-color="#A0D5E1"/>
</linearGradient>
<linearGradient id="paint14_linear_4_6285" x1="10384.8" y1="3686.87" x2="-2538.18" y2="17342.3" gradientUnits="userSpaceOnUse">
<stop stop-color="#1A94AC"/>
<stop offset="0.26" stop-color="#4AABBF"/>
<stop offset="0.69" stop-color="#A0D5E1"/>
</linearGradient>
<linearGradient id="paint15_linear_4_6285" x1="6076.14" y1="2839.28" x2="6076.14" y2="20866.7" gradientUnits="userSpaceOnUse">
<stop stop-color="#1A94AC"/>
<stop offset="0.26" stop-color="#4AABBF"/>
<stop offset="0.69" stop-color="#A0D5E1"/>
</linearGradient>
<linearGradient id="paint16_linear_4_6285" x1="26103.6" y1="19674.6" x2="21016.5" y2="31614.2" gradientUnits="userSpaceOnUse">
<stop stop-color="#1A94AC"/>
<stop offset="0.26" stop-color="#4AABBF"/>
<stop offset="0.69" stop-color="#A0D5E1"/>
</linearGradient>
<linearGradient id="paint17_linear_4_6285" x1="24738.2" y1="25856.4" x2="21213.6" y2="24486" gradientUnits="userSpaceOnUse">
<stop stop-color="#1A94AC"/>
<stop offset="0.26" stop-color="#4AABBF"/>
<stop offset="0.69" stop-color="#A0D5E1"/>
</linearGradient>
<linearGradient id="paint18_linear_4_6285" x1="31807" y1="13860.2" x2="30261.3" y2="21941.9" gradientUnits="userSpaceOnUse">
<stop stop-color="#1A94AC"/>
<stop offset="0.26" stop-color="#4AABBF"/>
<stop offset="0.69" stop-color="#A0D5E1"/>
</linearGradient>
<linearGradient id="paint19_linear_4_6285" x1="32193.3" y1="17723.8" x2="28208.8" y2="17039.7" gradientUnits="userSpaceOnUse">
<stop stop-color="#1A94AC"/>
<stop offset="0.26" stop-color="#4AABBF"/>
<stop offset="0.69" stop-color="#A0D5E1"/>
</linearGradient>
<linearGradient id="paint20_linear_4_6285" x1="27071.4" y1="11.5496" x2="27071.4" y2="63014.3" gradientUnits="userSpaceOnUse">
<stop stop-color="#1A94AC"/>
<stop offset="0.26" stop-color="#4AABBF"/>
<stop offset="0.69" stop-color="#A0D5E1"/>
</linearGradient>
<linearGradient id="paint21_linear_4_6285" x1="204.751" y1="269.048" x2="170.636" y2="255.74" gradientUnits="userSpaceOnUse">
<stop stop-color="#001AD5"/>
<stop offset="1" stop-color="#001AD5" stop-opacity="0"/>
</linearGradient>
<linearGradient id="paint22_linear_4_6285" x1="11400" y1="1996.15" x2="13314.5" y2="462.981" gradientUnits="userSpaceOnUse">
<stop stop-color="#001AD5"/>
<stop offset="1" stop-color="#001AD5" stop-opacity="0"/>
</linearGradient>
<radialGradient id="paint23_radial_4_6285" cx="0" cy="0" r="1" gradientUnits="userSpaceOnUse" gradientTransform="translate(222.031 292.073) rotate(-1.71868) scale(46.3317 25.0291)">
<stop stop-color="white" stop-opacity="0.7"/>
<stop offset="0.81" stop-color="#4953FB" stop-opacity="0"/>
</radialGradient>
<radialGradient id="paint24_radial_4_6285" cx="0" cy="0" r="1" gradientUnits="userSpaceOnUse" gradientTransform="translate(224.223 458.229) scale(87.9697 87.9864)">
<stop stop-color="#89D5E0"/>
<stop offset="0.78" stop-color="#80D0DD" stop-opacity="0"/>
<stop offset="0.81" stop-color="#AFC000" stop-opacity="0"/>
</radialGradient>
<linearGradient id="paint25_linear_4_6285" x1="5761.01" y1="46742.5" x2="5217.45" y2="15859.6" gradientUnits="userSpaceOnUse">
<stop stop-color="#1A94AC"/>
<stop offset="0.26" stop-color="#4AABBF"/>
<stop offset="0.69" stop-color="#A0D5E1"/>
</linearGradient>
<linearGradient id="paint26_linear_4_6285" x1="11326.6" y1="47325.4" x2="10221.6" y2="14824.5" gradientUnits="userSpaceOnUse">
<stop stop-color="#1A94AC"/>
<stop offset="0.26" stop-color="#4AABBF"/>
<stop offset="0.69" stop-color="#A0D5E1"/>
</linearGradient>
<radialGradient id="paint27_radial_4_6285" cx="0" cy="0" r="1" gradientUnits="userSpaceOnUse" gradientTransform="translate(177.984 407.487) rotate(67.7838) scale(10.2525 10.2511)">
<stop stop-color="#873E9E" stop-opacity="0.5"/>
<stop offset="0.07" stop-color="#9742A2" stop-opacity="0.43"/>
<stop offset="0.31" stop-color="#C44DAC" stop-opacity="0.25"/>
<stop offset="0.55" stop-color="#E555B4" stop-opacity="0.11"/>
<stop offset="0.79" stop-color="#F859B8" stop-opacity="0.03"/>
<stop offset="1" stop-color="#FF5BBA" stop-opacity="0"/>
</radialGradient>
<linearGradient id="paint28_linear_4_6285" x1="223.764" y1="295.309" x2="223.764" y2="404.603" gradientUnits="userSpaceOnUse">
<stop stop-color="#FF0000" stop-opacity="0.9"/>
<stop offset="0.44" stop-color="#6D2E97"/>
<stop offset="1" stop-color="#FF5BBA" stop-opacity="0"/>
</linearGradient>
<linearGradient id="paint29_linear_4_6285" x1="287.58" y1="420.004" x2="225.139" y2="420.524" gradientUnits="userSpaceOnUse">
<stop stop-color="#1A94AC"/>
<stop offset="0.334352" stop-color="#2D9CB2"/>
<stop offset="0.771405" stop-color="#61B2C4"/>
</linearGradient>
<linearGradient id="paint30_linear_4_6285" x1="164.183" y1="414.768" x2="226.624" y2="415.288" gradientUnits="userSpaceOnUse">
<stop stop-color="#1A94AC"/>
<stop offset="0.334352" stop-color="#2D9CB2"/>
<stop offset="0.771405" stop-color="#61B2C4"/>
</linearGradient>
</defs>
</svg>
