<svg width="580" height="476" viewBox="0 0 580 476" fill="none" xmlns="http://www.w3.org/2000/svg">
<path opacity="0.3" fill-rule="evenodd" clip-rule="evenodd" d="M270.734 77.8078C319.098 70.7332 352.871 77.8078 392.631 104.43C427.72 130.373 456.998 171.468 466.422 211.272C478.822 263.645 472.109 311.825 430.032 355.907C382.236 405.98 322.982 417.005 250.101 406.984C193.689 399.227 164.941 379.795 122.163 343.967C77.4123 306.486 61.1144 271.263 73.54 221.906C85.5069 174.372 118.131 159.693 169.907 131.471C203.508 113.156 225.483 84.427 270.734 77.8078Z" fill="#ADD5E0"/>
<path fill-rule="evenodd" clip-rule="evenodd" d="M270.735 77.8078C314.948 70.7332 345.822 77.8078 382.169 104.43C414.246 130.373 441.012 171.468 449.627 211.272C460.962 263.645 454.826 311.825 416.36 355.907C372.667 405.98 318.499 417.005 251.874 406.984C200.304 399.227 174.023 379.795 134.917 343.967C94.008 306.486 79.1091 271.263 90.4682 221.906C101.408 174.372 131.232 159.693 178.564 131.471C209.28 113.156 229.368 84.427 270.735 77.8078Z" fill="url(#paint0_linear_4_5309)"/>
<path d="M545.317 316.443C546.317 310.037 541.934 304.034 535.527 303.034C529.119 302.034 523.115 306.417 522.115 312.823C521.115 319.229 525.499 325.233 531.906 326.232C538.313 327.232 544.317 322.849 545.317 316.443Z" fill="url(#paint1_linear_4_5309)"/>
<path d="M501.419 299.962C544.505 256.883 544.505 187.039 501.419 143.961C458.334 100.882 388.479 100.882 345.394 143.961C302.308 187.039 302.308 256.883 345.394 299.962C388.479 343.04 458.334 343.04 501.419 299.962Z" fill="url(#paint2_linear_4_5309)"/>
<g filter="url(#filter0_ii_4_5309)">
<path d="M423.074 132.563C403.811 132.639 385.087 138.931 369.687 150.502C354.288 162.073 343.035 178.306 337.604 196.785C336.258 201.484 333.423 205.62 329.525 208.57C325.627 211.521 320.876 213.127 315.987 213.147H315.914C309.642 213.124 303.485 211.469 298.048 208.345C292.61 205.22 288.08 200.734 284.904 195.328C278.187 183.912 267.396 175.463 254.702 171.679C242.008 167.895 228.352 169.056 216.479 174.93C212.078 177.072 207.116 177.78 202.291 176.957C197.466 176.133 193.02 173.819 189.579 170.339L189.139 169.899C184.871 165.572 181.902 160.136 180.57 154.207C179.238 148.278 179.595 142.094 181.601 136.358C184.91 126.658 186.333 116.415 185.794 106.181C183.698 66.1825 148.379 31.4461 108.343 30.0626C97.3312 29.6746 86.3568 31.5538 76.1014 35.5835C65.846 39.6133 56.5284 45.7076 48.727 53.4881C40.9256 61.2686 34.8069 70.5693 30.7507 80.8129C26.6944 91.0566 24.7872 102.024 25.1475 113.036C26.4474 153.789 61.965 189.364 102.724 190.737C118.365 191.3 133.829 187.269 147.205 179.144C152.011 176.171 157.627 174.774 163.266 175.15C168.906 175.526 174.286 177.655 178.655 181.24L179.284 181.764C183.312 185.087 186.33 189.469 187.998 194.416C189.665 199.364 189.915 204.679 188.719 209.761C187.501 214.907 187.056 220.206 187.398 225.484C188.13 236.533 192.355 247.064 199.465 255.556C201.165 257.606 202.102 260.183 202.117 262.846C202.132 265.51 201.225 268.097 199.548 270.167L199.056 270.775C197.22 273.018 194.709 274.608 191.897 275.311C189.085 276.013 186.121 275.79 183.446 274.674C172.064 269.989 159.848 267.671 147.541 267.861C97.8705 268.574 57.6459 309.704 58.0128 359.377C58.1049 371.394 60.5806 383.274 65.2964 394.328C70.0123 405.382 76.8746 415.39 85.486 423.774C94.0974 432.158 104.287 438.751 115.464 443.17C126.641 447.589 138.584 449.747 150.602 449.52C199.119 448.608 238.725 409.071 239.71 360.572C239.985 348.151 237.7 335.806 232.996 324.306C228.292 312.807 221.271 302.399 212.37 293.73C210.275 291.718 208.886 289.083 208.41 286.218C207.934 283.353 208.396 280.41 209.728 277.829L209.875 277.546C211.138 275.134 213.214 273.247 215.735 272.219C218.256 271.191 221.06 271.088 223.65 271.928C227.318 273.116 231.109 273.886 234.951 274.223C244.834 275.125 254.771 273.206 263.607 268.688C272.444 264.171 279.817 257.24 284.872 248.701C288.046 243.271 292.58 238.762 298.026 235.618C303.473 232.473 309.645 230.801 315.935 230.766C320.835 230.792 325.595 232.407 329.499 235.369C333.402 238.331 336.239 242.479 337.583 247.191C343.703 267.999 357.18 285.873 375.503 297.482C393.826 309.091 415.746 313.645 437.177 310.294C458.609 306.943 478.092 295.916 491.995 279.267C505.899 262.619 513.275 241.485 512.749 219.802C511.648 171.429 471.476 132.385 423.074 132.563Z" fill="url(#paint3_linear_4_5309)"/>
</g>
<g filter="url(#filter1_ii_4_5309)">
<path d="M423.074 132.563C403.811 132.639 385.087 138.931 369.687 150.502C354.288 162.073 343.035 178.306 337.604 196.785C336.258 201.484 333.423 205.62 329.525 208.57C325.627 211.521 320.876 213.127 315.987 213.147H315.914C309.642 213.124 303.485 211.469 298.048 208.345C292.61 205.22 288.08 200.734 284.904 195.328C278.187 183.912 267.396 175.463 254.702 171.679C242.008 167.895 228.352 169.056 216.479 174.93C212.078 177.072 207.116 177.78 202.291 176.957C197.466 176.133 193.02 173.819 189.579 170.339L189.139 169.899C184.871 165.572 181.902 160.136 180.57 154.207C179.238 148.278 179.595 142.094 181.601 136.358C184.91 126.658 186.333 116.415 185.794 106.181C183.698 66.1825 148.379 31.4461 108.343 30.0626C97.3312 29.6746 86.3568 31.5538 76.1014 35.5835C65.846 39.6133 56.5284 45.7076 48.727 53.4881C40.9256 61.2686 34.8069 70.5693 30.7507 80.8129C26.6944 91.0566 24.7872 102.024 25.1475 113.036C26.4474 153.789 61.965 189.364 102.724 190.737C118.365 191.3 133.829 187.269 147.205 179.144C152.011 176.171 157.627 174.774 163.266 175.15C168.906 175.526 174.286 177.655 178.655 181.24L179.284 181.764C183.312 185.087 186.33 189.469 187.998 194.416C189.665 199.364 189.915 204.679 188.719 209.761C187.501 214.907 187.056 220.206 187.398 225.484C188.13 236.533 192.355 247.064 199.465 255.556C201.165 257.606 202.102 260.183 202.117 262.846C202.132 265.51 201.225 268.097 199.548 270.167L199.056 270.775C197.22 273.018 194.709 274.608 191.897 275.311C189.085 276.013 186.121 275.79 183.446 274.674C172.064 269.989 159.848 267.671 147.541 267.861C97.8705 268.574 57.6459 309.704 58.0128 359.377C58.1049 371.394 60.5806 383.274 65.2964 394.328C70.0123 405.382 76.8746 415.39 85.486 423.774C94.0974 432.158 104.287 438.751 115.464 443.17C126.641 447.589 138.584 449.747 150.602 449.52C199.119 448.608 238.725 409.071 239.71 360.572C239.985 348.151 237.7 335.806 232.996 324.306C228.292 312.807 221.271 302.399 212.37 293.73C210.275 291.718 208.886 289.083 208.41 286.218C207.934 283.353 208.396 280.41 209.728 277.829L209.875 277.546C211.138 275.134 213.214 273.247 215.735 272.219C218.256 271.191 221.06 271.088 223.65 271.928C227.318 273.116 231.109 273.886 234.951 274.223C244.834 275.125 254.771 273.206 263.607 268.688C272.444 264.171 279.817 257.24 284.872 248.701C288.046 243.271 292.58 238.762 298.026 235.618C303.473 232.473 309.645 230.801 315.935 230.766C320.835 230.792 325.595 232.407 329.499 235.369C333.402 238.331 336.239 242.479 337.583 247.191C343.703 267.999 357.18 285.873 375.503 297.482C393.826 309.091 415.746 313.645 437.177 310.294C458.609 306.943 478.092 295.916 491.995 279.267C505.899 262.619 513.275 241.485 512.749 219.802C511.648 171.429 471.476 132.385 423.074 132.563Z" fill="url(#paint4_linear_4_5309)"/>
</g>
<path d="M207.207 416.799C239.394 384.617 239.394 332.44 207.207 300.258C175.02 268.076 122.834 268.076 90.647 300.258C58.4599 332.44 58.4599 384.617 90.647 416.799C122.834 448.981 175.02 448.981 207.207 416.799Z" fill="url(#paint5_linear_4_5309)"/>
<path d="M203.531 413.318C233.712 383.142 233.712 334.217 203.531 304.04C173.35 273.864 124.417 273.864 94.2364 304.04C64.0554 334.217 64.0554 383.142 94.2364 413.318C124.417 443.495 173.35 443.495 203.531 413.318Z" stroke="white" stroke-width="2.72067" stroke-miterlimit="10"/>
<path d="M105.236 178.629C143.096 178.629 173.787 147.942 173.787 110.089C173.787 72.2354 143.096 41.5491 105.236 41.5491C67.3767 41.5491 36.6855 72.2354 36.6855 110.089C36.6855 147.942 67.3767 178.629 105.236 178.629Z" fill="url(#paint6_linear_4_5309)"/>
<path d="M423.399 302.775C468.114 302.775 504.362 266.533 504.362 221.825C504.362 177.118 468.114 140.875 423.399 140.875C378.685 140.875 342.437 177.118 342.437 221.825C342.437 266.533 378.685 302.775 423.399 302.775Z" stroke="url(#paint7_linear_4_5309)" stroke-width="4.53444" stroke-miterlimit="10"/>
<path d="M239.742 280.313C271.973 280.313 298.102 254.189 298.102 221.962C298.102 189.735 271.973 163.61 239.742 163.61C207.51 163.61 181.381 189.735 181.381 221.962C181.381 254.189 207.51 280.313 239.742 280.313Z" fill="url(#paint8_linear_4_5309)"/>
<g filter="url(#filter2_ii_4_5309)">
<path d="M290.074 228.975C294.498 201.05 275.442 174.827 247.513 170.404C219.584 165.982 193.357 185.034 188.933 212.959C184.51 240.883 203.565 267.106 231.494 271.529C259.423 275.952 285.65 256.9 290.074 228.975Z" fill="url(#paint9_linear_4_5309)"/>
</g>
<path d="M58.5178 250.667C61.9053 236.317 53.0165 221.938 38.6642 218.551C24.312 215.164 9.93111 224.052 6.54366 238.402C3.15622 252.752 12.045 267.13 26.3972 270.517C40.7495 273.904 55.1304 265.017 58.5178 250.667Z" fill="url(#paint10_linear_4_5309)"/>
<path d="M365.621 453.259C376.518 453.259 385.351 444.427 385.351 433.532C385.351 422.637 376.518 413.805 365.621 413.805C354.725 413.805 345.892 422.637 345.892 433.532C345.892 444.427 354.725 453.259 365.621 453.259Z" fill="url(#paint11_linear_4_5309)"/>
<path d="M249.651 58.9399C265.666 58.9399 278.648 45.9595 278.648 29.9475C278.648 13.9354 265.666 0.955078 249.651 0.955078C233.637 0.955078 220.654 13.9354 220.654 29.9475C220.654 45.9595 233.637 58.9399 249.651 58.9399Z" fill="url(#paint12_linear_4_5309)"/>
<path opacity="0.5" d="M224.309 425.338C209.008 442.618 188.234 454.118 165.465 457.912C142.696 461.706 119.315 457.565 99.2356 446.18C79.1564 434.796 63.5983 416.86 55.1663 395.375C46.7343 373.891 45.9402 350.162 52.917 328.162" stroke="#4A5D70" stroke-width="0.906889" stroke-miterlimit="10" stroke-linecap="round" stroke-dasharray="3.45 3.45"/>
<path d="M52.8339 331.328C54.5825 331.328 55.9999 329.911 55.9999 328.162C55.9999 326.414 54.5825 324.997 52.8339 324.997C51.0854 324.997 49.668 326.414 49.668 328.162C49.668 329.911 51.0854 331.328 52.8339 331.328Z" fill="#4A5D70"/>
<path opacity="0.5" d="M41.25 183.295C26.4341 170.245 15.9452 152.993 11.1797 133.835C6.41418 114.678 7.59822 94.5229 14.5741 76.0546C21.5501 57.5862 33.9869 41.6806 50.2289 30.4553C66.4709 19.23 85.7474 13.2176 105.492 13.2185" stroke="#4A5D70" stroke-width="0.906889" stroke-miterlimit="10" stroke-linecap="round" stroke-dasharray="3.45 3.45"/>
<path opacity="0.5" d="M202.672 110.384C202.69 125.043 199.382 139.514 192.996 152.709" stroke="#4A5D70" stroke-width="0.906889" stroke-miterlimit="10" stroke-linecap="round" stroke-dasharray="3.45 3.45"/>
<path opacity="0.5" d="M161.504 189.793C145.127 201.377 125.553 207.582 105.492 207.549C102.263 207.549 99.0691 207.392 95.9102 207.078" stroke="#4A5D70" stroke-width="0.906889" stroke-miterlimit="10" stroke-linecap="round" stroke-dasharray="3.45 3.45"/>
<path d="M105.491 16.3839C107.24 16.3839 108.657 14.9667 108.657 13.2185C108.657 11.4702 107.24 10.053 105.491 10.053C103.743 10.053 102.325 11.4702 102.325 13.2185C102.325 14.9667 103.743 16.3839 105.491 16.3839Z" fill="#4A5D70"/>
<path d="M205.838 110.384C205.838 111.006 205.653 111.614 205.308 112.131C204.962 112.648 204.471 113.051 203.896 113.289C203.322 113.527 202.689 113.589 202.079 113.468C201.469 113.347 200.909 113.047 200.469 112.608C200.029 112.168 199.73 111.607 199.608 110.997C199.487 110.387 199.549 109.755 199.787 109.181C200.025 108.606 200.428 108.115 200.946 107.769C201.463 107.424 202.071 107.24 202.693 107.24C203.527 107.24 204.327 107.571 204.917 108.161C205.507 108.75 205.838 109.55 205.838 110.384Z" fill="#4A5D70"/>
<path opacity="0.5" d="M349.46 314.651C327.982 297.531 313.112 273.487 307.391 246.625" stroke="#4A5D70" stroke-width="0.906889" stroke-miterlimit="10" stroke-linecap="round" stroke-dasharray="3.45 3.45"/>
<path opacity="0.5" d="M402.568 105.217C409.449 104.002 416.422 103.392 423.409 103.393C439.076 103.245 454.616 106.203 469.132 112.096C483.648 117.988 496.853 126.698 507.983 137.722C519.113 148.747 527.949 161.867 533.978 176.325C540.007 190.783 543.112 206.292 543.112 221.957C543.112 237.621 540.007 253.13 533.978 267.588C527.949 282.046 519.113 295.166 507.983 306.191C496.853 317.215 483.648 325.925 469.132 331.817C454.616 337.71 439.076 340.668 423.409 340.52" stroke="#4A5D70" stroke-width="0.906889" stroke-miterlimit="10" stroke-linecap="round" stroke-dasharray="3.45 3.45"/>
<path d="M426.555 340.52C426.555 341.142 426.37 341.75 426.025 342.267C425.679 342.784 425.188 343.187 424.613 343.425C424.039 343.663 423.406 343.726 422.796 343.604C422.186 343.483 421.626 343.184 421.186 342.744C420.746 342.304 420.446 341.744 420.325 341.134C420.204 340.524 420.266 339.891 420.504 339.317C420.742 338.742 421.145 338.251 421.662 337.906C422.18 337.56 422.788 337.376 423.41 337.376C424.244 337.376 425.044 337.707 425.634 338.297C426.223 338.886 426.555 339.686 426.555 340.52Z" fill="#4A5D70"/>
<circle cx="402.895" cy="65.7328" r="13.8193" fill="url(#paint13_linear_4_5309)"/>
<circle cx="300.547" cy="22.9795" r="6.47778" fill="url(#paint14_linear_4_5309)"/>
<circle cx="313.503" cy="440.148" r="6.47778" fill="url(#paint15_linear_4_5309)"/>
<path d="M153.079 356.743C151.66 355.325 151.618 353.951 151.618 353.883C151.616 353.587 151.375 353.347 151.079 353.347H146.739C146.441 353.347 146.199 353.592 146.199 353.89C146.199 353.948 146.18 355.323 144.76 356.743C144.606 356.897 144.559 357.13 144.643 357.331C144.724 357.533 144.921 357.665 145.14 357.665H152.698C152.917 357.665 153.114 357.533 153.197 357.331C153.279 357.13 153.232 356.897 153.079 356.743Z" fill="#E5F3F7"/>
<path d="M159.984 336.073H156.475C155.879 336.073 155.395 336.556 155.395 337.153C155.396 337.749 155.879 338.232 156.476 338.232H159.715V350.107H138.122V338.232H141.361C141.958 338.232 142.441 337.749 142.441 337.151C142.441 336.556 141.958 336.071 141.361 336.071H137.853C136.808 336.073 135.963 336.918 135.963 337.961V352.536C135.963 353.581 136.808 354.426 137.853 354.426H159.986C161.029 354.426 161.874 353.581 161.874 352.536V337.961C161.874 336.918 161.029 336.073 159.984 336.073Z" fill="#E5F3F7"/>
<path d="M152.915 337.658C152.936 337.49 152.967 337.325 152.967 337.151C152.967 336.978 152.938 336.813 152.915 336.644L153.887 335.909C154.104 335.746 154.166 335.444 154.028 335.21L153.157 333.697C153.021 333.461 152.731 333.363 152.48 333.47L151.361 333.943C151.089 333.736 150.797 333.551 150.477 333.417L150.328 332.227C150.294 331.956 150.064 331.754 149.791 331.754H148.046C147.774 331.754 147.544 331.956 147.51 332.227L147.361 333.415C147.04 333.55 146.749 333.733 146.476 333.942L145.357 333.469C145.106 333.363 144.817 333.461 144.681 333.695L143.808 335.208C143.672 335.444 143.732 335.744 143.949 335.908L144.92 336.643C144.899 336.811 144.868 336.976 144.868 337.15C144.868 337.323 144.898 337.488 144.92 337.657L143.949 338.392C143.732 338.555 143.67 338.857 143.808 339.091L144.681 340.604C144.817 340.84 145.106 340.938 145.357 340.831L146.476 340.358C146.749 340.565 147.04 340.75 147.361 340.884L147.51 342.073C147.544 342.343 147.774 342.546 148.046 342.546H149.791C150.064 342.546 150.294 342.343 150.328 342.073L150.477 340.884C150.797 340.75 151.089 340.567 151.361 340.358L152.48 340.831C152.731 340.936 153.021 340.839 153.157 340.604L154.03 339.091C154.166 338.855 154.106 338.555 153.889 338.392L152.915 337.658ZM148.919 339.312C147.727 339.312 146.76 338.345 146.76 337.153C146.76 335.959 147.727 334.993 148.919 334.993C150.111 334.993 151.077 335.959 151.077 337.151C151.077 338.345 150.111 339.312 148.919 339.312Z" fill="white"/>
<path d="M106.24 380.756V372.776H108.852C110.126 372.76 111.174 373.126 111.996 373.876C112.818 374.618 113.221 375.573 113.205 376.742C113.221 377.903 112.814 378.866 111.984 379.632C111.153 380.398 110.11 380.772 108.852 380.756H106.24ZM107.873 379.281H108.84C109.646 379.281 110.295 379.051 110.787 378.592C111.278 378.124 111.524 377.508 111.524 376.742C111.524 375.968 111.282 375.359 110.799 374.916C110.315 374.473 109.662 374.251 108.84 374.251H107.873V379.281ZM119.498 377.201V380.756H117.999V380.176C117.531 380.66 116.922 380.901 116.173 380.901C115.544 380.901 115.04 380.736 114.661 380.406C114.29 380.075 114.105 379.644 114.105 379.112C114.105 378.572 114.307 378.149 114.71 377.842C115.121 377.528 115.673 377.371 116.366 377.371H117.866V377.105C117.866 376.766 117.769 376.508 117.575 376.331C117.39 376.145 117.116 376.053 116.753 376.053C116.455 376.053 116.185 376.117 115.943 376.246C115.701 376.375 115.443 376.585 115.169 376.875L114.323 375.871C115.016 375.049 115.887 374.638 116.935 374.638C117.725 374.638 118.349 374.864 118.809 375.315C119.268 375.758 119.498 376.387 119.498 377.201ZM117.866 378.519V378.447H116.584C116.028 378.447 115.75 378.648 115.75 379.051C115.75 379.253 115.826 379.414 115.979 379.535C116.141 379.648 116.35 379.704 116.608 379.704C116.971 379.704 117.269 379.596 117.503 379.378C117.745 379.152 117.866 378.866 117.866 378.519ZM124.914 379.39V380.756C124.527 380.853 124.152 380.901 123.79 380.901C123.024 380.901 122.431 380.712 122.012 380.333C121.601 379.954 121.395 379.394 121.395 378.652V376.149H120.452V374.771H121.395V373.259H123.028V374.771H124.721V376.149H123.028V378.507C123.028 378.846 123.113 379.088 123.282 379.233C123.459 379.37 123.745 379.438 124.14 379.438C124.277 379.438 124.535 379.422 124.914 379.39ZM131.118 377.201V380.756H129.618V380.176C129.151 380.66 128.542 380.901 127.792 380.901C127.163 380.901 126.66 380.736 126.281 380.406C125.91 380.075 125.725 379.644 125.725 379.112C125.725 378.572 125.926 378.149 126.329 377.842C126.74 377.528 127.292 377.371 127.986 377.371H129.485V377.105C129.485 376.766 129.388 376.508 129.195 376.331C129.01 376.145 128.735 376.053 128.373 376.053C128.074 376.053 127.804 376.117 127.563 376.246C127.321 376.375 127.063 376.585 126.789 376.875L125.942 375.871C126.635 375.049 127.506 374.638 128.554 374.638C129.344 374.638 129.969 374.864 130.428 375.315C130.888 375.758 131.118 376.387 131.118 377.201ZM129.485 378.519V378.447H128.203C127.647 378.447 127.369 378.648 127.369 379.051C127.369 379.253 127.446 379.414 127.599 379.535C127.76 379.648 127.97 379.704 128.228 379.704C128.59 379.704 128.889 379.596 129.122 379.378C129.364 379.152 129.485 378.866 129.485 378.519ZM136.295 380.756V374.868H137.226V380.756H136.295ZM136.065 372.619C136.065 372.433 136.134 372.276 136.271 372.147C136.408 372.01 136.573 371.941 136.767 371.941C136.952 371.941 137.113 372.01 137.25 372.147C137.388 372.276 137.456 372.433 137.456 372.619C137.456 372.812 137.388 372.973 137.25 373.102C137.121 373.231 136.96 373.296 136.767 373.296C136.573 373.296 136.408 373.231 136.271 373.102C136.134 372.973 136.065 372.812 136.065 372.619ZM138.715 379.741L139.307 379.124C139.614 379.438 139.892 379.668 140.142 379.813C140.4 379.958 140.686 380.031 141 380.031C141.331 380.031 141.601 379.958 141.81 379.813C142.02 379.66 142.125 379.454 142.125 379.196C142.125 378.971 142.048 378.797 141.895 378.677C141.75 378.548 141.484 378.406 141.097 378.253L140.528 378.011C140.021 377.802 139.65 377.572 139.416 377.322C139.182 377.072 139.065 376.758 139.065 376.379C139.065 375.879 139.251 375.48 139.622 375.182C140 374.884 140.476 374.735 141.048 374.735C141.847 374.735 142.503 375.045 143.019 375.666L142.451 376.246C142.016 375.811 141.532 375.593 141 375.593C140.702 375.593 140.464 375.658 140.287 375.787C140.109 375.916 140.021 376.097 140.021 376.331C140.021 376.516 140.085 376.669 140.214 376.79C140.351 376.903 140.605 377.036 140.976 377.189L141.52 377.419C142.084 377.661 142.483 377.915 142.717 378.181C142.959 378.439 143.08 378.765 143.08 379.16C143.08 379.708 142.878 380.136 142.475 380.442C142.08 380.74 141.593 380.889 141.012 380.889C140.069 380.889 139.303 380.506 138.715 379.741ZM151.367 379.97V380.756C150.972 380.845 150.646 380.889 150.388 380.889C149.759 380.889 149.271 380.728 148.925 380.406C148.578 380.083 148.405 379.608 148.405 378.979V375.702H147.413V374.868H148.405V373.259H149.336V374.868H151.174V375.702H149.336V378.918C149.336 379.321 149.437 379.612 149.638 379.789C149.848 379.958 150.162 380.043 150.581 380.043C150.807 380.043 151.069 380.019 151.367 379.97ZM157.629 377.056V380.756H156.698V377.177C156.698 376.693 156.565 376.311 156.299 376.028C156.041 375.738 155.686 375.593 155.235 375.593C154.784 375.593 154.413 375.742 154.123 376.041C153.832 376.339 153.687 376.718 153.687 377.177V380.756H152.756V371.687H153.687V375.533C154.115 375.001 154.703 374.735 155.453 374.735C156.122 374.735 156.65 374.948 157.037 375.375C157.432 375.795 157.629 376.355 157.629 377.056ZM164.805 378.096H160.149C160.206 378.677 160.435 379.144 160.838 379.499C161.242 379.853 161.733 380.031 162.314 380.031C162.983 380.031 163.583 379.765 164.115 379.233L164.659 379.862C163.998 380.547 163.212 380.889 162.302 380.889C161.423 380.889 160.681 380.595 160.077 380.007C159.48 379.41 159.182 378.681 159.182 377.818C159.182 376.964 159.472 376.238 160.052 375.641C160.641 375.037 161.354 374.735 162.193 374.735C162.959 374.735 163.595 374.985 164.103 375.484C164.619 375.984 164.877 376.621 164.877 377.395C164.877 377.621 164.853 377.854 164.805 378.096ZM160.185 377.274H163.922C163.914 376.758 163.745 376.347 163.414 376.041C163.084 375.734 162.668 375.581 162.169 375.581C161.677 375.581 161.25 375.738 160.887 376.053C160.524 376.359 160.29 376.766 160.185 377.274ZM169.902 380.756V371.687H170.833V380.756H169.902ZM172.054 377.455L174.836 380.756H173.638L170.93 377.443L173.385 374.868H174.606L172.054 377.455ZM176.019 380.756V374.868H176.95V380.756H176.019ZM175.789 372.619C175.789 372.433 175.858 372.276 175.995 372.147C176.132 372.01 176.297 371.941 176.49 371.941C176.676 371.941 176.837 372.01 176.974 372.147C177.111 372.276 177.18 372.433 177.18 372.619C177.18 372.812 177.111 372.973 176.974 373.102C176.845 373.231 176.684 373.296 176.49 373.296C176.297 373.296 176.132 373.231 175.995 373.102C175.858 372.973 175.789 372.812 175.789 372.619ZM183.868 377.056V380.756H182.937V377.165C182.937 376.698 182.803 376.319 182.537 376.028C182.28 375.738 181.925 375.593 181.473 375.593C181.022 375.593 180.651 375.742 180.361 376.041C180.071 376.331 179.926 376.706 179.926 377.165V380.756H178.995V374.868H179.865V375.496C180.325 374.989 180.929 374.735 181.679 374.735C182.356 374.735 182.888 374.948 183.275 375.375C183.67 375.795 183.868 376.355 183.868 377.056ZM190.62 374.868H191.502V380.188C191.502 381.075 191.244 381.776 190.729 382.292C190.213 382.808 189.515 383.066 188.637 383.066C187.548 383.066 186.625 382.687 185.868 381.929L186.412 381.276C187.121 381.897 187.855 382.207 188.613 382.207C189.225 382.207 189.705 382.034 190.051 381.687C190.398 381.349 190.571 380.865 190.571 380.236V379.716C190.338 380.023 190.023 380.265 189.628 380.442C189.241 380.611 188.826 380.696 188.383 380.696C187.552 380.696 186.863 380.414 186.315 379.849C185.767 379.285 185.493 378.576 185.493 377.721C185.493 376.875 185.767 376.165 186.315 375.593C186.871 375.021 187.561 374.735 188.383 374.735C188.85 374.735 189.282 374.831 189.677 375.025C190.08 375.21 190.394 375.472 190.62 375.811V374.868ZM190.583 377.721C190.583 377.052 190.382 376.536 189.979 376.174C189.584 375.803 189.1 375.617 188.528 375.617C187.923 375.617 187.423 375.819 187.028 376.222C186.633 376.617 186.436 377.121 186.436 377.733C186.436 378.354 186.633 378.862 187.028 379.257C187.423 379.644 187.923 379.837 188.528 379.837C189.108 379.837 189.596 379.656 189.991 379.293C190.386 378.922 190.583 378.398 190.583 377.721Z" fill="white"/>
<path d="M95.7946 68.324C94.1557 68.324 92.8262 69.6535 92.8262 71.2924V80.7386H105.242V68.324H95.7946ZM100.653 75.6115H99.5728V76.6916C99.5728 77.1386 99.21 77.5014 98.7631 77.5014C98.3161 77.5014 97.9533 77.1386 97.9533 76.6916V75.6115H96.8748C96.4278 75.6115 96.0651 75.2487 96.0651 74.8017C96.0651 74.3548 96.4278 73.992 96.8748 73.992H97.9549V72.9119C97.9549 72.4649 98.3177 72.1021 98.7647 72.1021C99.2116 72.1021 99.5744 72.4649 99.5744 72.9119V73.992H100.655C101.102 73.992 101.464 74.3548 101.464 74.8017C101.464 75.2487 101.1 75.6115 100.653 75.6115Z" fill="#E5F3F7"/>
<path d="M92.8262 81.8184V91.2646C92.8262 92.9051 94.1557 94.2346 95.7946 94.2346H105.241V81.8184H92.8262ZM100.956 88.8046C101.272 89.1204 101.272 89.6338 100.956 89.9496C100.797 90.1083 100.59 90.186 100.382 90.186C100.175 90.186 99.9679 90.1067 99.8092 89.9496L99.0319 89.1723L98.2545 89.9496C98.0991 90.1067 97.8918 90.186 97.6845 90.186C97.4772 90.186 97.2699 90.1067 97.1112 89.9496C96.7954 89.6338 96.7954 89.1204 97.1112 88.8046L97.8886 88.0273L97.1112 87.25C96.7954 86.9342 96.7954 86.4208 97.1112 86.105C97.427 85.7892 97.9404 85.7892 98.2562 86.105L99.0335 86.8824L99.8108 86.105C100.127 85.7892 100.64 85.7892 100.956 86.105C101.272 86.4208 101.272 86.9342 100.956 87.25L100.178 88.0273L100.956 88.8046Z" fill="white"/>
<path d="M115.768 68.324H106.322V80.7402H118.737V71.2924C118.737 69.6535 117.407 68.324 115.768 68.324ZM115.228 75.341H110.369C109.922 75.341 109.56 74.9783 109.56 74.5313C109.56 74.0843 109.922 73.7216 110.369 73.7216H115.228C115.675 73.7216 116.037 74.0843 116.037 74.5313C116.037 74.9783 115.675 75.341 115.228 75.341Z" fill="white"/>
<path d="M106.321 81.8184V94.2346H115.768C117.408 94.2346 118.738 92.9051 118.738 91.2662V81.82H106.321V81.8184ZM114.959 90.4565H110.101C109.654 90.4565 109.291 90.0937 109.291 89.6467C109.291 89.1998 109.654 88.837 110.101 88.837H114.959C115.406 88.837 115.769 89.1998 115.769 89.6467C115.769 90.0937 115.406 90.4565 114.959 90.4565ZM114.959 87.2176H110.101C109.654 87.2176 109.291 86.8548 109.291 86.4079C109.291 85.9609 109.654 85.5981 110.101 85.5981H114.959C115.406 85.5981 115.769 85.9609 115.769 86.4079C115.769 86.8548 115.406 87.2176 114.959 87.2176Z" fill="#E5F3F7"/>
<path d="M70.041 117.326V109.346H75.4098V110.821H71.6734V112.441H74.4183V113.832H71.6734V115.851H75.5549V117.326H70.041ZM80.5726 111.341H82.3018L79.3393 117.472H78.7951L75.8326 111.341H77.5497L79.0612 114.727L80.5726 111.341ZM88.5177 114.884H84.3219C84.4186 115.263 84.6121 115.557 84.9023 115.767C85.2005 115.968 85.5673 116.069 86.0026 116.069C86.5911 116.069 87.1473 115.867 87.6713 115.464L88.3485 116.577C87.631 117.173 86.8329 117.472 85.9543 117.472C85.0353 117.488 84.2533 117.189 83.6085 116.577C82.9716 115.956 82.6613 115.21 82.6774 114.34C82.6613 113.477 82.9636 112.736 83.5843 112.115C84.205 111.494 84.9466 111.192 85.8092 111.208C86.6314 111.208 87.3045 111.474 87.8285 112.006C88.3605 112.538 88.6266 113.199 88.6266 113.989C88.6266 114.279 88.5903 114.578 88.5177 114.884ZM84.3219 113.735H87.0425C87.0345 113.372 86.9055 113.082 86.6556 112.865C86.4138 112.639 86.1115 112.526 85.7487 112.526C85.4021 112.526 85.0998 112.635 84.8418 112.852C84.5839 113.07 84.4105 113.364 84.3219 113.735ZM93.5762 111.341V112.78H93.1409C92.6411 112.78 92.2461 112.913 91.9559 113.179C91.6737 113.445 91.5327 113.832 91.5327 114.34V117.326H89.9003V111.341H91.3997V112.054C91.8188 111.53 92.367 111.268 93.0442 111.268C93.2457 111.268 93.423 111.293 93.5762 111.341ZM98.6753 111.341H100.392L97.5266 117.846C97.2525 118.467 96.926 118.923 96.5471 119.213C96.1682 119.503 95.7007 119.648 95.1445 119.648C94.8059 119.648 94.4552 119.6 94.0925 119.503V118.137C94.423 118.169 94.6568 118.185 94.7938 118.185C95.1001 118.185 95.35 118.124 95.5435 118.004C95.737 117.883 95.9022 117.673 96.0393 117.375L96.2206 116.964L93.9232 111.341H95.6523L97.1154 115.271L98.6753 111.341ZM105.188 115.96V117.326C104.801 117.423 104.426 117.472 104.063 117.472C103.298 117.472 102.705 117.282 102.286 116.903C101.875 116.524 101.669 115.964 101.669 115.222V112.719H100.726V111.341H101.669V109.829H103.302V111.341H104.994V112.719H103.302V115.077C103.302 115.416 103.386 115.658 103.555 115.803C103.733 115.94 104.019 116.008 104.414 116.008C104.551 116.008 104.809 115.992 105.188 115.96ZM111.875 113.614V117.326H110.255V113.844C110.255 113.497 110.15 113.219 109.94 113.01C109.739 112.792 109.473 112.683 109.142 112.683C108.812 112.683 108.538 112.792 108.32 113.01C108.11 113.219 108.005 113.497 108.005 113.844V117.326H106.373V108.258H108.005V111.849C108.433 111.422 108.981 111.208 109.65 111.208C110.327 111.208 110.867 111.43 111.27 111.873C111.673 112.308 111.875 112.889 111.875 113.614ZM113.446 117.326V111.341H115.079V117.326H113.446ZM113.217 109.164C113.217 108.874 113.317 108.632 113.519 108.439C113.72 108.245 113.966 108.149 114.256 108.149C114.547 108.149 114.793 108.245 114.994 108.439C115.204 108.632 115.308 108.874 115.308 109.164C115.308 109.447 115.204 109.684 114.994 109.878C114.793 110.071 114.547 110.168 114.256 110.168C113.966 110.168 113.72 110.071 113.519 109.878C113.317 109.684 113.217 109.447 113.217 109.164ZM122.195 113.614V117.326H120.575V113.832C120.575 113.485 120.47 113.207 120.261 112.998C120.059 112.78 119.793 112.671 119.463 112.671C119.132 112.671 118.858 112.78 118.64 112.998C118.431 113.207 118.326 113.485 118.326 113.832V117.326H116.694V111.341H118.193V111.885C118.644 111.434 119.229 111.208 119.946 111.208C120.64 111.208 121.188 111.426 121.591 111.861C121.994 112.296 122.195 112.881 122.195 113.614ZM128.277 111.341H129.777V116.661C129.777 117.621 129.498 118.358 128.942 118.874C128.386 119.39 127.632 119.648 126.681 119.648C125.561 119.648 124.581 119.277 123.743 118.536L124.601 117.399C125.295 117.915 125.943 118.173 126.548 118.173C127.04 118.173 127.427 118.052 127.709 117.81C127.999 117.568 128.144 117.218 128.144 116.758V116.432C127.709 116.907 127.1 117.145 126.318 117.145C125.488 117.145 124.803 116.867 124.263 116.311C123.723 115.754 123.453 115.041 123.453 114.17C123.453 113.292 123.723 112.578 124.263 112.03C124.803 111.482 125.488 111.208 126.318 111.208C127.189 111.208 127.842 111.502 128.277 112.091V111.341ZM128.168 114.146C128.168 113.655 128.023 113.276 127.733 113.01C127.451 112.736 127.092 112.599 126.657 112.599C126.205 112.599 125.835 112.74 125.544 113.022C125.254 113.304 125.109 113.683 125.109 114.158C125.109 114.634 125.254 115.021 125.544 115.319C125.843 115.617 126.213 115.767 126.657 115.767C127.084 115.767 127.443 115.621 127.733 115.331C128.023 115.041 128.168 114.646 128.168 114.146ZM135.002 117.326V111.438H135.933V117.326H135.002ZM134.772 109.189C134.772 109.003 134.841 108.846 134.978 108.717C135.115 108.58 135.28 108.511 135.473 108.511C135.659 108.511 135.82 108.58 135.957 108.717C136.094 108.846 136.163 109.003 136.163 109.189C136.163 109.382 136.094 109.543 135.957 109.672C135.828 109.801 135.667 109.866 135.473 109.866C135.28 109.866 135.115 109.801 134.978 109.672C134.841 109.543 134.772 109.382 134.772 109.189ZM137.421 116.311L138.014 115.694C138.32 116.008 138.598 116.238 138.848 116.383C139.106 116.528 139.392 116.601 139.707 116.601C140.037 116.601 140.307 116.528 140.517 116.383C140.726 116.23 140.831 116.025 140.831 115.767C140.831 115.541 140.755 115.368 140.602 115.247C140.456 115.118 140.19 114.977 139.803 114.823L139.235 114.582C138.727 114.372 138.356 114.142 138.123 113.892C137.889 113.642 137.772 113.328 137.772 112.949C137.772 112.449 137.957 112.05 138.328 111.752C138.707 111.454 139.183 111.305 139.755 111.305C140.553 111.305 141.21 111.615 141.726 112.236L141.158 112.816C140.722 112.381 140.239 112.163 139.707 112.163C139.408 112.163 139.171 112.228 138.993 112.357C138.816 112.486 138.727 112.667 138.727 112.901C138.727 113.086 138.792 113.239 138.921 113.36C139.058 113.473 139.312 113.606 139.683 113.759L140.227 113.989C140.791 114.231 141.19 114.485 141.424 114.751C141.666 115.009 141.787 115.335 141.787 115.73C141.787 116.278 141.585 116.706 141.182 117.012C140.787 117.31 140.299 117.459 139.719 117.459C138.776 117.459 138.01 117.077 137.421 116.311ZM66.2254 129.376C66.2093 128.538 66.5076 127.812 67.1202 127.199C67.7329 126.587 68.4624 126.289 69.3088 126.305C69.8167 126.305 70.2802 126.418 70.6994 126.643C71.1186 126.869 71.4652 127.183 71.7393 127.586L71.0743 128.118C70.6067 127.482 70.0223 127.163 69.3209 127.163C68.7163 127.163 68.2085 127.381 67.7974 127.816C67.3862 128.243 67.1807 128.763 67.1807 129.376C67.1807 129.997 67.3862 130.525 67.7974 130.96C68.2085 131.387 68.7163 131.601 69.3209 131.601C70.0142 131.601 70.5946 131.287 71.0622 130.658L71.7272 131.178C71.1468 132.032 70.3407 132.459 69.3088 132.459C68.4544 132.459 67.7248 132.161 67.1202 131.565C66.5237 130.96 66.2254 130.23 66.2254 129.376ZM72.7673 129.376C72.7512 128.538 73.0494 127.812 73.6621 127.199C74.2828 126.587 75.0124 126.289 75.8507 126.305C76.6972 126.289 77.4267 126.587 78.0393 127.199C78.652 127.812 78.9503 128.538 78.9341 129.376C78.9503 130.206 78.648 130.932 78.0273 131.553C77.4065 132.165 76.677 132.463 75.8386 132.447C75.0003 132.463 74.2748 132.165 73.6621 131.553C73.0494 130.932 72.7512 130.206 72.7673 129.376ZM77.9789 129.388C77.9789 128.759 77.7733 128.231 77.3622 127.804C76.9591 127.377 76.4553 127.163 75.8507 127.163C75.2461 127.163 74.7383 127.377 74.3271 127.804C73.9241 128.223 73.7226 128.751 73.7226 129.388C73.7226 130.009 73.9241 130.533 74.3271 130.96C74.7383 131.379 75.2421 131.589 75.8386 131.589C76.4352 131.589 76.939 131.375 77.3501 130.948C77.7693 130.521 77.9789 130.001 77.9789 129.388ZM80.4982 129.981V126.438H81.4172V130.041C81.4172 130.509 81.5583 130.887 81.8404 131.178C82.1306 131.46 82.4974 131.601 82.9408 131.601C83.3761 131.601 83.7348 131.456 84.017 131.166C84.2991 130.875 84.4402 130.501 84.4402 130.041V126.438H85.3713V129.981C85.3713 130.714 85.1375 131.311 84.6699 131.77C84.2104 132.23 83.6341 132.459 82.9408 132.459C82.2395 132.459 81.655 132.23 81.1875 131.77C80.728 131.311 80.4982 130.714 80.4982 129.981ZM92.2101 128.626V132.326H91.279V128.735C91.279 128.268 91.146 127.889 90.88 127.599C90.622 127.308 90.2673 127.163 89.8159 127.163C89.3644 127.163 88.9936 127.312 88.7034 127.611C88.4132 127.901 88.2681 128.276 88.2681 128.735V132.326H87.337V126.438H88.2077V127.066C88.6671 126.559 89.2717 126.305 90.0214 126.305C90.6986 126.305 91.2306 126.518 91.6176 126.946C92.0126 127.365 92.2101 127.925 92.2101 128.626ZM97.4024 131.54V132.326C97.0074 132.415 96.6809 132.459 96.4229 132.459C95.7942 132.459 95.3064 132.298 94.9598 131.976C94.6132 131.653 94.4399 131.178 94.4399 130.549V127.272H93.4483V126.438H94.4399V124.829H95.3709V126.438H97.2089V127.272H95.3709V130.488C95.3709 130.892 95.4717 131.182 95.6732 131.359C95.8828 131.528 96.1972 131.613 96.6164 131.613C96.8421 131.613 97.1041 131.589 97.4024 131.54ZM103.205 128.699V132.326H102.334V131.565C101.883 132.161 101.222 132.459 100.351 132.459C99.7384 132.459 99.2427 132.31 98.8638 132.012C98.4849 131.706 98.2955 131.303 98.2955 130.803C98.2955 130.303 98.4889 129.904 98.8759 129.606C99.2628 129.307 99.7747 129.158 100.412 129.158H102.274V128.65C102.274 128.175 102.145 127.808 101.887 127.55C101.637 127.292 101.29 127.163 100.847 127.163C100.186 127.163 99.6135 127.478 99.1298 128.106L98.5131 127.599C99.0371 126.736 99.8352 126.305 100.907 126.305C101.617 126.305 102.177 126.514 102.588 126.933C102.999 127.345 103.205 127.933 103.205 128.699ZM102.274 130.065V129.92H100.52C99.6739 129.92 99.2507 130.198 99.2507 130.754C99.2507 131.045 99.3636 131.274 99.5893 131.444C99.8231 131.605 100.117 131.686 100.472 131.686C100.964 131.686 101.387 131.528 101.742 131.214C102.096 130.9 102.274 130.517 102.274 130.065ZM110.343 127.199C110.907 127.788 111.189 128.517 111.189 129.388C111.189 130.259 110.911 130.988 110.355 131.577C109.799 132.165 109.109 132.459 108.287 132.459C107.828 132.459 107.396 132.367 106.993 132.181C106.59 131.988 106.276 131.726 106.05 131.395V132.326H105.18V123.258H106.111V127.296C106.344 126.99 106.651 126.748 107.03 126.571C107.417 126.393 107.832 126.305 108.275 126.305C109.097 126.305 109.787 126.603 110.343 127.199ZM109.629 130.972C110.032 130.545 110.234 130.013 110.234 129.376C110.234 128.739 110.032 128.211 109.629 127.792C109.234 127.373 108.739 127.163 108.142 127.163C107.562 127.163 107.074 127.357 106.679 127.744C106.292 128.122 106.099 128.671 106.099 129.388C106.099 130.089 106.296 130.634 106.691 131.02C107.094 131.407 107.578 131.601 108.142 131.601C108.739 131.601 109.234 131.391 109.629 130.972ZM112.82 132.326V123.258H113.751V132.326H112.82ZM120.995 129.666H116.34C116.396 130.247 116.626 130.714 117.029 131.069C117.432 131.424 117.924 131.601 118.504 131.601C119.173 131.601 119.774 131.335 120.306 130.803L120.85 131.432C120.189 132.117 119.403 132.459 118.492 132.459C117.613 132.459 116.872 132.165 116.267 131.577C115.67 130.98 115.372 130.251 115.372 129.388C115.372 128.534 115.662 127.808 116.243 127.212C116.831 126.607 117.545 126.305 118.383 126.305C119.149 126.305 119.786 126.555 120.294 127.054C120.809 127.554 121.067 128.191 121.067 128.965C121.067 129.191 121.043 129.424 120.995 129.666ZM116.376 128.844H120.112C120.104 128.328 119.935 127.917 119.604 127.611C119.274 127.304 118.859 127.151 118.359 127.151C117.867 127.151 117.44 127.308 117.077 127.623C116.714 127.929 116.481 128.336 116.376 128.844ZM130.506 128.699V132.326H129.635V131.565C129.184 132.161 128.523 132.459 127.652 132.459C127.04 132.459 126.544 132.31 126.165 132.012C125.786 131.706 125.597 131.303 125.597 130.803C125.597 130.303 125.79 129.904 126.177 129.606C126.564 129.307 127.076 129.158 127.713 129.158H129.575V128.65C129.575 128.175 129.446 127.808 129.188 127.55C128.938 127.292 128.591 127.163 128.148 127.163C127.487 127.163 126.915 127.478 126.431 128.106L125.814 127.599C126.338 126.736 127.136 126.305 128.208 126.305C128.918 126.305 129.478 126.514 129.889 126.933C130.3 127.345 130.506 127.933 130.506 128.699ZM129.575 130.065V129.92H127.822C126.975 129.92 126.552 130.198 126.552 130.754C126.552 131.045 126.665 131.274 126.89 131.444C127.124 131.605 127.418 131.686 127.773 131.686C128.265 131.686 128.688 131.528 129.043 131.214C129.397 130.9 129.575 130.517 129.575 130.065ZM137.354 128.626V132.326H136.423V128.735C136.423 128.268 136.29 127.889 136.024 127.599C135.766 127.308 135.411 127.163 134.96 127.163C134.508 127.163 134.137 127.312 133.847 127.611C133.557 127.901 133.412 128.276 133.412 128.735V132.326H132.481V126.438H133.351V127.066C133.811 126.559 134.415 126.305 135.165 126.305C135.842 126.305 136.374 126.518 136.761 126.946C137.156 127.365 137.354 127.925 137.354 128.626ZM143.997 123.258H144.928V132.326H144.045V131.395C143.82 131.726 143.505 131.988 143.102 132.181C142.707 132.367 142.28 132.459 141.821 132.459C140.99 132.459 140.297 132.165 139.741 131.577C139.185 130.98 138.906 130.251 138.906 129.388C138.906 128.517 139.185 127.788 139.741 127.199C140.305 126.603 140.998 126.305 141.821 126.305C142.264 126.305 142.679 126.393 143.066 126.571C143.453 126.748 143.763 126.994 143.997 127.308V123.258ZM144.009 129.388C144.009 128.679 143.808 128.131 143.405 127.744C143.01 127.357 142.526 127.163 141.954 127.163C141.357 127.163 140.857 127.373 140.454 127.792C140.059 128.211 139.862 128.739 139.862 129.376C139.862 130.013 140.059 130.545 140.454 130.972C140.857 131.391 141.357 131.601 141.954 131.601C142.526 131.601 143.01 131.407 143.405 131.02C143.808 130.634 144.009 130.089 144.009 129.388ZM83.258 143.626V147.326H82.3269V143.747C82.3269 143.264 82.202 142.881 81.9521 142.599C81.7102 142.308 81.3716 142.163 80.9363 142.163C80.501 142.163 80.1383 142.308 79.8481 142.599C79.5659 142.889 79.4249 143.243 79.4249 143.663V147.326H78.4938V143.747C78.4938 143.272 78.3648 142.889 78.1068 142.599C77.8569 142.308 77.5184 142.163 77.0911 142.163C76.6478 142.163 76.285 142.312 76.0029 142.611C75.7288 142.901 75.5917 143.28 75.5917 143.747V147.326H74.6607V141.438H75.5313V142.054C75.9666 141.555 76.551 141.305 77.2846 141.305C78.1391 141.305 78.7437 141.643 79.0984 142.32C79.574 141.643 80.2471 141.305 81.1177 141.305C81.7868 141.305 82.3108 141.514 82.6897 141.933C83.0685 142.353 83.258 142.917 83.258 143.626ZM90.4287 144.666H85.7734C85.8298 145.247 86.0595 145.714 86.4626 146.069C86.8657 146.424 87.3574 146.601 87.9378 146.601C88.6069 146.601 89.2075 146.335 89.7395 145.803L90.2836 146.432C89.6226 147.117 88.8366 147.459 87.9257 147.459C87.047 147.459 86.3054 147.165 85.7008 146.577C85.1043 145.98 84.806 145.251 84.806 144.388C84.806 143.534 85.0962 142.808 85.6766 142.212C86.2651 141.607 86.9785 141.305 87.8169 141.305C88.5827 141.305 89.2195 141.555 89.7274 142.054C90.2433 142.554 90.5013 143.191 90.5013 143.965C90.5013 144.191 90.4771 144.424 90.4287 144.666ZM85.8096 143.844H89.546C89.538 143.328 89.3687 142.917 89.0382 142.611C88.7077 142.304 88.2925 142.151 87.7927 142.151C87.301 142.151 86.8737 142.308 86.511 142.623C86.1482 142.929 85.9144 143.336 85.8096 143.844ZM96.5507 143.699V147.326H95.6801V146.565C95.2287 147.161 94.5676 147.459 93.697 147.459C93.0844 147.459 92.5886 147.31 92.2097 147.012C91.8308 146.706 91.6414 146.303 91.6414 145.803C91.6414 145.303 91.8349 144.904 92.2218 144.606C92.6088 144.307 93.1206 144.158 93.7575 144.158H95.6196V143.65C95.6196 143.175 95.4906 142.808 95.2327 142.55C94.9828 142.292 94.6362 142.163 94.1928 142.163C93.5318 142.163 92.9594 142.478 92.4757 143.106L91.8591 142.599C92.383 141.736 93.1811 141.305 94.2532 141.305C94.9626 141.305 95.5229 141.514 95.934 141.933C96.3451 142.345 96.5507 142.933 96.5507 143.699ZM95.6196 145.065V144.92H93.8663C93.0199 144.92 92.5967 145.198 92.5967 145.754C92.5967 146.045 92.7095 146.274 92.9352 146.444C93.169 146.605 93.4632 146.686 93.8179 146.686C94.3097 146.686 94.7329 146.528 95.0876 146.214C95.4423 145.9 95.6196 145.517 95.6196 145.065ZM97.9693 146.311L98.5618 145.694C98.8681 146.008 99.1463 146.238 99.3962 146.383C99.6541 146.528 99.9403 146.601 100.255 146.601C100.585 146.601 100.855 146.528 101.065 146.383C101.274 146.23 101.379 146.025 101.379 145.767C101.379 145.541 101.303 145.368 101.149 145.247C101.004 145.118 100.738 144.977 100.351 144.823L99.7831 144.582C99.2752 144.372 98.9044 144.142 98.6706 143.892C98.4369 143.642 98.32 143.328 98.32 142.949C98.32 142.449 98.5054 142.05 98.8762 141.752C99.2551 141.454 99.7307 141.305 100.303 141.305C101.101 141.305 101.758 141.615 102.274 142.236L101.706 142.816C101.27 142.381 100.787 142.163 100.255 142.163C99.9564 142.163 99.7186 142.228 99.5413 142.357C99.3639 142.486 99.2752 142.667 99.2752 142.901C99.2752 143.086 99.3397 143.239 99.4687 143.36C99.6058 143.473 99.8597 143.606 100.23 143.759L100.775 143.989C101.339 144.231 101.738 144.485 101.972 144.751C102.214 145.009 102.334 145.335 102.334 145.73C102.334 146.278 102.133 146.706 101.73 147.012C101.335 147.31 100.847 147.459 100.267 147.459C99.3236 147.459 98.5578 147.077 97.9693 146.311ZM103.944 144.981V141.438H104.863V145.041C104.863 145.509 105.004 145.887 105.286 146.178C105.576 146.46 105.943 146.601 106.386 146.601C106.822 146.601 107.181 146.456 107.463 146.166C107.745 145.875 107.886 145.501 107.886 145.041V141.438H108.817V144.981C108.817 145.714 108.583 146.311 108.116 146.77C107.656 147.23 107.08 147.459 106.386 147.459C105.685 147.459 105.101 147.23 104.633 146.77C104.174 146.311 103.944 145.714 103.944 144.981ZM113.915 141.438V142.26H113.564C113.048 142.26 112.609 142.417 112.246 142.732C111.891 143.046 111.714 143.465 111.714 143.989V147.326H110.783V141.438H111.653V142.272C112.089 141.684 112.697 141.389 113.479 141.389C113.632 141.389 113.777 141.405 113.915 141.438ZM119.459 143.699V147.326H118.588V146.565C118.137 147.161 117.476 147.459 116.605 147.459C115.993 147.459 115.497 147.31 115.118 147.012C114.739 146.706 114.55 146.303 114.55 145.803C114.55 145.303 114.743 144.904 115.13 144.606C115.517 144.307 116.029 144.158 116.666 144.158H118.528V143.65C118.528 143.175 118.399 142.808 118.141 142.55C117.891 142.292 117.545 142.163 117.101 142.163C116.44 142.163 115.868 142.478 115.384 143.106L114.767 142.599C115.291 141.736 116.089 141.305 117.162 141.305C117.871 141.305 118.431 141.514 118.842 141.933C119.254 142.345 119.459 142.933 119.459 143.699ZM118.528 145.065V144.92H116.775C115.928 144.92 115.505 145.198 115.505 145.754C115.505 146.045 115.618 146.274 115.844 146.444C116.077 146.605 116.372 146.686 116.726 146.686C117.218 146.686 117.641 146.528 117.996 146.214C118.351 145.9 118.528 145.517 118.528 145.065ZM126.597 142.199C127.161 142.788 127.444 143.517 127.444 144.388C127.444 145.259 127.165 145.988 126.609 146.577C126.053 147.165 125.364 147.459 124.542 147.459C124.082 147.459 123.651 147.367 123.248 147.181C122.845 146.988 122.53 146.726 122.305 146.395V147.326H121.434V138.258H122.365V142.296C122.599 141.99 122.905 141.748 123.284 141.571C123.671 141.393 124.086 141.305 124.529 141.305C125.352 141.305 126.041 141.603 126.597 142.199ZM125.884 145.972C126.287 145.545 126.488 145.013 126.488 144.376C126.488 143.739 126.287 143.211 125.884 142.792C125.489 142.373 124.993 142.163 124.396 142.163C123.816 142.163 123.328 142.357 122.933 142.744C122.546 143.122 122.353 143.671 122.353 144.388C122.353 145.089 122.55 145.634 122.945 146.02C123.348 146.407 123.832 146.601 124.396 146.601C124.993 146.601 125.489 146.391 125.884 145.972ZM129.074 147.326V138.258H130.005V147.326H129.074ZM137.249 144.666H132.594C132.65 145.247 132.88 145.714 133.283 146.069C133.686 146.424 134.178 146.601 134.758 146.601C135.427 146.601 136.028 146.335 136.56 145.803L137.104 146.432C136.443 147.117 135.657 147.459 134.746 147.459C133.868 147.459 133.126 147.165 132.521 146.577C131.925 145.98 131.627 145.251 131.627 144.388C131.627 143.534 131.917 142.808 132.497 142.212C133.086 141.607 133.799 141.305 134.637 141.305C135.403 141.305 136.04 141.555 136.548 142.054C137.064 142.554 137.322 143.191 137.322 143.965C137.322 144.191 137.298 144.424 137.249 144.666ZM132.63 143.844H136.367C136.358 143.328 136.189 142.917 135.859 142.611C135.528 142.304 135.113 142.151 134.613 142.151C134.121 142.151 133.694 142.308 133.331 142.623C132.969 142.929 132.735 143.336 132.63 143.844Z" fill="white"/>
<path d="M429.94 186.22H426.162C425.835 186.22 425.539 186.022 425.414 185.719C425.289 185.416 425.357 185.068 425.591 184.837L429.369 181.058C429.6 180.827 429.948 180.757 430.251 180.884C430.554 181.008 430.752 181.305 430.752 181.632V185.41C430.75 185.857 430.387 186.22 429.94 186.22Z" fill="#4A5D70"/>
<path d="M416.444 193.777C416.34 193.777 416.233 193.758 416.134 193.716C415.831 193.591 415.634 193.295 415.634 192.968V189.189C415.634 188.742 415.997 188.38 416.444 188.38H420.222C420.549 188.38 420.845 188.577 420.97 188.88C421.095 189.183 421.027 189.531 420.793 189.763L417.015 193.541C416.861 193.695 416.656 193.777 416.444 193.777Z" fill="#4A5D70"/>
<path d="M415.095 200.255C416.586 200.255 417.795 199.047 417.795 197.556C417.795 196.065 416.586 194.856 415.095 194.856C413.604 194.856 412.396 196.065 412.396 197.556C412.396 199.047 413.604 200.255 415.095 200.255Z" fill="#4A5D70"/>
<path d="M416.985 201.334H413.205C411.568 201.334 410.236 202.667 410.236 204.304V204.843C410.236 205.29 410.599 205.653 411.046 205.653H419.143C419.59 205.653 419.953 205.29 419.953 204.843V204.304C419.953 202.667 418.622 201.334 416.985 201.334Z" fill="#4A5D70"/>
<path d="M431.289 200.255C432.78 200.255 433.989 199.047 433.989 197.556C433.989 196.065 432.78 194.856 431.289 194.856C429.799 194.856 428.59 196.065 428.59 197.556C428.59 199.047 429.799 200.255 431.289 200.255Z" fill="#4A5D70"/>
<path d="M433.179 201.334H429.401C427.764 201.334 426.433 202.665 426.433 204.302V204.843C426.433 205.29 426.795 205.653 427.242 205.653H435.34C435.787 205.653 436.149 205.29 436.149 204.843V204.304C436.148 202.667 434.817 201.334 433.179 201.334Z" fill="#4A5D70"/>
<path d="M416.887 186.888C416.805 186.888 416.72 186.879 416.636 186.859C416.056 186.722 415.698 186.14 415.836 185.559C416.651 182.134 419.676 179.742 423.192 179.742C425.193 179.742 427.077 180.516 428.497 181.921C428.92 182.341 428.924 183.024 428.505 183.449C428.084 183.871 427.402 183.876 426.978 183.457C425.966 182.454 424.622 181.902 423.193 181.902C420.681 181.902 418.521 183.612 417.938 186.061C417.818 186.555 417.376 186.888 416.887 186.888Z" fill="#4A5D70"/>
<path d="M423.192 194.856C421.19 194.856 419.307 194.082 417.886 192.677C417.464 192.257 417.459 191.574 417.878 191.149C418.299 190.725 418.981 190.722 419.405 191.141C420.419 192.145 421.763 192.698 423.192 192.698C425.703 192.698 427.864 190.987 428.447 188.539C428.584 187.959 429.167 187.604 429.747 187.739C430.327 187.877 430.685 188.458 430.547 189.039C429.733 192.464 426.707 194.856 423.192 194.856Z" fill="#4A5D70"/>
<path d="M361.598 228.745V220.764H364.597C365.435 220.764 366.124 221.002 366.664 221.477C367.205 221.953 367.475 222.574 367.475 223.34C367.475 224.097 367.205 224.718 366.664 225.202C366.124 225.685 365.435 225.927 364.597 225.927H363.23V228.745H361.598ZM363.23 224.5H364.597C364.976 224.5 365.27 224.396 365.479 224.186C365.697 223.968 365.806 223.686 365.806 223.34C365.806 223.001 365.693 222.727 365.467 222.517C365.25 222.308 364.959 222.203 364.597 222.203H363.23V224.5ZM372.345 222.759V224.198H371.909C371.409 224.198 371.014 224.331 370.724 224.597C370.442 224.863 370.301 225.25 370.301 225.758V228.745H368.669V222.759H370.168V223.473C370.587 222.949 371.135 222.687 371.813 222.687C372.014 222.687 372.191 222.711 372.345 222.759ZM372.9 225.746C372.884 224.891 373.194 224.154 373.831 223.533C374.468 222.912 375.226 222.61 376.104 222.626C376.983 222.61 377.741 222.912 378.378 223.533C379.022 224.154 379.337 224.891 379.321 225.746C379.337 226.6 379.022 227.342 378.378 227.971C377.733 228.591 376.971 228.894 376.092 228.878C375.214 228.894 374.456 228.591 373.819 227.971C373.19 227.342 372.884 226.6 372.9 225.746ZM377.205 226.919C377.503 226.612 377.652 226.225 377.652 225.758C377.652 225.29 377.503 224.899 377.205 224.585C376.914 224.271 376.548 224.113 376.104 224.113C375.653 224.113 375.282 224.271 374.992 224.585C374.702 224.891 374.557 225.282 374.557 225.758C374.557 226.225 374.702 226.612 374.992 226.919C375.282 227.225 375.653 227.378 376.104 227.378C376.548 227.378 376.914 227.225 377.205 226.919ZM380.257 225.746C380.257 224.875 380.567 224.138 381.188 223.533C381.808 222.928 382.566 222.626 383.461 222.626C384.638 222.626 385.504 223.118 386.061 224.101L384.924 224.984C384.521 224.404 384.041 224.113 383.485 224.113C383.026 224.113 382.647 224.271 382.349 224.585C382.058 224.891 381.913 225.278 381.913 225.746C381.913 226.221 382.058 226.616 382.349 226.931C382.647 227.237 383.026 227.39 383.485 227.39C384.041 227.39 384.521 227.104 384.924 226.532L386.061 227.402C385.795 227.87 385.436 228.237 384.985 228.503C384.541 228.761 384.033 228.89 383.461 228.89C382.582 228.906 381.825 228.604 381.188 227.983C380.551 227.354 380.241 226.608 380.257 225.746ZM392.651 226.302H388.455C388.552 226.681 388.745 226.975 389.035 227.185C389.333 227.386 389.7 227.487 390.136 227.487C390.724 227.487 391.28 227.286 391.804 226.882L392.481 227.995C391.764 228.591 390.966 228.89 390.087 228.89C389.168 228.906 388.386 228.608 387.741 227.995C387.105 227.374 386.794 226.629 386.81 225.758C386.794 224.895 387.096 224.154 387.717 223.533C388.338 222.912 389.08 222.61 389.942 222.626C390.764 222.626 391.437 222.892 391.961 223.424C392.493 223.956 392.76 224.617 392.76 225.407C392.76 225.697 392.723 225.996 392.651 226.302ZM388.455 225.153H391.175C391.167 224.791 391.038 224.5 390.789 224.283C390.547 224.057 390.244 223.944 389.882 223.944C389.535 223.944 389.233 224.053 388.975 224.271C388.717 224.488 388.543 224.783 388.455 225.153ZM393.489 227.729L394.311 226.737C394.827 227.277 395.387 227.548 395.992 227.548C396.218 227.548 396.399 227.507 396.536 227.427C396.681 227.338 396.754 227.213 396.754 227.052C396.754 226.931 396.71 226.838 396.621 226.774C396.54 226.701 396.379 226.612 396.137 226.508L395.496 226.242C394.924 226.008 394.509 225.754 394.251 225.48C393.993 225.198 393.864 224.843 393.864 224.416C393.864 223.86 394.065 223.424 394.469 223.11C394.872 222.787 395.404 222.626 396.065 222.626C396.951 222.626 397.669 222.924 398.217 223.521L397.395 224.525C396.992 224.146 396.544 223.956 396.053 223.956C395.625 223.956 395.412 224.097 395.412 224.379C395.412 224.492 395.456 224.585 395.545 224.658C395.633 224.73 395.799 224.815 396.04 224.912L396.621 225.153C397.217 225.395 397.645 225.653 397.903 225.927C398.169 226.201 398.302 226.552 398.302 226.979C398.302 227.576 398.08 228.043 397.637 228.382C397.201 228.72 396.645 228.89 395.968 228.89C394.896 228.89 394.069 228.503 393.489 227.729ZM398.992 227.729L399.814 226.737C400.33 227.277 400.89 227.548 401.495 227.548C401.721 227.548 401.902 227.507 402.039 227.427C402.184 227.338 402.257 227.213 402.257 227.052C402.257 226.931 402.212 226.838 402.124 226.774C402.043 226.701 401.882 226.612 401.64 226.508L400.999 226.242C400.427 226.008 400.012 225.754 399.754 225.48C399.496 225.198 399.367 224.843 399.367 224.416C399.367 223.86 399.568 223.424 399.971 223.11C400.374 222.787 400.906 222.626 401.567 222.626C402.454 222.626 403.172 222.924 403.72 223.521L402.897 224.525C402.494 224.146 402.047 223.956 401.555 223.956C401.128 223.956 400.914 224.097 400.914 224.379C400.914 224.492 400.959 224.585 401.047 224.658C401.136 224.73 401.301 224.815 401.543 224.912L402.124 225.153C402.72 225.395 403.147 225.653 403.405 225.927C403.671 226.201 403.804 226.552 403.804 226.979C403.804 227.576 403.583 228.043 403.139 228.382C402.704 228.72 402.148 228.89 401.471 228.89C400.399 228.89 399.572 228.503 398.992 227.729ZM410.54 226.302H406.345C406.441 226.681 406.635 226.975 406.925 227.185C407.223 227.386 407.59 227.487 408.025 227.487C408.614 227.487 409.17 227.286 409.694 226.882L410.371 227.995C409.654 228.591 408.856 228.89 407.977 228.89C407.058 228.906 406.276 228.608 405.631 227.995C404.994 227.374 404.684 226.629 404.7 225.758C404.684 224.895 404.986 224.154 405.607 223.533C406.228 222.912 406.969 222.61 407.832 222.626C408.654 222.626 409.327 222.892 409.851 223.424C410.383 223.956 410.649 224.617 410.649 225.407C410.649 225.697 410.613 225.996 410.54 226.302ZM406.345 225.153H409.065C409.057 224.791 408.928 224.5 408.678 224.283C408.436 224.057 408.134 223.944 407.771 223.944C407.425 223.944 407.123 224.053 406.865 224.271C406.607 224.488 406.433 224.783 406.345 225.153ZM411.379 227.729L412.201 226.737C412.717 227.277 413.277 227.548 413.882 227.548C414.108 227.548 414.289 227.507 414.426 227.427C414.571 227.338 414.644 227.213 414.644 227.052C414.644 226.931 414.599 226.838 414.511 226.774C414.43 226.701 414.269 226.612 414.027 226.508L413.386 226.242C412.814 226.008 412.399 225.754 412.141 225.48C411.883 225.198 411.754 224.843 411.754 224.416C411.754 223.86 411.955 223.424 412.358 223.11C412.761 222.787 413.293 222.626 413.954 222.626C414.841 222.626 415.559 222.924 416.107 223.521L415.285 224.525C414.881 224.146 414.434 223.956 413.942 223.956C413.515 223.956 413.301 224.097 413.301 224.379C413.301 224.492 413.346 224.585 413.434 224.658C413.523 224.73 413.688 224.815 413.93 224.912L414.511 225.153C415.107 225.395 415.534 225.653 415.792 225.927C416.058 226.201 416.191 226.552 416.191 226.979C416.191 227.576 415.97 228.043 415.526 228.382C415.091 228.72 414.535 228.89 413.858 228.89C412.786 228.89 411.959 228.503 411.379 227.729ZM417.389 230.897L417.462 227.257H419.324L418.683 230.897H417.389ZM429.706 226.302H425.51C425.606 226.681 425.8 226.975 426.09 227.185C426.388 227.386 426.755 227.487 427.19 227.487C427.779 227.487 428.335 227.286 428.859 226.882L429.536 227.995C428.819 228.591 428.021 228.89 427.142 228.89C426.223 228.906 425.441 228.608 424.796 227.995C424.159 227.374 423.849 226.629 423.865 225.758C423.849 224.895 424.151 224.154 424.772 223.533C425.393 222.912 426.134 222.61 426.997 222.626C427.819 222.626 428.492 222.892 429.016 223.424C429.548 223.956 429.814 224.617 429.814 225.407C429.814 225.697 429.778 225.996 429.706 226.302ZM425.51 225.153H428.23C428.222 224.791 428.093 224.5 427.843 224.283C427.602 224.057 427.299 223.944 426.937 223.944C426.59 223.944 426.288 224.053 426.03 224.271C425.772 224.488 425.598 224.783 425.51 225.153ZM434.927 222.759H436.656L433.694 228.89H433.149L430.187 222.759H431.904L433.415 226.145L434.927 222.759ZM442.872 226.302H438.676C438.773 226.681 438.966 226.975 439.257 227.185C439.555 227.386 439.922 227.487 440.357 227.487C440.945 227.487 441.502 227.286 442.026 226.882L442.703 227.995C441.985 228.591 441.187 228.89 440.309 228.89C439.39 228.906 438.608 228.608 437.963 227.995C437.326 227.374 437.016 226.629 437.032 225.758C437.016 224.895 437.318 224.154 437.939 223.533C438.559 222.912 439.301 222.61 440.163 222.626C440.986 222.626 441.659 222.892 442.183 223.424C442.715 223.956 442.981 224.617 442.981 225.407C442.981 225.697 442.945 225.996 442.872 226.302ZM438.676 225.153H441.397C441.389 224.791 441.26 224.5 441.01 224.283C440.768 224.057 440.466 223.944 440.103 223.944C439.756 223.944 439.454 224.053 439.196 224.271C438.938 224.488 438.765 224.783 438.676 225.153ZM449.756 225.032V228.745H448.136V225.25C448.136 224.903 448.031 224.625 447.822 224.416C447.62 224.198 447.354 224.089 447.024 224.089C446.693 224.089 446.419 224.198 446.201 224.416C445.992 224.625 445.887 224.903 445.887 225.25V228.745H444.255V222.759H445.754V223.303C446.205 222.852 446.79 222.626 447.507 222.626C448.201 222.626 448.749 222.844 449.152 223.279C449.555 223.714 449.756 224.299 449.756 225.032ZM455.173 227.378V228.745C454.786 228.841 454.411 228.89 454.048 228.89C453.283 228.89 452.69 228.7 452.271 228.321C451.86 227.943 451.654 227.382 451.654 226.641V224.138H450.711V222.759H451.654V221.248H453.287V222.759H454.98V224.138H453.287V226.496C453.287 226.834 453.371 227.076 453.541 227.221C453.718 227.358 454.004 227.427 454.399 227.427C454.536 227.427 454.794 227.41 455.173 227.378ZM455.814 227.729L456.636 226.737C457.152 227.277 457.712 227.548 458.317 227.548C458.543 227.548 458.724 227.507 458.861 227.427C459.006 227.338 459.079 227.213 459.079 227.052C459.079 226.931 459.035 226.838 458.946 226.774C458.865 226.701 458.704 226.612 458.462 226.508L457.821 226.242C457.249 226.008 456.834 225.754 456.576 225.48C456.318 225.198 456.189 224.843 456.189 224.416C456.189 223.86 456.39 223.424 456.794 223.11C457.197 222.787 457.729 222.626 458.39 222.626C459.276 222.626 459.994 222.924 460.542 223.521L459.72 224.525C459.317 224.146 458.869 223.956 458.378 223.956C457.95 223.956 457.737 224.097 457.737 224.379C457.737 224.492 457.781 224.585 457.87 224.658C457.958 224.73 458.124 224.815 458.365 224.912L458.946 225.153C459.542 225.395 459.97 225.653 460.228 225.927C460.494 226.201 460.627 226.552 460.627 226.979C460.627 227.576 460.405 228.043 459.962 228.382C459.526 228.72 458.97 228.89 458.293 228.89C457.221 228.89 456.394 228.503 455.814 227.729ZM470.268 225.19V228.745H468.769V228.164C468.301 228.648 467.693 228.89 466.943 228.89C466.314 228.89 465.81 228.724 465.431 228.394C465.061 228.063 464.875 227.632 464.875 227.1C464.875 226.56 465.077 226.137 465.48 225.83C465.891 225.516 466.443 225.359 467.136 225.359H468.636V225.093C468.636 224.754 468.539 224.496 468.345 224.319C468.16 224.134 467.886 224.041 467.523 224.041C467.225 224.041 466.955 224.105 466.713 224.234C466.471 224.363 466.213 224.573 465.939 224.863L465.093 223.86C465.786 223.037 466.657 222.626 467.705 222.626C468.495 222.626 469.119 222.852 469.579 223.303C470.038 223.747 470.268 224.375 470.268 225.19ZM468.636 226.508V226.435H467.354C466.798 226.435 466.52 226.637 466.52 227.04C466.52 227.241 466.596 227.402 466.749 227.523C466.911 227.636 467.12 227.693 467.378 227.693C467.741 227.693 468.039 227.584 468.273 227.366C468.515 227.14 468.636 226.854 468.636 226.508ZM477.341 225.032V228.745H475.721V225.25C475.721 224.903 475.616 224.625 475.406 224.416C475.205 224.198 474.939 224.089 474.608 224.089C474.278 224.089 474.004 224.198 473.786 224.416C473.576 224.625 473.471 224.903 473.471 225.25V228.745H471.839V222.759H473.338V223.303C473.79 222.852 474.374 222.626 475.092 222.626C475.785 222.626 476.333 222.844 476.736 223.279C477.139 223.714 477.341 224.299 477.341 225.032ZM483.265 219.676H484.898V228.745H483.398V228.007C482.987 228.595 482.346 228.89 481.476 228.89C480.637 228.89 479.944 228.595 479.396 228.007C478.848 227.41 478.574 226.661 478.574 225.758C478.574 224.855 478.848 224.109 479.396 223.521C479.944 222.924 480.637 222.626 481.476 222.626C482.234 222.626 482.83 222.864 483.265 223.34V219.676ZM482.854 226.967C483.144 226.677 483.29 226.274 483.29 225.758C483.29 225.242 483.144 224.839 482.854 224.549C482.564 224.25 482.205 224.101 481.778 224.101C481.335 224.101 480.964 224.255 480.666 224.561C480.375 224.867 480.23 225.262 480.23 225.746C480.23 226.238 480.375 226.637 480.666 226.943C480.956 227.249 481.327 227.402 481.778 227.402C482.213 227.402 482.572 227.257 482.854 226.967ZM391.363 238.521C391.919 239.109 392.198 239.851 392.198 240.746C392.198 241.641 391.919 242.39 391.363 242.995C390.815 243.591 390.126 243.89 389.296 243.89C388.546 243.89 387.949 243.648 387.506 243.164V245.921H385.874V237.759H387.373V238.509C387.784 237.92 388.425 237.626 389.296 237.626C390.126 237.626 390.815 237.924 391.363 238.521ZM390.541 240.758C390.541 240.266 390.396 239.867 390.106 239.561C389.816 239.255 389.445 239.101 388.993 239.101C388.558 239.101 388.195 239.246 387.905 239.537C387.623 239.827 387.482 240.23 387.482 240.746C387.482 241.262 387.623 241.669 387.905 241.967C388.195 242.257 388.558 242.402 388.993 242.402C389.437 242.402 389.803 242.249 390.094 241.943C390.392 241.637 390.541 241.242 390.541 240.758ZM398.98 241.302H394.784C394.881 241.681 395.074 241.975 395.365 242.185C395.663 242.386 396.03 242.487 396.465 242.487C397.053 242.487 397.61 242.286 398.134 241.882L398.811 242.995C398.093 243.591 397.295 243.89 396.417 243.89C395.498 243.906 394.716 243.608 394.071 242.995C393.434 242.374 393.124 241.629 393.14 240.758C393.124 239.895 393.426 239.154 394.047 238.533C394.667 237.912 395.409 237.61 396.271 237.626C397.094 237.626 397.767 237.892 398.291 238.424C398.823 238.956 399.089 239.617 399.089 240.407C399.089 240.697 399.053 240.996 398.98 241.302ZM394.784 240.153H397.505C397.497 239.791 397.368 239.5 397.118 239.283C396.876 239.057 396.574 238.944 396.211 238.944C395.864 238.944 395.562 239.053 395.304 239.271C395.046 239.488 394.873 239.783 394.784 240.153ZM400.024 240.746C400.008 239.891 400.318 239.154 400.955 238.533C401.592 237.912 402.35 237.61 403.228 237.626C404.107 237.61 404.865 237.912 405.502 238.533C406.146 239.154 406.461 239.891 406.445 240.746C406.461 241.6 406.146 242.342 405.502 242.971C404.857 243.591 404.095 243.894 403.216 243.878C402.338 243.894 401.58 243.591 400.943 242.971C400.314 242.342 400.008 241.6 400.024 240.746ZM404.329 241.919C404.627 241.612 404.776 241.225 404.776 240.758C404.776 240.29 404.627 239.899 404.329 239.585C404.038 239.271 403.672 239.113 403.228 239.113C402.777 239.113 402.406 239.271 402.116 239.585C401.826 239.891 401.681 240.282 401.681 240.758C401.681 241.225 401.826 241.612 402.116 241.919C402.406 242.225 402.777 242.378 403.228 242.378C403.672 242.378 404.038 242.225 404.329 241.919ZM413.209 238.521C413.765 239.109 414.043 239.851 414.043 240.746C414.043 241.641 413.765 242.39 413.209 242.995C412.661 243.591 411.972 243.89 411.141 243.89C410.392 243.89 409.795 243.648 409.352 243.164V245.921H407.719V237.759H409.219V238.509C409.63 237.92 410.271 237.626 411.141 237.626C411.972 237.626 412.661 237.924 413.209 238.521ZM412.387 240.758C412.387 240.266 412.242 239.867 411.951 239.561C411.661 239.255 411.29 239.101 410.839 239.101C410.404 239.101 410.041 239.246 409.751 239.537C409.468 239.827 409.327 240.23 409.327 240.746C409.327 241.262 409.468 241.669 409.751 241.967C410.041 242.257 410.404 242.402 410.839 242.402C411.282 242.402 411.649 242.249 411.939 241.943C412.238 241.637 412.387 241.242 412.387 240.758ZM415.324 243.745V234.676H416.956V243.745H415.324ZM424.073 241.302H419.877C419.974 241.681 420.167 241.975 420.457 242.185C420.756 242.386 421.123 242.487 421.558 242.487C422.146 242.487 422.703 242.286 423.227 241.882L423.904 242.995C423.186 243.591 422.388 243.89 421.509 243.89C420.591 243.906 419.809 243.608 419.164 242.995C418.527 242.374 418.216 241.629 418.233 240.758C418.216 239.895 418.519 239.154 419.139 238.533C419.76 237.912 420.502 237.61 421.364 237.626C422.187 237.626 422.86 237.892 423.384 238.424C423.916 238.956 424.182 239.617 424.182 240.407C424.182 240.697 424.146 240.996 424.073 241.302ZM419.877 240.153H422.598C422.59 239.791 422.461 239.5 422.211 239.283C421.969 239.057 421.667 238.944 421.304 238.944C420.957 238.944 420.655 239.053 420.397 239.271C420.139 239.488 419.966 239.783 419.877 240.153ZM433.476 240.117V243.745H432.605V242.983C432.154 243.579 431.493 243.878 430.622 243.878C430.009 243.878 429.514 243.729 429.135 243.43C428.756 243.124 428.566 242.721 428.566 242.221C428.566 241.721 428.76 241.322 429.147 241.024C429.534 240.726 430.046 240.577 430.682 240.577H432.545V240.069C432.545 239.593 432.416 239.226 432.158 238.968C431.908 238.71 431.561 238.581 431.118 238.581C430.457 238.581 429.884 238.896 429.401 239.525L428.784 239.017C429.308 238.154 430.106 237.723 431.178 237.723C431.888 237.723 432.448 237.932 432.859 238.352C433.27 238.763 433.476 239.351 433.476 240.117ZM432.545 241.483V241.338H430.791C429.945 241.338 429.522 241.616 429.522 242.173C429.522 242.463 429.635 242.693 429.86 242.862C430.094 243.023 430.388 243.104 430.743 243.104C431.235 243.104 431.658 242.947 432.013 242.632C432.367 242.318 432.545 241.935 432.545 241.483ZM438.582 237.856V238.678H438.232C437.716 238.678 437.276 238.835 436.914 239.15C436.559 239.464 436.382 239.883 436.382 240.407V243.745H435.451V237.856H436.321V238.69C436.756 238.102 437.365 237.808 438.147 237.808C438.3 237.808 438.445 237.824 438.582 237.856ZM444.913 241.084H440.258C440.314 241.665 440.544 242.132 440.947 242.487C441.35 242.842 441.842 243.019 442.422 243.019C443.091 243.019 443.692 242.753 444.224 242.221L444.768 242.85C444.107 243.535 443.321 243.878 442.41 243.878C441.531 243.878 440.79 243.583 440.185 242.995C439.588 242.398 439.29 241.669 439.29 240.806C439.29 239.952 439.58 239.226 440.161 238.63C440.749 238.025 441.463 237.723 442.301 237.723C443.067 237.723 443.704 237.973 444.212 238.473C444.727 238.972 444.985 239.609 444.985 240.383C444.985 240.609 444.961 240.843 444.913 241.084ZM440.294 240.262H444.03C444.022 239.746 443.853 239.335 443.522 239.029C443.192 238.722 442.777 238.569 442.277 238.569C441.785 238.569 441.358 238.727 440.995 239.041C440.632 239.347 440.399 239.754 440.294 240.262ZM454.424 240.117V243.745H453.553V242.983C453.102 243.579 452.441 243.878 451.57 243.878C450.958 243.878 450.462 243.729 450.083 243.43C449.704 243.124 449.515 242.721 449.515 242.221C449.515 241.721 449.708 241.322 450.095 241.024C450.482 240.726 450.994 240.577 451.631 240.577H453.493V240.069C453.493 239.593 453.364 239.226 453.106 238.968C452.856 238.71 452.509 238.581 452.066 238.581C451.405 238.581 450.833 238.896 450.349 239.525L449.732 239.017C450.256 238.154 451.054 237.723 452.126 237.723C452.836 237.723 453.396 237.932 453.807 238.352C454.218 238.763 454.424 239.351 454.424 240.117ZM453.493 241.483V241.338H451.74C450.893 241.338 450.47 241.616 450.47 242.173C450.47 242.463 450.583 242.693 450.808 242.862C451.042 243.023 451.336 243.104 451.691 243.104C452.183 243.104 452.606 242.947 452.961 242.632C453.315 242.318 453.493 241.935 453.493 241.483ZM456.399 243.745V234.676H457.33V243.745H456.399ZM459.374 243.745V234.676H460.306V243.745H459.374ZM373.527 258.745V252.856H374.458V258.745H373.527ZM373.297 250.607C373.297 250.421 373.366 250.264 373.503 250.135C373.64 249.998 373.805 249.93 373.999 249.93C374.184 249.93 374.345 249.998 374.482 250.135C374.619 250.264 374.688 250.421 374.688 250.607C374.688 250.8 374.619 250.962 374.482 251.09C374.353 251.219 374.192 251.284 373.999 251.284C373.805 251.284 373.64 251.219 373.503 251.09C373.366 250.962 373.297 250.8 373.297 250.607ZM381.376 255.045V258.745H380.445V255.153C380.445 254.686 380.312 254.307 380.046 254.017C379.788 253.727 379.433 253.581 378.982 253.581C378.53 253.581 378.159 253.731 377.869 254.029C377.579 254.319 377.434 254.694 377.434 255.153V258.745H376.503V252.856H377.373V253.485C377.833 252.977 378.437 252.723 379.187 252.723C379.864 252.723 380.396 252.937 380.783 253.364C381.178 253.783 381.376 254.343 381.376 255.045ZM388.551 256.084H383.896C383.952 256.665 384.182 257.132 384.585 257.487C384.988 257.842 385.48 258.019 386.06 258.019C386.729 258.019 387.33 257.753 387.862 257.221L388.406 257.85C387.745 258.535 386.959 258.878 386.048 258.878C385.169 258.878 384.428 258.583 383.823 257.995C383.227 257.398 382.928 256.669 382.928 255.806C382.928 254.952 383.219 254.226 383.799 253.63C384.388 253.025 385.101 252.723 385.939 252.723C386.705 252.723 387.342 252.973 387.85 253.473C388.366 253.972 388.624 254.609 388.624 255.383C388.624 255.609 388.6 255.843 388.551 256.084ZM383.932 255.262H387.668C387.66 254.746 387.491 254.335 387.161 254.029C386.83 253.722 386.415 253.569 385.915 253.569C385.423 253.569 384.996 253.727 384.633 254.041C384.271 254.347 384.037 254.754 383.932 255.262ZM394.869 258.745H393.793L392.112 256.326L390.444 258.745H389.356L391.544 255.673L389.537 252.856H390.613L392.112 255.02L393.624 252.856H394.7L392.657 255.673L394.869 258.745ZM399.368 257.959V258.745C398.973 258.833 398.647 258.878 398.389 258.878C397.76 258.878 397.273 258.716 396.926 258.394C396.579 258.072 396.406 257.596 396.406 256.967V253.69H395.414V252.856H396.406V251.248H397.337V252.856H399.175V253.69H397.337V256.907C397.337 257.31 397.438 257.6 397.639 257.777C397.849 257.947 398.163 258.031 398.582 258.031C398.808 258.031 399.07 258.007 399.368 257.959ZM403.889 252.856V253.678H403.538C403.023 253.678 402.583 253.835 402.22 254.15C401.866 254.464 401.688 254.883 401.688 255.407V258.745H400.757V252.856H401.628V253.69C402.063 253.102 402.672 252.808 403.454 252.808C403.607 252.808 403.752 252.824 403.889 252.856ZM405.138 258.745V252.856H406.069V258.745H405.138ZM404.909 250.607C404.909 250.421 404.977 250.264 405.114 250.135C405.251 249.998 405.416 249.93 405.61 249.93C405.795 249.93 405.956 249.998 406.094 250.135C406.231 250.264 406.299 250.421 406.299 250.607C406.299 250.8 406.231 250.962 406.094 251.09C405.965 251.219 405.803 251.284 405.61 251.284C405.416 251.284 405.251 251.219 405.114 251.09C404.977 250.962 404.909 250.8 404.909 250.607ZM407.691 255.794C407.675 254.956 407.973 254.23 408.586 253.618C409.198 253.005 409.928 252.707 410.774 252.723C411.282 252.723 411.746 252.836 412.165 253.061C412.584 253.287 412.931 253.602 413.205 254.005L412.54 254.537C412.072 253.9 411.488 253.581 410.786 253.581C410.182 253.581 409.674 253.799 409.263 254.234C408.852 254.662 408.646 255.182 408.646 255.794C408.646 256.415 408.852 256.943 409.263 257.378C409.674 257.805 410.182 258.019 410.786 258.019C411.48 258.019 412.06 257.705 412.528 257.076L413.193 257.596C412.612 258.45 411.806 258.878 410.774 258.878C409.92 258.878 409.19 258.579 408.586 257.983C407.989 257.378 407.691 256.649 407.691 255.794ZM419.187 255.117V258.745H418.317V257.983C417.865 258.579 417.204 258.878 416.334 258.878C415.721 258.878 415.225 258.729 414.847 258.43C414.468 258.124 414.278 257.721 414.278 257.221C414.278 256.721 414.472 256.322 414.859 256.024C415.246 255.726 415.757 255.577 416.394 255.577H418.256V255.069C418.256 254.593 418.127 254.226 417.869 253.968C417.62 253.71 417.273 253.581 416.83 253.581C416.169 253.581 415.596 253.896 415.113 254.525L414.496 254.017C415.02 253.154 415.818 252.723 416.89 252.723C417.599 252.723 418.16 252.932 418.571 253.352C418.982 253.763 419.187 254.351 419.187 255.117ZM418.256 256.483V256.338H416.503C415.657 256.338 415.233 256.616 415.233 257.173C415.233 257.463 415.346 257.693 415.572 257.862C415.806 258.023 416.1 258.104 416.455 258.104C416.946 258.104 417.37 257.947 417.724 257.632C418.079 257.318 418.256 256.935 418.256 256.483ZM426.326 253.618C426.89 254.206 427.172 254.936 427.172 255.806C427.172 256.677 426.894 257.406 426.338 257.995C425.781 258.583 425.092 258.878 424.27 258.878C423.81 258.878 423.379 258.785 422.976 258.6C422.573 258.406 422.259 258.144 422.033 257.814V258.745H421.162V249.676H422.093V253.714C422.327 253.408 422.633 253.166 423.012 252.989C423.399 252.812 423.814 252.723 424.258 252.723C425.08 252.723 425.769 253.021 426.326 253.618ZM425.612 257.39C426.015 256.963 426.217 256.431 426.217 255.794C426.217 255.157 426.015 254.629 425.612 254.21C425.217 253.791 424.721 253.581 424.125 253.581C423.544 253.581 423.057 253.775 422.662 254.162C422.275 254.541 422.081 255.089 422.081 255.806C422.081 256.508 422.279 257.052 422.674 257.439C423.077 257.826 423.561 258.019 424.125 258.019C424.721 258.019 425.217 257.81 425.612 257.39ZM428.802 258.745V249.676H429.733V258.745H428.802ZM435.962 252.856H436.953L434.051 259.567C433.616 260.558 432.951 261.054 432.056 261.054C431.742 261.054 431.44 261.014 431.149 260.933V260.147C431.488 260.188 431.726 260.208 431.863 260.208C432.185 260.208 432.451 260.135 432.661 259.99C432.87 259.853 433.048 259.611 433.193 259.265L433.507 258.563L431.065 252.856H432.068L434.015 257.548L435.962 252.856ZM441.685 258.745V249.676H442.616V258.745H441.685ZM444.661 258.745V252.856H445.592V258.745H444.661ZM444.431 250.607C444.431 250.421 444.5 250.264 444.637 250.135C444.774 249.998 444.939 249.93 445.133 249.93C445.318 249.93 445.479 249.998 445.616 250.135C445.753 250.264 445.822 250.421 445.822 250.607C445.822 250.8 445.753 250.962 445.616 251.09C445.487 251.219 445.326 251.284 445.133 251.284C444.939 251.284 444.774 251.219 444.637 251.09C444.5 250.962 444.431 250.8 444.431 250.607ZM452.51 255.045V258.745H451.579V255.153C451.579 254.686 451.446 254.307 451.18 254.017C450.922 253.727 450.567 253.581 450.116 253.581C449.664 253.581 449.293 253.731 449.003 254.029C448.713 254.319 448.568 254.694 448.568 255.153V258.745H447.637V252.856H448.507V253.485C448.967 252.977 449.572 252.723 450.321 252.723C450.998 252.723 451.53 252.937 451.917 253.364C452.312 253.783 452.51 254.343 452.51 255.045ZM454.486 258.745V249.676H455.417V258.745H454.486ZM456.638 255.444L459.419 258.745H458.222L455.514 255.431L457.968 252.856H459.19L456.638 255.444ZM465.566 256.084H460.911C460.967 256.665 461.197 257.132 461.6 257.487C462.003 257.842 462.495 258.019 463.075 258.019C463.744 258.019 464.345 257.753 464.877 257.221L465.421 257.85C464.76 258.535 463.974 258.878 463.063 258.878C462.184 258.878 461.443 258.583 460.838 257.995C460.241 257.398 459.943 256.669 459.943 255.806C459.943 254.952 460.233 254.226 460.814 253.63C461.402 253.025 462.116 252.723 462.954 252.723C463.72 252.723 464.357 252.973 464.865 253.473C465.38 253.972 465.638 254.609 465.638 255.383C465.638 255.609 465.614 255.843 465.566 256.084ZM460.947 255.262H464.683C464.675 254.746 464.506 254.335 464.175 254.029C463.845 253.722 463.43 253.569 462.93 253.569C462.438 253.569 462.011 253.727 461.648 254.041C461.285 254.347 461.052 254.754 460.947 255.262ZM471.942 249.676H472.873V258.745H471.99V257.814C471.764 258.144 471.45 258.406 471.047 258.6C470.652 258.785 470.225 258.878 469.765 258.878C468.935 258.878 468.242 258.583 467.685 257.995C467.129 257.398 466.851 256.669 466.851 255.806C466.851 254.936 467.129 254.206 467.685 253.618C468.25 253.021 468.943 252.723 469.765 252.723C470.209 252.723 470.624 252.812 471.011 252.989C471.398 253.166 471.708 253.412 471.942 253.727V249.676ZM471.954 255.806C471.954 255.097 471.752 254.549 471.349 254.162C470.954 253.775 470.471 253.581 469.898 253.581C469.302 253.581 468.802 253.791 468.399 254.21C468.004 254.629 467.806 255.157 467.806 255.794C467.806 256.431 468.004 256.963 468.399 257.39C468.802 257.81 469.302 258.019 469.898 258.019C470.471 258.019 470.954 257.826 471.349 257.439C471.752 257.052 471.954 256.508 471.954 255.806Z" fill="#4A5D70"/>
<path d="M221.684 227.244H218.533L214.988 222.414H212.936V227.244H210.138V213.563H215.279C216.716 213.563 217.897 213.97 218.823 214.786C219.749 215.601 220.212 216.665 220.212 217.978C220.212 218.835 219.998 219.609 219.57 220.3C219.155 220.977 218.568 221.502 217.808 221.875L221.684 227.244ZM212.936 216.03V219.947H215.279C215.928 219.947 216.433 219.768 216.792 219.408C217.165 219.049 217.352 218.572 217.352 217.978C217.352 217.398 217.158 216.928 216.771 216.569C216.398 216.209 215.901 216.03 215.279 216.03H212.936ZM222.868 221.585V213.563H225.666V221.792C225.666 222.773 225.943 223.54 226.495 224.093C227.048 224.632 227.774 224.902 228.672 224.902C229.584 224.902 230.31 224.632 230.848 224.093C231.401 223.54 231.678 222.773 231.678 221.792V213.563H234.476V221.585C234.476 223.368 233.93 224.798 232.838 225.876C231.747 226.954 230.358 227.493 228.672 227.493C226.972 227.493 225.576 226.954 224.485 225.876C223.407 224.798 222.868 223.368 222.868 221.585ZM237.507 227.244V213.563H240.305V224.715H246.296V227.244H237.507ZM248.377 227.244V213.563H257.581V216.092H251.175V218.869H255.881V221.253H251.175V224.715H257.829V227.244H248.377ZM259.306 224.466L261.234 223.015C262.201 224.342 263.321 225.005 264.592 225.005C265.2 225.005 265.677 224.874 266.022 224.611C266.368 224.335 266.541 223.962 266.541 223.492C266.541 223.105 266.423 222.808 266.188 222.601C265.953 222.38 265.49 222.11 264.799 221.792L263.328 221.129C261.116 220.148 260.011 218.835 260.011 217.19C260.011 216.03 260.439 215.097 261.296 214.392C262.153 213.673 263.238 213.314 264.551 213.314C265.573 213.314 266.471 213.549 267.245 214.019C268.019 214.475 268.627 215.104 269.069 215.905L267.162 217.377C266.458 216.327 265.587 215.802 264.551 215.802C264.053 215.802 263.645 215.919 263.328 216.154C263.01 216.389 262.851 216.714 262.851 217.128C262.851 217.474 262.961 217.757 263.182 217.978C263.417 218.185 263.839 218.427 264.447 218.704L266.002 219.388C267.176 219.913 268.033 220.486 268.572 221.108C269.111 221.716 269.38 222.476 269.38 223.388C269.38 224.618 268.931 225.613 268.033 226.373C267.135 227.12 265.988 227.493 264.592 227.493C263.445 227.493 262.409 227.223 261.483 226.684C260.571 226.145 259.845 225.406 259.306 224.466Z" fill="#4893AA"/>
<defs>
<filter id="filter0_ii_4_5309" x="25.1045" y="27.0032" width="487.671" height="425.542" filterUnits="userSpaceOnUse" color-interpolation-filters="sRGB">
<feFlood flood-opacity="0" result="BackgroundImageFix"/>
<feBlend mode="normal" in="SourceGraphic" in2="BackgroundImageFix" result="shape"/>
<feColorMatrix in="SourceAlpha" type="matrix" values="0 0 0 0 0 0 0 0 0 0 0 0 0 0 0 0 0 0 127 0" result="hardAlpha"/>
<feOffset dy="3.00953"/>
<feGaussianBlur stdDeviation="1.50476"/>
<feComposite in2="hardAlpha" operator="arithmetic" k2="-1" k3="1"/>
<feColorMatrix type="matrix" values="0 0 0 0 1 0 0 0 0 1 0 0 0 0 1 0 0 0 1 0"/>
<feBlend mode="normal" in2="shape" result="effect1_innerShadow_4_5309"/>
<feColorMatrix in="SourceAlpha" type="matrix" values="0 0 0 0 0 0 0 0 0 0 0 0 0 0 0 0 0 0 127 0" result="hardAlpha"/>
<feOffset dy="-3.00953"/>
<feGaussianBlur stdDeviation="1.50476"/>
<feComposite in2="hardAlpha" operator="arithmetic" k2="-1" k3="1"/>
<feColorMatrix type="matrix" values="0 0 0 0 0.8 0 0 0 0 0.8 0 0 0 0 0.8 0 0 0 1 0"/>
<feBlend mode="normal" in2="effect1_innerShadow_4_5309" result="effect2_innerShadow_4_5309"/>
</filter>
<filter id="filter1_ii_4_5309" x="25.1045" y="27.0032" width="487.671" height="425.542" filterUnits="userSpaceOnUse" color-interpolation-filters="sRGB">
<feFlood flood-opacity="0" result="BackgroundImageFix"/>
<feBlend mode="normal" in="SourceGraphic" in2="BackgroundImageFix" result="shape"/>
<feColorMatrix in="SourceAlpha" type="matrix" values="0 0 0 0 0 0 0 0 0 0 0 0 0 0 0 0 0 0 127 0" result="hardAlpha"/>
<feOffset dy="3.00953"/>
<feGaussianBlur stdDeviation="1.50476"/>
<feComposite in2="hardAlpha" operator="arithmetic" k2="-1" k3="1"/>
<feColorMatrix type="matrix" values="0 0 0 0 1 0 0 0 0 1 0 0 0 0 1 0 0 0 1 0"/>
<feBlend mode="normal" in2="shape" result="effect1_innerShadow_4_5309"/>
<feColorMatrix in="SourceAlpha" type="matrix" values="0 0 0 0 0 0 0 0 0 0 0 0 0 0 0 0 0 0 127 0" result="hardAlpha"/>
<feOffset dy="-3.00953"/>
<feGaussianBlur stdDeviation="1.50476"/>
<feComposite in2="hardAlpha" operator="arithmetic" k2="-1" k3="1"/>
<feColorMatrix type="matrix" values="0 0 0 0 0.8 0 0 0 0 0.8 0 0 0 0 0.8 0 0 0 1 0"/>
<feBlend mode="normal" in2="effect1_innerShadow_4_5309" result="effect2_innerShadow_4_5309"/>
</filter>
<filter id="filter2_ii_4_5309" x="188.296" y="166.757" width="102.416" height="108.419" filterUnits="userSpaceOnUse" color-interpolation-filters="sRGB">
<feFlood flood-opacity="0" result="BackgroundImageFix"/>
<feBlend mode="normal" in="SourceGraphic" in2="BackgroundImageFix" result="shape"/>
<feColorMatrix in="SourceAlpha" type="matrix" values="0 0 0 0 0 0 0 0 0 0 0 0 0 0 0 0 0 0 127 0" result="hardAlpha"/>
<feOffset dy="3.00953"/>
<feGaussianBlur stdDeviation="1.50476"/>
<feComposite in2="hardAlpha" operator="arithmetic" k2="-1" k3="1"/>
<feColorMatrix type="matrix" values="0 0 0 0 1 0 0 0 0 1 0 0 0 0 1 0 0 0 1 0"/>
<feBlend mode="normal" in2="shape" result="effect1_innerShadow_4_5309"/>
<feColorMatrix in="SourceAlpha" type="matrix" values="0 0 0 0 0 0 0 0 0 0 0 0 0 0 0 0 0 0 127 0" result="hardAlpha"/>
<feOffset dy="-3.00953"/>
<feGaussianBlur stdDeviation="1.50476"/>
<feComposite in2="hardAlpha" operator="arithmetic" k2="-1" k3="1"/>
<feColorMatrix type="matrix" values="0 0 0 0 0.8 0 0 0 0 0.8 0 0 0 0 0.8 0 0 0 1 0"/>
<feBlend mode="normal" in2="effect1_innerShadow_4_5309" result="effect2_innerShadow_4_5309"/>
</filter>
<linearGradient id="paint0_linear_4_5309" x1="270.749" y1="75.2336" x2="270.749" y2="410.351" gradientUnits="userSpaceOnUse">
<stop stop-color="#ADD5E0"/>
<stop offset="1" stop-color="#4893AA"/>
</linearGradient>
<linearGradient id="paint1_linear_4_5309" x1="525.264" y1="306.201" x2="549.12" y2="330.061" gradientUnits="userSpaceOnUse">
<stop stop-color="white"/>
<stop offset="1" stop-color="#E6E7E8"/>
</linearGradient>
<linearGradient id="paint2_linear_4_5309" x1="345.394" y1="143.961" x2="501.395" y2="299.986" gradientUnits="userSpaceOnUse">
<stop stop-color="#ADD5E0"/>
<stop offset="1" stop-color="#4893AA"/>
</linearGradient>
<linearGradient id="paint3_linear_4_5309" x1="268.94" y1="30.0127" x2="268.94" y2="449.536" gradientUnits="userSpaceOnUse">
<stop stop-color="#D6D6D6"/>
<stop offset="1" stop-color="white"/>
</linearGradient>
<linearGradient id="paint4_linear_4_5309" x1="268.94" y1="30.0127" x2="268.94" y2="449.536" gradientUnits="userSpaceOnUse">
<stop stop-color="#D6D6D6"/>
<stop offset="1" stop-color="white"/>
</linearGradient>
<linearGradient id="paint5_linear_4_5309" x1="90.647" y1="300.258" x2="207.188" y2="416.817" gradientUnits="userSpaceOnUse">
<stop stop-color="#ADD5E0"/>
<stop offset="1" stop-color="#4893AA"/>
</linearGradient>
<linearGradient id="paint6_linear_4_5309" x1="105.236" y1="41.5491" x2="105.236" y2="178.629" gradientUnits="userSpaceOnUse">
<stop stop-color="#ADD5E0"/>
<stop offset="1" stop-color="#4893AA"/>
</linearGradient>
<linearGradient id="paint7_linear_4_5309" x1="423.399" y1="140.875" x2="423.399" y2="302.775" gradientUnits="userSpaceOnUse">
<stop stop-color="#ADD5E0"/>
<stop offset="1" stop-color="#4893AA"/>
</linearGradient>
<linearGradient id="paint8_linear_4_5309" x1="239.742" y1="163.61" x2="239.742" y2="280.313" gradientUnits="userSpaceOnUse">
<stop stop-color="#ADD5E0"/>
<stop offset="1" stop-color="#4893AA"/>
</linearGradient>
<linearGradient id="paint9_linear_4_5309" x1="188.933" y1="212.959" x2="290.073" y2="228.98" gradientUnits="userSpaceOnUse">
<stop stop-color="#D6D6D6"/>
<stop offset="1" stop-color="white"/>
</linearGradient>
<linearGradient id="paint10_linear_4_5309" x1="6.54366" y1="238.402" x2="58.517" y2="250.67" gradientUnits="userSpaceOnUse">
<stop stop-color="#ADD5E0"/>
<stop offset="1" stop-color="#4893AA"/>
</linearGradient>
<linearGradient id="paint11_linear_4_5309" x1="365.621" y1="413.805" x2="365.621" y2="453.259" gradientUnits="userSpaceOnUse">
<stop stop-color="#ADD5E0"/>
<stop offset="1" stop-color="#4893AA"/>
</linearGradient>
<linearGradient id="paint12_linear_4_5309" x1="249.651" y1="0.955078" x2="249.651" y2="58.9399" gradientUnits="userSpaceOnUse">
<stop stop-color="#ADD5E0"/>
<stop offset="1" stop-color="#4893AA"/>
</linearGradient>
<linearGradient id="paint13_linear_4_5309" x1="402.895" y1="51.9136" x2="402.895" y2="79.5521" gradientUnits="userSpaceOnUse">
<stop stop-color="#ADD5E0"/>
<stop offset="1" stop-color="#4893AA"/>
</linearGradient>
<linearGradient id="paint14_linear_4_5309" x1="300.547" y1="16.5017" x2="300.547" y2="29.4573" gradientUnits="userSpaceOnUse">
<stop stop-color="#ADD5E0"/>
<stop offset="1" stop-color="#4893AA"/>
</linearGradient>
<linearGradient id="paint15_linear_4_5309" x1="313.503" y1="433.671" x2="313.503" y2="446.626" gradientUnits="userSpaceOnUse">
<stop stop-color="#ADD5E0"/>
<stop offset="1" stop-color="#4893AA"/>
</linearGradient>
</defs>
</svg>
