<svg width="631" height="552" viewBox="0 0 631 552" fill="none" xmlns="http://www.w3.org/2000/svg">
<path opacity="0.3" fill-rule="evenodd" clip-rule="evenodd" d="M280.714 85.3513C349.196 76.0257 415.918 116.307 461.052 164.918C503.255 210.372 511.89 272.045 509.684 331.963C507.571 389.381 494.069 448.365 449.161 487.993C405.098 526.875 341.177 527.609 280.714 534.014C207.714 541.747 123.826 573.354 68.7652 528.288C12.9857 482.635 17.5143 399.23 33.8487 331.963C47.1723 277.094 105.322 248.977 146.604 207.738C190.96 163.427 216.171 94.1405 280.714 85.3513Z" fill="#ADD5E0"/>
<path fill-rule="evenodd" clip-rule="evenodd" d="M280.663 85.3513C344.083 76.0257 405.873 116.307 447.67 164.918C486.754 210.372 494.75 272.045 492.708 331.963C490.75 389.381 478.246 448.365 436.658 487.993C395.853 526.875 336.656 527.609 280.663 534.014C213.059 541.747 135.373 573.354 84.3822 528.288C32.726 482.635 36.9198 399.23 52.0468 331.963C64.3855 277.094 118.237 248.977 156.467 207.738C197.544 163.427 220.891 94.1405 280.663 85.3513Z" fill="url(#paint0_linear_4_5374)"/>
<g clip-path="url(#clip0_4_5374)">
<path d="M75.3313 226.557V225.771H83.9894V196.438H84.7765V225.771H111.672V196.438H112.459V225.771H139.394V196.438H140.181V225.771H167.116V196.438H167.903V225.771H194.837V196.438H195.625V225.771H222.567V196.438H223.354V225.771H250.289V196.438H251.076V225.771H277.995V196.438H278.782V225.771H281.144V226.557H278.782V253.688H281.144V254.474H278.782V281.613H281.144V282.4H278.782V309.539H281.144V310.325H278.782V337.464H281.144V338.25H278.782V347.349H277.995V338.25H251.076V347.349H250.289V338.25H223.354V347.349H222.567V338.25H195.625V347.349H194.837V338.25H167.903V347.349H167.116V338.25H140.181V347.349H139.394V338.25H112.459V347.349H111.672V338.25H84.7371V347.349H83.95V338.25H75.2919V337.464H83.95V310.325H75.2919V309.539H83.95V282.4H75.2919V281.613H83.95V254.474H75.2919V253.688H83.95V226.557H75.3313ZM112.459 226.557V253.688H139.394V226.557H112.459ZM167.903 281.605H194.837V254.474H167.903V281.605ZM167.116 254.467H140.181V281.605H167.116V254.467ZM195.625 281.605H222.567V254.474H195.625V281.605ZM223.354 281.605H250.289V254.474H223.354V281.605ZM223.354 282.392V309.531H250.289V282.4L223.354 282.392ZM222.567 282.392H195.625V309.531H222.567V282.392ZM194.837 282.392H167.903V309.531H194.837V282.392ZM167.116 282.392H140.181V309.531H167.116V282.392ZM139.394 282.392H112.459V309.531H139.394V282.392ZM139.394 281.605V254.474H112.459V281.613L139.394 281.605ZM140.181 226.557V253.688H167.116V226.557H140.181ZM167.903 226.557V253.688H194.837V226.557H167.903ZM195.625 226.557V253.688H222.567V226.557H195.625ZM223.354 226.557V253.688H250.289V226.557H223.354ZM277.995 226.557H251.076V253.688H277.995V226.557ZM277.995 254.474H251.076V281.613H277.995V254.474ZM277.995 282.4H251.076V309.539H277.995V282.4ZM277.995 337.448V310.325H251.076V337.464L277.995 337.448ZM250.273 337.448V310.325H223.339V337.464L250.273 337.448ZM222.551 337.448V310.325H195.609V337.464L222.551 337.448ZM194.822 337.448V310.325H167.887V337.464L194.822 337.448ZM167.1 337.448V310.325H140.165V337.464L167.1 337.448ZM139.378 337.448V310.325H112.443V337.464L139.378 337.448ZM84.7214 337.448H111.672V310.325H84.7371L84.7214 337.448ZM84.7214 309.523H111.672V282.4H84.7371L84.7214 309.523ZM84.7214 281.598H111.672V254.474H84.7371L84.7214 281.598ZM84.7214 253.672H111.672V226.557H84.7371L84.7214 253.672Z" fill="#4893AA"/>
<path d="M197.64 200.37H203.401V202.163H197.64V200.37Z" fill="#4893AA"/>
<path d="M194.869 205.151H203.401V206.944H194.869V205.151Z" fill="#4893AA"/>
<path d="M189.532 205.151H193.735V206.944H189.532V205.151Z" fill="#4893AA"/>
<path d="M186.502 205.151H189.194V206.944H186.502V205.151Z" fill="#4893AA"/>
<path d="M199.324 209.932H203.401V211.725H199.324V209.932Z" fill="#4893AA"/>
<path d="M187.762 209.932H198.23V211.725H187.762V209.932Z" fill="#4893AA"/>
<path d="M186.502 214.714H191.296V216.507H186.502V214.714Z" fill="#4893AA"/>
<path d="M191.752 214.714H203.401V216.507H191.752V214.714Z" fill="#4893AA"/>
<path d="M196.042 219.503H203.401V221.296H196.042V219.503Z" fill="#4893AA"/>
<path d="M191.752 219.503H194.908V221.296H191.752V219.503Z" fill="#4893AA"/>
<path d="M189.47 219.503H191.296V221.296H189.47V219.503Z" fill="#4893AA"/>
<path d="M155.294 225.275H173.814V228.311H155.294V225.275Z" fill="#4893AA"/>
<path d="M155.246 230.898H173.846V231.488H155.246V230.898Z" fill="#4893AA"/>
<path d="M155.246 234.397H173.846V234.987H155.246V234.397Z" fill="#4893AA"/>
<path d="M120.157 225.244H138.678V228.279H120.157V225.244Z" fill="#4893AA"/>
<path d="M120.118 230.867H138.717V231.456H120.118V230.867Z" fill="#4893AA"/>
<path d="M120.118 234.366H138.717V234.956H120.118V234.366Z" fill="#4893AA"/>
<path d="M84.549 225.212H103.55V228.248H84.549V225.212Z" fill="#4893AA"/>
<path d="M84.5006 230.835H103.588V231.425H84.5006V230.835Z" fill="#4893AA"/>
<path d="M84.4937 234.343H103.581V234.932H84.4937V234.343Z" fill="#4893AA"/>
<path d="M206.03 239.006L206.235 238.88L233.366 222.287L245.519 229.718L245.724 229.593L278.389 209.618L324.851 238.039L325.269 237.37L278.389 208.698L245.519 228.798L233.366 221.367L233.161 221.493L206.03 238.086L149.413 203.46L149.209 203.586L127.595 216.806L87.4761 192.27L87.0668 192.946L127.595 217.726L127.8 217.6L149.413 204.38L206.03 239.006Z" fill="#4893AA"/>
<path d="M276.145 209.272C276.142 209.808 276.298 210.332 276.594 210.779C276.89 211.226 277.311 211.575 277.806 211.783C278.3 211.99 278.845 212.046 279.371 211.943C279.898 211.84 280.382 211.584 280.762 211.206C281.142 210.829 281.402 210.347 281.507 209.821C281.613 209.296 281.56 208.751 281.356 208.256C281.151 207.761 280.804 207.338 280.359 207.04C279.913 206.742 279.389 206.583 278.853 206.583C278.138 206.583 277.451 206.865 276.944 207.369C276.437 207.873 276.149 208.557 276.145 209.272Z" fill="#4893AA"/>
<path d="M229.942 222.554C229.941 223.09 230.098 223.613 230.395 224.059C230.691 224.505 231.114 224.853 231.608 225.059C232.103 225.265 232.647 225.32 233.173 225.216C233.699 225.113 234.182 224.856 234.562 224.478C234.941 224.1 235.2 223.618 235.305 223.093C235.41 222.568 235.357 222.024 235.152 221.529C234.947 221.034 234.6 220.611 234.155 220.313C233.709 220.016 233.186 219.857 232.65 219.857C231.933 219.857 231.246 220.141 230.738 220.646C230.23 221.152 229.944 221.838 229.942 222.554Z" fill="#4893AA"/>
<path d="M149.933 207.023C148.438 207.023 147.225 205.812 147.225 204.318C147.225 202.823 148.438 201.612 149.933 201.612C151.428 201.612 152.641 202.823 152.641 204.318C152.641 205.812 151.428 207.023 149.933 207.023Z" fill="#4893AA"/>
<path d="M345.623 386.182L514.914 421.326V222.633L345.623 280.827V386.182Z" fill="#4893AA"/>
<path d="M454.055 408.689L345.623 386.182V280.827L368.205 273.065L454.055 408.689Z" fill="#3A7B8F"/>
<path d="M369.63 355.111L503.563 364.634V255.693L369.63 288.431V355.111Z" fill="#ECECEC"/>
<path d="M461.17 348.969L477.558 349.449V288.133L461.17 290.798V348.969Z" fill="url(#paint1_linear_4_5374)"/>
<path d="M464.114 336.339C464.114 334.366 466.35 332.714 469.152 332.643C471.954 332.573 474.354 334.177 474.354 336.214C474.354 337.841 472.851 339.226 470.797 339.721V349.362L467.522 349.268V339.705C465.531 339.226 464.114 337.912 464.114 336.339Z" fill="#E1A551"/>
<path d="M443.264 348.442L457.715 348.867V291.357L443.264 293.708V348.442Z" fill="url(#paint2_linear_4_5374)"/>
<path d="M445.861 311.371C445.861 309.515 447.837 307.785 450.309 307.51C452.78 307.234 454.897 308.556 454.897 310.467C454.897 311.992 453.575 313.408 451.749 314.029V348.78L448.852 348.694V314.32C447.113 313.99 445.861 312.849 445.861 311.371Z" fill="#E1A551"/>
<path d="M427.514 347.978L440.375 348.356V294.18L427.514 296.272V347.978Z" fill="url(#paint3_linear_4_5374)"/>
<path d="M429.836 322.876C429.836 321.122 431.591 319.565 433.771 319.4C435.952 319.235 437.849 320.564 437.849 322.365C437.78 323.128 437.475 323.85 436.975 324.431C436.476 325.012 435.807 325.423 435.062 325.605V348.293L432.488 348.214V325.739C431.784 325.639 431.136 325.3 430.653 324.778C430.17 324.257 429.881 323.585 429.836 322.876Z" fill="#E1A551"/>
<path d="M413.267 347.561L424.774 347.899V296.72L413.267 298.592V347.561Z" fill="url(#paint4_linear_4_5374)"/>
<path d="M415.346 317.599C415.346 315.94 416.92 314.454 418.896 314.241C420.871 314.029 422.54 315.264 422.54 316.97C422.495 317.685 422.232 318.369 421.788 318.931C421.343 319.493 420.738 319.906 420.053 320.116V347.876L417.747 347.805V320.281C417.095 320.187 416.497 319.867 416.058 319.376C415.619 318.886 415.367 318.257 415.346 317.599Z" fill="#E1A551"/>
<path d="M400.453 347.184L410.812 347.491V298.993L400.453 300.676V347.184Z" fill="url(#paint5_linear_4_5374)"/>
<path d="M402.358 331.928C402.41 331.115 402.769 330.353 403.362 329.795C403.956 329.237 404.739 328.926 405.554 328.923C405.954 328.88 406.359 328.919 406.744 329.037C407.129 329.155 407.486 329.35 407.793 329.611C408.101 329.871 408.351 330.191 408.531 330.552C408.71 330.912 408.814 331.305 408.836 331.707C408.808 332.354 408.576 332.976 408.173 333.483C407.77 333.99 407.217 334.357 406.593 334.531V347.443L404.523 347.38V334.578C403.921 334.435 403.382 334.098 402.991 333.619C402.6 333.14 402.378 332.545 402.358 331.928Z" fill="#E1A551"/>
<path d="M388.859 346.846L398.233 347.121V301.038L388.859 302.563V346.846Z" fill="url(#paint6_linear_4_5374)"/>
<path d="M390.551 321.217C390.587 320.453 390.9 319.728 391.431 319.178C391.963 318.628 392.677 318.291 393.44 318.228C393.804 318.175 394.175 318.199 394.528 318.3C394.882 318.401 395.21 318.576 395.491 318.813C395.772 319.05 395.999 319.345 396.157 319.676C396.315 320.008 396.4 320.37 396.407 320.737C396.385 321.35 396.18 321.941 395.818 322.436C395.456 322.931 394.954 323.306 394.376 323.513V347.105L392.503 347.05V323.647C391.95 323.524 391.455 323.216 391.1 322.774C390.746 322.332 390.552 321.783 390.551 321.217Z" fill="#E1A551"/>
<path d="M378.335 346.539L386.852 346.791V302.894L378.335 304.278V346.539Z" fill="url(#paint7_linear_4_5374)"/>
<path d="M379.878 309.657C379.906 308.932 380.184 308.24 380.665 307.697C381.145 307.154 381.799 306.793 382.515 306.676C382.845 306.61 383.186 306.619 383.512 306.702C383.838 306.785 384.142 306.941 384.4 307.156C384.658 307.372 384.865 307.643 385.004 307.949C385.144 308.255 385.213 308.589 385.207 308.925C385.185 309.508 385.001 310.074 384.675 310.559C384.35 311.043 383.896 311.428 383.365 311.67V346.759L381.665 346.704V311.882C381.152 311.782 380.691 311.504 380.364 311.096C380.037 310.689 379.864 310.179 379.878 309.657Z" fill="#E1A551"/>
<path d="M461.17 287.488L477.558 284.649V280.764L461.17 283.807V287.488Z" fill="url(#paint8_linear_4_5374)"/>
<path d="M483.422 295.187L494.339 293.677V291.271L483.422 292.851V295.187Z" fill="url(#paint9_linear_4_5374)"/>
<path d="M483.422 306.385L494.339 305.253V302.846L483.422 304.057V306.385Z" fill="url(#paint10_linear_4_5374)"/>
<path d="M483.422 317.591L494.339 316.829V314.422L483.422 315.256V317.591Z" fill="url(#paint11_linear_4_5374)"/>
<path d="M483.422 328.79L494.339 328.412V325.998L483.422 326.454V328.79Z" fill="url(#paint12_linear_4_5374)"/>
<path d="M483.422 339.988H494.339V337.574L483.422 337.66V339.988Z" fill="url(#paint13_linear_4_5374)"/>
<path d="M483.422 351.195L494.339 351.564V349.158L483.422 348.859V351.195Z" fill="url(#paint14_linear_4_5374)"/>
<path d="M443.264 290.602L457.715 288.093V284.452L443.264 287.142V290.602Z" fill="url(#paint15_linear_4_5374)"/>
<path d="M427.514 293.339L440.375 291.105V287.677L427.514 290.067V293.339Z" fill="url(#paint16_linear_4_5374)"/>
<path d="M413.267 295.808L424.774 293.81V290.57L413.267 292.709V295.808Z" fill="url(#paint17_linear_4_5374)"/>
<path d="M400.453 298.033L410.812 296.24V293.166L400.453 295.092V298.033Z" fill="url(#paint18_linear_4_5374)"/>
<path d="M388.859 300.047L398.233 298.419V295.501L388.859 297.247V300.047Z" fill="url(#paint19_linear_4_5374)"/>
<path d="M378.335 301.879L386.852 300.401V297.617L378.335 299.205V301.879Z" fill="url(#paint20_linear_4_5374)"/>
<path d="M472.497 372.813L506.665 376.391L506.673 372.451L472.505 369.258L472.497 372.813Z" fill="white"/>
<path d="M472.467 375.886L506.785 379.847L506.717 380.433L472.4 376.472L472.467 375.886Z" fill="#E8E9EB"/>
<path d="M472.019 379.493L506.274 383.987L506.198 384.571L471.942 380.077L472.019 379.493Z" fill="#E8E9EB"/>
<path d="M423.208 367.654L447.089 370.155V366.883L423.208 364.658V367.654Z" fill="#E1A551"/>
<path d="M423.212 370.209L447.193 372.973L447.126 373.559L423.144 370.795L423.212 370.209Z" fill="#E8E9EB"/>
<path d="M423.19 373.646L447.172 376.728L447.097 377.313L423.114 374.231L423.19 373.646Z" fill="#E8E9EB"/>
<path d="M386.86 363.84L404.916 365.735V362.943L386.86 361.26V363.84Z" fill="white"/>
<path d="M386.835 365.991L404.968 368.084L404.9 368.67L386.768 366.577L386.835 365.991Z" fill="#E8E9EB"/>
<path d="M386.852 368.979L404.987 371.31L404.912 371.895L386.777 369.564L386.852 368.979Z" fill="#E8E9EB"/>
<path d="M469.002 387.503L505.319 393.047V394.628L469.002 388.918V387.503Z" fill="#E1A551"/>
<path d="M462.54 390.216L505.319 397.27V398.851L462.54 391.608V390.216Z" fill="#E1A551"/>
<path d="M462.54 393.92L487.617 398.355V399.857L462.54 395.304V393.92Z" fill="#E1A551"/>
<path d="M491.671 399.071L505.319 401.493V403.074L491.671 400.596V399.071Z" fill="#E1A551"/>
<path d="M462.54 397.624L505.319 405.708V407.297L462.54 399.008V397.624Z" fill="#E1A551"/>
<path d="M462.54 401.32L505.319 409.931V411.52L462.54 402.712V401.32Z" fill="#E1A551"/>
<path d="M491.978 245.903C491.978 248.38 495.04 249.567 498.889 248.529C502.738 247.491 506.091 244.503 506.091 241.923C506.091 239.344 502.824 238.219 498.889 239.383C494.953 240.547 491.978 243.449 491.978 245.903Z" fill="#E8E9EB"/>
<path d="M436.298 261.639L487.798 247.098V243.504L436.298 258.603V261.639Z" fill="#E1A551"/>
<path d="M58.8179 239.706H263.536V365.869H58.8179V239.706Z" fill="#536BA5"/>
<path d="M59.015 239.902H85.1548L132.743 366.065H59.015V239.902Z" fill="#485C8D"/>
<path d="M132.569 251.667H244.811V332.738H132.569V251.667Z" fill="white"/>
<path d="M221.34 259.036H230.785V329.057H221.34V259.036Z" fill="#E8E9EB"/>
<path d="M209.25 259.036H218.695V329.057H209.25V259.036Z" fill="#E8E9EB"/>
<path d="M197.16 259.036H206.605V329.057H197.16V259.036Z" fill="#E8E9EB"/>
<path d="M185.07 259.036H194.516V329.057H185.07V259.036Z" fill="#E8E9EB"/>
<path d="M172.98 259.036H182.425V329.057H172.98V259.036Z" fill="#E8E9EB"/>
<path d="M160.898 259.036H170.343V329.057H160.898V259.036Z" fill="#E8E9EB"/>
<path d="M148.808 259.036H158.253V329.057H148.808V259.036Z" fill="#E8E9EB"/>
<path d="M222.465 329.057H229.659V286.796C229.657 286.33 229.563 285.869 229.383 285.44C229.203 285.01 228.939 284.62 228.608 284.292C228.277 283.964 227.885 283.705 227.453 283.529C227.022 283.352 226.56 283.263 226.094 283.265H226.046C225.581 283.263 225.119 283.352 224.688 283.529C224.257 283.705 223.865 283.965 223.534 284.293C223.204 284.621 222.941 285.011 222.762 285.44C222.583 285.87 222.49 286.33 222.489 286.796L222.465 329.057Z" fill="#E1A551"/>
<path d="M210.375 329.057H217.569V278.515C217.568 278.049 217.475 277.589 217.296 277.159C217.117 276.73 216.854 276.34 216.524 276.012C216.193 275.684 215.801 275.424 215.37 275.248C214.939 275.072 214.477 274.982 214.012 274.984H213.933C213.467 274.982 213.005 275.072 212.574 275.248C212.143 275.424 211.751 275.684 211.421 276.012C211.09 276.34 210.828 276.73 210.649 277.159C210.469 277.589 210.376 278.049 210.375 278.515V329.057Z" fill="#E1A551"/>
<path d="M198.285 329.057H205.479V299.457C205.478 298.991 205.386 298.53 205.206 298.1C205.027 297.67 204.765 297.28 204.434 296.951C204.104 296.623 203.712 296.362 203.281 296.185C202.85 296.008 202.388 295.917 201.922 295.918H201.851C200.909 295.916 200.004 296.287 199.336 296.951C198.667 297.614 198.29 298.515 198.285 299.457V329.057Z" fill="#E1A551"/>
<path d="M186.195 329.057H193.39V273.427C193.39 272.961 193.298 272.499 193.119 272.069C192.94 271.639 192.677 271.248 192.347 270.919C192.016 270.59 191.624 270.33 191.192 270.153C190.761 269.976 190.298 269.886 189.832 269.888H189.761C189.294 269.886 188.832 269.976 188.4 270.153C187.968 270.329 187.575 270.59 187.244 270.918C186.912 271.247 186.649 271.638 186.469 272.068C186.29 272.499 186.197 272.96 186.195 273.427V329.057Z" fill="#E1A551"/>
<path d="M174.098 329.057H181.3V286.796C181.298 286.33 181.204 285.869 181.024 285.44C180.843 285.01 180.58 284.62 180.249 284.292C179.918 283.964 179.525 283.705 179.094 283.529C178.662 283.352 178.2 283.263 177.734 283.265H177.663C177.197 283.263 176.735 283.352 176.304 283.529C175.872 283.705 175.48 283.964 175.149 284.292C174.818 284.62 174.554 285.01 174.374 285.44C174.194 285.869 174.1 286.33 174.098 286.796V329.057Z" fill="#E1A551"/>
<path d="M162.015 329.057H169.217V297.916C169.213 296.974 168.835 296.073 168.166 295.409C167.498 294.746 166.593 294.375 165.651 294.377H165.58C164.638 294.375 163.734 294.746 163.065 295.409C162.397 296.073 162.019 296.974 162.015 297.916V329.057Z" fill="#E1A551"/>
<path d="M149.925 329.057H157.127V286.796C157.125 286.33 157.031 285.869 156.851 285.44C156.67 285.01 156.407 284.62 156.076 284.292C155.745 283.964 155.353 283.705 154.921 283.529C154.49 283.352 154.028 283.263 153.561 283.265H153.491C153.024 283.263 152.562 283.352 152.131 283.529C151.699 283.705 151.307 283.964 150.976 284.292C150.645 284.62 150.381 285.01 150.201 285.44C150.021 285.869 149.927 286.33 149.925 286.796V329.057Z" fill="#E1A551"/>
<path d="M98.7636 269.078H125.029V272.114H98.7636V269.078Z" fill="white"/>
<path d="M98.708 274.701H125.084V275.29H98.708V274.701Z" fill="#E8E9EB"/>
<path d="M98.708 278.208H125.084V278.798H98.708V278.208Z" fill="#E8E9EB"/>
<path d="M98.7636 284.728H125.029V287.763H98.7636V284.728Z" fill="white"/>
<path d="M98.708 290.35H125.084V290.94H98.708V290.35Z" fill="#E8E9EB"/>
<path d="M98.708 293.858H125.084V294.447H98.708V293.858Z" fill="#E8E9EB"/>
<path d="M98.7636 300.377H125.029V303.412H98.7636V300.377Z" fill="white"/>
<path d="M98.708 306H125.084V306.59H98.708V306Z" fill="#E8E9EB"/>
<path d="M98.708 309.507H125.084V310.097H98.708V309.507Z" fill="#E8E9EB"/>
<path d="M109.436 251.848H124.549V252.776H109.436V251.848Z" fill="#DE7A51"/>
<path d="M102.156 254.317H124.549V255.245H102.156V254.317Z" fill="#E8E9EB"/>
<path d="M120.684 256.786H124.549V257.714H120.684V256.786Z" fill="#E8E9EB"/>
<path d="M112.742 256.786H118.37V257.714H112.742V256.786Z" fill="#E8E9EB"/>
<path d="M100.409 256.786H110.539V257.714H100.409V256.786Z" fill="#E8E9EB"/>
<path d="M115.395 259.256H124.549V260.184H115.395V259.256Z" fill="#E8E9EB"/>
<path d="M100.409 259.256H113.955V260.184H100.409V259.256Z" fill="#E8E9EB"/>
<path d="M109.987 261.725H124.549V262.653H109.987V261.725Z" fill="#E8E9EB"/>
<path d="M100.409 261.725H105.462V262.653H100.409V261.725Z" fill="#E8E9EB"/>
<path d="M141.393 341.019H156.506V341.947H141.393V341.019Z" fill="#DE7A51"/>
<path d="M134.113 343.488H156.506V344.416H134.113V343.488Z" fill="#E8E9EB"/>
<path d="M152.641 345.965H156.506V346.893H152.641V345.965Z" fill="#E8E9EB"/>
<path d="M144.699 345.965H150.327V346.893H144.699V345.965Z" fill="#E8E9EB"/>
<path d="M132.365 345.965H142.495V346.893H132.365V345.965Z" fill="#E8E9EB"/>
<path d="M147.352 348.434H156.506V349.362H147.352V348.434Z" fill="#E8E9EB"/>
<path d="M132.365 348.434H145.911V349.362H132.365V348.434Z" fill="#E8E9EB"/>
<path d="M141.944 350.904H156.506V351.832H141.944V350.904Z" fill="#E8E9EB"/>
<path d="M132.365 350.904H137.418V351.832H132.365V350.904Z" fill="#E8E9EB"/>
<path d="M196.766 244.613H244.189V250.024H196.766V244.613Z" fill="#E8E9EB"/>
<path d="M64.3277 244.173H85.123V249.583H64.3277V244.173Z" fill="#E8E9EB"/>
<path d="M167.73 342.929H182.622V345.124H167.73V342.929Z" fill="#E1A551"/>
<path d="M174.948 347.774H182.622V348.662H174.948V347.774Z" fill="#E1A551"/>
<path d="M168.793 347.774H173.696V348.662H168.793V347.774Z" fill="#E1A551"/>
<path d="M171.571 350.149V350.746H172.075V350.149H179.993V351.045H168.194V350.149H171.571Z" fill="#E1A551"/>
<path d="M180.623 350.149H182.622V351.037H180.623V350.149Z" fill="#E1A551"/>
<path d="M165.864 350.149H167.737V351.037H165.864V350.149Z" fill="#E1A551"/>
<path d="M283.939 417.198L366.498 434.616V226.455L283.939 267.238V417.198Z" fill="#4893AA"/>
<path d="M283.938 267.238L307.134 255.78L355.77 432.352L283.938 417.198V267.238Z" fill="#3A7B8F"/>
<path d="M342.49 306.149C348.921 305.245 354.431 310.624 354.431 318.213C354.431 325.802 348.921 332.069 342.49 332.203C336.422 332.321 331.754 326.879 331.754 320.045C331.754 313.211 336.422 307.006 342.49 306.149ZM342.49 330.316C348 330.158 352.62 324.811 352.62 318.362C352.62 311.914 347.969 307.305 342.49 308.037C337.28 308.721 333.234 314.037 333.234 319.919C333.234 325.802 337.28 330.465 342.49 330.316Z" fill="#536BA5"/>
<path d="M335.981 311.961L335.005 310.671C336.768 308.338 339.344 306.753 342.223 306.228V308.107C339.735 308.572 337.51 309.946 335.981 311.961Z" fill="#E1A551"/>
<path d="M338.776 319.479C338.776 321.838 340.429 323.655 342.491 323.529C344.553 323.403 346.34 321.311 346.34 318.865C346.34 316.42 344.6 314.611 342.491 314.823C340.382 315.036 338.776 317.112 338.776 319.479Z" fill="white"/>
<path d="M319.822 309.35C324.954 308.626 329.322 313.486 329.322 320.234C329.322 326.981 324.954 332.549 319.822 332.651C314.958 332.753 311.164 327.846 311.164 321.696C311.164 315.547 314.989 310.042 319.822 309.35ZM319.822 330.968C324.198 330.842 327.89 326.085 327.89 320.352C327.89 314.619 324.198 310.459 319.822 311.033C315.642 311.591 312.384 316.31 312.384 321.602C312.384 326.895 315.642 331.094 319.822 330.968Z" fill="#536BA5"/>
<path d="M319.822 311.033C316.894 311.426 314.415 313.864 313.203 317.08L312.179 316.294C313.596 312.613 316.445 309.814 319.822 309.334C321.371 309.11 322.951 309.412 324.309 310.191L323.632 311.764C322.479 311.101 321.138 310.844 319.822 311.033Z" fill="#E1A551"/>
<path d="M316.847 321.24C316.847 323.364 318.169 324.999 319.822 324.897C321.475 324.795 322.86 322.97 322.86 320.753C322.86 318.535 321.475 316.939 319.783 317.104C318.091 317.269 316.847 319.125 316.847 321.24Z" fill="white"/>
<path d="M301.482 311.961C305.67 311.363 309.22 315.791 309.22 321.877C309.22 327.964 305.67 332.958 301.482 333.036C297.484 333.115 294.399 328.656 294.399 323.073C294.399 317.489 297.484 312.503 301.482 311.961ZM301.482 331.511C305.056 331.409 308.055 327.138 308.055 321.972C308.055 316.805 305.056 313.007 301.482 313.479C298.051 313.935 295.367 318.197 295.367 322.994C295.367 327.791 298.051 331.621 301.482 331.495V331.511Z" fill="#536BA5"/>
<path d="M295.366 322.97C295.32 325.086 295.907 327.167 297.051 328.947L296.264 329.922C294.987 327.86 294.334 325.473 294.382 323.049C294.382 317.505 297.444 312.574 301.396 311.953V313.471C298.003 313.998 295.366 318.252 295.366 322.97Z" fill="#E1A551"/>
<path d="M299.042 322.679C299.042 324.598 300.128 326.085 301.482 326.006C302.836 325.927 303.993 324.252 303.993 322.278C303.993 320.305 302.86 318.818 301.482 318.96C300.105 319.101 299.042 320.761 299.042 322.679Z" fill="white"/>
<path d="M335.863 248.183C349.362 242.458 361.664 250.975 361.664 267.906C361.664 284.838 349.362 300.566 335.863 302.752C323.914 304.687 315.185 295.1 315.185 281.519C315.185 267.938 323.914 253.248 335.863 248.183ZM335.863 280.615C338.279 279.962 340.286 277.076 340.286 274.174C340.286 271.272 338.279 269.558 335.863 270.321C333.446 271.083 331.628 273.93 331.628 276.706C331.628 279.482 333.501 281.244 335.863 280.615Z" fill="url(#paint21_linear_4_5374)"/>
<path d="M335.863 248.183C338.643 246.961 341.658 246.368 344.694 246.445L336.587 270.179C336.342 270.205 336.1 270.252 335.863 270.32C335.663 270.392 335.468 270.479 335.281 270.58L327.291 253.869C329.791 251.484 332.693 249.559 335.863 248.183Z" fill="#DE7A51"/>
<path d="M336.587 270.179L344.695 246.445C347.519 246.542 350.268 247.377 352.668 248.867L339.389 271.319C339.065 270.899 338.635 270.572 338.142 270.371C337.65 270.171 337.114 270.105 336.587 270.179Z" fill="#E1A551"/>
<path d="M327.292 253.869L335.281 270.58C334.184 271.187 333.268 272.074 332.627 273.15C331.985 274.226 331.641 275.453 331.629 276.706C331.633 277.127 331.683 277.546 331.779 277.957L315.21 282.675C315.21 282.282 315.21 281.889 315.21 281.495C315.186 271.343 319.996 260.718 327.292 253.869Z" fill="#E8E9EB"/>
<path d="M331.621 343.417L351.881 344.109V345.611L331.621 344.793V343.417Z" fill="#E1A551"/>
<path d="M327.953 346.885L351.881 348.128V349.63L327.953 348.238V346.885Z" fill="#E1A551"/>
<path d="M327.954 350.479L342.09 351.462V352.901L327.954 351.824V350.479Z" fill="#E1A551"/>
<path d="M344.34 351.619L351.881 352.146V353.656L344.34 353.074V351.619Z" fill="#E1A551"/>
<path d="M327.953 354.073L351.881 356.165V357.675L327.953 355.418V354.073Z" fill="#E1A551"/>
<path d="M327.953 357.659L351.881 360.183V361.693L327.953 359.003V357.659Z" fill="#E1A551"/>
<path d="M298.483 281.841L308.354 278.688V274.89L298.483 278.248V281.841Z" fill="#E1A551"/>
<path d="M298.483 288.809L308.354 286.057V282.258L298.483 285.223V288.809Z" fill="#E1A551"/>
<path d="M298.483 295.784L308.354 293.433V289.635L298.483 292.191V295.784Z" fill="#E1A551"/>
<path d="M14.2525 384.334L70.373 360.946V266.208L14.2525 242.828V384.334Z" fill="#536BA5"/>
<path d="M20.6592 353.436L68.4287 337.047V282.455L20.6592 266.066V353.436Z" fill="#E1A551"/>
<path d="M58.3297 325.817L61.793 325.196V303.861L58.3297 303.625V325.817Z" fill="white"/>
<path d="M53.017 326.769L56.8975 326.077V303.523L53.017 303.255V326.769Z" fill="white"/>
<path d="M47.0427 327.846L51.4111 327.06V303.145L47.0427 302.846V327.846Z" fill="white"/>
<path d="M40.2658 329.057L45.2246 328.169V302.728L40.2658 302.382V329.057Z" fill="white"/>
<path d="M32.5055 330.449L38.1885 329.427V302.249L32.5055 301.855V330.449Z" fill="white"/>
<path d="M23.5399 332.053L30.1201 330.874V301.69L23.5399 301.242V332.053Z" fill="white"/>
<path d="M61.0459 325.33V315.185L59.1253 315.303V325.676L61.0459 325.33Z" fill="#DE7A51"/>
<path d="M56.0635 326.226V310.726L53.9147 310.75V326.611L56.0635 326.226Z" fill="#DE7A51"/>
<path d="M50.4746 327.225V319.007L48.0503 319.235V327.665L50.4746 327.225Z" fill="#DE7A51"/>
<path d="M44.1543 328.357V314.163L41.4073 314.273V328.853L44.1543 328.357Z" fill="#DE7A51"/>
<path d="M36.9678 329.647V309.232L33.8272 309.216V330.213L36.9678 329.647Z" fill="#DE7A51"/>
<path d="M28.7109 331.125V306.66L25.0745 306.566V331.778L28.7109 331.125Z" fill="#DE7A51"/>
<path d="M65.6183 292.67L67.0352 292.969V294.109L65.6183 293.834V292.67Z" fill="white"/>
<path d="M64.9178 295.651L67.0352 296.012V297.153L64.9178 296.822V295.651Z" fill="white"/>
<path d="M64.627 295.596V296.775L63.525 296.602V295.415L64.627 295.596Z" fill="white"/>
<path d="M63.4385 295.399V296.586L62.7223 296.476V295.273L63.4385 295.399Z" fill="white"/>
<path d="M66.0355 298.914L67.0352 299.048V300.188L66.0355 300.07V298.914Z" fill="white"/>
<path d="M63.0599 298.521L65.7676 298.883V300.039L63.0599 299.724V298.521Z" fill="white"/>
<path d="M63.9893 301.8V302.988L62.7221 302.886V301.682L63.9893 301.8Z" fill="white"/>
<path d="M64.1149 301.816L67.0352 302.091V303.232L64.1149 302.996V301.816Z" fill="white"/>
<path d="M65.2169 305.025L67.0352 305.127V306.267L65.2169 306.196V305.025Z" fill="white"/>
<path d="M64.9258 305.009V306.181L64.1151 306.141V304.962L64.9258 305.009Z" fill="white"/>
<path d="M63.5101 304.93L63.9893 304.954V306.141L63.5101 306.118V304.93Z" fill="white"/>
<path d="M60.0146 293.142L62.0611 293.527C62.2421 293.527 62.3838 293.237 62.3838 292.804C62.3838 292.371 62.2421 292.018 62.0611 291.955L60.0146 291.538C59.8336 291.538 59.684 291.829 59.684 292.269C59.684 292.717 59.8336 293.087 60.0146 293.142Z" fill="#DE7A51"/>
<path d="M55.5275 292.301L57.7786 292.725C57.9754 292.765 58.1328 292.426 58.1328 291.939C58.1328 291.483 57.9754 291.09 57.7786 291.05L55.5275 290.578C55.3228 290.578 55.1576 290.885 55.1576 291.365C55.1576 291.844 55.3228 292.253 55.5275 292.301Z" fill="#DE7A51"/>
<path d="M50.5214 291.341L53.0323 291.821C53.2448 291.86 53.418 291.506 53.418 291.034C53.418 290.555 53.2448 290.138 53.0323 290.091L50.5214 289.572C50.2932 289.525 50.1121 289.886 50.1121 290.358C50.1042 290.869 50.2853 291.302 50.5214 291.341Z" fill="#DE7A51"/>
<path d="M44.9331 290.287L47.7273 290.814C47.9713 290.861 48.1602 290.492 48.1602 289.989C48.1602 289.485 47.9713 289.037 47.7273 288.99L44.9331 288.408C44.6812 288.353 44.4766 288.738 44.4766 289.257C44.4766 289.784 44.6812 290.24 44.9331 290.287Z" fill="#DE7A51"/>
<path d="M38.6762 289.108L41.8246 289.698C42.0922 289.753 42.3047 289.359 42.3047 288.825C42.3047 288.29 42.0922 287.818 41.8246 287.763L38.6762 287.11C38.3849 287.047 38.1566 287.448 38.1566 288.007C38.1566 288.557 38.3849 289.053 38.6762 289.108Z" fill="#DE7A51"/>
<path d="M31.6316 287.771L35.1893 288.439C35.4884 288.502 35.7324 288.085 35.7324 287.519C35.7324 286.953 35.4884 286.442 35.1893 286.379L31.6316 285.64C31.3088 285.577 31.0491 286.001 31.0491 286.591C31.0176 287.181 31.2774 287.708 31.6316 287.771Z" fill="#DE7A51"/>
<path d="M23.7055 286.277L27.7512 287.063C28.0976 287.126 28.373 286.686 28.373 286.088C28.373 285.482 28.0976 284.94 27.7512 284.869L23.7055 284.028C23.3355 283.957 23.0364 284.405 23.0364 285.034C23.0364 285.648 23.3355 286.214 23.7055 286.277Z" fill="#DE7A51"/>
<path d="M63.0137 310.954C63.0137 311.866 63.3128 312.598 63.6749 312.582C64.0369 312.566 64.3203 311.835 64.3203 310.939C64.3203 310.042 64.0369 309.311 63.6749 309.303C63.3128 309.295 63.0137 310.042 63.0137 310.954Z" fill="white"/>
<path d="M63.0137 318.165C63.0137 319.078 63.3128 319.785 63.6749 319.738C64.0369 319.691 64.3203 318.952 64.3203 318.032C64.3203 317.112 64.0369 316.459 63.6749 316.459C63.3128 316.459 63.0137 317.253 63.0137 318.165Z" fill="white"/>
<path d="M63.0137 325.377C63.0137 326.297 63.3128 326.95 63.6749 326.903C64.0369 326.855 64.3203 326.038 64.3203 325.141C64.3203 324.245 64.0369 323.568 63.6749 323.623C63.3128 323.678 63.0137 324.465 63.0137 325.377Z" fill="white"/>
<path d="M385.404 299.591C385.288 299.541 385.16 299.524 385.035 299.542C384.91 299.56 384.792 299.612 384.695 299.693C384.498 299.85 384.335 300.046 384.215 300.267C384.058 300.503 383.9 300.794 384.026 301.053C384.152 301.313 384.475 301.399 384.491 301.667C384.506 301.934 383.995 302.107 383.845 302.453C383.807 302.57 383.805 302.696 383.84 302.814C383.875 302.932 383.946 303.037 384.042 303.114C384.236 303.263 384.439 303.403 384.648 303.531C384.753 303.594 384.839 303.682 384.9 303.788C384.961 303.894 384.993 304.014 384.994 304.136C385.358 303.734 385.552 303.207 385.537 302.665C385.528 302.12 385.304 301.601 384.916 301.219C385.146 301.167 385.351 301.037 385.495 300.85C385.638 300.663 385.712 300.432 385.703 300.196C385.71 300.078 385.687 299.96 385.634 299.853C385.582 299.747 385.502 299.657 385.404 299.591Z" fill="#F27E72"/>
</g>
<circle cx="615" cy="349" r="16" fill="url(#paint22_linear_4_5374)"/>
<circle cx="521" cy="50" r="16" fill="url(#paint23_linear_4_5374)"/>
<circle cx="562.5" cy="7.5" r="7.5" fill="url(#paint24_linear_4_5374)"/>
<circle cx="568.5" cy="280.5" r="7.5" fill="url(#paint25_linear_4_5374)"/>
<circle cx="492.5" cy="467.5" r="7.5" fill="url(#paint26_linear_4_5374)"/>
<circle cx="430.215" cy="62.2145" r="41" transform="rotate(-15 430.215 62.2145)" fill="url(#paint27_linear_4_5374)"/>
<g clip-path="url(#clip1_4_5374)">
<path d="M440.607 53.2157C435.095 47.953 430.501 53.8728 430.501 53.8728C430.203 54.2556 429.576 54.6727 429.108 54.7993L427.563 55.2142C427.095 55.3403 426.343 55.2927 425.894 55.1101C425.894 55.1101 418.955 52.2793 416.812 59.5932C414.67 66.9047 418.046 73.3374 418.046 73.3374C418.766 74.9413 419.956 75.8212 421.599 75.2304C423.237 74.6414 425.702 69.2926 425.702 69.2926C425.906 68.8516 426.457 68.3885 426.924 68.2632L436.182 65.7807C436.65 65.6554 437.358 65.7813 437.755 66.0614C437.755 66.0614 442.565 69.4609 444.28 69.1512C445.996 68.8419 446.589 67.4831 446.409 65.736C446.408 65.7362 446.119 58.4773 440.607 53.2157ZM426.601 62.4544L424.616 62.9864L425.129 64.8998C425.129 64.8998 424.794 65.3334 424.141 65.4997C423.489 65.664 423.104 65.4023 423.104 65.4023L422.602 63.5267L420.727 64.0291C420.727 64.0291 420.428 63.8519 420.196 63.237C419.965 62.6218 420.149 62.0253 420.149 62.0253L422.135 61.4932L421.603 59.5079C421.603 59.5079 421.953 59.1796 422.545 59.0389C423.138 58.8998 423.627 59.0054 423.627 59.0054L424.141 60.955L426.016 60.4526C426.016 60.4526 426.456 60.7853 426.619 61.286C426.783 61.7872 426.601 62.4544 426.601 62.4544ZM436.292 62.1953C435.422 62.4283 434.533 61.9131 434.301 61.0447C434.067 60.1747 434.58 59.2855 435.45 59.0525C436.315 58.8206 437.21 59.3327 437.443 60.2027C437.676 61.0716 437.158 61.9634 436.292 62.1953ZM435.133 57.8718C434.264 58.1048 433.375 57.5901 433.142 56.7217C432.909 55.8518 433.422 54.9626 434.291 54.7296C435.157 54.4976 436.051 55.0098 436.284 55.8798C436.517 56.7487 435.999 57.6399 435.133 57.8718ZM439.669 59.1441C438.799 59.3771 437.91 58.8624 437.677 57.9935C437.444 57.1241 437.957 56.2343 438.827 56.0014C439.692 55.7694 440.587 56.2821 440.82 57.1515C441.052 58.0205 440.534 58.9122 439.669 59.1441Z" fill="white"/>
</g>
<circle cx="571.007" cy="170.007" r="41" transform="rotate(30 571.007 170.007)" fill="url(#paint28_linear_4_5374)"/>
<path d="M587.361 170.226C587.479 170.07 587.606 169.922 587.707 169.749C587.807 169.575 587.873 169.392 587.947 169.21L589.357 169.041C589.672 169.004 589.908 168.738 589.905 168.422L589.898 166.396C589.897 166.079 589.66 165.812 589.344 165.773L587.937 165.592C587.78 165.223 587.592 164.867 587.345 164.545L587.882 163.266C588.005 162.975 587.89 162.639 587.615 162.479L585.847 161.459C585.571 161.3 585.221 161.368 585.03 161.619L584.191 162.724C583.789 162.671 583.388 162.684 582.991 162.735L582.131 161.606C581.938 161.354 581.588 161.282 581.315 161.438L579.555 162.444C579.28 162.602 579.168 162.937 579.293 163.228L579.851 164.533C579.732 164.69 579.606 164.838 579.505 165.011C579.405 165.185 579.339 165.368 579.264 165.55L577.855 165.719C577.54 165.756 577.303 166.022 577.307 166.338L577.315 168.365C577.316 168.682 577.553 168.949 577.87 168.988L579.277 169.168C579.432 169.535 579.621 169.891 579.867 170.213L579.33 171.492C579.208 171.783 579.324 172.121 579.599 172.28L581.367 173.3C581.643 173.46 581.993 173.391 582.184 173.14L583.023 172.035C583.426 172.088 583.827 172.075 584.223 172.024L585.083 173.153C585.276 173.405 585.626 173.477 585.9 173.321L587.659 172.315C587.934 172.157 588.047 171.822 587.922 171.531L587.361 170.226ZM582.354 169.546C581.147 168.849 580.727 167.315 581.417 166.12C582.107 164.924 583.646 164.52 584.853 165.217C586.06 165.914 586.48 167.449 585.79 168.644C585.102 169.84 583.563 170.244 582.354 169.546Z" fill="white"/>
<path d="M577.214 172.964L577.203 170.29C577.201 169.669 576.732 169.132 576.114 169.044L573.493 168.663C573.179 167.862 572.757 167.138 572.233 166.5L573.211 164.062C573.441 163.489 573.206 162.82 572.664 162.508L570.334 161.162C569.792 160.85 569.096 160.98 568.714 161.468L567.091 163.533C566.274 163.402 565.425 163.399 564.599 163.528L562.949 161.443C562.561 160.955 561.864 160.817 561.327 161.123L559.005 162.451C558.467 162.759 558.238 163.428 558.474 164.004L559.475 166.441C559.215 166.761 558.977 167.109 558.767 167.474C558.557 167.836 558.377 168.213 558.229 168.595L555.61 168.956C554.997 169.041 554.533 169.572 554.534 170.192L554.545 172.866C554.548 173.485 555.017 174.022 555.634 174.112L558.255 174.493C558.569 175.293 558.991 176.017 559.515 176.655L558.537 179.094C558.307 179.667 558.542 180.335 559.084 180.648L561.414 181.993C561.956 182.306 562.652 182.175 563.034 181.688L564.657 179.622C565.474 179.754 566.323 179.757 567.149 179.628L568.799 181.713C569.189 182.204 569.883 182.34 570.421 182.032L572.743 180.705C573.281 180.397 573.51 179.728 573.274 179.152L572.273 176.714C572.534 176.393 572.772 176.045 572.982 175.68C573.192 175.318 573.372 174.941 573.52 174.559L576.138 174.198C576.751 174.114 577.215 173.583 577.214 172.964ZM565.932 170.529L566.752 171.002C568.033 171.742 568.481 173.375 567.748 174.645C567.095 175.775 565.726 176.234 564.53 175.798L564.037 176.651C563.779 177.099 563.201 177.251 562.749 176.989C562.296 176.728 562.138 176.152 562.397 175.704L562.866 174.892L561.772 174.261C561.319 173.999 561.162 173.423 561.421 172.975C561.679 172.527 562.257 172.375 562.709 172.637L565.034 173.979C565.411 174.196 565.893 174.07 566.108 173.696C566.324 173.323 566.192 172.844 565.814 172.626L564.994 172.152C563.713 171.413 563.266 169.78 563.999 168.51C564.651 167.38 566.02 166.921 567.217 167.356L567.709 166.504C567.968 166.055 568.545 165.904 568.998 166.165C569.451 166.427 569.608 167.002 569.349 167.451L568.88 168.262L569.974 168.894C570.427 169.155 570.584 169.731 570.326 170.179C570.067 170.628 569.49 170.779 569.037 170.518L566.713 169.176C566.336 168.958 565.854 169.085 565.638 169.458C565.425 169.831 565.556 170.312 565.932 170.529Z" fill="white"/>
<circle cx="574.252" cy="466.252" r="41" transform="rotate(-27.3447 574.252 466.252)" fill="url(#paint29_linear_4_5374)"/>
<g clip-path="url(#clip2_4_5374)">
<circle cx="566.943" cy="468.65" r="4.4813" transform="rotate(-27.3447 566.943 468.65)" fill="white"/>
<path fill-rule="evenodd" clip-rule="evenodd" d="M580.298 456.938C580.118 456.543 579.641 456.384 579.26 456.592L575.604 458.589C575.032 458.901 575.107 459.746 575.726 459.953L577 460.377L575.946 463.583L572.734 462.627C572.093 462.436 571.407 462.737 571.113 463.338L570.764 464.054C571.361 464.55 571.872 465.172 572.251 465.906C572.318 466.036 572.38 466.167 572.437 466.299L572.934 465.284L576.279 466.279C576.989 466.491 577.739 466.099 577.971 465.395L579.361 461.165L581.108 461.747C581.727 461.954 582.294 461.323 582.024 460.729L580.298 456.938Z" fill="white"/>
<path fill-rule="evenodd" clip-rule="evenodd" d="M566.166 460.644L567.219 462.681C566.205 462.633 565.165 462.843 564.198 463.343L564.198 463.343L563.226 461.463C562.626 460.303 563.08 458.876 564.24 458.276L579.942 450.157C581.102 449.557 582.529 450.011 583.129 451.171L589.876 464.219C590.476 465.379 590.022 466.806 588.862 467.406L578.187 472.926C577.169 472.089 575.937 471.562 574.645 471.394L586.936 465.038L580.761 453.096L566.166 460.644Z" fill="white"/>
<path d="M565.626 482.634C564.145 479.769 565.266 476.245 568.132 474.763L571.134 473.21C574 471.728 577.524 472.85 579.005 475.715C579.45 476.575 579.114 477.632 578.254 478.077L567.988 483.386C567.128 483.83 566.071 483.494 565.626 482.634Z" fill="white"/>
</g>
<g opacity="0.3" filter="url(#filter0_f_4_5374)">
<ellipse cx="318.546" cy="492.284" rx="114.321" ry="6.09712" fill="#0D2D3D"/>
</g>
<g clip-path="url(#clip3_4_5374)">
<path d="M461.475 244.694C455.211 247.878 449.381 251.854 444.129 256.524C444.033 256.586 443.946 256.66 443.868 256.744C429.538 269.096 411.04 291.892 406.72 329.112C405.349 340.311 404.992 354.612 404.8 365.852C404.512 383.968 400.686 402.578 391.307 416.261C390.717 417.112 390.1 417.977 389.456 418.787C389.058 419.308 388.633 419.83 388.18 420.324C388.091 420.439 387.995 420.549 387.892 420.653C387.152 421.559 386.343 422.41 385.547 423.247C379.413 429.491 371.609 433.832 363.072 435.75L362.537 435.901C360.274 436.384 357.985 436.732 355.681 436.944C354.447 437.067 353.185 437.136 351.896 437.177V437.067C351.745 436.614 351.21 434.899 350.347 432.264C345.574 417.332 331.752 372.11 332.163 350.481C332.436 339.47 334.406 328.568 338.005 318.16C338.021 318.08 338.044 318.002 338.074 317.927C354.035 270.784 401.029 229.199 461.475 244.694Z" fill="url(#paint30_linear_4_5374)"/>
<path style="mix-blend-mode:multiply" opacity="0.16" d="M409.271 262.604C405.226 266.736 401.555 271.219 398.301 275.999C394.603 281.193 391.472 286.77 388.962 292.633C383.957 304.23 381.79 316.362 380.872 328.934C379.953 341.505 380.172 354.9 376.634 370.23C374.756 378.343 371.584 386.101 367.241 393.205C363.486 399.192 358.994 404.684 353.871 409.55V391.832C365.911 381.525 370.587 364.027 372.726 349.287C376.168 325.352 379.734 299.811 393.556 279.403C397.012 274.141 401.122 269.34 405.788 265.116C406.474 264.361 408.037 263.482 409.271 262.604Z" fill="url(#paint31_linear_4_5374)"/>
<path style="mix-blend-mode:multiply" d="M460.173 244.694C454.423 248.059 449.045 252.025 444.129 256.524C444.033 256.586 443.946 256.66 443.868 256.744C429.539 269.095 411.04 291.891 406.72 329.112C405.349 340.311 404.993 354.612 404.801 365.852C404.513 383.968 400.687 402.578 391.307 416.261C390.717 417.112 390.1 417.977 389.456 418.786C389.058 419.308 388.633 419.829 388.181 420.324C388.091 420.439 387.995 420.549 387.893 420.653C385.287 423.492 382.392 426.049 379.253 428.284C374.355 431.718 368.871 434.229 363.072 435.695L362.538 435.846C359.144 436.649 355.671 437.072 352.184 437.108H351.937C351.499 437.108 351.074 437.108 350.635 437.108L351.896 436.999C356.428 436.498 360.878 435.428 365.143 433.814C369.73 431.999 374.02 429.505 377.868 426.417C385.459 420.173 391.406 412.162 395.188 403.086C398.931 394.016 401.084 384.368 401.551 374.567C402.209 364.699 401.921 354.721 402.099 344.62C402.209 324.349 406.844 303.694 416.882 285.894C426.702 268.006 441.828 253.61 460.173 244.694Z" fill="url(#paint32_linear_4_5374)"/>
<path style="mix-blend-mode:multiply" d="M461.653 244.694C455.389 247.878 449.559 251.854 444.306 256.524C444.211 256.586 444.123 256.66 444.046 256.744C429.716 269.096 411.217 291.892 406.898 329.112C405.595 340.311 405.17 354.612 404.978 365.852C404.69 383.968 400.864 402.578 391.485 416.261C390.895 417.112 390.278 417.977 389.633 418.787C389.236 419.308 388.811 419.83 388.358 420.324C388.269 420.439 388.173 420.549 388.07 420.653C387.33 421.559 386.52 422.41 385.725 423.247C379.591 429.491 371.787 433.832 363.25 435.75L362.715 435.901C360.452 436.384 358.163 436.732 355.859 436.944C354.624 437.067 353.363 437.136 352.074 437.177C352.068 437.141 352.068 437.104 352.074 437.067C351.923 436.614 351.388 434.899 350.524 432.264C345.752 417.332 331.93 372.11 332.341 350.481C332.613 339.47 334.584 328.568 338.183 318.16C338.177 318.082 338.177 318.004 338.183 317.927C354.213 270.784 401.207 229.199 461.653 244.694Z" fill="url(#paint33_linear_4_5374)"/>
<path opacity="0.83" d="M344.792 243.925L342.804 243.047L341.145 242.306C353.102 219.112 398.149 191.965 398.149 191.965C445.061 166.506 504.533 179.695 504.533 179.695C491.986 190.414 426.013 202.519 426.013 202.519C363.592 214.445 344.792 243.925 344.792 243.925Z" fill="url(#paint34_linear_4_5374)"/>
<path d="M342.831 243.047L341.172 242.306C353.129 219.112 398.176 191.965 398.176 191.965C445.088 166.506 504.561 179.695 504.561 179.695C462.695 183.03 418.965 188.987 381.707 209.738C368.694 217.012 355.57 226.825 346.246 238.559C345.025 240.041 343.887 241.551 342.831 243.047Z" fill="url(#paint35_linear_4_5374)"/>
<path opacity="0.83" d="M370.449 243.445L368.954 241.88L367.692 240.508C387.521 223.586 439.493 215.516 439.493 215.516C492.548 209.724 542.614 244.46 542.614 244.46C526.94 249.621 461.296 235.842 461.296 235.842C399.054 223.284 370.449 243.445 370.449 243.445Z" fill="url(#paint36_linear_4_5374)"/>
<path d="M368.954 241.88L367.692 240.508C387.521 223.586 439.493 215.516 439.493 215.516C492.548 209.724 542.614 244.46 542.614 244.46C502.586 231.683 459.87 220.635 417.525 225.727C402.742 227.538 386.877 231.642 373.795 238.984C372.149 239.945 370.531 240.865 368.954 241.88Z" fill="url(#paint37_linear_4_5374)"/>
<path opacity="0.83" d="M363.099 258.363L361.467 259.735L360.096 260.929C378.348 279.567 429.387 292.235 429.387 292.235C481.701 302.747 534.674 272.623 534.674 272.623C519.59 266.076 452.904 273.995 452.904 273.995C389.743 280.994 363.099 258.363 363.099 258.363Z" fill="url(#paint38_linear_4_5374)"/>
<path d="M361.467 259.791L360.096 260.985C378.348 279.622 429.387 292.29 429.387 292.29C481.701 302.803 534.674 272.678 534.674 272.678C493.673 281.818 450.134 289.023 408.42 280.157C393.843 277.042 378.416 271.525 366.033 263.043C364.47 262 362.948 260.902 361.467 259.791Z" fill="url(#paint39_linear_4_5374)"/>
<path opacity="0.83" d="M234.239 204.44L233.197 206.348L232.319 207.926C210.255 194.024 187.067 146.771 187.067 146.771C165.757 97.8299 183.968 39.6526 183.968 39.6526C193.567 53.075 199.971 119.912 199.971 119.912C206.512 183.223 234.239 204.44 234.239 204.44Z" fill="url(#paint40_linear_4_5374)"/>
<path d="M233.197 206.348L232.319 207.926C210.255 194.024 187.067 146.771 187.067 146.771C165.757 97.8299 183.968 39.6526 183.968 39.6526C183.762 81.6627 185.901 125.8 203.371 164.736C209.501 178.323 218.14 192.185 229.042 202.56C230.386 203.878 231.757 205.181 233.197 206.348Z" fill="url(#paint41_linear_4_5374)"/>
<path opacity="0.83" d="M237.695 224.574L238.052 226.715L238.353 228.499C212.436 231.326 164.948 208.722 164.948 208.722C117.845 183.62 96 126.706 96 126.706C111.852 131.262 158.366 179.64 158.366 179.64C202.755 225.15 237.695 224.574 237.695 224.574Z" fill="url(#paint42_linear_4_5374)"/>
<path d="M238.052 226.715L238.353 228.499C212.436 231.326 164.948 208.722 164.948 208.722C117.845 183.62 96 126.706 96 126.706C121.89 159.809 150.989 193.008 188.85 212.647C202.083 219.51 217.51 224.999 232.457 226.372C234.322 226.509 236.2 226.632 238.052 226.715Z" fill="url(#paint43_linear_4_5374)"/>
<path opacity="0.83" d="M255.07 200.515L253.164 201.531L251.559 202.395C240.671 178.68 247.048 126.431 247.048 126.431C255.948 73.7712 302.969 35 302.969 35C303.668 51.4692 272.554 110.978 272.554 110.978C243.496 167.536 255.07 200.515 255.07 200.515Z" fill="url(#paint44_linear_4_5374)"/>
<path d="M253.204 201.531L251.599 202.395C240.711 178.68 247.088 126.431 247.088 126.431C255.946 73.7712 302.968 35 302.968 35C279.752 70.0656 257.551 108.205 250.955 150.367C248.679 165.106 248.308 181.493 251.805 196.096C252.203 197.935 252.683 199.76 253.204 201.531Z" fill="url(#paint45_linear_4_5374)"/>
<path d="M350.318 468.002C339.512 469.004 334.192 463.445 323.88 461.304C311.701 458.805 299.143 458.805 286.965 461.304C272.429 464.255 256.796 471.049 242.343 463.939C228.849 457.283 225.38 441.486 224.79 427.748C223.241 392.189 234.719 357.521 234.389 322.071C234.293 311.874 233.759 301.718 233.238 291.576C231.784 263.263 216.988 221.266 239.189 197.976C241.439 195.627 243.957 193.55 246.69 191.786C256.289 185.514 268.082 183.675 279.409 184.087C283.844 184.274 288.263 184.733 292.642 185.46C302.35 187.062 311.809 189.923 320.78 193.969L322.495 194.751C331.342 198.999 339.76 204.091 347.63 209.957C358.792 218.412 368.94 229.089 371.998 240.906C372.327 242.211 372.574 243.536 372.738 244.872C372.834 245.586 372.903 246.245 372.93 247.027C373.098 253.222 371.308 259.312 367.816 264.429C362.848 271.874 355.482 277.391 346.945 280.061C343.476 281.213 339.895 281.995 336.262 282.394C334.987 282.532 333.698 282.614 332.436 282.683C330.709 282.779 328.981 282.875 327.239 283.012C322.138 283.424 319.382 286.223 319.258 290.67C319.248 291.562 319.322 292.454 319.478 293.333C320.676 299.147 322.851 304.715 325.909 309.802C326.389 310.653 326.855 311.517 327.363 312.368C328.144 313.741 328.953 315.113 329.762 316.486C331.449 319.313 333.136 322.099 334.644 324.898C340.897 336.496 347.685 347.859 354.98 358.798C360.726 368.034 370.064 390.871 373.945 413.31C374.494 416.467 374.923 419.605 375.234 422.725C377.552 445.59 372.615 465.943 350.318 468.002Z" fill="url(#paint46_linear_4_5374)"/>
<path d="M278.49 218.906C280.081 222.776 279.053 226.866 276.214 228.032C273.376 229.199 269.769 227.003 268.192 223.133C266.615 219.263 267.63 215.173 270.468 214.006C273.307 212.84 276.913 215.077 278.49 218.906Z" fill="white"/>
<path d="M277.627 221.527C278.779 224.354 277.778 227.429 275.392 228.389C273.006 229.35 270.126 227.882 268.974 225.068C267.822 222.255 268.823 219.167 271.209 218.206C273.595 217.245 276.475 218.714 277.627 221.527Z" fill="#0D2D3D"/>
<path d="M343.421 237.049C339.65 238.888 337.703 242.608 339.047 245.38C340.391 248.152 344.532 248.907 348.29 247.068C352.047 245.229 354.008 241.51 352.65 238.751C351.293 235.993 347.179 235.224 343.421 237.049Z" fill="white"/>
<path d="M342.338 239.492C339.595 240.865 338.306 243.788 339.43 246.121C340.555 248.454 343.695 249.25 346.438 247.919C349.18 246.588 350.469 243.623 349.345 241.29C348.22 238.957 345.08 238.216 342.338 239.492Z" fill="#0D2D3D"/>
<path opacity="0.83" d="M373.96 413.297C368.077 423.906 359.497 432.771 349.089 438.993C338.681 445.215 326.814 448.573 314.692 448.727C302.569 448.882 290.622 445.827 280.059 439.872C269.496 433.917 260.693 425.273 254.543 414.817C248.392 404.361 245.112 392.464 245.035 380.33C244.957 368.197 248.086 356.259 254.103 345.725C260.12 335.192 268.811 326.437 279.298 320.347C289.784 314.258 301.692 311.051 313.815 311.051C318.371 311.045 322.915 311.505 327.377 312.423C328.159 313.795 328.968 315.168 329.777 316.54C331.464 319.368 333.15 322.154 334.659 324.953C340.912 336.55 347.7 347.914 354.995 358.852C360.741 368.02 370.052 390.857 373.96 413.297Z" fill="url(#paint47_radial_4_5374)"/>
<path style="mix-blend-mode:multiply" opacity="0.2" d="M319.519 293.333C320.987 301.691 325.402 309.157 329.804 316.472C320.323 304.359 308.6 294.187 295.275 286.512C293.136 285.29 291.024 284.11 288.953 282.806C280.959 277.714 260.527 264.621 257.167 260.847C258.538 261.506 303.187 283.849 332.478 282.737C330.75 282.834 329.022 282.93 327.281 283.067C321.206 283.492 318.45 287.363 319.519 293.333Z" fill="url(#paint48_linear_4_5374)"/>
<path d="M350.318 468.002C339.512 469.004 334.192 463.445 323.88 461.304C311.701 458.805 299.143 458.805 286.965 461.304C272.429 464.255 256.796 471.049 242.343 463.939C228.849 457.283 225.38 441.486 224.79 427.748C223.241 392.189 234.719 357.521 234.389 322.071C234.293 311.874 233.759 301.718 233.238 291.576C231.633 260.531 214.04 213.004 246.717 191.759C256.316 185.487 268.109 183.648 279.436 184.06C293.754 184.644 307.827 187.975 320.89 193.872C304.435 189.975 293.67 186.612 271.14 188.561C246.155 190.771 230.44 210.355 234.005 237.379C235.089 245.613 235.692 253.999 236.446 262.316C239.655 298.273 244.948 337.291 238.75 373.084C233.361 404.197 231.894 450.421 276.762 443.463C276.762 443.463 314.377 437.712 335.206 446.304C339.655 448.265 344.432 449.373 349.289 449.57C359.903 449.748 375.056 445.906 375.344 422.712C377.552 445.59 372.615 465.943 350.318 468.002Z" fill="url(#paint49_linear_4_5374)"/>
<path d="M367.858 264.333C362.896 271.821 355.512 277.374 346.946 280.061C343.477 281.213 339.896 281.995 336.263 282.394C334.988 282.532 333.699 282.614 332.437 282.683C330.71 282.779 328.982 282.875 327.24 283.012C322.139 283.424 319.383 286.223 319.259 290.67C319.249 291.563 319.323 292.454 319.479 293.333C320.494 299.193 325.307 308.429 328.228 313.672C309.756 292.509 296.03 287.774 281.7 278.25C271.141 271.223 262.817 264.745 257.126 260.792C257.126 260.792 212.025 232.918 246.691 191.759C246.225 192.775 232.567 222.762 255.906 241.441C264.917 246.904 275.088 250.163 285.594 250.952C285.594 250.952 312.663 252.407 325.005 262.673C325.005 262.673 360.384 284.865 372.095 240.81C372.095 240.686 372.095 240.549 372.191 240.425L372.836 244.776C373.596 251.683 371.827 258.632 367.858 264.333Z" fill="url(#paint50_linear_4_5374)"/>
<path style="mix-blend-mode:multiply" opacity="0.14" d="M297.003 227.14C296.143 229.622 294.776 231.898 292.989 233.821C291.202 235.745 289.033 237.274 286.622 238.312C281.302 240.426 273.307 241.057 262.446 234.908C262.446 234.908 244.291 225.576 239.203 197.949C241.453 195.6 243.971 193.522 246.704 191.759C256.303 185.487 268.096 183.648 279.423 184.06C283.858 184.247 288.277 184.705 292.656 185.432C296.482 193.392 302.941 210.905 297.003 227.14Z" fill="url(#paint51_linear_4_5374)"/>
<path style="mix-blend-mode:multiply" opacity="0.14" d="M373 246.931C358.368 262.577 341.46 259.283 341.46 259.283C338.5 258.594 335.762 257.165 333.503 255.13C331.244 253.094 329.537 250.519 328.543 247.645C327.056 243.152 326.998 238.309 328.378 233.783C329.686 228.636 332.094 223.833 335.434 219.706C338.774 215.579 342.968 212.225 347.727 209.875C358.889 218.329 369.037 229.007 372.095 240.824C372.423 242.129 372.671 243.454 372.835 244.79C372.876 245.49 373 246.203 373 246.931Z" fill="url(#paint52_linear_4_5374)"/>
<path opacity="0.38" d="M286.211 202.985C286.211 202.985 259.704 207.309 264.024 244.309L283.222 248.427C283.222 248.427 315.42 252.379 328.982 263.18C328.982 263.18 361.961 284.467 356.723 234.496L331.861 211.618L307.178 205.758L286.211 202.985Z" fill="url(#paint53_radial_4_5374)"/>
<path style="mix-blend-mode:multiply" d="M239.642 236.514C240.161 237.707 240.972 238.75 242 239.547C242.987 240.38 244.042 241.128 245.154 241.784C247.366 243.097 249.734 244.125 252.203 244.845C257.175 246.342 262.261 247.43 267.41 248.097C277.709 249.579 288.213 249.923 298.813 251.954C309.398 254.012 319.548 257.885 328.816 263.4C333.355 266.282 337.497 269.411 342.008 271.827C346.52 274.242 351.607 275.724 356.763 274.379C354.329 275.577 351.627 276.125 348.919 275.971C346.189 275.782 343.506 275.166 340.966 274.146C335.878 272.183 331.367 269.26 326.814 266.858C317.659 262.162 307.933 258.674 297.88 256.483C287.842 254.301 277.311 253.532 266.848 251.364C261.601 250.339 256.466 248.803 251.517 246.78C249.005 245.777 246.649 244.418 244.523 242.745C242.466 241.084 240.272 239.149 239.642 236.514Z" fill="url(#paint54_linear_4_5374)"/>
<path d="M330.312 317.995C330.691 317.817 331.08 317.661 331.477 317.529L331.587 317.405C331.15 317.576 330.725 317.773 330.312 317.995Z" fill="url(#paint55_linear_4_5374)"/>
<path d="M348.467 365.426C344.037 369.75 333.204 368.995 327.719 367.513C326.416 367.156 325.086 366.799 323.756 366.538C317.339 365.166 310.948 363.642 304.558 362.421C302.546 362.073 300.688 361.115 299.238 359.676C298.02 358.488 297.115 357.017 296.605 355.394C296.546 355.205 296.5 355.013 296.468 354.818C296.042 353.133 296.042 351.369 296.468 349.685C296.673 348.998 296.865 348.312 297.126 347.695C298.649 343.641 301.464 340.203 305.134 337.909C307.332 336.523 309.784 335.59 312.347 335.164C315.475 334.625 318.689 334.87 321.699 335.878L333.739 339.803C332.366 335.065 331.326 330.236 330.626 325.351C330.325 322.524 329.255 319.862 331.518 317.583C335.81 316.211 338.182 319.724 341.007 323.073C343.429 326.058 345.465 329.337 347.068 332.831C349.907 338.676 351.76 344.95 352.553 351.4C353.102 356.259 352.128 361.858 348.467 365.426Z" fill="url(#paint56_linear_4_5374)"/>
<path style="mix-blend-mode:multiply" d="M348.468 365.426C344.039 369.75 333.205 368.995 327.72 367.513C326.418 367.156 325.087 366.799 323.757 366.538C317.34 365.166 310.95 363.642 304.559 362.421C302.547 362.073 300.689 361.115 299.239 359.676C298.021 358.488 297.116 357.017 296.606 355.394C296.547 355.205 296.501 355.013 296.469 354.818C303.325 355.6 297.607 351.634 304.244 353.774C312.897 356.519 341.611 368.309 347.961 357.645C353.295 348.669 346.521 334.615 341.639 326.861C340.393 324.853 338.9 323.008 337.196 321.371C336.397 320.583 335.53 319.866 334.604 319.23C334.138 318.915 333.658 318.613 333.164 318.338C332.671 318.064 331.793 317.885 331.587 317.529C334.7 315.978 337.717 319.189 339.5 321.289C341.82 324.001 343.855 326.944 345.575 330.073C347.617 333.822 349.254 337.778 350.456 341.876C352.65 349.287 354.748 359.305 348.468 365.426Z" fill="url(#paint57_linear_4_5374)"/>
<path style="mix-blend-mode:multiply" d="M321.673 335.837C321.673 335.837 306.835 329.634 295.001 328.33C293.367 328.17 291.721 328.457 290.237 329.161C288.754 329.864 287.489 330.958 286.578 332.324C285.667 333.691 285.144 335.28 285.065 336.921C284.986 338.562 285.354 340.194 286.129 341.642L287.857 344.909L303.599 348.765L321.673 335.837Z" fill="url(#paint58_linear_4_5374)"/>
<path d="M331.587 336.098L331.477 336.77C330.586 339.831 326.938 336.976 324.223 339.213C318.56 343.948 315.461 352.937 311.306 358.839C303.284 370.175 287.802 377.765 274.953 369.75C266.539 364.729 259.478 357.728 254.383 349.355C251.257 344.058 246.334 335.247 250.037 329.112C253.739 322.977 260.486 326.367 264.956 329.345C270.345 332.845 275.734 336.331 281.096 339.872C282.774 340.972 284.378 342.182 285.896 343.495C287.267 342.232 288.638 340.97 290.009 339.666C294.878 335 297.497 329.826 302.858 325.708C307.411 322.167 315.419 322.167 320.767 324.336C325.005 326.024 332.259 330.745 331.587 336.098Z" fill="url(#paint59_linear_4_5374)"/>
<g style="mix-blend-mode:multiply">
<path style="mix-blend-mode:multiply" d="M272.018 333.188C272.326 333.545 272.739 333.795 273.198 333.902C273.328 333.936 273.465 333.936 273.595 333.902C274.089 333.934 274.578 333.783 274.966 333.476C280.52 329.002 287.761 332.749 287.829 332.79C288.065 332.918 288.324 332.998 288.591 333.026C288.858 333.054 289.127 333.029 289.385 332.952C289.642 332.876 289.881 332.749 290.09 332.58C290.298 332.411 290.471 332.203 290.599 331.967C290.727 331.73 290.807 331.471 290.835 331.204C290.863 330.937 290.838 330.667 290.761 330.41C290.685 330.152 290.559 329.913 290.39 329.704C290.221 329.495 290.012 329.322 289.776 329.194C289.379 328.988 280.054 324.171 272.416 330.32C271.986 330.649 271.702 331.135 271.628 331.672C271.553 332.209 271.694 332.754 272.018 333.188Z" fill="url(#paint60_linear_4_5374)"/>
<path style="mix-blend-mode:multiply" opacity="0.3" d="M273.595 333.929C274.089 333.962 274.577 333.81 274.966 333.504C280.52 329.03 287.76 332.776 287.829 332.818C288.305 333.076 288.865 333.134 289.384 332.98C289.904 332.826 290.34 332.471 290.599 331.994C290.857 331.517 290.915 330.957 290.761 330.437C290.607 329.917 290.252 329.48 289.776 329.222C289.913 329.579 290.777 331.857 288.405 331.665C288.405 331.665 278.71 327.19 273.663 333.792L273.595 333.929Z" fill="url(#paint61_linear_4_5374)"/>
</g>
<path d="M268.398 477.897C268.165 485.596 265.011 489.014 261.541 490.441C261.034 490.636 260.511 490.788 259.978 490.894V491.127L229.919 499.142C228.738 499.464 227.503 499.539 226.291 499.363C225.079 499.188 223.916 498.765 222.874 498.122C221.831 497.479 220.932 496.629 220.231 495.624C219.53 494.619 219.042 493.481 218.798 492.28C218.341 489.989 218.357 487.629 218.846 485.344C219.336 483.06 220.287 480.9 221.643 478.998C222.999 477.096 224.729 475.492 226.728 474.285C228.727 473.079 230.952 472.295 233.265 471.982L243.618 470.61C243.229 466.787 243.197 462.937 243.523 459.109C245.058 447.251 248.871 443.586 252.285 442.928C253.769 442.636 255.307 442.905 256.605 443.682C258.094 444.543 259.224 445.912 259.786 447.539L266.368 466.286C267.728 470.005 268.415 473.937 268.398 477.897Z" fill="url(#paint62_linear_4_5374)"/>
<path d="M268.412 477.883C268.179 485.583 265.011 489.014 261.555 490.427C261.046 490.629 260.517 490.78 259.978 490.88V491.127L229.975 499.129C228.793 499.45 227.558 499.525 226.346 499.349C225.134 499.174 223.971 498.752 222.929 498.108C221.887 497.465 220.987 496.615 220.286 495.61C219.585 494.605 219.098 493.467 218.854 492.266C218.449 490.186 218.449 488.047 218.854 485.967C219.479 482.393 221.225 479.112 223.838 476.597C226.452 474.083 229.797 472.467 233.389 471.982L243.742 470.609C243.439 467.554 243.356 464.481 243.496 461.414C243.496 459.973 243.646 459.108 243.646 459.108C245.182 447.251 248.981 443.586 252.409 442.928C253.893 442.644 255.429 442.912 256.728 443.682C258.215 444.546 259.343 445.914 259.91 447.539L266.492 466.286C267.812 470.008 268.462 473.934 268.412 477.883Z" fill="url(#paint63_linear_4_5374)"/>
<path style="mix-blend-mode:multiply" opacity="0.3" d="M268.398 477.897C268.164 485.596 265.011 489.014 261.541 490.441C261.034 490.636 260.511 490.788 259.978 490.894V491.127L229.919 499.142C228.738 499.463 227.503 499.539 226.291 499.363C225.079 499.188 223.916 498.765 222.874 498.122C221.831 497.479 220.932 496.629 220.231 495.624C219.53 494.619 219.042 493.481 218.798 492.28C218.277 489.702 218.359 487.038 219.04 484.497C219.72 481.956 220.98 479.608 222.72 477.636H222.939C219.278 489.014 224.379 492.006 228.425 492.733C230.408 493.034 232.435 492.855 234.335 492.212L258.264 484.485C270.729 477.952 256.179 444.382 256.179 444.382L256.605 443.627C258.094 444.488 259.224 445.857 259.786 447.484L266.368 466.231C267.734 469.968 268.421 473.919 268.398 477.897Z" fill="url(#paint64_linear_4_5374)"/>
<path d="M205.265 488.89C205.6 489.129 206.005 489.249 206.417 489.233C206.534 489.231 206.65 489.207 206.759 489.165C207.167 489.07 207.528 488.831 207.774 488.492C211.477 483.455 218.457 484.993 218.511 485.006C218.747 485.083 218.996 485.109 219.242 485.085C219.488 485.06 219.727 484.985 219.943 484.864C220.159 484.742 220.347 484.578 220.497 484.38C220.646 484.183 220.753 483.956 220.811 483.715C220.869 483.475 220.876 483.224 220.833 482.98C220.789 482.736 220.696 482.504 220.559 482.298C220.421 482.092 220.243 481.916 220.034 481.783C219.826 481.649 219.592 481.559 219.348 481.52C218.964 481.438 209.982 479.475 204.894 486.406C204.62 486.787 204.505 487.26 204.574 487.724C204.644 488.188 204.891 488.606 205.265 488.89Z" fill="url(#paint65_linear_4_5374)"/>
<path style="mix-blend-mode:multiply" opacity="0.3" d="M206.759 489.165C207.167 489.07 207.527 488.831 207.774 488.492C211.476 483.455 218.456 484.993 218.511 485.006C218.746 485.082 218.995 485.109 219.241 485.085C219.488 485.06 219.726 484.985 219.942 484.864C220.158 484.742 220.347 484.578 220.496 484.38C220.645 484.183 220.752 483.956 220.81 483.715C220.868 483.474 220.875 483.224 220.832 482.98C220.789 482.736 220.695 482.504 220.558 482.298C220.421 482.092 220.242 481.916 220.034 481.782C219.825 481.649 219.592 481.559 219.347 481.52C219.553 481.795 220.801 483.524 218.771 483.895C218.771 483.895 209.543 482.303 206.773 489.041L206.759 489.165Z" fill="url(#paint66_linear_4_5374)"/>
<path d="M209.118 500.034C209.51 500.165 209.933 500.165 210.325 500.034C210.432 499.993 210.534 499.938 210.626 499.87C210.984 499.652 211.255 499.318 211.394 498.923C213.369 492.98 220.486 492.294 220.541 492.294C220.775 492.277 221.003 492.214 221.213 492.108C221.423 492.003 221.61 491.857 221.763 491.679C221.917 491.501 222.033 491.295 222.107 491.072C222.181 490.849 222.21 490.614 222.193 490.379C222.176 490.145 222.113 489.916 222.008 489.706C221.902 489.496 221.757 489.309 221.579 489.156C221.401 489.002 221.195 488.885 220.972 488.811C220.749 488.738 220.514 488.708 220.28 488.725C219.882 488.725 210.681 489.645 208.021 497.797C207.88 498.24 207.915 498.72 208.119 499.137C208.324 499.554 208.682 499.875 209.118 500.034Z" fill="url(#paint67_linear_4_5374)"/>
<path style="mix-blend-mode:multiply" opacity="0.3" d="M210.626 499.842C210.984 499.625 211.255 499.29 211.394 498.895C213.369 492.953 220.486 492.266 220.54 492.266C221.013 492.232 221.453 492.011 221.763 491.652C222.073 491.293 222.227 490.825 222.193 490.352C222.158 489.879 221.937 489.439 221.579 489.129C221.22 488.818 220.753 488.664 220.28 488.698C220.54 488.89 222.268 490.153 220.444 491.141C220.444 491.141 211.188 492.514 210.612 499.705L210.626 499.842Z" fill="url(#paint68_linear_4_5374)"/>
<path d="M215.74 509.051C216.155 509.047 216.558 508.913 216.892 508.667C216.988 508.599 217.071 508.515 217.139 508.42C217.42 508.11 217.584 507.712 217.605 507.294C217.825 501.05 224.462 498.374 224.462 498.36C224.693 498.285 224.907 498.165 225.09 498.005C225.274 497.845 225.423 497.65 225.529 497.431C225.634 497.212 225.694 496.973 225.705 496.73C225.717 496.487 225.678 496.244 225.593 496.017C225.507 495.789 225.376 495.581 225.208 495.405C225.04 495.229 224.838 495.09 224.614 494.994C224.391 494.899 224.15 494.85 223.907 494.851C223.664 494.851 223.423 494.901 223.2 494.998C222.844 495.149 214.314 498.58 214.013 507.171C213.998 507.648 214.17 508.112 214.493 508.464C214.816 508.815 215.264 509.026 215.74 509.051Z" fill="url(#paint69_linear_4_5374)"/>
<path style="mix-blend-mode:multiply" opacity="0.3" d="M217.139 508.488C217.42 508.178 217.585 507.781 217.606 507.363C217.825 501.119 224.462 498.442 224.462 498.429C224.693 498.354 224.907 498.233 225.091 498.073C225.274 497.914 225.423 497.718 225.529 497.499C225.634 497.28 225.695 497.042 225.706 496.799C225.717 496.556 225.678 496.313 225.593 496.085C225.507 495.857 225.377 495.649 225.209 495.474C225.04 495.298 224.838 495.158 224.615 495.063C224.391 494.968 224.15 494.919 223.907 494.919C223.664 494.92 223.424 494.97 223.2 495.066C223.516 495.19 225.518 495.917 224.051 497.372C224.051 497.372 215.535 501.256 217.043 508.351L217.139 508.488Z" fill="url(#paint70_linear_4_5374)"/>
<path d="M329.831 484.183C331.202 491.772 334.754 494.709 338.388 495.629C338.92 495.753 339.461 495.831 340.006 495.862V496.137L370.887 499.828C372.106 499.977 373.341 499.873 374.518 499.524C375.695 499.176 376.788 498.589 377.729 497.8C378.67 497.011 379.439 496.038 379.989 494.94C380.538 493.841 380.857 492.642 380.925 491.415C381.056 489.082 380.708 486.747 379.903 484.553C379.097 482.36 377.85 480.355 376.24 478.663C374.63 476.97 372.69 475.626 370.541 474.713C368.392 473.8 366.078 473.338 363.743 473.354L353.307 473.423C353.153 469.582 352.644 465.765 351.785 462.018C348.59 450.503 344.312 447.416 340.815 447.237C339.323 447.179 337.86 447.667 336.701 448.61C335.352 449.67 334.428 451.18 334.096 452.864L330.215 472.366C329.38 476.25 329.25 480.253 329.831 484.183Z" fill="url(#paint71_linear_4_5374)"/>
<path d="M329.817 484.169C331.189 491.759 334.74 494.709 338.374 495.629C338.906 495.748 339.448 495.821 339.992 495.849V496.137L370.874 499.829C372.091 499.979 373.327 499.877 374.503 499.53C375.68 499.183 376.773 498.597 377.714 497.81C378.655 497.022 379.425 496.049 379.975 494.952C380.525 493.854 380.844 492.655 380.911 491.429C381.043 489.31 380.764 487.184 380.089 485.171C379.143 482.177 377.369 479.513 374.974 477.485C371.86 474.783 367.864 473.318 363.743 473.368L353.294 473.437C353.154 470.369 352.801 467.315 352.238 464.296C351.977 462.924 351.772 462.032 351.772 462.032C348.577 450.503 344.298 447.415 340.801 447.237C339.309 447.181 337.848 447.669 336.688 448.609C335.336 449.668 334.411 451.178 334.082 452.864L330.201 472.352C329.366 476.236 329.236 480.239 329.817 484.169Z" fill="url(#paint72_linear_4_5374)"/>
<path style="mix-blend-mode:multiply" opacity="0.3" d="M329.832 484.183C331.203 491.772 334.754 494.709 338.388 495.629C338.92 495.752 339.461 495.831 340.006 495.862V496.137L370.888 499.828C372.106 499.977 373.342 499.873 374.519 499.524C375.695 499.175 376.788 498.589 377.729 497.8C378.67 497.011 379.439 496.038 379.989 494.94C380.539 493.841 380.858 492.642 380.926 491.415C381.079 488.79 380.622 486.165 379.592 483.746C378.562 481.327 376.986 479.179 374.988 477.472L374.782 477.554C379.993 488.3 375.358 491.992 371.464 493.241C369.543 493.818 367.511 493.926 365.54 493.556L340.747 489.274C327.473 484.567 337.182 449.282 337.182 449.282L336.647 448.596C335.298 449.656 334.374 451.166 334.041 452.85L330.161 472.352C329.342 476.244 329.231 480.252 329.832 484.183Z" fill="url(#paint73_linear_4_5374)"/>
<path d="M393.885 486.173C393.583 486.455 393.198 486.633 392.788 486.681C392.674 486.701 392.558 486.701 392.445 486.681C392.026 486.649 391.632 486.469 391.334 486.173C386.973 481.699 380.281 484.197 380.213 484.224C379.771 484.406 379.275 484.405 378.834 484.221C378.393 484.037 378.043 483.685 377.861 483.243C377.679 482.801 377.68 482.304 377.864 481.863C378.048 481.421 378.4 481.071 378.842 480.889C379.212 480.752 387.837 477.541 393.83 483.634C394.001 483.796 394.139 483.991 394.235 484.207C394.33 484.423 394.382 484.656 394.387 484.892C394.393 485.128 394.351 485.363 394.264 485.583C394.178 485.803 394.049 486.003 393.885 486.173Z" fill="url(#paint74_linear_4_5374)"/>
<path style="mix-blend-mode:multiply" opacity="0.3" d="M392.445 486.653C392.026 486.621 391.632 486.441 391.334 486.145C386.973 481.671 380.281 484.169 380.213 484.197C379.994 484.287 379.76 484.333 379.523 484.332C379.287 484.332 379.052 484.284 378.834 484.193C378.616 484.102 378.417 483.969 378.25 483.801C378.083 483.633 377.951 483.434 377.861 483.215C377.771 482.996 377.725 482.762 377.726 482.525C377.726 482.288 377.773 482.054 377.864 481.835C377.955 481.617 378.089 481.418 378.256 481.251C378.424 481.084 378.623 480.952 378.842 480.862C378.691 481.164 377.703 483.044 379.76 483.126C379.76 483.126 388.66 480.258 392.349 486.53L392.445 486.653Z" fill="url(#paint75_linear_4_5374)"/>
<path d="M391.636 497.756C391.258 497.929 390.836 497.978 390.429 497.893C390.318 497.87 390.211 497.829 390.114 497.77C389.722 497.607 389.401 497.311 389.209 496.933C386.466 491.347 379.294 491.663 379.226 491.676C378.983 491.706 378.736 491.687 378.501 491.618C378.266 491.549 378.048 491.433 377.859 491.277C377.671 491.121 377.516 490.928 377.405 490.71C377.293 490.492 377.228 490.253 377.212 490.009C377.196 489.764 377.23 489.519 377.312 489.289C377.394 489.058 377.523 488.846 377.689 488.667C377.856 488.488 378.058 488.345 378.282 488.246C378.506 488.147 378.748 488.096 378.992 488.094C379.376 488.094 388.591 487.655 392.404 495.354C392.612 495.776 392.649 496.263 392.506 496.711C392.362 497.159 392.05 497.534 391.636 497.756Z" fill="url(#paint76_linear_4_5374)"/>
<path style="mix-blend-mode:multiply" opacity="0.3" d="M390.114 497.77C389.722 497.607 389.401 497.311 389.209 496.933C386.466 491.347 379.294 491.663 379.226 491.676C378.983 491.706 378.736 491.687 378.501 491.618C378.266 491.549 378.048 491.434 377.859 491.277C377.671 491.121 377.516 490.928 377.405 490.71C377.293 490.492 377.228 490.253 377.212 490.009C377.196 489.765 377.23 489.519 377.312 489.289C377.394 489.058 377.523 488.846 377.689 488.667C377.856 488.488 378.058 488.345 378.282 488.246C378.506 488.148 378.748 488.096 378.992 488.094C378.759 488.328 377.237 489.824 379.171 490.537C379.171 490.537 388.523 490.537 390.141 497.646L390.114 497.77Z" fill="url(#paint77_linear_4_5374)"/>
<path d="M386.343 507.61C385.932 507.666 385.514 507.589 385.15 507.391C385.045 507.342 384.952 507.272 384.876 507.185C384.555 506.918 384.333 506.55 384.245 506.142C383.162 499.98 376.223 498.264 376.168 498.264C375.703 498.16 375.297 497.876 375.041 497.473C374.786 497.07 374.7 496.582 374.804 496.116C374.907 495.65 375.192 495.245 375.594 494.989C375.997 494.732 376.484 494.647 376.95 494.751C377.334 494.847 386.261 497.042 387.756 505.51C387.844 505.976 387.746 506.458 387.481 506.851C387.217 507.244 386.808 507.517 386.343 507.61Z" fill="url(#paint78_linear_4_5374)"/>
<path style="mix-blend-mode:multiply" opacity="0.3" d="M384.876 507.185C384.555 506.918 384.333 506.55 384.245 506.142C383.162 499.98 376.223 498.264 376.168 498.264C375.703 498.16 375.297 497.876 375.041 497.473C374.786 497.07 374.7 496.582 374.804 496.116C374.907 495.65 375.192 495.245 375.594 494.989C375.997 494.732 376.484 494.647 376.95 494.751C376.648 494.915 374.769 495.917 376.429 497.152C376.429 497.152 385.397 499.801 384.917 507.061L384.876 507.185Z" fill="url(#paint79_linear_4_5374)"/>
<g style="mix-blend-mode:multiply">
<path style="mix-blend-mode:multiply" d="M272.471 341.313C272.874 341.586 273.358 341.712 273.843 341.67C273.979 341.669 274.114 341.641 274.24 341.587C274.706 341.474 275.115 341.196 275.392 340.805C279.506 334.972 287.487 336.564 287.555 336.592C287.826 336.674 288.111 336.699 288.393 336.666C288.674 336.633 288.945 336.542 289.19 336.399C289.434 336.256 289.647 336.064 289.814 335.835C289.981 335.606 290.099 335.346 290.16 335.069C290.222 334.792 290.226 334.506 290.171 334.228C290.117 333.949 290.006 333.685 289.845 333.452C289.684 333.219 289.477 333.021 289.237 332.872C288.996 332.723 288.727 332.625 288.447 332.584C288.008 332.502 277.71 330.457 272.06 338.472C271.745 338.906 271.612 339.445 271.689 339.976C271.766 340.506 272.047 340.986 272.471 341.313Z" fill="url(#paint80_linear_4_5374)"/>
<path style="mix-blend-mode:multiply" opacity="0.3" d="M274.186 341.587C274.651 341.474 275.06 341.196 275.337 340.805C279.451 334.972 287.432 336.564 287.501 336.592C287.772 336.674 288.057 336.699 288.338 336.666C288.619 336.633 288.891 336.542 289.135 336.399C289.38 336.256 289.592 336.064 289.759 335.835C289.926 335.606 290.044 335.345 290.105 335.069C290.167 334.792 290.171 334.506 290.117 334.228C290.062 333.949 289.951 333.685 289.791 333.452C289.63 333.219 289.423 333.021 289.182 332.872C288.941 332.723 288.672 332.625 288.392 332.584C288.612 332.9 290.079 334.849 287.775 335.329C287.775 335.329 277.216 333.723 274.199 341.464L274.186 341.587Z" fill="url(#paint81_linear_4_5374)"/>
</g>
<g style="mix-blend-mode:multiply">
<path style="mix-blend-mode:multiply" d="M291.092 338.54C290.887 338.76 290.64 338.98 290.434 339.185C289.913 339.693 289.364 340.187 288.857 340.64C288.103 341.354 287.39 342.013 286.869 342.424C285.13 342.866 283.524 343.721 282.185 344.915C280.846 346.109 279.814 347.609 279.176 349.287C279.011 349.735 278.702 350.116 278.298 350.371C278.184 350.443 278.065 350.507 277.942 350.563C277.495 350.698 277.018 350.698 276.57 350.563C276.314 350.475 276.078 350.337 275.876 350.158C275.673 349.978 275.508 349.761 275.389 349.517C275.271 349.274 275.201 349.009 275.185 348.739C275.169 348.468 275.206 348.197 275.295 347.942C278.408 338.65 288.871 337.676 289.323 337.635C289.671 337.62 290.017 337.696 290.327 337.854C290.637 338.013 290.901 338.249 291.092 338.54Z" fill="url(#paint82_linear_4_5374)"/>
<path style="mix-blend-mode:multiply" opacity="0.3" d="M288.857 340.64C288.103 341.354 287.39 342.013 286.868 342.424C285.13 342.866 283.524 343.721 282.185 344.915C280.846 346.109 279.813 347.609 279.175 349.286C279.01 349.735 278.702 350.116 278.298 350.371V350.206C278.846 343.248 286.512 341.134 288.857 340.64Z" fill="url(#paint83_linear_4_5374)"/>
<path style="mix-blend-mode:multiply" opacity="0.3" d="M291.092 338.54C290.886 338.76 290.64 338.98 290.434 339.185C290.338 338.499 289.529 337.909 289.337 337.813C289.667 337.78 289.999 337.83 290.306 337.957C290.612 338.084 290.882 338.284 291.092 338.54Z" fill="url(#paint84_linear_4_5374)"/>
</g>
<path d="M331.587 336.097L331.477 336.77C330.586 339.83 326.938 336.976 324.223 339.213C318.56 343.948 315.461 352.937 311.306 358.839C303.284 370.175 287.802 377.764 274.953 369.749C266.539 364.729 259.478 357.728 254.383 349.355C251.257 344.058 246.334 335.247 250.037 329.112C250.037 329.112 248.172 339.872 267.754 356.368C275.021 362.476 285.347 367.416 295.001 364.809C304.97 362.064 309.07 352.1 314.514 344.346C314.446 344.346 326.033 327.849 331.587 336.097Z" fill="url(#paint85_linear_4_5374)"/>
</g>
<defs>
<filter id="filter0_f_4_5374" x="183.225" y="465.187" width="270.643" height="54.1943" filterUnits="userSpaceOnUse" color-interpolation-filters="sRGB">
<feFlood flood-opacity="0" result="BackgroundImageFix"/>
<feBlend mode="normal" in="SourceGraphic" in2="BackgroundImageFix" result="shape"/>
<feGaussianBlur stdDeviation="10.5" result="effect1_foregroundBlur_4_5374"/>
</filter>
<linearGradient id="paint0_linear_4_5374" x1="267.5" y1="84" x2="267.5" y2="552" gradientUnits="userSpaceOnUse">
<stop stop-color="#ADD5E0"/>
<stop offset="1" stop-color="#4893AA"/>
</linearGradient>
<linearGradient id="paint1_linear_4_5374" x1="469.364" y1="288.133" x2="469.364" y2="349.449" gradientUnits="userSpaceOnUse">
<stop stop-color="#ADD5E0"/>
<stop offset="1" stop-color="#4893AA"/>
</linearGradient>
<linearGradient id="paint2_linear_4_5374" x1="450.489" y1="291.357" x2="450.489" y2="348.867" gradientUnits="userSpaceOnUse">
<stop stop-color="#ADD5E0"/>
<stop offset="1" stop-color="#4893AA"/>
</linearGradient>
<linearGradient id="paint3_linear_4_5374" x1="433.944" y1="294.18" x2="433.944" y2="348.356" gradientUnits="userSpaceOnUse">
<stop stop-color="#ADD5E0"/>
<stop offset="1" stop-color="#4893AA"/>
</linearGradient>
<linearGradient id="paint4_linear_4_5374" x1="419.021" y1="296.72" x2="419.021" y2="347.899" gradientUnits="userSpaceOnUse">
<stop stop-color="#ADD5E0"/>
<stop offset="1" stop-color="#4893AA"/>
</linearGradient>
<linearGradient id="paint5_linear_4_5374" x1="405.632" y1="298.993" x2="405.632" y2="347.491" gradientUnits="userSpaceOnUse">
<stop stop-color="#ADD5E0"/>
<stop offset="1" stop-color="#4893AA"/>
</linearGradient>
<linearGradient id="paint6_linear_4_5374" x1="393.546" y1="301.038" x2="393.546" y2="347.121" gradientUnits="userSpaceOnUse">
<stop stop-color="#ADD5E0"/>
<stop offset="1" stop-color="#4893AA"/>
</linearGradient>
<linearGradient id="paint7_linear_4_5374" x1="382.593" y1="302.894" x2="382.593" y2="346.791" gradientUnits="userSpaceOnUse">
<stop stop-color="#ADD5E0"/>
<stop offset="1" stop-color="#4893AA"/>
</linearGradient>
<linearGradient id="paint8_linear_4_5374" x1="469.364" y1="280.764" x2="469.364" y2="287.488" gradientUnits="userSpaceOnUse">
<stop stop-color="#ADD5E0"/>
<stop offset="1" stop-color="#4893AA"/>
</linearGradient>
<linearGradient id="paint9_linear_4_5374" x1="488.88" y1="291.271" x2="488.88" y2="295.187" gradientUnits="userSpaceOnUse">
<stop stop-color="#ADD5E0"/>
<stop offset="1" stop-color="#4893AA"/>
</linearGradient>
<linearGradient id="paint10_linear_4_5374" x1="488.88" y1="302.846" x2="488.88" y2="306.385" gradientUnits="userSpaceOnUse">
<stop stop-color="#ADD5E0"/>
<stop offset="1" stop-color="#4893AA"/>
</linearGradient>
<linearGradient id="paint11_linear_4_5374" x1="488.88" y1="314.422" x2="488.88" y2="317.591" gradientUnits="userSpaceOnUse">
<stop stop-color="#ADD5E0"/>
<stop offset="1" stop-color="#4893AA"/>
</linearGradient>
<linearGradient id="paint12_linear_4_5374" x1="488.88" y1="325.998" x2="488.88" y2="328.79" gradientUnits="userSpaceOnUse">
<stop stop-color="#ADD5E0"/>
<stop offset="1" stop-color="#4893AA"/>
</linearGradient>
<linearGradient id="paint13_linear_4_5374" x1="488.88" y1="337.574" x2="488.88" y2="339.988" gradientUnits="userSpaceOnUse">
<stop stop-color="#ADD5E0"/>
<stop offset="1" stop-color="#4893AA"/>
</linearGradient>
<linearGradient id="paint14_linear_4_5374" x1="488.88" y1="348.859" x2="488.88" y2="351.564" gradientUnits="userSpaceOnUse">
<stop stop-color="#ADD5E0"/>
<stop offset="1" stop-color="#4893AA"/>
</linearGradient>
<linearGradient id="paint15_linear_4_5374" x1="450.489" y1="284.452" x2="450.489" y2="290.602" gradientUnits="userSpaceOnUse">
<stop stop-color="#ADD5E0"/>
<stop offset="1" stop-color="#4893AA"/>
</linearGradient>
<linearGradient id="paint16_linear_4_5374" x1="433.944" y1="287.677" x2="433.944" y2="293.339" gradientUnits="userSpaceOnUse">
<stop stop-color="#ADD5E0"/>
<stop offset="1" stop-color="#4893AA"/>
</linearGradient>
<linearGradient id="paint17_linear_4_5374" x1="419.021" y1="290.57" x2="419.021" y2="295.808" gradientUnits="userSpaceOnUse">
<stop stop-color="#ADD5E0"/>
<stop offset="1" stop-color="#4893AA"/>
</linearGradient>
<linearGradient id="paint18_linear_4_5374" x1="405.632" y1="293.166" x2="405.632" y2="298.033" gradientUnits="userSpaceOnUse">
<stop stop-color="#ADD5E0"/>
<stop offset="1" stop-color="#4893AA"/>
</linearGradient>
<linearGradient id="paint19_linear_4_5374" x1="393.546" y1="295.501" x2="393.546" y2="300.047" gradientUnits="userSpaceOnUse">
<stop stop-color="#ADD5E0"/>
<stop offset="1" stop-color="#4893AA"/>
</linearGradient>
<linearGradient id="paint20_linear_4_5374" x1="382.593" y1="297.617" x2="382.593" y2="301.879" gradientUnits="userSpaceOnUse">
<stop stop-color="#ADD5E0"/>
<stop offset="1" stop-color="#4893AA"/>
</linearGradient>
<linearGradient id="paint21_linear_4_5374" x1="338.425" y1="246.407" x2="338.425" y2="303" gradientUnits="userSpaceOnUse">
<stop stop-color="#ADD5E0"/>
<stop offset="1" stop-color="#4893AA"/>
</linearGradient>
<linearGradient id="paint22_linear_4_5374" x1="615" y1="333" x2="615" y2="365" gradientUnits="userSpaceOnUse">
<stop stop-color="#ADD5E0"/>
<stop offset="1" stop-color="#4893AA"/>
</linearGradient>
<linearGradient id="paint23_linear_4_5374" x1="521" y1="34" x2="521" y2="66" gradientUnits="userSpaceOnUse">
<stop stop-color="#ADD5E0"/>
<stop offset="1" stop-color="#4893AA"/>
</linearGradient>
<linearGradient id="paint24_linear_4_5374" x1="562.5" y1="0" x2="562.5" y2="15" gradientUnits="userSpaceOnUse">
<stop stop-color="#ADD5E0"/>
<stop offset="1" stop-color="#4893AA"/>
</linearGradient>
<linearGradient id="paint25_linear_4_5374" x1="568.5" y1="273" x2="568.5" y2="288" gradientUnits="userSpaceOnUse">
<stop stop-color="#ADD5E0"/>
<stop offset="1" stop-color="#4893AA"/>
</linearGradient>
<linearGradient id="paint26_linear_4_5374" x1="492.5" y1="460" x2="492.5" y2="475" gradientUnits="userSpaceOnUse">
<stop stop-color="#ADD5E0"/>
<stop offset="1" stop-color="#4893AA"/>
</linearGradient>
<linearGradient id="paint27_linear_4_5374" x1="430.215" y1="21.2145" x2="430.215" y2="103.215" gradientUnits="userSpaceOnUse">
<stop stop-color="#ADD5E0"/>
<stop offset="1" stop-color="#4893AA"/>
</linearGradient>
<linearGradient id="paint28_linear_4_5374" x1="571.007" y1="129.007" x2="571.007" y2="211.007" gradientUnits="userSpaceOnUse">
<stop stop-color="#ADD5E0"/>
<stop offset="1" stop-color="#4893AA"/>
</linearGradient>
<linearGradient id="paint29_linear_4_5374" x1="574.252" y1="425.252" x2="574.252" y2="507.252" gradientUnits="userSpaceOnUse">
<stop stop-color="#ADD5E0"/>
<stop offset="1" stop-color="#4893AA"/>
</linearGradient>
<linearGradient id="paint30_linear_4_5374" x1="332.15" y1="339.268" x2="461.475" y2="339.268" gradientUnits="userSpaceOnUse">
<stop stop-color="#1A94AC"/>
<stop offset="0.26" stop-color="#4AABBF"/>
<stop offset="0.69" stop-color="#A0D5E1"/>
</linearGradient>
<linearGradient id="paint31_linear_4_5374" x1="10771.8" y1="32495.2" x2="13010" y2="32495.2" gradientUnits="userSpaceOnUse">
<stop stop-color="#1A94AC"/>
<stop offset="0.26" stop-color="#4AABBF"/>
<stop offset="0.69" stop-color="#A0D5E1"/>
</linearGradient>
<linearGradient id="paint32_linear_4_5374" x1="20690.8" y1="43133.9" x2="29440.7" y2="43133.9" gradientUnits="userSpaceOnUse">
<stop stop-color="#1A94AC"/>
<stop offset="0.26" stop-color="#4AABBF"/>
<stop offset="0.69" stop-color="#A0D5E1"/>
</linearGradient>
<linearGradient id="paint33_linear_4_5374" x1="22619.5" y1="43645.9" x2="34815.8" y2="43645.9" gradientUnits="userSpaceOnUse">
<stop stop-color="#1A94AC"/>
<stop offset="0.26" stop-color="#4AABBF"/>
<stop offset="0.69" stop-color="#A0D5E1"/>
</linearGradient>
<linearGradient id="paint34_linear_4_5374" x1="-383175" y1="1.18626e+06" x2="-382557" y2="1.19312e+06" gradientUnits="userSpaceOnUse">
<stop stop-color="#1A94AC"/>
<stop offset="0.26" stop-color="#4AABBF"/>
<stop offset="0.69" stop-color="#A0D5E1"/>
</linearGradient>
<linearGradient id="paint35_linear_4_5374" x1="-376732" y1="1.18568e+06" x2="-376125" y2="1.19241e+06" gradientUnits="userSpaceOnUse">
<stop stop-color="#1A94AC"/>
<stop offset="0.26" stop-color="#4AABBF"/>
<stop offset="0.69" stop-color="#A0D5E1"/>
</linearGradient>
<linearGradient id="paint36_linear_4_5374" x1="-707729" y1="1.58125e+06" x2="-709918" y2="1.58826e+06" gradientUnits="userSpaceOnUse">
<stop stop-color="#1A94AC"/>
<stop offset="0.26" stop-color="#4AABBF"/>
<stop offset="0.69" stop-color="#A0D5E1"/>
</linearGradient>
<linearGradient id="paint37_linear_4_5374" x1="-700014" y1="1.58366e+06" x2="-702163" y2="1.59054e+06" gradientUnits="userSpaceOnUse">
<stop stop-color="#1A94AC"/>
<stop offset="0.26" stop-color="#4AABBF"/>
<stop offset="0.69" stop-color="#A0D5E1"/>
</linearGradient>
<linearGradient id="paint38_linear_4_5374" x1="-581335" y1="-1.52103e+06" x2="-582875" y2="-1.52821e+06" gradientUnits="userSpaceOnUse">
<stop stop-color="#1A94AC"/>
<stop offset="0.26" stop-color="#4AABBF"/>
<stop offset="0.69" stop-color="#A0D5E1"/>
</linearGradient>
<linearGradient id="paint39_linear_4_5374" x1="-571669" y1="-1.5231e+06" x2="-573181" y2="-1.53016e+06" gradientUnits="userSpaceOnUse">
<stop stop-color="#1A94AC"/>
<stop offset="0.26" stop-color="#4AABBF"/>
<stop offset="0.69" stop-color="#A0D5E1"/>
</linearGradient>
<linearGradient id="paint40_linear_4_5374" x1="3562.88" y1="10927" x2="5975.25" y2="10927" gradientUnits="userSpaceOnUse">
<stop stop-color="#1A94AC"/>
<stop offset="0.26" stop-color="#4AABBF"/>
<stop offset="0.69" stop-color="#A0D5E1"/>
</linearGradient>
<linearGradient id="paint41_linear_4_5374" x1="3501.53" y1="10927" x2="5827.26" y2="10927" gradientUnits="userSpaceOnUse">
<stop stop-color="#1A94AC"/>
<stop offset="0.26" stop-color="#4AABBF"/>
<stop offset="0.69" stop-color="#A0D5E1"/>
</linearGradient>
<linearGradient id="paint42_linear_4_5374" x1="-107632" y1="-492034" x2="-102949" y2="-495744" gradientUnits="userSpaceOnUse">
<stop stop-color="#1A94AC"/>
<stop offset="0.26" stop-color="#4AABBF"/>
<stop offset="0.69" stop-color="#A0D5E1"/>
</linearGradient>
<linearGradient id="paint43_linear_4_5374" x1="-107632" y1="-492034" x2="-103034" y2="-495676" gradientUnits="userSpaceOnUse">
<stop stop-color="#1A94AC"/>
<stop offset="0.26" stop-color="#4AABBF"/>
<stop offset="0.69" stop-color="#A0D5E1"/>
</linearGradient>
<linearGradient id="paint44_linear_4_5374" x1="-303891" y1="605832" x2="-301860" y2="607156" gradientUnits="userSpaceOnUse">
<stop stop-color="#1A94AC"/>
<stop offset="0.26" stop-color="#4AABBF"/>
<stop offset="0.69" stop-color="#A0D5E1"/>
</linearGradient>
<linearGradient id="paint45_linear_4_5374" x1="-303950" y1="605793" x2="-301957" y2="607092" gradientUnits="userSpaceOnUse">
<stop stop-color="#1A94AC"/>
<stop offset="0.26" stop-color="#4AABBF"/>
<stop offset="0.69" stop-color="#A0D5E1"/>
</linearGradient>
<linearGradient id="paint46_linear_4_5374" x1="22674.7" y1="82408" x2="24030.3" y2="40334.4" gradientUnits="userSpaceOnUse">
<stop stop-color="#1A94AC"/>
<stop offset="0.26" stop-color="#4AABBF"/>
<stop offset="0.69" stop-color="#A0D5E1"/>
</linearGradient>
<radialGradient id="paint47_radial_4_5374" cx="0" cy="0" r="1" gradientUnits="userSpaceOnUse" gradientTransform="translate(309.496 379.892) scale(66.6582 66.7139)">
<stop stop-color="#89D5E0"/>
<stop offset="0.78" stop-color="#80D0DD" stop-opacity="0"/>
<stop offset="0.81" stop-color="#AFC000" stop-opacity="0"/>
</radialGradient>
<linearGradient id="paint48_linear_4_5374" x1="264.956" y1="251.652" x2="327.317" y2="296.755" gradientUnits="userSpaceOnUse">
<stop stop-color="#7B2E9E"/>
<stop offset="1" stop-color="#FF5BBA"/>
</linearGradient>
<linearGradient id="paint49_linear_4_5374" x1="22225.4" y1="30110" x2="24306" y2="89142.4" gradientUnits="userSpaceOnUse">
<stop stop-color="#1A94AC"/>
<stop offset="0.26" stop-color="#4AABBF"/>
<stop offset="0.69" stop-color="#A0D5E1"/>
</linearGradient>
<linearGradient id="paint50_linear_4_5374" x1="25960.3" y1="21635" x2="18542.6" y2="16863.7" gradientUnits="userSpaceOnUse">
<stop stop-color="#1A94AC"/>
<stop offset="0.26" stop-color="#4AABBF"/>
<stop offset="0.69" stop-color="#A0D5E1"/>
</linearGradient>
<linearGradient id="paint51_linear_4_5374" x1="301.076" y1="220.964" x2="246.442" y2="196.048" gradientUnits="userSpaceOnUse">
<stop stop-color="#001AD5"/>
<stop offset="1" stop-color="#001AD5" stop-opacity="0"/>
</linearGradient>
<linearGradient id="paint52_linear_4_5374" x1="8022.79" y1="7441.73" x2="9540.88" y2="7441.73" gradientUnits="userSpaceOnUse">
<stop stop-color="#001AD5"/>
<stop offset="1" stop-color="#001AD5" stop-opacity="0"/>
</linearGradient>
<radialGradient id="paint53_radial_4_5374" cx="0" cy="0" r="1" gradientUnits="userSpaceOnUse" gradientTransform="translate(310.757 251.654) rotate(20.3156) scale(39.209 21.1863)">
<stop stop-color="white" stop-opacity="0.7"/>
<stop offset="0.81" stop-color="#FF94D1" stop-opacity="0"/>
</radialGradient>
<linearGradient id="paint54_linear_4_5374" x1="12508.1" y1="6601.53" x2="22509.1" y2="6601.53" gradientUnits="userSpaceOnUse">
<stop stop-color="#1A94AC"/>
<stop offset="0.26" stop-color="#4AABBF"/>
<stop offset="0.69" stop-color="#A0D5E1"/>
</linearGradient>
<linearGradient id="paint55_linear_4_5374" x1="548.219" y1="438.976" x2="549.405" y2="438.976" gradientUnits="userSpaceOnUse">
<stop stop-color="#1A94AC"/>
<stop offset="0.26" stop-color="#4AABBF"/>
<stop offset="0.69" stop-color="#A0D5E1"/>
</linearGradient>
<linearGradient id="paint56_linear_4_5374" x1="8548.02" y1="11849.8" x2="10879.4" y2="11849.8" gradientUnits="userSpaceOnUse">
<stop stop-color="#1A94AC"/>
<stop offset="0.26" stop-color="#4AABBF"/>
<stop offset="0.69" stop-color="#A0D5E1"/>
</linearGradient>
<linearGradient id="paint57_linear_4_5374" x1="9096.29" y1="12349.3" x2="10808.4" y2="11483.9" gradientUnits="userSpaceOnUse">
<stop stop-color="#1A94AC"/>
<stop offset="0.26" stop-color="#4AABBF"/>
<stop offset="0.69" stop-color="#A0D5E1"/>
</linearGradient>
<linearGradient id="paint58_linear_4_5374" x1="4477.59" y1="5883.91" x2="4609.08" y2="6217.04" gradientUnits="userSpaceOnUse">
<stop stop-color="#1A94AC"/>
<stop offset="0.26" stop-color="#4AABBF"/>
<stop offset="0.69" stop-color="#A0D5E1"/>
</linearGradient>
<linearGradient id="paint59_linear_4_5374" x1="12925.8" y1="10530.1" x2="11834.3" y2="12834.5" gradientUnits="userSpaceOnUse">
<stop stop-color="#1A94AC"/>
<stop offset="0.26" stop-color="#4AABBF"/>
<stop offset="0.69" stop-color="#A0D5E1"/>
</linearGradient>
<linearGradient id="paint60_linear_4_5374" x1="-31357.4" y1="-5624.43" x2="-31609.4" y2="-5689.31" gradientUnits="userSpaceOnUse">
<stop stop-color="#1A94AC"/>
<stop offset="0.26" stop-color="#4AABBF"/>
<stop offset="0.69" stop-color="#A0D5E1"/>
</linearGradient>
<linearGradient id="paint61_linear_4_5374" x1="-27746.3" y1="-5402.04" x2="-27947.6" y2="-5425.61" gradientUnits="userSpaceOnUse">
<stop stop-color="#1A94AC"/>
<stop offset="0.26" stop-color="#4AABBF"/>
<stop offset="0.69" stop-color="#A0D5E1"/>
</linearGradient>
<linearGradient id="paint62_linear_4_5374" x1="4679.32" y1="18441" x2="6496.31" y2="18441" gradientUnits="userSpaceOnUse">
<stop stop-color="#1A94AC"/>
<stop offset="0.26" stop-color="#4AABBF"/>
<stop offset="0.69" stop-color="#A0D5E1"/>
</linearGradient>
<linearGradient id="paint63_linear_4_5374" x1="4673.46" y1="18434.6" x2="6488.54" y2="18434.6" gradientUnits="userSpaceOnUse">
<stop stop-color="#1A94AC"/>
<stop offset="0.26" stop-color="#4AABBF"/>
<stop offset="0.69" stop-color="#A0D5E1"/>
</linearGradient>
<linearGradient id="paint64_linear_4_5374" x1="4679.94" y1="18200.9" x2="6497.19" y2="18200.9" gradientUnits="userSpaceOnUse">
<stop stop-color="#1A94AC"/>
<stop offset="0.26" stop-color="#4AABBF"/>
<stop offset="0.69" stop-color="#A0D5E1"/>
</linearGradient>
<linearGradient id="paint65_linear_4_5374" x1="-26873.1" y1="3862.23" x2="-27066" y2="3862.23" gradientUnits="userSpaceOnUse">
<stop stop-color="#1A94AC"/>
<stop offset="0.26" stop-color="#4AABBF"/>
<stop offset="0.69" stop-color="#A0D5E1"/>
</linearGradient>
<linearGradient id="paint66_linear_4_5374" x1="-22892" y1="3692.03" x2="-23035.9" y2="3692.03" gradientUnits="userSpaceOnUse">
<stop stop-color="#1A94AC"/>
<stop offset="0.26" stop-color="#4AABBF"/>
<stop offset="0.69" stop-color="#A0D5E1"/>
</linearGradient>
<linearGradient id="paint67_linear_4_5374" x1="-20462.7" y1="12194.3" x2="-20623" y2="12246.6" gradientUnits="userSpaceOnUse">
<stop stop-color="#1A94AC"/>
<stop offset="0.26" stop-color="#4AABBF"/>
<stop offset="0.69" stop-color="#A0D5E1"/>
</linearGradient>
<linearGradient id="paint68_linear_4_5374" x1="-15922.8" y1="10595.9" x2="-16035.2" y2="10632.6" gradientUnits="userSpaceOnUse">
<stop stop-color="#1A94AC"/>
<stop offset="0.26" stop-color="#4AABBF"/>
<stop offset="0.69" stop-color="#A0D5E1"/>
</linearGradient>
<linearGradient id="paint69_linear_4_5374" x1="-11728.5" y1="15788.4" x2="-11842.1" y2="15867.2" gradientUnits="userSpaceOnUse">
<stop stop-color="#1A94AC"/>
<stop offset="0.26" stop-color="#4AABBF"/>
<stop offset="0.69" stop-color="#A0D5E1"/>
</linearGradient>
<linearGradient id="paint70_linear_4_5374" x1="-7697.87" y1="12671" x2="-7771.95" y2="12722.5" gradientUnits="userSpaceOnUse">
<stop stop-color="#1A94AC"/>
<stop offset="0.26" stop-color="#4AABBF"/>
<stop offset="0.69" stop-color="#A0D5E1"/>
</linearGradient>
<linearGradient id="paint71_linear_4_5374" x1="-16484.9" y1="19044.6" x2="-18339.5" y2="19306.7" gradientUnits="userSpaceOnUse">
<stop stop-color="#1A94AC"/>
<stop offset="0.26" stop-color="#4AABBF"/>
<stop offset="0.69" stop-color="#A0D5E1"/>
</linearGradient>
<linearGradient id="paint72_linear_4_5374" x1="9093.27" y1="17274.8" x2="11026.4" y2="17274.8" gradientUnits="userSpaceOnUse">
<stop stop-color="#1A94AC"/>
<stop offset="0.26" stop-color="#4AABBF"/>
<stop offset="0.69" stop-color="#A0D5E1"/>
</linearGradient>
<linearGradient id="paint73_linear_4_5374" x1="-16550.3" y1="18652.1" x2="-18405.8" y2="18914.3" gradientUnits="userSpaceOnUse">
<stop stop-color="#1A94AC"/>
<stop offset="0.26" stop-color="#4AABBF"/>
<stop offset="0.69" stop-color="#A0D5E1"/>
</linearGradient>
<linearGradient id="paint74_linear_4_5374" x1="23972.1" y1="-70.8923" x2="24167.1" y2="-98.4436" gradientUnits="userSpaceOnUse">
<stop stop-color="#1A94AC"/>
<stop offset="0.26" stop-color="#4AABBF"/>
<stop offset="0.69" stop-color="#A0D5E1"/>
</linearGradient>
<linearGradient id="paint75_linear_4_5374" x1="20999.8" y1="-74.6332" x2="21148.4" y2="-95.6356" gradientUnits="userSpaceOnUse">
<stop stop-color="#1A94AC"/>
<stop offset="0.26" stop-color="#4AABBF"/>
<stop offset="0.69" stop-color="#A0D5E1"/>
</linearGradient>
<linearGradient id="paint76_linear_4_5374" x1="20789.1" y1="8883.79" x2="20968.1" y2="8915.41" gradientUnits="userSpaceOnUse">
<stop stop-color="#1A94AC"/>
<stop offset="0.26" stop-color="#4AABBF"/>
<stop offset="0.69" stop-color="#A0D5E1"/>
</linearGradient>
<linearGradient id="paint77_linear_4_5374" x1="17138.8" y1="8153.38" x2="17268.8" y2="8176.34" gradientUnits="userSpaceOnUse">
<stop stop-color="#1A94AC"/>
<stop offset="0.26" stop-color="#4AABBF"/>
<stop offset="0.69" stop-color="#A0D5E1"/>
</linearGradient>
<linearGradient id="paint78_linear_4_5374" x1="13567.6" y1="14876.5" x2="13705.5" y2="14945.1" gradientUnits="userSpaceOnUse">
<stop stop-color="#1A94AC"/>
<stop offset="0.26" stop-color="#4AABBF"/>
<stop offset="0.69" stop-color="#A0D5E1"/>
</linearGradient>
<linearGradient id="paint79_linear_4_5374" x1="9750.23" y1="12695.9" x2="9843.16" y2="12742.2" gradientUnits="userSpaceOnUse">
<stop stop-color="#1A94AC"/>
<stop offset="0.26" stop-color="#4AABBF"/>
<stop offset="0.69" stop-color="#A0D5E1"/>
</linearGradient>
<linearGradient id="paint80_linear_4_5374" x1="-30299.3" y1="3706.74" x2="-30549.4" y2="3711.74" gradientUnits="userSpaceOnUse">
<stop stop-color="#1A94AC"/>
<stop offset="0.26" stop-color="#4AABBF"/>
<stop offset="0.69" stop-color="#A0D5E1"/>
</linearGradient>
<linearGradient id="paint81_linear_4_5374" x1="-25739" y1="3496.72" x2="-25926.9" y2="3512.9" gradientUnits="userSpaceOnUse">
<stop stop-color="#1A94AC"/>
<stop offset="0.26" stop-color="#4AABBF"/>
<stop offset="0.69" stop-color="#A0D5E1"/>
</linearGradient>
<linearGradient id="paint82_linear_4_5374" x1="2353.91" y1="3273.74" x2="2538.79" y2="3273.74" gradientUnits="userSpaceOnUse">
<stop stop-color="#1A94AC"/>
<stop offset="0.26" stop-color="#4AABBF"/>
<stop offset="0.69" stop-color="#A0D5E1"/>
</linearGradient>
<linearGradient id="paint83_linear_4_5374" x1="1683.17" y1="2541" x2="1761.81" y2="2544.1" gradientUnits="userSpaceOnUse">
<stop stop-color="#1A94AC"/>
<stop offset="0.26" stop-color="#4AABBF"/>
<stop offset="0.69" stop-color="#A0D5E1"/>
</linearGradient>
<linearGradient id="paint84_linear_4_5374" x1="536.774" y1="643.388" x2="539.054" y2="643.499" gradientUnits="userSpaceOnUse">
<stop stop-color="#1A94AC"/>
<stop offset="0.26" stop-color="#4AABBF"/>
<stop offset="0.69" stop-color="#A0D5E1"/>
</linearGradient>
<linearGradient id="paint85_linear_4_5374" x1="13528.3" y1="9374.93" x2="11672.8" y2="12117.8" gradientUnits="userSpaceOnUse">
<stop stop-color="#1A94AC"/>
<stop offset="0.26" stop-color="#4AABBF"/>
<stop offset="0.69" stop-color="#A0D5E1"/>
</linearGradient>
<clipPath id="clip0_4_5374">
<rect width="520" height="235" fill="white" transform="translate(0 197)"/>
</clipPath>
<clipPath id="clip1_4_5374">
<rect width="30" height="30" fill="white" transform="translate(412 52) rotate(-15)"/>
</clipPath>
<clipPath id="clip2_4_5374">
<rect width="30.6198" height="30" fill="white" transform="translate(554 459.666) rotate(-27.3447)"/>
</clipPath>
<clipPath id="clip3_4_5374">
<rect width="446.614" height="474.051" fill="white" transform="translate(96 35)"/>
</clipPath>
</defs>
</svg>
