<svg width="16" height="16" viewBox="0 0 16 16" fill="none" xmlns="http://www.w3.org/2000/svg">
<path d="M0 8C0 3.58172 3.58172 0 8 0C12.4183 0 16 3.58172 16 8C16 12.4183 12.4183 16 8 16C3.58172 16 0 12.4183 0 8Z" fill="white"/>
<path d="M13.6562 2.53125H10.3894C9.44008 5.83327 2.375 9.8384 2.375 13.4808H5.68889C6.32086 9.79644 12.9182 7.30384 13.6562 2.53125Z" fill="#485C8D"/>
<path d="M10.3894 2.53125H13.6562C13.3699 4.38322 12.1844 5.91031 10.8244 7.2785L8.6521 5.21568C9.46641 4.30367 10.1483 3.37 10.3894 2.53125Z" fill="#E1A551"/>
<path fill-rule="evenodd" clip-rule="evenodd" d="M10.3894 13.4808H13.6562C13.2618 10.932 11.1936 9.0324 9.25702 7.25361C7.57016 5.70419 5.98309 4.24646 5.6889 2.53125H2.375C2.375 4.31101 4.06183 6.17738 5.89777 8.00602C4.0618 9.83466 2.375 11.701 2.375 13.4808H5.68887C5.90271 12.2343 6.79935 11.1241 7.92093 10.016C9.09445 11.222 10.0757 12.3898 10.3894 13.4808Z" fill="url(#paint0_linear_406_2195)"/>
<path d="M5.68885 2.53125H2.37495C2.37495 4.31428 4.05876 6.17417 5.89862 8.00602L7.92334 5.99845C6.80063 4.88907 5.90282 3.77869 5.68885 2.53125Z" fill="#485C8D"/>
<defs>
<linearGradient id="paint0_linear_406_2195" x1="8.01562" y1="2.53125" x2="8.01562" y2="13.4808" gradientUnits="userSpaceOnUse">
<stop stop-color="#ADD5E0"/>
<stop offset="1" stop-color="#4893AA"/>
</linearGradient>
</defs>
</svg>
